G04 #@! TF.FileFunction,Legend,Top*
%FSLAX46Y46*%
G04 Gerber Fmt 4.6, Leading zero omitted, Abs format (unit mm)*
G04 Created by KiCad (PCBNEW 4.0.7-e2-6376~58~ubuntu14.04.1) date Sun Mar  4 07:56:53 2018*
%MOMM*%
%LPD*%
G01*
G04 APERTURE LIST*
%ADD10C,0.100000*%
%ADD11C,0.150000*%
%ADD12C,0.120000*%
%ADD13C,0.125000*%
G04 APERTURE END LIST*
D10*
D11*
X265130176Y-88194000D02*
G75*
G03X265130176Y-88194000I-2184176J0D01*
G01*
X203446000Y-61694000D02*
G75*
G03X201446000Y-63694000I0J-2000000D01*
G01*
X201446000Y-89694000D02*
G75*
G03X203446000Y-91694000I2000000J0D01*
G01*
X266446000Y-63694000D02*
G75*
G03X264446000Y-61694000I-2000000J0D01*
G01*
X264346000Y-91694000D02*
G75*
G03X266446000Y-89794000I100000J2000000D01*
G01*
X266446000Y-89694000D02*
X266446000Y-63694000D01*
X201446000Y-89694000D02*
X201446000Y-63694000D01*
X264446000Y-61694000D02*
X203446000Y-61694000D01*
X264446000Y-91694000D02*
X203446000Y-91694000D01*
D12*
X237245000Y-61433000D02*
X237245000Y-60233000D01*
X239005000Y-60233000D02*
X239005000Y-61433000D01*
X55280000Y-60080000D02*
X56480000Y-60080000D01*
X56480000Y-61840000D02*
X55280000Y-61840000D01*
D11*
X236024500Y-83545500D02*
X236049500Y-83545500D01*
X236024500Y-79395500D02*
X236139500Y-79395500D01*
X244924500Y-79395500D02*
X244809500Y-79395500D01*
X244924500Y-83545500D02*
X244809500Y-83545500D01*
X236024500Y-83545500D02*
X236024500Y-79395500D01*
X244924500Y-83545500D02*
X244924500Y-79395500D01*
X236049500Y-83545500D02*
X236049500Y-84920500D01*
D12*
X235994500Y-55426500D02*
X234794500Y-55426500D01*
X234794500Y-53666500D02*
X235994500Y-53666500D01*
X248230500Y-57115000D02*
X248230500Y-55915000D01*
X249990500Y-55915000D02*
X249990500Y-57115000D01*
X237227000Y-64043000D02*
X237227000Y-65243000D01*
X235467000Y-65243000D02*
X235467000Y-64043000D01*
X232609500Y-65687500D02*
X232609500Y-64487500D01*
X234369500Y-64487500D02*
X234369500Y-65687500D01*
X230305500Y-65313000D02*
X230305500Y-66513000D01*
X228545500Y-66513000D02*
X228545500Y-65313000D01*
X240166000Y-57242000D02*
X240166000Y-56042000D01*
X241926000Y-56042000D02*
X241926000Y-57242000D01*
X234921500Y-56143000D02*
X236121500Y-56143000D01*
X236121500Y-57903000D02*
X234921500Y-57903000D01*
X217014500Y-56143000D02*
X218214500Y-56143000D01*
X218214500Y-57903000D02*
X217014500Y-57903000D01*
X197393000Y-60397500D02*
X198593000Y-60397500D01*
X198593000Y-62157500D02*
X197393000Y-62157500D01*
X207336500Y-57242000D02*
X207336500Y-56042000D01*
X209096500Y-56042000D02*
X209096500Y-57242000D01*
X191360500Y-66112500D02*
X192560500Y-66112500D01*
X192560500Y-67872500D02*
X191360500Y-67872500D01*
X193132000Y-71555500D02*
X191932000Y-71555500D01*
X191932000Y-69795500D02*
X193132000Y-69795500D01*
X189475000Y-71853500D02*
X189475000Y-73053500D01*
X187715000Y-73053500D02*
X187715000Y-71853500D01*
X197875000Y-57750000D02*
X197875000Y-56550000D01*
X199635000Y-56550000D02*
X199635000Y-57750000D01*
X196714000Y-56613500D02*
X196714000Y-57813500D01*
X194954000Y-57813500D02*
X194954000Y-56613500D01*
X174152000Y-55889000D02*
X175352000Y-55889000D01*
X175352000Y-57649000D02*
X174152000Y-57649000D01*
X154403500Y-60270500D02*
X155603500Y-60270500D01*
X155603500Y-62030500D02*
X154403500Y-62030500D01*
X164093000Y-57115000D02*
X164093000Y-55915000D01*
X165853000Y-55915000D02*
X165853000Y-57115000D01*
X148498000Y-63191500D02*
X149698000Y-63191500D01*
X149698000Y-64951500D02*
X148498000Y-64951500D01*
X145106500Y-65306500D02*
X145106500Y-64106500D01*
X146866500Y-64106500D02*
X146866500Y-65306500D01*
X147628500Y-72107500D02*
X147628500Y-73307500D01*
X145868500Y-73307500D02*
X145868500Y-72107500D01*
X154504500Y-57559500D02*
X154504500Y-56359500D01*
X156264500Y-56359500D02*
X156264500Y-57559500D01*
X153470500Y-56486500D02*
X153470500Y-57686500D01*
X151710500Y-57686500D02*
X151710500Y-56486500D01*
X136623500Y-56206500D02*
X137823500Y-56206500D01*
X137823500Y-57966500D02*
X136623500Y-57966500D01*
X114081000Y-61159500D02*
X115281000Y-61159500D01*
X115281000Y-62919500D02*
X114081000Y-62919500D01*
X126120000Y-57178500D02*
X126120000Y-55978500D01*
X127880000Y-55978500D02*
X127880000Y-57178500D01*
X109382000Y-67700000D02*
X110582000Y-67700000D01*
X110582000Y-69460000D02*
X109382000Y-69460000D01*
X111090000Y-66920000D02*
X109890000Y-66920000D01*
X109890000Y-65160000D02*
X111090000Y-65160000D01*
X107750500Y-72679000D02*
X107750500Y-73879000D01*
X105990500Y-73879000D02*
X105990500Y-72679000D01*
X116849000Y-57051500D02*
X116849000Y-55851500D01*
X118609000Y-55851500D02*
X118609000Y-57051500D01*
X113021000Y-57439000D02*
X113021000Y-58639000D01*
X111261000Y-58639000D02*
X111261000Y-57439000D01*
X91856000Y-56524000D02*
X93056000Y-56524000D01*
X93056000Y-58284000D02*
X91856000Y-58284000D01*
X71663000Y-60016500D02*
X72863000Y-60016500D01*
X72863000Y-61776500D02*
X71663000Y-61776500D01*
X84337000Y-57623000D02*
X84337000Y-56423000D01*
X86097000Y-56423000D02*
X86097000Y-57623000D01*
X68761500Y-66138500D02*
X68761500Y-67338500D01*
X67001500Y-67338500D02*
X67001500Y-66138500D01*
X64144000Y-67338500D02*
X64144000Y-66138500D01*
X65904000Y-66138500D02*
X65904000Y-67338500D01*
X68488000Y-68716000D02*
X69688000Y-68716000D01*
X69688000Y-70476000D02*
X68488000Y-70476000D01*
X76018500Y-57242000D02*
X76018500Y-56042000D01*
X77778500Y-56042000D02*
X77778500Y-57242000D01*
X71853500Y-56016000D02*
X73053500Y-56016000D01*
X73053500Y-57776000D02*
X71853500Y-57776000D01*
X36160000Y-78350000D02*
X34960000Y-78350000D01*
X34960000Y-76590000D02*
X36160000Y-76590000D01*
X38490000Y-56480000D02*
X38490000Y-55280000D01*
X40250000Y-55280000D02*
X40250000Y-56480000D01*
X42155000Y-84490000D02*
X42155000Y-85690000D01*
X40395000Y-85690000D02*
X40395000Y-84490000D01*
X37855000Y-85690000D02*
X37855000Y-84490000D01*
X39615000Y-84490000D02*
X39615000Y-85690000D01*
X37075000Y-84490000D02*
X37075000Y-85690000D01*
X35315000Y-85690000D02*
X35315000Y-84490000D01*
X29346000Y-64100000D02*
X29346000Y-62900000D01*
X31106000Y-62900000D02*
X31106000Y-64100000D01*
X29346000Y-68418000D02*
X29346000Y-67218000D01*
X31106000Y-67218000D02*
X31106000Y-68418000D01*
X253490000Y-58095000D02*
X253490000Y-57165000D01*
X253490000Y-54935000D02*
X253490000Y-55865000D01*
X253490000Y-54935000D02*
X251330000Y-54935000D01*
X253490000Y-58095000D02*
X252030000Y-58095000D01*
X235577500Y-59501500D02*
X234647500Y-59501500D01*
X232417500Y-59501500D02*
X233347500Y-59501500D01*
X232417500Y-59501500D02*
X232417500Y-61661500D01*
X235577500Y-59501500D02*
X235577500Y-60961500D01*
X245235000Y-58095000D02*
X245235000Y-57165000D01*
X245235000Y-54935000D02*
X245235000Y-55865000D01*
X245235000Y-54935000D02*
X243075000Y-54935000D01*
X245235000Y-58095000D02*
X243775000Y-58095000D01*
X231831000Y-59501500D02*
X230901000Y-59501500D01*
X228671000Y-59501500D02*
X229601000Y-59501500D01*
X228671000Y-59501500D02*
X228671000Y-61661500D01*
X231831000Y-59501500D02*
X231831000Y-60961500D01*
X213612000Y-58412500D02*
X213612000Y-57482500D01*
X213612000Y-55252500D02*
X213612000Y-56182500D01*
X213612000Y-55252500D02*
X211452000Y-55252500D01*
X213612000Y-58412500D02*
X212152000Y-58412500D01*
X193921500Y-61660500D02*
X192991500Y-61660500D01*
X190761500Y-61660500D02*
X191691500Y-61660500D01*
X190761500Y-61660500D02*
X190761500Y-63820500D01*
X193921500Y-61660500D02*
X193921500Y-63120500D01*
X203071000Y-58666500D02*
X203071000Y-57736500D01*
X203071000Y-55506500D02*
X203071000Y-56436500D01*
X203071000Y-55506500D02*
X200911000Y-55506500D01*
X203071000Y-58666500D02*
X201611000Y-58666500D01*
X189476500Y-61533500D02*
X188546500Y-61533500D01*
X186316500Y-61533500D02*
X187246500Y-61533500D01*
X186316500Y-61533500D02*
X186316500Y-63693500D01*
X189476500Y-61533500D02*
X189476500Y-62993500D01*
X169289000Y-58095000D02*
X169289000Y-57165000D01*
X169289000Y-54935000D02*
X169289000Y-55865000D01*
X169289000Y-54935000D02*
X167129000Y-54935000D01*
X169289000Y-58095000D02*
X167829000Y-58095000D01*
X150678000Y-60073000D02*
X149748000Y-60073000D01*
X147518000Y-60073000D02*
X148448000Y-60073000D01*
X147518000Y-60073000D02*
X147518000Y-62233000D01*
X150678000Y-60073000D02*
X150678000Y-61533000D01*
X159764000Y-58539500D02*
X159764000Y-57609500D01*
X159764000Y-55379500D02*
X159764000Y-56309500D01*
X159764000Y-55379500D02*
X157604000Y-55379500D01*
X159764000Y-58539500D02*
X158304000Y-58539500D01*
X146931500Y-60009500D02*
X146001500Y-60009500D01*
X143771500Y-60009500D02*
X144701500Y-60009500D01*
X143771500Y-60009500D02*
X143771500Y-62169500D01*
X146931500Y-60009500D02*
X146931500Y-61469500D01*
X132205000Y-58603000D02*
X132205000Y-57673000D01*
X132205000Y-55443000D02*
X132205000Y-56373000D01*
X132205000Y-55443000D02*
X130045000Y-55443000D01*
X132205000Y-58603000D02*
X130745000Y-58603000D01*
X112070000Y-61978000D02*
X111140000Y-61978000D01*
X108910000Y-61978000D02*
X109840000Y-61978000D01*
X108910000Y-61978000D02*
X108910000Y-64138000D01*
X112070000Y-61978000D02*
X112070000Y-63438000D01*
X122680000Y-58158500D02*
X122680000Y-57228500D01*
X122680000Y-54998500D02*
X122680000Y-55928500D01*
X122680000Y-54998500D02*
X120520000Y-54998500D01*
X122680000Y-58158500D02*
X121220000Y-58158500D01*
X108006000Y-61978000D02*
X107076000Y-61978000D01*
X104846000Y-61978000D02*
X105776000Y-61978000D01*
X104846000Y-61978000D02*
X104846000Y-64138000D01*
X108006000Y-61978000D02*
X108006000Y-63438000D01*
X89279000Y-58666500D02*
X89279000Y-57736500D01*
X89279000Y-55506500D02*
X89279000Y-56436500D01*
X89279000Y-55506500D02*
X87119000Y-55506500D01*
X89279000Y-58666500D02*
X87819000Y-58666500D01*
X68953500Y-62232000D02*
X68023500Y-62232000D01*
X65793500Y-62232000D02*
X66723500Y-62232000D01*
X65793500Y-62232000D02*
X65793500Y-64392000D01*
X68953500Y-62232000D02*
X68953500Y-63692000D01*
X80960500Y-58285500D02*
X80960500Y-57355500D01*
X80960500Y-55125500D02*
X80960500Y-56055500D01*
X80960500Y-55125500D02*
X78800500Y-55125500D01*
X80960500Y-58285500D02*
X79500500Y-58285500D01*
X65524500Y-62232000D02*
X64594500Y-62232000D01*
X62364500Y-62232000D02*
X63294500Y-62232000D01*
X62364500Y-62232000D02*
X62364500Y-64392000D01*
X65524500Y-62232000D02*
X65524500Y-63692000D01*
X44575000Y-57460000D02*
X44575000Y-56530000D01*
X44575000Y-54300000D02*
X44575000Y-55230000D01*
X44575000Y-54300000D02*
X42415000Y-54300000D01*
X44575000Y-57460000D02*
X43115000Y-57460000D01*
X43490000Y-80520000D02*
X42560000Y-80520000D01*
X40330000Y-80520000D02*
X41260000Y-80520000D01*
X40330000Y-80520000D02*
X40330000Y-82680000D01*
X43490000Y-80520000D02*
X43490000Y-81980000D01*
X36320000Y-57460000D02*
X36320000Y-56530000D01*
X36320000Y-54300000D02*
X36320000Y-55230000D01*
X36320000Y-54300000D02*
X34160000Y-54300000D01*
X36320000Y-57460000D02*
X34860000Y-57460000D01*
X39045000Y-80520000D02*
X38115000Y-80520000D01*
X35885000Y-80520000D02*
X36815000Y-80520000D01*
X35885000Y-80520000D02*
X35885000Y-82680000D01*
X39045000Y-80520000D02*
X39045000Y-81980000D01*
X60110000Y-72525000D02*
X60110000Y-73525000D01*
X61810000Y-73525000D02*
X61810000Y-72525000D01*
X101258000Y-72779000D02*
X101258000Y-73779000D01*
X102958000Y-73779000D02*
X102958000Y-72779000D01*
X141898000Y-72271000D02*
X141898000Y-73271000D01*
X143598000Y-73271000D02*
X143598000Y-72271000D01*
X182601500Y-71890000D02*
X182601500Y-72890000D01*
X184301500Y-72890000D02*
X184301500Y-71890000D01*
X224257500Y-65603500D02*
X224257500Y-66603500D01*
X225957500Y-66603500D02*
X225957500Y-65603500D01*
X249213000Y-82113500D02*
X249213000Y-83113500D01*
X250913000Y-83113500D02*
X250913000Y-82113500D01*
X62650000Y-72525000D02*
X62650000Y-73525000D01*
X64350000Y-73525000D02*
X64350000Y-72525000D01*
X103798000Y-72906000D02*
X103798000Y-73906000D01*
X105498000Y-73906000D02*
X105498000Y-72906000D01*
X143993500Y-72207500D02*
X143993500Y-73207500D01*
X145693500Y-73207500D02*
X145693500Y-72207500D01*
X185268500Y-71890000D02*
X185268500Y-72890000D01*
X186968500Y-72890000D02*
X186968500Y-71890000D01*
X226416500Y-65476500D02*
X226416500Y-66476500D01*
X228116500Y-66476500D02*
X228116500Y-65476500D01*
X247244500Y-81986500D02*
X247244500Y-82986500D01*
X248944500Y-82986500D02*
X248944500Y-81986500D01*
D11*
X58990000Y-75975000D02*
X58990000Y-76225000D01*
X66740000Y-75975000D02*
X66740000Y-76310000D01*
X66740000Y-89125000D02*
X66740000Y-88790000D01*
X58990000Y-89125000D02*
X58990000Y-88790000D01*
X58990000Y-75975000D02*
X66740000Y-75975000D01*
X58990000Y-89125000D02*
X66740000Y-89125000D01*
X58990000Y-76225000D02*
X57190000Y-76225000D01*
X140905000Y-75009800D02*
X140905000Y-75259800D01*
X148655000Y-75009800D02*
X148655000Y-75344800D01*
X148655000Y-88159800D02*
X148655000Y-87824800D01*
X140905000Y-88159800D02*
X140905000Y-87824800D01*
X140905000Y-75009800D02*
X148655000Y-75009800D01*
X140905000Y-88159800D02*
X148655000Y-88159800D01*
X140905000Y-75259800D02*
X139105000Y-75259800D01*
X101535000Y-76610000D02*
X101535000Y-76860000D01*
X109285000Y-76610000D02*
X109285000Y-76945000D01*
X109285000Y-89760000D02*
X109285000Y-89425000D01*
X101535000Y-89760000D02*
X101535000Y-89425000D01*
X101535000Y-76610000D02*
X109285000Y-76610000D01*
X101535000Y-89760000D02*
X109285000Y-89760000D01*
X101535000Y-76860000D02*
X99735000Y-76860000D01*
X223518500Y-68037500D02*
X223518500Y-68287500D01*
X231268500Y-68037500D02*
X231268500Y-68372500D01*
X231268500Y-81187500D02*
X231268500Y-80852500D01*
X223518500Y-81187500D02*
X223518500Y-80852500D01*
X223518500Y-68037500D02*
X231268500Y-68037500D01*
X223518500Y-81187500D02*
X231268500Y-81187500D01*
X223518500Y-68287500D02*
X221718500Y-68287500D01*
X183348400Y-75035200D02*
X183348400Y-75285200D01*
X191098400Y-75035200D02*
X191098400Y-75370200D01*
X191098400Y-88185200D02*
X191098400Y-87850200D01*
X183348400Y-88185200D02*
X183348400Y-87850200D01*
X183348400Y-75035200D02*
X191098400Y-75035200D01*
X183348400Y-88185200D02*
X191098400Y-88185200D01*
X183348400Y-75285200D02*
X181548400Y-75285200D01*
D12*
X256134500Y-81796000D02*
X256134500Y-82796000D01*
X257834500Y-82796000D02*
X257834500Y-81796000D01*
X59475000Y-67254500D02*
X59475000Y-68254500D01*
X61175000Y-68254500D02*
X61175000Y-67254500D01*
X51470000Y-57032000D02*
X52670000Y-57032000D01*
X52670000Y-58792000D02*
X51470000Y-58792000D01*
X53190719Y-59753500D02*
G75*
G03X53190719Y-59753500I-803219J0D01*
G01*
X56429219Y-79502000D02*
G75*
G03X56429219Y-79502000I-803219J0D01*
G01*
X56429219Y-65786000D02*
G75*
G03X56429219Y-65786000I-803219J0D01*
G01*
X198542219Y-84772500D02*
G75*
G03X198542219Y-84772500I-803219J0D01*
G01*
X196764219Y-86296500D02*
G75*
G03X196764219Y-86296500I-803219J0D01*
G01*
X179746219Y-83248500D02*
G75*
G03X179746219Y-83248500I-803219J0D01*
G01*
X52873219Y-76200000D02*
G75*
G03X52873219Y-76200000I-803219J0D01*
G01*
X61810000Y-63365000D02*
X61810000Y-62365000D01*
X60110000Y-62365000D02*
X60110000Y-63365000D01*
X97624000Y-59491500D02*
X97624000Y-58491500D01*
X95924000Y-58491500D02*
X95924000Y-59491500D01*
X141566000Y-57586500D02*
X141566000Y-56586500D01*
X139866000Y-56586500D02*
X139866000Y-57586500D01*
X182968000Y-57967500D02*
X182968000Y-56967500D01*
X181268000Y-56967500D02*
X181268000Y-57967500D01*
X227037000Y-56634000D02*
X227037000Y-55634000D01*
X225337000Y-55634000D02*
X225337000Y-56634000D01*
X230339000Y-56761000D02*
X230339000Y-55761000D01*
X228639000Y-55761000D02*
X228639000Y-56761000D01*
X136693219Y-86614000D02*
G75*
G03X136693219Y-86614000I-803219J0D01*
G01*
X187556719Y-56515000D02*
G75*
G03X187556719Y-56515000I-803219J0D01*
G01*
X174920219Y-88963500D02*
G75*
G03X174920219Y-88963500I-803219J0D01*
G01*
X192700219Y-73723500D02*
G75*
G03X192700219Y-73723500I-803219J0D01*
G01*
D11*
X46680000Y-53380000D02*
X46680000Y-57380000D01*
X46680000Y-57380000D02*
X60580000Y-57380000D01*
X60580000Y-57380000D02*
X60580000Y-53180000D01*
X60580000Y-53180000D02*
X46680000Y-53180000D01*
X46680000Y-53180000D02*
X46680000Y-53480000D01*
X34220312Y-60280000D02*
G75*
G03X34220312Y-60280000I-640312J0D01*
G01*
X34320312Y-66580000D02*
G75*
G03X34320312Y-66580000I-640312J0D01*
G01*
X30120312Y-66480000D02*
G75*
G03X30120312Y-66480000I-640312J0D01*
G01*
X30020312Y-60380000D02*
G75*
G03X30020312Y-60380000I-640312J0D01*
G01*
D12*
X28200000Y-59180000D02*
X28200000Y-67880000D01*
X34610000Y-59180000D02*
X34610000Y-67880000D01*
X34610000Y-67880000D02*
X28200000Y-67880000D01*
X28200000Y-59180000D02*
X34610000Y-59180000D01*
X266125000Y-61401000D02*
X266125000Y-58741000D01*
X255905000Y-61401000D02*
X266125000Y-61401000D01*
X255905000Y-58741000D02*
X266125000Y-58741000D01*
X255905000Y-61401000D02*
X255905000Y-58741000D01*
X254635000Y-61401000D02*
X253305000Y-61401000D01*
X253305000Y-61401000D02*
X253305000Y-60071000D01*
D11*
X229785714Y-85402381D02*
X229785714Y-84402381D01*
X230166667Y-84402381D01*
X230261905Y-84450000D01*
X230309524Y-84497619D01*
X230357143Y-84592857D01*
X230357143Y-84735714D01*
X230309524Y-84830952D01*
X230261905Y-84878571D01*
X230166667Y-84926190D01*
X229785714Y-84926190D01*
X231309524Y-85402381D02*
X230738095Y-85402381D01*
X231023809Y-85402381D02*
X231023809Y-84402381D01*
X230928571Y-84545238D01*
X230833333Y-84640476D01*
X230738095Y-84688095D01*
X232214286Y-84402381D02*
X231738095Y-84402381D01*
X231690476Y-84878571D01*
X231738095Y-84830952D01*
X231833333Y-84783333D01*
X232071429Y-84783333D01*
X232166667Y-84830952D01*
X232214286Y-84878571D01*
X232261905Y-84973810D01*
X232261905Y-85211905D01*
X232214286Y-85307143D01*
X232166667Y-85354762D01*
X232071429Y-85402381D01*
X231833333Y-85402381D01*
X231738095Y-85354762D01*
X231690476Y-85307143D01*
X240227381Y-61475857D02*
X239751190Y-61809191D01*
X240227381Y-62047286D02*
X239227381Y-62047286D01*
X239227381Y-61666333D01*
X239275000Y-61571095D01*
X239322619Y-61523476D01*
X239417857Y-61475857D01*
X239560714Y-61475857D01*
X239655952Y-61523476D01*
X239703571Y-61571095D01*
X239751190Y-61666333D01*
X239751190Y-62047286D01*
X239227381Y-60618714D02*
X239227381Y-60809191D01*
X239275000Y-60904429D01*
X239322619Y-60952048D01*
X239465476Y-61047286D01*
X239655952Y-61094905D01*
X240036905Y-61094905D01*
X240132143Y-61047286D01*
X240179762Y-60999667D01*
X240227381Y-60904429D01*
X240227381Y-60713952D01*
X240179762Y-60618714D01*
X240132143Y-60571095D01*
X240036905Y-60523476D01*
X239798810Y-60523476D01*
X239703571Y-60571095D01*
X239655952Y-60618714D01*
X239608333Y-60713952D01*
X239608333Y-60904429D01*
X239655952Y-60999667D01*
X239703571Y-61047286D01*
X239798810Y-61094905D01*
X239227381Y-60190143D02*
X239227381Y-59571095D01*
X239608333Y-59904429D01*
X239608333Y-59761571D01*
X239655952Y-59666333D01*
X239703571Y-59618714D01*
X239798810Y-59571095D01*
X240036905Y-59571095D01*
X240132143Y-59618714D01*
X240179762Y-59666333D01*
X240227381Y-59761571D01*
X240227381Y-60047286D01*
X240179762Y-60142524D01*
X240132143Y-60190143D01*
X54102381Y-62892857D02*
X53626190Y-63226191D01*
X54102381Y-63464286D02*
X53102381Y-63464286D01*
X53102381Y-63083333D01*
X53150000Y-62988095D01*
X53197619Y-62940476D01*
X53292857Y-62892857D01*
X53435714Y-62892857D01*
X53530952Y-62940476D01*
X53578571Y-62988095D01*
X53626190Y-63083333D01*
X53626190Y-63464286D01*
X53197619Y-62511905D02*
X53150000Y-62464286D01*
X53102381Y-62369048D01*
X53102381Y-62130952D01*
X53150000Y-62035714D01*
X53197619Y-61988095D01*
X53292857Y-61940476D01*
X53388095Y-61940476D01*
X53530952Y-61988095D01*
X54102381Y-62559524D01*
X54102381Y-61940476D01*
X53435714Y-61083333D02*
X54102381Y-61083333D01*
X53054762Y-61321429D02*
X53769048Y-61559524D01*
X53769048Y-60940476D01*
X234551881Y-82232405D02*
X235361405Y-82232405D01*
X235456643Y-82184786D01*
X235504262Y-82137167D01*
X235551881Y-82041929D01*
X235551881Y-81851452D01*
X235504262Y-81756214D01*
X235456643Y-81708595D01*
X235361405Y-81660976D01*
X234551881Y-81660976D01*
X234551881Y-80756214D02*
X234551881Y-80946691D01*
X234599500Y-81041929D01*
X234647119Y-81089548D01*
X234789976Y-81184786D01*
X234980452Y-81232405D01*
X235361405Y-81232405D01*
X235456643Y-81184786D01*
X235504262Y-81137167D01*
X235551881Y-81041929D01*
X235551881Y-80851452D01*
X235504262Y-80756214D01*
X235456643Y-80708595D01*
X235361405Y-80660976D01*
X235123310Y-80660976D01*
X235028071Y-80708595D01*
X234980452Y-80756214D01*
X234932833Y-80851452D01*
X234932833Y-81041929D01*
X234980452Y-81137167D01*
X235028071Y-81184786D01*
X235123310Y-81232405D01*
X238007143Y-54752381D02*
X237673809Y-54276190D01*
X237435714Y-54752381D02*
X237435714Y-53752381D01*
X237816667Y-53752381D01*
X237911905Y-53800000D01*
X237959524Y-53847619D01*
X238007143Y-53942857D01*
X238007143Y-54085714D01*
X237959524Y-54180952D01*
X237911905Y-54228571D01*
X237816667Y-54276190D01*
X237435714Y-54276190D01*
X238864286Y-53752381D02*
X238673809Y-53752381D01*
X238578571Y-53800000D01*
X238530952Y-53847619D01*
X238435714Y-53990476D01*
X238388095Y-54180952D01*
X238388095Y-54561905D01*
X238435714Y-54657143D01*
X238483333Y-54704762D01*
X238578571Y-54752381D01*
X238769048Y-54752381D01*
X238864286Y-54704762D01*
X238911905Y-54657143D01*
X238959524Y-54561905D01*
X238959524Y-54323810D01*
X238911905Y-54228571D01*
X238864286Y-54180952D01*
X238769048Y-54133333D01*
X238578571Y-54133333D01*
X238483333Y-54180952D01*
X238435714Y-54228571D01*
X238388095Y-54323810D01*
X239816667Y-54085714D02*
X239816667Y-54752381D01*
X239578571Y-53704762D02*
X239340476Y-54419048D01*
X239959524Y-54419048D01*
X248482143Y-54877381D02*
X248148809Y-54401190D01*
X247910714Y-54877381D02*
X247910714Y-53877381D01*
X248291667Y-53877381D01*
X248386905Y-53925000D01*
X248434524Y-53972619D01*
X248482143Y-54067857D01*
X248482143Y-54210714D01*
X248434524Y-54305952D01*
X248386905Y-54353571D01*
X248291667Y-54401190D01*
X247910714Y-54401190D01*
X249339286Y-53877381D02*
X249148809Y-53877381D01*
X249053571Y-53925000D01*
X249005952Y-53972619D01*
X248910714Y-54115476D01*
X248863095Y-54305952D01*
X248863095Y-54686905D01*
X248910714Y-54782143D01*
X248958333Y-54829762D01*
X249053571Y-54877381D01*
X249244048Y-54877381D01*
X249339286Y-54829762D01*
X249386905Y-54782143D01*
X249434524Y-54686905D01*
X249434524Y-54448810D01*
X249386905Y-54353571D01*
X249339286Y-54305952D01*
X249244048Y-54258333D01*
X249053571Y-54258333D01*
X248958333Y-54305952D01*
X248910714Y-54353571D01*
X248863095Y-54448810D01*
X249815476Y-53972619D02*
X249863095Y-53925000D01*
X249958333Y-53877381D01*
X250196429Y-53877381D01*
X250291667Y-53925000D01*
X250339286Y-53972619D01*
X250386905Y-54067857D01*
X250386905Y-54163095D01*
X250339286Y-54305952D01*
X249767857Y-54877381D01*
X250386905Y-54877381D01*
X238452381Y-64617857D02*
X237976190Y-64951191D01*
X238452381Y-65189286D02*
X237452381Y-65189286D01*
X237452381Y-64808333D01*
X237500000Y-64713095D01*
X237547619Y-64665476D01*
X237642857Y-64617857D01*
X237785714Y-64617857D01*
X237880952Y-64665476D01*
X237928571Y-64713095D01*
X237976190Y-64808333D01*
X237976190Y-65189286D01*
X237452381Y-63760714D02*
X237452381Y-63951191D01*
X237500000Y-64046429D01*
X237547619Y-64094048D01*
X237690476Y-64189286D01*
X237880952Y-64236905D01*
X238261905Y-64236905D01*
X238357143Y-64189286D01*
X238404762Y-64141667D01*
X238452381Y-64046429D01*
X238452381Y-63855952D01*
X238404762Y-63760714D01*
X238357143Y-63713095D01*
X238261905Y-63665476D01*
X238023810Y-63665476D01*
X237928571Y-63713095D01*
X237880952Y-63760714D01*
X237833333Y-63855952D01*
X237833333Y-64046429D01*
X237880952Y-64141667D01*
X237928571Y-64189286D01*
X238023810Y-64236905D01*
X238452381Y-62713095D02*
X238452381Y-63284524D01*
X238452381Y-62998810D02*
X237452381Y-62998810D01*
X237595238Y-63094048D01*
X237690476Y-63189286D01*
X237738095Y-63284524D01*
X232382143Y-63552381D02*
X232048809Y-63076190D01*
X231810714Y-63552381D02*
X231810714Y-62552381D01*
X232191667Y-62552381D01*
X232286905Y-62600000D01*
X232334524Y-62647619D01*
X232382143Y-62742857D01*
X232382143Y-62885714D01*
X232334524Y-62980952D01*
X232286905Y-63028571D01*
X232191667Y-63076190D01*
X231810714Y-63076190D01*
X233239286Y-62552381D02*
X233048809Y-62552381D01*
X232953571Y-62600000D01*
X232905952Y-62647619D01*
X232810714Y-62790476D01*
X232763095Y-62980952D01*
X232763095Y-63361905D01*
X232810714Y-63457143D01*
X232858333Y-63504762D01*
X232953571Y-63552381D01*
X233144048Y-63552381D01*
X233239286Y-63504762D01*
X233286905Y-63457143D01*
X233334524Y-63361905D01*
X233334524Y-63123810D01*
X233286905Y-63028571D01*
X233239286Y-62980952D01*
X233144048Y-62933333D01*
X232953571Y-62933333D01*
X232858333Y-62980952D01*
X232810714Y-63028571D01*
X232763095Y-63123810D01*
X233953571Y-62552381D02*
X234048810Y-62552381D01*
X234144048Y-62600000D01*
X234191667Y-62647619D01*
X234239286Y-62742857D01*
X234286905Y-62933333D01*
X234286905Y-63171429D01*
X234239286Y-63361905D01*
X234191667Y-63457143D01*
X234144048Y-63504762D01*
X234048810Y-63552381D01*
X233953571Y-63552381D01*
X233858333Y-63504762D01*
X233810714Y-63457143D01*
X233763095Y-63361905D01*
X233715476Y-63171429D01*
X233715476Y-62933333D01*
X233763095Y-62742857D01*
X233810714Y-62647619D01*
X233858333Y-62600000D01*
X233953571Y-62552381D01*
X231802381Y-65917857D02*
X231326190Y-66251191D01*
X231802381Y-66489286D02*
X230802381Y-66489286D01*
X230802381Y-66108333D01*
X230850000Y-66013095D01*
X230897619Y-65965476D01*
X230992857Y-65917857D01*
X231135714Y-65917857D01*
X231230952Y-65965476D01*
X231278571Y-66013095D01*
X231326190Y-66108333D01*
X231326190Y-66489286D01*
X230802381Y-65013095D02*
X230802381Y-65489286D01*
X231278571Y-65536905D01*
X231230952Y-65489286D01*
X231183333Y-65394048D01*
X231183333Y-65155952D01*
X231230952Y-65060714D01*
X231278571Y-65013095D01*
X231373810Y-64965476D01*
X231611905Y-64965476D01*
X231707143Y-65013095D01*
X231754762Y-65060714D01*
X231802381Y-65155952D01*
X231802381Y-65394048D01*
X231754762Y-65489286D01*
X231707143Y-65536905D01*
X231802381Y-64489286D02*
X231802381Y-64298810D01*
X231754762Y-64203571D01*
X231707143Y-64155952D01*
X231564286Y-64060714D01*
X231373810Y-64013095D01*
X230992857Y-64013095D01*
X230897619Y-64060714D01*
X230850000Y-64108333D01*
X230802381Y-64203571D01*
X230802381Y-64394048D01*
X230850000Y-64489286D01*
X230897619Y-64536905D01*
X230992857Y-64584524D01*
X231230952Y-64584524D01*
X231326190Y-64536905D01*
X231373810Y-64489286D01*
X231421429Y-64394048D01*
X231421429Y-64203571D01*
X231373810Y-64108333D01*
X231326190Y-64060714D01*
X231230952Y-64013095D01*
X240607143Y-59227381D02*
X240273809Y-58751190D01*
X240035714Y-59227381D02*
X240035714Y-58227381D01*
X240416667Y-58227381D01*
X240511905Y-58275000D01*
X240559524Y-58322619D01*
X240607143Y-58417857D01*
X240607143Y-58560714D01*
X240559524Y-58655952D01*
X240511905Y-58703571D01*
X240416667Y-58751190D01*
X240035714Y-58751190D01*
X241511905Y-58227381D02*
X241035714Y-58227381D01*
X240988095Y-58703571D01*
X241035714Y-58655952D01*
X241130952Y-58608333D01*
X241369048Y-58608333D01*
X241464286Y-58655952D01*
X241511905Y-58703571D01*
X241559524Y-58798810D01*
X241559524Y-59036905D01*
X241511905Y-59132143D01*
X241464286Y-59179762D01*
X241369048Y-59227381D01*
X241130952Y-59227381D01*
X241035714Y-59179762D01*
X240988095Y-59132143D01*
X242130952Y-58655952D02*
X242035714Y-58608333D01*
X241988095Y-58560714D01*
X241940476Y-58465476D01*
X241940476Y-58417857D01*
X241988095Y-58322619D01*
X242035714Y-58275000D01*
X242130952Y-58227381D01*
X242321429Y-58227381D01*
X242416667Y-58275000D01*
X242464286Y-58322619D01*
X242511905Y-58417857D01*
X242511905Y-58465476D01*
X242464286Y-58560714D01*
X242416667Y-58608333D01*
X242321429Y-58655952D01*
X242130952Y-58655952D01*
X242035714Y-58703571D01*
X241988095Y-58751190D01*
X241940476Y-58846429D01*
X241940476Y-59036905D01*
X241988095Y-59132143D01*
X242035714Y-59179762D01*
X242130952Y-59227381D01*
X242321429Y-59227381D01*
X242416667Y-59179762D01*
X242464286Y-59132143D01*
X242511905Y-59036905D01*
X242511905Y-58846429D01*
X242464286Y-58751190D01*
X242416667Y-58703571D01*
X242321429Y-58655952D01*
X238552381Y-57692857D02*
X238076190Y-58026191D01*
X238552381Y-58264286D02*
X237552381Y-58264286D01*
X237552381Y-57883333D01*
X237600000Y-57788095D01*
X237647619Y-57740476D01*
X237742857Y-57692857D01*
X237885714Y-57692857D01*
X237980952Y-57740476D01*
X238028571Y-57788095D01*
X238076190Y-57883333D01*
X238076190Y-58264286D01*
X237552381Y-56788095D02*
X237552381Y-57264286D01*
X238028571Y-57311905D01*
X237980952Y-57264286D01*
X237933333Y-57169048D01*
X237933333Y-56930952D01*
X237980952Y-56835714D01*
X238028571Y-56788095D01*
X238123810Y-56740476D01*
X238361905Y-56740476D01*
X238457143Y-56788095D01*
X238504762Y-56835714D01*
X238552381Y-56930952D01*
X238552381Y-57169048D01*
X238504762Y-57264286D01*
X238457143Y-57311905D01*
X237552381Y-56407143D02*
X237552381Y-55740476D01*
X238552381Y-56169048D01*
X216971643Y-59125381D02*
X216638309Y-58649190D01*
X216400214Y-59125381D02*
X216400214Y-58125381D01*
X216781167Y-58125381D01*
X216876405Y-58173000D01*
X216924024Y-58220619D01*
X216971643Y-58315857D01*
X216971643Y-58458714D01*
X216924024Y-58553952D01*
X216876405Y-58601571D01*
X216781167Y-58649190D01*
X216400214Y-58649190D01*
X217876405Y-58125381D02*
X217400214Y-58125381D01*
X217352595Y-58601571D01*
X217400214Y-58553952D01*
X217495452Y-58506333D01*
X217733548Y-58506333D01*
X217828786Y-58553952D01*
X217876405Y-58601571D01*
X217924024Y-58696810D01*
X217924024Y-58934905D01*
X217876405Y-59030143D01*
X217828786Y-59077762D01*
X217733548Y-59125381D01*
X217495452Y-59125381D01*
X217400214Y-59077762D01*
X217352595Y-59030143D01*
X218781167Y-58125381D02*
X218590690Y-58125381D01*
X218495452Y-58173000D01*
X218447833Y-58220619D01*
X218352595Y-58363476D01*
X218304976Y-58553952D01*
X218304976Y-58934905D01*
X218352595Y-59030143D01*
X218400214Y-59077762D01*
X218495452Y-59125381D01*
X218685929Y-59125381D01*
X218781167Y-59077762D01*
X218828786Y-59030143D01*
X218876405Y-58934905D01*
X218876405Y-58696810D01*
X218828786Y-58601571D01*
X218781167Y-58553952D01*
X218685929Y-58506333D01*
X218495452Y-58506333D01*
X218400214Y-58553952D01*
X218352595Y-58601571D01*
X218304976Y-58696810D01*
X197350143Y-63379881D02*
X197016809Y-62903690D01*
X196778714Y-63379881D02*
X196778714Y-62379881D01*
X197159667Y-62379881D01*
X197254905Y-62427500D01*
X197302524Y-62475119D01*
X197350143Y-62570357D01*
X197350143Y-62713214D01*
X197302524Y-62808452D01*
X197254905Y-62856071D01*
X197159667Y-62903690D01*
X196778714Y-62903690D01*
X198254905Y-62379881D02*
X197778714Y-62379881D01*
X197731095Y-62856071D01*
X197778714Y-62808452D01*
X197873952Y-62760833D01*
X198112048Y-62760833D01*
X198207286Y-62808452D01*
X198254905Y-62856071D01*
X198302524Y-62951310D01*
X198302524Y-63189405D01*
X198254905Y-63284643D01*
X198207286Y-63332262D01*
X198112048Y-63379881D01*
X197873952Y-63379881D01*
X197778714Y-63332262D01*
X197731095Y-63284643D01*
X199207286Y-62379881D02*
X198731095Y-62379881D01*
X198683476Y-62856071D01*
X198731095Y-62808452D01*
X198826333Y-62760833D01*
X199064429Y-62760833D01*
X199159667Y-62808452D01*
X199207286Y-62856071D01*
X199254905Y-62951310D01*
X199254905Y-63189405D01*
X199207286Y-63284643D01*
X199159667Y-63332262D01*
X199064429Y-63379881D01*
X198826333Y-63379881D01*
X198731095Y-63332262D01*
X198683476Y-63284643D01*
X207657143Y-54977381D02*
X207323809Y-54501190D01*
X207085714Y-54977381D02*
X207085714Y-53977381D01*
X207466667Y-53977381D01*
X207561905Y-54025000D01*
X207609524Y-54072619D01*
X207657143Y-54167857D01*
X207657143Y-54310714D01*
X207609524Y-54405952D01*
X207561905Y-54453571D01*
X207466667Y-54501190D01*
X207085714Y-54501190D01*
X208561905Y-53977381D02*
X208085714Y-53977381D01*
X208038095Y-54453571D01*
X208085714Y-54405952D01*
X208180952Y-54358333D01*
X208419048Y-54358333D01*
X208514286Y-54405952D01*
X208561905Y-54453571D01*
X208609524Y-54548810D01*
X208609524Y-54786905D01*
X208561905Y-54882143D01*
X208514286Y-54929762D01*
X208419048Y-54977381D01*
X208180952Y-54977381D01*
X208085714Y-54929762D01*
X208038095Y-54882143D01*
X209466667Y-54310714D02*
X209466667Y-54977381D01*
X209228571Y-53929762D02*
X208990476Y-54644048D01*
X209609524Y-54644048D01*
X188407143Y-66902381D02*
X188073809Y-66426190D01*
X187835714Y-66902381D02*
X187835714Y-65902381D01*
X188216667Y-65902381D01*
X188311905Y-65950000D01*
X188359524Y-65997619D01*
X188407143Y-66092857D01*
X188407143Y-66235714D01*
X188359524Y-66330952D01*
X188311905Y-66378571D01*
X188216667Y-66426190D01*
X187835714Y-66426190D01*
X189311905Y-65902381D02*
X188835714Y-65902381D01*
X188788095Y-66378571D01*
X188835714Y-66330952D01*
X188930952Y-66283333D01*
X189169048Y-66283333D01*
X189264286Y-66330952D01*
X189311905Y-66378571D01*
X189359524Y-66473810D01*
X189359524Y-66711905D01*
X189311905Y-66807143D01*
X189264286Y-66854762D01*
X189169048Y-66902381D01*
X188930952Y-66902381D01*
X188835714Y-66854762D01*
X188788095Y-66807143D01*
X189692857Y-65902381D02*
X190311905Y-65902381D01*
X189978571Y-66283333D01*
X190121429Y-66283333D01*
X190216667Y-66330952D01*
X190264286Y-66378571D01*
X190311905Y-66473810D01*
X190311905Y-66711905D01*
X190264286Y-66807143D01*
X190216667Y-66854762D01*
X190121429Y-66902381D01*
X189835714Y-66902381D01*
X189740476Y-66854762D01*
X189692857Y-66807143D01*
X191889143Y-69477881D02*
X191555809Y-69001690D01*
X191317714Y-69477881D02*
X191317714Y-68477881D01*
X191698667Y-68477881D01*
X191793905Y-68525500D01*
X191841524Y-68573119D01*
X191889143Y-68668357D01*
X191889143Y-68811214D01*
X191841524Y-68906452D01*
X191793905Y-68954071D01*
X191698667Y-69001690D01*
X191317714Y-69001690D01*
X192793905Y-68477881D02*
X192317714Y-68477881D01*
X192270095Y-68954071D01*
X192317714Y-68906452D01*
X192412952Y-68858833D01*
X192651048Y-68858833D01*
X192746286Y-68906452D01*
X192793905Y-68954071D01*
X192841524Y-69049310D01*
X192841524Y-69287405D01*
X192793905Y-69382643D01*
X192746286Y-69430262D01*
X192651048Y-69477881D01*
X192412952Y-69477881D01*
X192317714Y-69430262D01*
X192270095Y-69382643D01*
X193222476Y-68573119D02*
X193270095Y-68525500D01*
X193365333Y-68477881D01*
X193603429Y-68477881D01*
X193698667Y-68525500D01*
X193746286Y-68573119D01*
X193793905Y-68668357D01*
X193793905Y-68763595D01*
X193746286Y-68906452D01*
X193174857Y-69477881D01*
X193793905Y-69477881D01*
X188032143Y-70627381D02*
X187698809Y-70151190D01*
X187460714Y-70627381D02*
X187460714Y-69627381D01*
X187841667Y-69627381D01*
X187936905Y-69675000D01*
X187984524Y-69722619D01*
X188032143Y-69817857D01*
X188032143Y-69960714D01*
X187984524Y-70055952D01*
X187936905Y-70103571D01*
X187841667Y-70151190D01*
X187460714Y-70151190D01*
X188936905Y-69627381D02*
X188460714Y-69627381D01*
X188413095Y-70103571D01*
X188460714Y-70055952D01*
X188555952Y-70008333D01*
X188794048Y-70008333D01*
X188889286Y-70055952D01*
X188936905Y-70103571D01*
X188984524Y-70198810D01*
X188984524Y-70436905D01*
X188936905Y-70532143D01*
X188889286Y-70579762D01*
X188794048Y-70627381D01*
X188555952Y-70627381D01*
X188460714Y-70579762D01*
X188413095Y-70532143D01*
X189936905Y-70627381D02*
X189365476Y-70627381D01*
X189651190Y-70627381D02*
X189651190Y-69627381D01*
X189555952Y-69770238D01*
X189460714Y-69865476D01*
X189365476Y-69913095D01*
X198157143Y-55277381D02*
X197823809Y-54801190D01*
X197585714Y-55277381D02*
X197585714Y-54277381D01*
X197966667Y-54277381D01*
X198061905Y-54325000D01*
X198109524Y-54372619D01*
X198157143Y-54467857D01*
X198157143Y-54610714D01*
X198109524Y-54705952D01*
X198061905Y-54753571D01*
X197966667Y-54801190D01*
X197585714Y-54801190D01*
X199061905Y-54277381D02*
X198585714Y-54277381D01*
X198538095Y-54753571D01*
X198585714Y-54705952D01*
X198680952Y-54658333D01*
X198919048Y-54658333D01*
X199014286Y-54705952D01*
X199061905Y-54753571D01*
X199109524Y-54848810D01*
X199109524Y-55086905D01*
X199061905Y-55182143D01*
X199014286Y-55229762D01*
X198919048Y-55277381D01*
X198680952Y-55277381D01*
X198585714Y-55229762D01*
X198538095Y-55182143D01*
X199728571Y-54277381D02*
X199823810Y-54277381D01*
X199919048Y-54325000D01*
X199966667Y-54372619D01*
X200014286Y-54467857D01*
X200061905Y-54658333D01*
X200061905Y-54896429D01*
X200014286Y-55086905D01*
X199966667Y-55182143D01*
X199919048Y-55229762D01*
X199823810Y-55277381D01*
X199728571Y-55277381D01*
X199633333Y-55229762D01*
X199585714Y-55182143D01*
X199538095Y-55086905D01*
X199490476Y-54896429D01*
X199490476Y-54658333D01*
X199538095Y-54467857D01*
X199585714Y-54372619D01*
X199633333Y-54325000D01*
X199728571Y-54277381D01*
X194636381Y-57856357D02*
X194160190Y-58189691D01*
X194636381Y-58427786D02*
X193636381Y-58427786D01*
X193636381Y-58046833D01*
X193684000Y-57951595D01*
X193731619Y-57903976D01*
X193826857Y-57856357D01*
X193969714Y-57856357D01*
X194064952Y-57903976D01*
X194112571Y-57951595D01*
X194160190Y-58046833D01*
X194160190Y-58427786D01*
X193969714Y-56999214D02*
X194636381Y-56999214D01*
X193588762Y-57237310D02*
X194303048Y-57475405D01*
X194303048Y-56856357D01*
X194636381Y-56427786D02*
X194636381Y-56237310D01*
X194588762Y-56142071D01*
X194541143Y-56094452D01*
X194398286Y-55999214D01*
X194207810Y-55951595D01*
X193826857Y-55951595D01*
X193731619Y-55999214D01*
X193684000Y-56046833D01*
X193636381Y-56142071D01*
X193636381Y-56332548D01*
X193684000Y-56427786D01*
X193731619Y-56475405D01*
X193826857Y-56523024D01*
X194064952Y-56523024D01*
X194160190Y-56475405D01*
X194207810Y-56427786D01*
X194255429Y-56332548D01*
X194255429Y-56142071D01*
X194207810Y-56046833D01*
X194160190Y-55999214D01*
X194064952Y-55951595D01*
X174109143Y-58871381D02*
X173775809Y-58395190D01*
X173537714Y-58871381D02*
X173537714Y-57871381D01*
X173918667Y-57871381D01*
X174013905Y-57919000D01*
X174061524Y-57966619D01*
X174109143Y-58061857D01*
X174109143Y-58204714D01*
X174061524Y-58299952D01*
X174013905Y-58347571D01*
X173918667Y-58395190D01*
X173537714Y-58395190D01*
X174966286Y-58204714D02*
X174966286Y-58871381D01*
X174728190Y-57823762D02*
X174490095Y-58538048D01*
X175109143Y-58538048D01*
X175632952Y-58299952D02*
X175537714Y-58252333D01*
X175490095Y-58204714D01*
X175442476Y-58109476D01*
X175442476Y-58061857D01*
X175490095Y-57966619D01*
X175537714Y-57919000D01*
X175632952Y-57871381D01*
X175823429Y-57871381D01*
X175918667Y-57919000D01*
X175966286Y-57966619D01*
X176013905Y-58061857D01*
X176013905Y-58109476D01*
X175966286Y-58204714D01*
X175918667Y-58252333D01*
X175823429Y-58299952D01*
X175632952Y-58299952D01*
X175537714Y-58347571D01*
X175490095Y-58395190D01*
X175442476Y-58490429D01*
X175442476Y-58680905D01*
X175490095Y-58776143D01*
X175537714Y-58823762D01*
X175632952Y-58871381D01*
X175823429Y-58871381D01*
X175918667Y-58823762D01*
X175966286Y-58776143D01*
X176013905Y-58680905D01*
X176013905Y-58490429D01*
X175966286Y-58395190D01*
X175918667Y-58347571D01*
X175823429Y-58299952D01*
X154360643Y-63252881D02*
X154027309Y-62776690D01*
X153789214Y-63252881D02*
X153789214Y-62252881D01*
X154170167Y-62252881D01*
X154265405Y-62300500D01*
X154313024Y-62348119D01*
X154360643Y-62443357D01*
X154360643Y-62586214D01*
X154313024Y-62681452D01*
X154265405Y-62729071D01*
X154170167Y-62776690D01*
X153789214Y-62776690D01*
X155217786Y-62586214D02*
X155217786Y-63252881D01*
X154979690Y-62205262D02*
X154741595Y-62919548D01*
X155360643Y-62919548D01*
X155646357Y-62252881D02*
X156313024Y-62252881D01*
X155884452Y-63252881D01*
X163627381Y-56392857D02*
X163151190Y-56726191D01*
X163627381Y-56964286D02*
X162627381Y-56964286D01*
X162627381Y-56583333D01*
X162675000Y-56488095D01*
X162722619Y-56440476D01*
X162817857Y-56392857D01*
X162960714Y-56392857D01*
X163055952Y-56440476D01*
X163103571Y-56488095D01*
X163151190Y-56583333D01*
X163151190Y-56964286D01*
X162960714Y-55535714D02*
X163627381Y-55535714D01*
X162579762Y-55773810D02*
X163294048Y-56011905D01*
X163294048Y-55392857D01*
X162627381Y-54583333D02*
X162627381Y-54773810D01*
X162675000Y-54869048D01*
X162722619Y-54916667D01*
X162865476Y-55011905D01*
X163055952Y-55059524D01*
X163436905Y-55059524D01*
X163532143Y-55011905D01*
X163579762Y-54964286D01*
X163627381Y-54869048D01*
X163627381Y-54678571D01*
X163579762Y-54583333D01*
X163532143Y-54535714D01*
X163436905Y-54488095D01*
X163198810Y-54488095D01*
X163103571Y-54535714D01*
X163055952Y-54583333D01*
X163008333Y-54678571D01*
X163008333Y-54869048D01*
X163055952Y-54964286D01*
X163103571Y-55011905D01*
X163198810Y-55059524D01*
X151432143Y-64677381D02*
X151098809Y-64201190D01*
X150860714Y-64677381D02*
X150860714Y-63677381D01*
X151241667Y-63677381D01*
X151336905Y-63725000D01*
X151384524Y-63772619D01*
X151432143Y-63867857D01*
X151432143Y-64010714D01*
X151384524Y-64105952D01*
X151336905Y-64153571D01*
X151241667Y-64201190D01*
X150860714Y-64201190D01*
X152289286Y-64010714D02*
X152289286Y-64677381D01*
X152051190Y-63629762D02*
X151813095Y-64344048D01*
X152432143Y-64344048D01*
X153289286Y-63677381D02*
X152813095Y-63677381D01*
X152765476Y-64153571D01*
X152813095Y-64105952D01*
X152908333Y-64058333D01*
X153146429Y-64058333D01*
X153241667Y-64105952D01*
X153289286Y-64153571D01*
X153336905Y-64248810D01*
X153336905Y-64486905D01*
X153289286Y-64582143D01*
X153241667Y-64629762D01*
X153146429Y-64677381D01*
X152908333Y-64677381D01*
X152813095Y-64629762D01*
X152765476Y-64582143D01*
X144952381Y-65317857D02*
X144476190Y-65651191D01*
X144952381Y-65889286D02*
X143952381Y-65889286D01*
X143952381Y-65508333D01*
X144000000Y-65413095D01*
X144047619Y-65365476D01*
X144142857Y-65317857D01*
X144285714Y-65317857D01*
X144380952Y-65365476D01*
X144428571Y-65413095D01*
X144476190Y-65508333D01*
X144476190Y-65889286D01*
X144285714Y-64460714D02*
X144952381Y-64460714D01*
X143904762Y-64698810D02*
X144619048Y-64936905D01*
X144619048Y-64317857D01*
X144285714Y-63508333D02*
X144952381Y-63508333D01*
X143904762Y-63746429D02*
X144619048Y-63984524D01*
X144619048Y-63365476D01*
X148902381Y-72317857D02*
X148426190Y-72651191D01*
X148902381Y-72889286D02*
X147902381Y-72889286D01*
X147902381Y-72508333D01*
X147950000Y-72413095D01*
X147997619Y-72365476D01*
X148092857Y-72317857D01*
X148235714Y-72317857D01*
X148330952Y-72365476D01*
X148378571Y-72413095D01*
X148426190Y-72508333D01*
X148426190Y-72889286D01*
X148235714Y-71460714D02*
X148902381Y-71460714D01*
X147854762Y-71698810D02*
X148569048Y-71936905D01*
X148569048Y-71317857D01*
X147902381Y-71032143D02*
X147902381Y-70413095D01*
X148283333Y-70746429D01*
X148283333Y-70603571D01*
X148330952Y-70508333D01*
X148378571Y-70460714D01*
X148473810Y-70413095D01*
X148711905Y-70413095D01*
X148807143Y-70460714D01*
X148854762Y-70508333D01*
X148902381Y-70603571D01*
X148902381Y-70889286D01*
X148854762Y-70984524D01*
X148807143Y-71032143D01*
X154857143Y-55052381D02*
X154523809Y-54576190D01*
X154285714Y-55052381D02*
X154285714Y-54052381D01*
X154666667Y-54052381D01*
X154761905Y-54100000D01*
X154809524Y-54147619D01*
X154857143Y-54242857D01*
X154857143Y-54385714D01*
X154809524Y-54480952D01*
X154761905Y-54528571D01*
X154666667Y-54576190D01*
X154285714Y-54576190D01*
X155714286Y-54385714D02*
X155714286Y-55052381D01*
X155476190Y-54004762D02*
X155238095Y-54719048D01*
X155857143Y-54719048D01*
X156190476Y-54147619D02*
X156238095Y-54100000D01*
X156333333Y-54052381D01*
X156571429Y-54052381D01*
X156666667Y-54100000D01*
X156714286Y-54147619D01*
X156761905Y-54242857D01*
X156761905Y-54338095D01*
X156714286Y-54480952D01*
X156142857Y-55052381D01*
X156761905Y-55052381D01*
X151392881Y-57729357D02*
X150916690Y-58062691D01*
X151392881Y-58300786D02*
X150392881Y-58300786D01*
X150392881Y-57919833D01*
X150440500Y-57824595D01*
X150488119Y-57776976D01*
X150583357Y-57729357D01*
X150726214Y-57729357D01*
X150821452Y-57776976D01*
X150869071Y-57824595D01*
X150916690Y-57919833D01*
X150916690Y-58300786D01*
X150726214Y-56872214D02*
X151392881Y-56872214D01*
X150345262Y-57110310D02*
X151059548Y-57348405D01*
X151059548Y-56729357D01*
X151392881Y-55824595D02*
X151392881Y-56396024D01*
X151392881Y-56110310D02*
X150392881Y-56110310D01*
X150535738Y-56205548D01*
X150630976Y-56300786D01*
X150678595Y-56396024D01*
X136580643Y-59188881D02*
X136247309Y-58712690D01*
X136009214Y-59188881D02*
X136009214Y-58188881D01*
X136390167Y-58188881D01*
X136485405Y-58236500D01*
X136533024Y-58284119D01*
X136580643Y-58379357D01*
X136580643Y-58522214D01*
X136533024Y-58617452D01*
X136485405Y-58665071D01*
X136390167Y-58712690D01*
X136009214Y-58712690D01*
X137437786Y-58522214D02*
X137437786Y-59188881D01*
X137199690Y-58141262D02*
X136961595Y-58855548D01*
X137580643Y-58855548D01*
X138152071Y-58188881D02*
X138247310Y-58188881D01*
X138342548Y-58236500D01*
X138390167Y-58284119D01*
X138437786Y-58379357D01*
X138485405Y-58569833D01*
X138485405Y-58807929D01*
X138437786Y-58998405D01*
X138390167Y-59093643D01*
X138342548Y-59141262D01*
X138247310Y-59188881D01*
X138152071Y-59188881D01*
X138056833Y-59141262D01*
X138009214Y-59093643D01*
X137961595Y-58998405D01*
X137913976Y-58807929D01*
X137913976Y-58569833D01*
X137961595Y-58379357D01*
X138009214Y-58284119D01*
X138056833Y-58236500D01*
X138152071Y-58188881D01*
X114038143Y-64141881D02*
X113704809Y-63665690D01*
X113466714Y-64141881D02*
X113466714Y-63141881D01*
X113847667Y-63141881D01*
X113942905Y-63189500D01*
X113990524Y-63237119D01*
X114038143Y-63332357D01*
X114038143Y-63475214D01*
X113990524Y-63570452D01*
X113942905Y-63618071D01*
X113847667Y-63665690D01*
X113466714Y-63665690D01*
X114371476Y-63141881D02*
X114990524Y-63141881D01*
X114657190Y-63522833D01*
X114800048Y-63522833D01*
X114895286Y-63570452D01*
X114942905Y-63618071D01*
X114990524Y-63713310D01*
X114990524Y-63951405D01*
X114942905Y-64046643D01*
X114895286Y-64094262D01*
X114800048Y-64141881D01*
X114514333Y-64141881D01*
X114419095Y-64094262D01*
X114371476Y-64046643D01*
X115466714Y-64141881D02*
X115657190Y-64141881D01*
X115752429Y-64094262D01*
X115800048Y-64046643D01*
X115895286Y-63903786D01*
X115942905Y-63713310D01*
X115942905Y-63332357D01*
X115895286Y-63237119D01*
X115847667Y-63189500D01*
X115752429Y-63141881D01*
X115561952Y-63141881D01*
X115466714Y-63189500D01*
X115419095Y-63237119D01*
X115371476Y-63332357D01*
X115371476Y-63570452D01*
X115419095Y-63665690D01*
X115466714Y-63713310D01*
X115561952Y-63760929D01*
X115752429Y-63760929D01*
X115847667Y-63713310D01*
X115895286Y-63665690D01*
X115942905Y-63570452D01*
X129102381Y-57221357D02*
X128626190Y-57554691D01*
X129102381Y-57792786D02*
X128102381Y-57792786D01*
X128102381Y-57411833D01*
X128150000Y-57316595D01*
X128197619Y-57268976D01*
X128292857Y-57221357D01*
X128435714Y-57221357D01*
X128530952Y-57268976D01*
X128578571Y-57316595D01*
X128626190Y-57411833D01*
X128626190Y-57792786D01*
X128102381Y-56888024D02*
X128102381Y-56268976D01*
X128483333Y-56602310D01*
X128483333Y-56459452D01*
X128530952Y-56364214D01*
X128578571Y-56316595D01*
X128673810Y-56268976D01*
X128911905Y-56268976D01*
X129007143Y-56316595D01*
X129054762Y-56364214D01*
X129102381Y-56459452D01*
X129102381Y-56745167D01*
X129054762Y-56840405D01*
X129007143Y-56888024D01*
X128530952Y-55697548D02*
X128483333Y-55792786D01*
X128435714Y-55840405D01*
X128340476Y-55888024D01*
X128292857Y-55888024D01*
X128197619Y-55840405D01*
X128150000Y-55792786D01*
X128102381Y-55697548D01*
X128102381Y-55507071D01*
X128150000Y-55411833D01*
X128197619Y-55364214D01*
X128292857Y-55316595D01*
X128340476Y-55316595D01*
X128435714Y-55364214D01*
X128483333Y-55411833D01*
X128530952Y-55507071D01*
X128530952Y-55697548D01*
X128578571Y-55792786D01*
X128626190Y-55840405D01*
X128721429Y-55888024D01*
X128911905Y-55888024D01*
X129007143Y-55840405D01*
X129054762Y-55792786D01*
X129102381Y-55697548D01*
X129102381Y-55507071D01*
X129054762Y-55411833D01*
X129007143Y-55364214D01*
X128911905Y-55316595D01*
X128721429Y-55316595D01*
X128626190Y-55364214D01*
X128578571Y-55411833D01*
X128530952Y-55507071D01*
X109339143Y-70682381D02*
X109005809Y-70206190D01*
X108767714Y-70682381D02*
X108767714Y-69682381D01*
X109148667Y-69682381D01*
X109243905Y-69730000D01*
X109291524Y-69777619D01*
X109339143Y-69872857D01*
X109339143Y-70015714D01*
X109291524Y-70110952D01*
X109243905Y-70158571D01*
X109148667Y-70206190D01*
X108767714Y-70206190D01*
X109672476Y-69682381D02*
X110291524Y-69682381D01*
X109958190Y-70063333D01*
X110101048Y-70063333D01*
X110196286Y-70110952D01*
X110243905Y-70158571D01*
X110291524Y-70253810D01*
X110291524Y-70491905D01*
X110243905Y-70587143D01*
X110196286Y-70634762D01*
X110101048Y-70682381D01*
X109815333Y-70682381D01*
X109720095Y-70634762D01*
X109672476Y-70587143D01*
X110624857Y-69682381D02*
X111291524Y-69682381D01*
X110862952Y-70682381D01*
X113177381Y-66567857D02*
X112701190Y-66901191D01*
X113177381Y-67139286D02*
X112177381Y-67139286D01*
X112177381Y-66758333D01*
X112225000Y-66663095D01*
X112272619Y-66615476D01*
X112367857Y-66567857D01*
X112510714Y-66567857D01*
X112605952Y-66615476D01*
X112653571Y-66663095D01*
X112701190Y-66758333D01*
X112701190Y-67139286D01*
X112177381Y-66234524D02*
X112177381Y-65615476D01*
X112558333Y-65948810D01*
X112558333Y-65805952D01*
X112605952Y-65710714D01*
X112653571Y-65663095D01*
X112748810Y-65615476D01*
X112986905Y-65615476D01*
X113082143Y-65663095D01*
X113129762Y-65710714D01*
X113177381Y-65805952D01*
X113177381Y-66091667D01*
X113129762Y-66186905D01*
X113082143Y-66234524D01*
X112177381Y-64758333D02*
X112177381Y-64948810D01*
X112225000Y-65044048D01*
X112272619Y-65091667D01*
X112415476Y-65186905D01*
X112605952Y-65234524D01*
X112986905Y-65234524D01*
X113082143Y-65186905D01*
X113129762Y-65139286D01*
X113177381Y-65044048D01*
X113177381Y-64853571D01*
X113129762Y-64758333D01*
X113082143Y-64710714D01*
X112986905Y-64663095D01*
X112748810Y-64663095D01*
X112653571Y-64710714D01*
X112605952Y-64758333D01*
X112558333Y-64853571D01*
X112558333Y-65044048D01*
X112605952Y-65139286D01*
X112653571Y-65186905D01*
X112748810Y-65234524D01*
X109027381Y-74017857D02*
X108551190Y-74351191D01*
X109027381Y-74589286D02*
X108027381Y-74589286D01*
X108027381Y-74208333D01*
X108075000Y-74113095D01*
X108122619Y-74065476D01*
X108217857Y-74017857D01*
X108360714Y-74017857D01*
X108455952Y-74065476D01*
X108503571Y-74113095D01*
X108551190Y-74208333D01*
X108551190Y-74589286D01*
X108027381Y-73684524D02*
X108027381Y-73065476D01*
X108408333Y-73398810D01*
X108408333Y-73255952D01*
X108455952Y-73160714D01*
X108503571Y-73113095D01*
X108598810Y-73065476D01*
X108836905Y-73065476D01*
X108932143Y-73113095D01*
X108979762Y-73160714D01*
X109027381Y-73255952D01*
X109027381Y-73541667D01*
X108979762Y-73636905D01*
X108932143Y-73684524D01*
X108027381Y-72160714D02*
X108027381Y-72636905D01*
X108503571Y-72684524D01*
X108455952Y-72636905D01*
X108408333Y-72541667D01*
X108408333Y-72303571D01*
X108455952Y-72208333D01*
X108503571Y-72160714D01*
X108598810Y-72113095D01*
X108836905Y-72113095D01*
X108932143Y-72160714D01*
X108979762Y-72208333D01*
X109027381Y-72303571D01*
X109027381Y-72541667D01*
X108979762Y-72636905D01*
X108932143Y-72684524D01*
X116552381Y-56992857D02*
X116076190Y-57326191D01*
X116552381Y-57564286D02*
X115552381Y-57564286D01*
X115552381Y-57183333D01*
X115600000Y-57088095D01*
X115647619Y-57040476D01*
X115742857Y-56992857D01*
X115885714Y-56992857D01*
X115980952Y-57040476D01*
X116028571Y-57088095D01*
X116076190Y-57183333D01*
X116076190Y-57564286D01*
X115552381Y-56659524D02*
X115552381Y-56040476D01*
X115933333Y-56373810D01*
X115933333Y-56230952D01*
X115980952Y-56135714D01*
X116028571Y-56088095D01*
X116123810Y-56040476D01*
X116361905Y-56040476D01*
X116457143Y-56088095D01*
X116504762Y-56135714D01*
X116552381Y-56230952D01*
X116552381Y-56516667D01*
X116504762Y-56611905D01*
X116457143Y-56659524D01*
X115885714Y-55183333D02*
X116552381Y-55183333D01*
X115504762Y-55421429D02*
X116219048Y-55659524D01*
X116219048Y-55040476D01*
X110943381Y-58681857D02*
X110467190Y-59015191D01*
X110943381Y-59253286D02*
X109943381Y-59253286D01*
X109943381Y-58872333D01*
X109991000Y-58777095D01*
X110038619Y-58729476D01*
X110133857Y-58681857D01*
X110276714Y-58681857D01*
X110371952Y-58729476D01*
X110419571Y-58777095D01*
X110467190Y-58872333D01*
X110467190Y-59253286D01*
X109943381Y-58348524D02*
X109943381Y-57729476D01*
X110324333Y-58062810D01*
X110324333Y-57919952D01*
X110371952Y-57824714D01*
X110419571Y-57777095D01*
X110514810Y-57729476D01*
X110752905Y-57729476D01*
X110848143Y-57777095D01*
X110895762Y-57824714D01*
X110943381Y-57919952D01*
X110943381Y-58205667D01*
X110895762Y-58300905D01*
X110848143Y-58348524D01*
X109943381Y-57396143D02*
X109943381Y-56777095D01*
X110324333Y-57110429D01*
X110324333Y-56967571D01*
X110371952Y-56872333D01*
X110419571Y-56824714D01*
X110514810Y-56777095D01*
X110752905Y-56777095D01*
X110848143Y-56824714D01*
X110895762Y-56872333D01*
X110943381Y-56967571D01*
X110943381Y-57253286D01*
X110895762Y-57348524D01*
X110848143Y-57396143D01*
X91813143Y-59506381D02*
X91479809Y-59030190D01*
X91241714Y-59506381D02*
X91241714Y-58506381D01*
X91622667Y-58506381D01*
X91717905Y-58554000D01*
X91765524Y-58601619D01*
X91813143Y-58696857D01*
X91813143Y-58839714D01*
X91765524Y-58934952D01*
X91717905Y-58982571D01*
X91622667Y-59030190D01*
X91241714Y-59030190D01*
X92146476Y-58506381D02*
X92765524Y-58506381D01*
X92432190Y-58887333D01*
X92575048Y-58887333D01*
X92670286Y-58934952D01*
X92717905Y-58982571D01*
X92765524Y-59077810D01*
X92765524Y-59315905D01*
X92717905Y-59411143D01*
X92670286Y-59458762D01*
X92575048Y-59506381D01*
X92289333Y-59506381D01*
X92194095Y-59458762D01*
X92146476Y-59411143D01*
X93146476Y-58601619D02*
X93194095Y-58554000D01*
X93289333Y-58506381D01*
X93527429Y-58506381D01*
X93622667Y-58554000D01*
X93670286Y-58601619D01*
X93717905Y-58696857D01*
X93717905Y-58792095D01*
X93670286Y-58934952D01*
X93098857Y-59506381D01*
X93717905Y-59506381D01*
X71620143Y-62998881D02*
X71286809Y-62522690D01*
X71048714Y-62998881D02*
X71048714Y-61998881D01*
X71429667Y-61998881D01*
X71524905Y-62046500D01*
X71572524Y-62094119D01*
X71620143Y-62189357D01*
X71620143Y-62332214D01*
X71572524Y-62427452D01*
X71524905Y-62475071D01*
X71429667Y-62522690D01*
X71048714Y-62522690D01*
X71953476Y-61998881D02*
X72572524Y-61998881D01*
X72239190Y-62379833D01*
X72382048Y-62379833D01*
X72477286Y-62427452D01*
X72524905Y-62475071D01*
X72572524Y-62570310D01*
X72572524Y-62808405D01*
X72524905Y-62903643D01*
X72477286Y-62951262D01*
X72382048Y-62998881D01*
X72096333Y-62998881D01*
X72001095Y-62951262D01*
X71953476Y-62903643D01*
X73524905Y-62998881D02*
X72953476Y-62998881D01*
X73239190Y-62998881D02*
X73239190Y-61998881D01*
X73143952Y-62141738D01*
X73048714Y-62236976D01*
X72953476Y-62284595D01*
X84002381Y-56292857D02*
X83526190Y-56626191D01*
X84002381Y-56864286D02*
X83002381Y-56864286D01*
X83002381Y-56483333D01*
X83050000Y-56388095D01*
X83097619Y-56340476D01*
X83192857Y-56292857D01*
X83335714Y-56292857D01*
X83430952Y-56340476D01*
X83478571Y-56388095D01*
X83526190Y-56483333D01*
X83526190Y-56864286D01*
X83002381Y-55959524D02*
X83002381Y-55340476D01*
X83383333Y-55673810D01*
X83383333Y-55530952D01*
X83430952Y-55435714D01*
X83478571Y-55388095D01*
X83573810Y-55340476D01*
X83811905Y-55340476D01*
X83907143Y-55388095D01*
X83954762Y-55435714D01*
X84002381Y-55530952D01*
X84002381Y-55816667D01*
X83954762Y-55911905D01*
X83907143Y-55959524D01*
X83002381Y-54721429D02*
X83002381Y-54626190D01*
X83050000Y-54530952D01*
X83097619Y-54483333D01*
X83192857Y-54435714D01*
X83383333Y-54388095D01*
X83621429Y-54388095D01*
X83811905Y-54435714D01*
X83907143Y-54483333D01*
X83954762Y-54530952D01*
X84002381Y-54626190D01*
X84002381Y-54721429D01*
X83954762Y-54816667D01*
X83907143Y-54864286D01*
X83811905Y-54911905D01*
X83621429Y-54959524D01*
X83383333Y-54959524D01*
X83192857Y-54911905D01*
X83097619Y-54864286D01*
X83050000Y-54816667D01*
X83002381Y-54721429D01*
X70002381Y-67417857D02*
X69526190Y-67751191D01*
X70002381Y-67989286D02*
X69002381Y-67989286D01*
X69002381Y-67608333D01*
X69050000Y-67513095D01*
X69097619Y-67465476D01*
X69192857Y-67417857D01*
X69335714Y-67417857D01*
X69430952Y-67465476D01*
X69478571Y-67513095D01*
X69526190Y-67608333D01*
X69526190Y-67989286D01*
X69097619Y-67036905D02*
X69050000Y-66989286D01*
X69002381Y-66894048D01*
X69002381Y-66655952D01*
X69050000Y-66560714D01*
X69097619Y-66513095D01*
X69192857Y-66465476D01*
X69288095Y-66465476D01*
X69430952Y-66513095D01*
X70002381Y-67084524D01*
X70002381Y-66465476D01*
X70002381Y-65989286D02*
X70002381Y-65798810D01*
X69954762Y-65703571D01*
X69907143Y-65655952D01*
X69764286Y-65560714D01*
X69573810Y-65513095D01*
X69192857Y-65513095D01*
X69097619Y-65560714D01*
X69050000Y-65608333D01*
X69002381Y-65703571D01*
X69002381Y-65894048D01*
X69050000Y-65989286D01*
X69097619Y-66036905D01*
X69192857Y-66084524D01*
X69430952Y-66084524D01*
X69526190Y-66036905D01*
X69573810Y-65989286D01*
X69621429Y-65894048D01*
X69621429Y-65703571D01*
X69573810Y-65608333D01*
X69526190Y-65560714D01*
X69430952Y-65513095D01*
X63877381Y-67442857D02*
X63401190Y-67776191D01*
X63877381Y-68014286D02*
X62877381Y-68014286D01*
X62877381Y-67633333D01*
X62925000Y-67538095D01*
X62972619Y-67490476D01*
X63067857Y-67442857D01*
X63210714Y-67442857D01*
X63305952Y-67490476D01*
X63353571Y-67538095D01*
X63401190Y-67633333D01*
X63401190Y-68014286D01*
X62972619Y-67061905D02*
X62925000Y-67014286D01*
X62877381Y-66919048D01*
X62877381Y-66680952D01*
X62925000Y-66585714D01*
X62972619Y-66538095D01*
X63067857Y-66490476D01*
X63163095Y-66490476D01*
X63305952Y-66538095D01*
X63877381Y-67109524D01*
X63877381Y-66490476D01*
X63305952Y-65919048D02*
X63258333Y-66014286D01*
X63210714Y-66061905D01*
X63115476Y-66109524D01*
X63067857Y-66109524D01*
X62972619Y-66061905D01*
X62925000Y-66014286D01*
X62877381Y-65919048D01*
X62877381Y-65728571D01*
X62925000Y-65633333D01*
X62972619Y-65585714D01*
X63067857Y-65538095D01*
X63115476Y-65538095D01*
X63210714Y-65585714D01*
X63258333Y-65633333D01*
X63305952Y-65728571D01*
X63305952Y-65919048D01*
X63353571Y-66014286D01*
X63401190Y-66061905D01*
X63496429Y-66109524D01*
X63686905Y-66109524D01*
X63782143Y-66061905D01*
X63829762Y-66014286D01*
X63877381Y-65919048D01*
X63877381Y-65728571D01*
X63829762Y-65633333D01*
X63782143Y-65585714D01*
X63686905Y-65538095D01*
X63496429Y-65538095D01*
X63401190Y-65585714D01*
X63353571Y-65633333D01*
X63305952Y-65728571D01*
X68445143Y-71698381D02*
X68111809Y-71222190D01*
X67873714Y-71698381D02*
X67873714Y-70698381D01*
X68254667Y-70698381D01*
X68349905Y-70746000D01*
X68397524Y-70793619D01*
X68445143Y-70888857D01*
X68445143Y-71031714D01*
X68397524Y-71126952D01*
X68349905Y-71174571D01*
X68254667Y-71222190D01*
X67873714Y-71222190D01*
X68826095Y-70793619D02*
X68873714Y-70746000D01*
X68968952Y-70698381D01*
X69207048Y-70698381D01*
X69302286Y-70746000D01*
X69349905Y-70793619D01*
X69397524Y-70888857D01*
X69397524Y-70984095D01*
X69349905Y-71126952D01*
X68778476Y-71698381D01*
X69397524Y-71698381D01*
X69730857Y-70698381D02*
X70397524Y-70698381D01*
X69968952Y-71698381D01*
X75627381Y-56192857D02*
X75151190Y-56526191D01*
X75627381Y-56764286D02*
X74627381Y-56764286D01*
X74627381Y-56383333D01*
X74675000Y-56288095D01*
X74722619Y-56240476D01*
X74817857Y-56192857D01*
X74960714Y-56192857D01*
X75055952Y-56240476D01*
X75103571Y-56288095D01*
X75151190Y-56383333D01*
X75151190Y-56764286D01*
X74722619Y-55811905D02*
X74675000Y-55764286D01*
X74627381Y-55669048D01*
X74627381Y-55430952D01*
X74675000Y-55335714D01*
X74722619Y-55288095D01*
X74817857Y-55240476D01*
X74913095Y-55240476D01*
X75055952Y-55288095D01*
X75627381Y-55859524D01*
X75627381Y-55240476D01*
X74627381Y-54383333D02*
X74627381Y-54573810D01*
X74675000Y-54669048D01*
X74722619Y-54716667D01*
X74865476Y-54811905D01*
X75055952Y-54859524D01*
X75436905Y-54859524D01*
X75532143Y-54811905D01*
X75579762Y-54764286D01*
X75627381Y-54669048D01*
X75627381Y-54478571D01*
X75579762Y-54383333D01*
X75532143Y-54335714D01*
X75436905Y-54288095D01*
X75198810Y-54288095D01*
X75103571Y-54335714D01*
X75055952Y-54383333D01*
X75008333Y-54478571D01*
X75008333Y-54669048D01*
X75055952Y-54764286D01*
X75103571Y-54811905D01*
X75198810Y-54859524D01*
X71810643Y-58998381D02*
X71477309Y-58522190D01*
X71239214Y-58998381D02*
X71239214Y-57998381D01*
X71620167Y-57998381D01*
X71715405Y-58046000D01*
X71763024Y-58093619D01*
X71810643Y-58188857D01*
X71810643Y-58331714D01*
X71763024Y-58426952D01*
X71715405Y-58474571D01*
X71620167Y-58522190D01*
X71239214Y-58522190D01*
X72191595Y-58093619D02*
X72239214Y-58046000D01*
X72334452Y-57998381D01*
X72572548Y-57998381D01*
X72667786Y-58046000D01*
X72715405Y-58093619D01*
X72763024Y-58188857D01*
X72763024Y-58284095D01*
X72715405Y-58426952D01*
X72143976Y-58998381D01*
X72763024Y-58998381D01*
X73667786Y-57998381D02*
X73191595Y-57998381D01*
X73143976Y-58474571D01*
X73191595Y-58426952D01*
X73286833Y-58379333D01*
X73524929Y-58379333D01*
X73620167Y-58426952D01*
X73667786Y-58474571D01*
X73715405Y-58569810D01*
X73715405Y-58807905D01*
X73667786Y-58903143D01*
X73620167Y-58950762D01*
X73524929Y-58998381D01*
X73286833Y-58998381D01*
X73191595Y-58950762D01*
X73143976Y-58903143D01*
X34917143Y-76272381D02*
X34583809Y-75796190D01*
X34345714Y-76272381D02*
X34345714Y-75272381D01*
X34726667Y-75272381D01*
X34821905Y-75320000D01*
X34869524Y-75367619D01*
X34917143Y-75462857D01*
X34917143Y-75605714D01*
X34869524Y-75700952D01*
X34821905Y-75748571D01*
X34726667Y-75796190D01*
X34345714Y-75796190D01*
X35298095Y-75367619D02*
X35345714Y-75320000D01*
X35440952Y-75272381D01*
X35679048Y-75272381D01*
X35774286Y-75320000D01*
X35821905Y-75367619D01*
X35869524Y-75462857D01*
X35869524Y-75558095D01*
X35821905Y-75700952D01*
X35250476Y-76272381D01*
X35869524Y-76272381D01*
X36202857Y-75272381D02*
X36821905Y-75272381D01*
X36488571Y-75653333D01*
X36631429Y-75653333D01*
X36726667Y-75700952D01*
X36774286Y-75748571D01*
X36821905Y-75843810D01*
X36821905Y-76081905D01*
X36774286Y-76177143D01*
X36726667Y-76224762D01*
X36631429Y-76272381D01*
X36345714Y-76272381D01*
X36250476Y-76224762D01*
X36202857Y-76177143D01*
X41472381Y-56522857D02*
X40996190Y-56856191D01*
X41472381Y-57094286D02*
X40472381Y-57094286D01*
X40472381Y-56713333D01*
X40520000Y-56618095D01*
X40567619Y-56570476D01*
X40662857Y-56522857D01*
X40805714Y-56522857D01*
X40900952Y-56570476D01*
X40948571Y-56618095D01*
X40996190Y-56713333D01*
X40996190Y-57094286D01*
X40567619Y-56141905D02*
X40520000Y-56094286D01*
X40472381Y-55999048D01*
X40472381Y-55760952D01*
X40520000Y-55665714D01*
X40567619Y-55618095D01*
X40662857Y-55570476D01*
X40758095Y-55570476D01*
X40900952Y-55618095D01*
X41472381Y-56189524D01*
X41472381Y-55570476D01*
X40567619Y-55189524D02*
X40520000Y-55141905D01*
X40472381Y-55046667D01*
X40472381Y-54808571D01*
X40520000Y-54713333D01*
X40567619Y-54665714D01*
X40662857Y-54618095D01*
X40758095Y-54618095D01*
X40900952Y-54665714D01*
X41472381Y-55237143D01*
X41472381Y-54618095D01*
X41207143Y-87727381D02*
X40873809Y-87251190D01*
X40635714Y-87727381D02*
X40635714Y-86727381D01*
X41016667Y-86727381D01*
X41111905Y-86775000D01*
X41159524Y-86822619D01*
X41207143Y-86917857D01*
X41207143Y-87060714D01*
X41159524Y-87155952D01*
X41111905Y-87203571D01*
X41016667Y-87251190D01*
X40635714Y-87251190D01*
X41588095Y-86822619D02*
X41635714Y-86775000D01*
X41730952Y-86727381D01*
X41969048Y-86727381D01*
X42064286Y-86775000D01*
X42111905Y-86822619D01*
X42159524Y-86917857D01*
X42159524Y-87013095D01*
X42111905Y-87155952D01*
X41540476Y-87727381D01*
X42159524Y-87727381D01*
X43111905Y-87727381D02*
X42540476Y-87727381D01*
X42826190Y-87727381D02*
X42826190Y-86727381D01*
X42730952Y-86870238D01*
X42635714Y-86965476D01*
X42540476Y-87013095D01*
X38057143Y-87802381D02*
X37723809Y-87326190D01*
X37485714Y-87802381D02*
X37485714Y-86802381D01*
X37866667Y-86802381D01*
X37961905Y-86850000D01*
X38009524Y-86897619D01*
X38057143Y-86992857D01*
X38057143Y-87135714D01*
X38009524Y-87230952D01*
X37961905Y-87278571D01*
X37866667Y-87326190D01*
X37485714Y-87326190D01*
X38438095Y-86897619D02*
X38485714Y-86850000D01*
X38580952Y-86802381D01*
X38819048Y-86802381D01*
X38914286Y-86850000D01*
X38961905Y-86897619D01*
X39009524Y-86992857D01*
X39009524Y-87088095D01*
X38961905Y-87230952D01*
X38390476Y-87802381D01*
X39009524Y-87802381D01*
X39628571Y-86802381D02*
X39723810Y-86802381D01*
X39819048Y-86850000D01*
X39866667Y-86897619D01*
X39914286Y-86992857D01*
X39961905Y-87183333D01*
X39961905Y-87421429D01*
X39914286Y-87611905D01*
X39866667Y-87707143D01*
X39819048Y-87754762D01*
X39723810Y-87802381D01*
X39628571Y-87802381D01*
X39533333Y-87754762D01*
X39485714Y-87707143D01*
X39438095Y-87611905D01*
X39390476Y-87421429D01*
X39390476Y-87183333D01*
X39438095Y-86992857D01*
X39485714Y-86897619D01*
X39533333Y-86850000D01*
X39628571Y-86802381D01*
X34997381Y-85732857D02*
X34521190Y-86066191D01*
X34997381Y-86304286D02*
X33997381Y-86304286D01*
X33997381Y-85923333D01*
X34045000Y-85828095D01*
X34092619Y-85780476D01*
X34187857Y-85732857D01*
X34330714Y-85732857D01*
X34425952Y-85780476D01*
X34473571Y-85828095D01*
X34521190Y-85923333D01*
X34521190Y-86304286D01*
X34997381Y-84780476D02*
X34997381Y-85351905D01*
X34997381Y-85066191D02*
X33997381Y-85066191D01*
X34140238Y-85161429D01*
X34235476Y-85256667D01*
X34283095Y-85351905D01*
X34997381Y-84304286D02*
X34997381Y-84113810D01*
X34949762Y-84018571D01*
X34902143Y-83970952D01*
X34759286Y-83875714D01*
X34568810Y-83828095D01*
X34187857Y-83828095D01*
X34092619Y-83875714D01*
X34045000Y-83923333D01*
X33997381Y-84018571D01*
X33997381Y-84209048D01*
X34045000Y-84304286D01*
X34092619Y-84351905D01*
X34187857Y-84399524D01*
X34425952Y-84399524D01*
X34521190Y-84351905D01*
X34568810Y-84304286D01*
X34616429Y-84209048D01*
X34616429Y-84018571D01*
X34568810Y-83923333D01*
X34521190Y-83875714D01*
X34425952Y-83828095D01*
X32328381Y-64142857D02*
X31852190Y-64476191D01*
X32328381Y-64714286D02*
X31328381Y-64714286D01*
X31328381Y-64333333D01*
X31376000Y-64238095D01*
X31423619Y-64190476D01*
X31518857Y-64142857D01*
X31661714Y-64142857D01*
X31756952Y-64190476D01*
X31804571Y-64238095D01*
X31852190Y-64333333D01*
X31852190Y-64714286D01*
X32328381Y-63190476D02*
X32328381Y-63761905D01*
X32328381Y-63476191D02*
X31328381Y-63476191D01*
X31471238Y-63571429D01*
X31566476Y-63666667D01*
X31614095Y-63761905D01*
X31756952Y-62619048D02*
X31709333Y-62714286D01*
X31661714Y-62761905D01*
X31566476Y-62809524D01*
X31518857Y-62809524D01*
X31423619Y-62761905D01*
X31376000Y-62714286D01*
X31328381Y-62619048D01*
X31328381Y-62428571D01*
X31376000Y-62333333D01*
X31423619Y-62285714D01*
X31518857Y-62238095D01*
X31566476Y-62238095D01*
X31661714Y-62285714D01*
X31709333Y-62333333D01*
X31756952Y-62428571D01*
X31756952Y-62619048D01*
X31804571Y-62714286D01*
X31852190Y-62761905D01*
X31947429Y-62809524D01*
X32137905Y-62809524D01*
X32233143Y-62761905D01*
X32280762Y-62714286D01*
X32328381Y-62619048D01*
X32328381Y-62428571D01*
X32280762Y-62333333D01*
X32233143Y-62285714D01*
X32137905Y-62238095D01*
X31947429Y-62238095D01*
X31852190Y-62285714D01*
X31804571Y-62333333D01*
X31756952Y-62428571D01*
X32328381Y-68460857D02*
X31852190Y-68794191D01*
X32328381Y-69032286D02*
X31328381Y-69032286D01*
X31328381Y-68651333D01*
X31376000Y-68556095D01*
X31423619Y-68508476D01*
X31518857Y-68460857D01*
X31661714Y-68460857D01*
X31756952Y-68508476D01*
X31804571Y-68556095D01*
X31852190Y-68651333D01*
X31852190Y-69032286D01*
X32328381Y-67508476D02*
X32328381Y-68079905D01*
X32328381Y-67794191D02*
X31328381Y-67794191D01*
X31471238Y-67889429D01*
X31566476Y-67984667D01*
X31614095Y-68079905D01*
X31328381Y-67175143D02*
X31328381Y-66508476D01*
X32328381Y-66937048D01*
X252158572Y-54562619D02*
X252063334Y-54515000D01*
X251968096Y-54419762D01*
X251825239Y-54276905D01*
X251730000Y-54229286D01*
X251634762Y-54229286D01*
X251682381Y-54467381D02*
X251587143Y-54419762D01*
X251491905Y-54324524D01*
X251444286Y-54134048D01*
X251444286Y-53800714D01*
X251491905Y-53610238D01*
X251587143Y-53515000D01*
X251682381Y-53467381D01*
X251872858Y-53467381D01*
X251968096Y-53515000D01*
X252063334Y-53610238D01*
X252110953Y-53800714D01*
X252110953Y-54134048D01*
X252063334Y-54324524D01*
X251968096Y-54419762D01*
X251872858Y-54467381D01*
X251682381Y-54467381D01*
X252491905Y-53562619D02*
X252539524Y-53515000D01*
X252634762Y-53467381D01*
X252872858Y-53467381D01*
X252968096Y-53515000D01*
X253015715Y-53562619D01*
X253063334Y-53657857D01*
X253063334Y-53753095D01*
X253015715Y-53895952D01*
X252444286Y-54467381D01*
X253063334Y-54467381D01*
X253968096Y-53467381D02*
X253491905Y-53467381D01*
X253444286Y-53943571D01*
X253491905Y-53895952D01*
X253587143Y-53848333D01*
X253825239Y-53848333D01*
X253920477Y-53895952D01*
X253968096Y-53943571D01*
X254015715Y-54038810D01*
X254015715Y-54276905D01*
X253968096Y-54372143D01*
X253920477Y-54419762D01*
X253825239Y-54467381D01*
X253587143Y-54467381D01*
X253491905Y-54419762D01*
X253444286Y-54372143D01*
X236997619Y-61021428D02*
X236950000Y-61116666D01*
X236854762Y-61211904D01*
X236711905Y-61354761D01*
X236664286Y-61450000D01*
X236664286Y-61545238D01*
X236902381Y-61497619D02*
X236854762Y-61592857D01*
X236759524Y-61688095D01*
X236569048Y-61735714D01*
X236235714Y-61735714D01*
X236045238Y-61688095D01*
X235950000Y-61592857D01*
X235902381Y-61497619D01*
X235902381Y-61307142D01*
X235950000Y-61211904D01*
X236045238Y-61116666D01*
X236235714Y-61069047D01*
X236569048Y-61069047D01*
X236759524Y-61116666D01*
X236854762Y-61211904D01*
X236902381Y-61307142D01*
X236902381Y-61497619D01*
X235997619Y-60688095D02*
X235950000Y-60640476D01*
X235902381Y-60545238D01*
X235902381Y-60307142D01*
X235950000Y-60211904D01*
X235997619Y-60164285D01*
X236092857Y-60116666D01*
X236188095Y-60116666D01*
X236330952Y-60164285D01*
X236902381Y-60735714D01*
X236902381Y-60116666D01*
X236235714Y-59259523D02*
X236902381Y-59259523D01*
X235854762Y-59497619D02*
X236569048Y-59735714D01*
X236569048Y-59116666D01*
X243903572Y-54562619D02*
X243808334Y-54515000D01*
X243713096Y-54419762D01*
X243570239Y-54276905D01*
X243475000Y-54229286D01*
X243379762Y-54229286D01*
X243427381Y-54467381D02*
X243332143Y-54419762D01*
X243236905Y-54324524D01*
X243189286Y-54134048D01*
X243189286Y-53800714D01*
X243236905Y-53610238D01*
X243332143Y-53515000D01*
X243427381Y-53467381D01*
X243617858Y-53467381D01*
X243713096Y-53515000D01*
X243808334Y-53610238D01*
X243855953Y-53800714D01*
X243855953Y-54134048D01*
X243808334Y-54324524D01*
X243713096Y-54419762D01*
X243617858Y-54467381D01*
X243427381Y-54467381D01*
X244236905Y-53562619D02*
X244284524Y-53515000D01*
X244379762Y-53467381D01*
X244617858Y-53467381D01*
X244713096Y-53515000D01*
X244760715Y-53562619D01*
X244808334Y-53657857D01*
X244808334Y-53753095D01*
X244760715Y-53895952D01*
X244189286Y-54467381D01*
X244808334Y-54467381D01*
X245141667Y-53467381D02*
X245760715Y-53467381D01*
X245427381Y-53848333D01*
X245570239Y-53848333D01*
X245665477Y-53895952D01*
X245713096Y-53943571D01*
X245760715Y-54038810D01*
X245760715Y-54276905D01*
X245713096Y-54372143D01*
X245665477Y-54419762D01*
X245570239Y-54467381D01*
X245284524Y-54467381D01*
X245189286Y-54419762D01*
X245141667Y-54372143D01*
X228298619Y-60832928D02*
X228251000Y-60928166D01*
X228155762Y-61023404D01*
X228012905Y-61166261D01*
X227965286Y-61261500D01*
X227965286Y-61356738D01*
X228203381Y-61309119D02*
X228155762Y-61404357D01*
X228060524Y-61499595D01*
X227870048Y-61547214D01*
X227536714Y-61547214D01*
X227346238Y-61499595D01*
X227251000Y-61404357D01*
X227203381Y-61309119D01*
X227203381Y-61118642D01*
X227251000Y-61023404D01*
X227346238Y-60928166D01*
X227536714Y-60880547D01*
X227870048Y-60880547D01*
X228060524Y-60928166D01*
X228155762Y-61023404D01*
X228203381Y-61118642D01*
X228203381Y-61309119D01*
X227298619Y-60499595D02*
X227251000Y-60451976D01*
X227203381Y-60356738D01*
X227203381Y-60118642D01*
X227251000Y-60023404D01*
X227298619Y-59975785D01*
X227393857Y-59928166D01*
X227489095Y-59928166D01*
X227631952Y-59975785D01*
X228203381Y-60547214D01*
X228203381Y-59928166D01*
X227298619Y-59547214D02*
X227251000Y-59499595D01*
X227203381Y-59404357D01*
X227203381Y-59166261D01*
X227251000Y-59071023D01*
X227298619Y-59023404D01*
X227393857Y-58975785D01*
X227489095Y-58975785D01*
X227631952Y-59023404D01*
X228203381Y-59594833D01*
X228203381Y-58975785D01*
X212280572Y-54880119D02*
X212185334Y-54832500D01*
X212090096Y-54737262D01*
X211947239Y-54594405D01*
X211852000Y-54546786D01*
X211756762Y-54546786D01*
X211804381Y-54784881D02*
X211709143Y-54737262D01*
X211613905Y-54642024D01*
X211566286Y-54451548D01*
X211566286Y-54118214D01*
X211613905Y-53927738D01*
X211709143Y-53832500D01*
X211804381Y-53784881D01*
X211994858Y-53784881D01*
X212090096Y-53832500D01*
X212185334Y-53927738D01*
X212232953Y-54118214D01*
X212232953Y-54451548D01*
X212185334Y-54642024D01*
X212090096Y-54737262D01*
X211994858Y-54784881D01*
X211804381Y-54784881D01*
X212613905Y-53880119D02*
X212661524Y-53832500D01*
X212756762Y-53784881D01*
X212994858Y-53784881D01*
X213090096Y-53832500D01*
X213137715Y-53880119D01*
X213185334Y-53975357D01*
X213185334Y-54070595D01*
X213137715Y-54213452D01*
X212566286Y-54784881D01*
X213185334Y-54784881D01*
X214137715Y-54784881D02*
X213566286Y-54784881D01*
X213852000Y-54784881D02*
X213852000Y-53784881D01*
X213756762Y-53927738D01*
X213661524Y-54022976D01*
X213566286Y-54070595D01*
X192578572Y-60697619D02*
X192483334Y-60650000D01*
X192388096Y-60554762D01*
X192245239Y-60411905D01*
X192150000Y-60364286D01*
X192054762Y-60364286D01*
X192102381Y-60602381D02*
X192007143Y-60554762D01*
X191911905Y-60459524D01*
X191864286Y-60269048D01*
X191864286Y-59935714D01*
X191911905Y-59745238D01*
X192007143Y-59650000D01*
X192102381Y-59602381D01*
X192292858Y-59602381D01*
X192388096Y-59650000D01*
X192483334Y-59745238D01*
X192530953Y-59935714D01*
X192530953Y-60269048D01*
X192483334Y-60459524D01*
X192388096Y-60554762D01*
X192292858Y-60602381D01*
X192102381Y-60602381D01*
X192911905Y-59697619D02*
X192959524Y-59650000D01*
X193054762Y-59602381D01*
X193292858Y-59602381D01*
X193388096Y-59650000D01*
X193435715Y-59697619D01*
X193483334Y-59792857D01*
X193483334Y-59888095D01*
X193435715Y-60030952D01*
X192864286Y-60602381D01*
X193483334Y-60602381D01*
X194102381Y-59602381D02*
X194197620Y-59602381D01*
X194292858Y-59650000D01*
X194340477Y-59697619D01*
X194388096Y-59792857D01*
X194435715Y-59983333D01*
X194435715Y-60221429D01*
X194388096Y-60411905D01*
X194340477Y-60507143D01*
X194292858Y-60554762D01*
X194197620Y-60602381D01*
X194102381Y-60602381D01*
X194007143Y-60554762D01*
X193959524Y-60507143D01*
X193911905Y-60411905D01*
X193864286Y-60221429D01*
X193864286Y-59983333D01*
X193911905Y-59792857D01*
X193959524Y-59697619D01*
X194007143Y-59650000D01*
X194102381Y-59602381D01*
X201739572Y-55134119D02*
X201644334Y-55086500D01*
X201549096Y-54991262D01*
X201406239Y-54848405D01*
X201311000Y-54800786D01*
X201215762Y-54800786D01*
X201263381Y-55038881D02*
X201168143Y-54991262D01*
X201072905Y-54896024D01*
X201025286Y-54705548D01*
X201025286Y-54372214D01*
X201072905Y-54181738D01*
X201168143Y-54086500D01*
X201263381Y-54038881D01*
X201453858Y-54038881D01*
X201549096Y-54086500D01*
X201644334Y-54181738D01*
X201691953Y-54372214D01*
X201691953Y-54705548D01*
X201644334Y-54896024D01*
X201549096Y-54991262D01*
X201453858Y-55038881D01*
X201263381Y-55038881D01*
X202644334Y-55038881D02*
X202072905Y-55038881D01*
X202358619Y-55038881D02*
X202358619Y-54038881D01*
X202263381Y-54181738D01*
X202168143Y-54276976D01*
X202072905Y-54324595D01*
X203120524Y-55038881D02*
X203311000Y-55038881D01*
X203406239Y-54991262D01*
X203453858Y-54943643D01*
X203549096Y-54800786D01*
X203596715Y-54610310D01*
X203596715Y-54229357D01*
X203549096Y-54134119D01*
X203501477Y-54086500D01*
X203406239Y-54038881D01*
X203215762Y-54038881D01*
X203120524Y-54086500D01*
X203072905Y-54134119D01*
X203025286Y-54229357D01*
X203025286Y-54467452D01*
X203072905Y-54562690D01*
X203120524Y-54610310D01*
X203215762Y-54657929D01*
X203406239Y-54657929D01*
X203501477Y-54610310D01*
X203549096Y-54562690D01*
X203596715Y-54467452D01*
X185944119Y-62864928D02*
X185896500Y-62960166D01*
X185801262Y-63055404D01*
X185658405Y-63198261D01*
X185610786Y-63293500D01*
X185610786Y-63388738D01*
X185848881Y-63341119D02*
X185801262Y-63436357D01*
X185706024Y-63531595D01*
X185515548Y-63579214D01*
X185182214Y-63579214D01*
X184991738Y-63531595D01*
X184896500Y-63436357D01*
X184848881Y-63341119D01*
X184848881Y-63150642D01*
X184896500Y-63055404D01*
X184991738Y-62960166D01*
X185182214Y-62912547D01*
X185515548Y-62912547D01*
X185706024Y-62960166D01*
X185801262Y-63055404D01*
X185848881Y-63150642D01*
X185848881Y-63341119D01*
X185848881Y-61960166D02*
X185848881Y-62531595D01*
X185848881Y-62245881D02*
X184848881Y-62245881D01*
X184991738Y-62341119D01*
X185086976Y-62436357D01*
X185134595Y-62531595D01*
X185277452Y-61388738D02*
X185229833Y-61483976D01*
X185182214Y-61531595D01*
X185086976Y-61579214D01*
X185039357Y-61579214D01*
X184944119Y-61531595D01*
X184896500Y-61483976D01*
X184848881Y-61388738D01*
X184848881Y-61198261D01*
X184896500Y-61103023D01*
X184944119Y-61055404D01*
X185039357Y-61007785D01*
X185086976Y-61007785D01*
X185182214Y-61055404D01*
X185229833Y-61103023D01*
X185277452Y-61198261D01*
X185277452Y-61388738D01*
X185325071Y-61483976D01*
X185372690Y-61531595D01*
X185467929Y-61579214D01*
X185658405Y-61579214D01*
X185753643Y-61531595D01*
X185801262Y-61483976D01*
X185848881Y-61388738D01*
X185848881Y-61198261D01*
X185801262Y-61103023D01*
X185753643Y-61055404D01*
X185658405Y-61007785D01*
X185467929Y-61007785D01*
X185372690Y-61055404D01*
X185325071Y-61103023D01*
X185277452Y-61198261D01*
X167957572Y-54562619D02*
X167862334Y-54515000D01*
X167767096Y-54419762D01*
X167624239Y-54276905D01*
X167529000Y-54229286D01*
X167433762Y-54229286D01*
X167481381Y-54467381D02*
X167386143Y-54419762D01*
X167290905Y-54324524D01*
X167243286Y-54134048D01*
X167243286Y-53800714D01*
X167290905Y-53610238D01*
X167386143Y-53515000D01*
X167481381Y-53467381D01*
X167671858Y-53467381D01*
X167767096Y-53515000D01*
X167862334Y-53610238D01*
X167909953Y-53800714D01*
X167909953Y-54134048D01*
X167862334Y-54324524D01*
X167767096Y-54419762D01*
X167671858Y-54467381D01*
X167481381Y-54467381D01*
X168862334Y-54467381D02*
X168290905Y-54467381D01*
X168576619Y-54467381D02*
X168576619Y-53467381D01*
X168481381Y-53610238D01*
X168386143Y-53705476D01*
X168290905Y-53753095D01*
X169195667Y-53467381D02*
X169862334Y-53467381D01*
X169433762Y-54467381D01*
X151947619Y-61346428D02*
X151900000Y-61441666D01*
X151804762Y-61536904D01*
X151661905Y-61679761D01*
X151614286Y-61775000D01*
X151614286Y-61870238D01*
X151852381Y-61822619D02*
X151804762Y-61917857D01*
X151709524Y-62013095D01*
X151519048Y-62060714D01*
X151185714Y-62060714D01*
X150995238Y-62013095D01*
X150900000Y-61917857D01*
X150852381Y-61822619D01*
X150852381Y-61632142D01*
X150900000Y-61536904D01*
X150995238Y-61441666D01*
X151185714Y-61394047D01*
X151519048Y-61394047D01*
X151709524Y-61441666D01*
X151804762Y-61536904D01*
X151852381Y-61632142D01*
X151852381Y-61822619D01*
X151852381Y-60441666D02*
X151852381Y-61013095D01*
X151852381Y-60727381D02*
X150852381Y-60727381D01*
X150995238Y-60822619D01*
X151090476Y-60917857D01*
X151138095Y-61013095D01*
X150852381Y-59584523D02*
X150852381Y-59775000D01*
X150900000Y-59870238D01*
X150947619Y-59917857D01*
X151090476Y-60013095D01*
X151280952Y-60060714D01*
X151661905Y-60060714D01*
X151757143Y-60013095D01*
X151804762Y-59965476D01*
X151852381Y-59870238D01*
X151852381Y-59679761D01*
X151804762Y-59584523D01*
X151757143Y-59536904D01*
X151661905Y-59489285D01*
X151423810Y-59489285D01*
X151328571Y-59536904D01*
X151280952Y-59584523D01*
X151233333Y-59679761D01*
X151233333Y-59870238D01*
X151280952Y-59965476D01*
X151328571Y-60013095D01*
X151423810Y-60060714D01*
D13*
X160314286Y-56348810D02*
X160266667Y-56325000D01*
X160219048Y-56277381D01*
X160147619Y-56205952D01*
X160100000Y-56182143D01*
X160052381Y-56182143D01*
X160076191Y-56301190D02*
X160028572Y-56277381D01*
X159980953Y-56229762D01*
X159957143Y-56134524D01*
X159957143Y-55967857D01*
X159980953Y-55872619D01*
X160028572Y-55825000D01*
X160076191Y-55801190D01*
X160171429Y-55801190D01*
X160219048Y-55825000D01*
X160266667Y-55872619D01*
X160290476Y-55967857D01*
X160290476Y-56134524D01*
X160266667Y-56229762D01*
X160219048Y-56277381D01*
X160171429Y-56301190D01*
X160076191Y-56301190D01*
X160766667Y-56301190D02*
X160480953Y-56301190D01*
X160623810Y-56301190D02*
X160623810Y-55801190D01*
X160576191Y-55872619D01*
X160528572Y-55920238D01*
X160480953Y-55944048D01*
X161219048Y-55801190D02*
X160980953Y-55801190D01*
X160957143Y-56039286D01*
X160980953Y-56015476D01*
X161028572Y-55991667D01*
X161147619Y-55991667D01*
X161195238Y-56015476D01*
X161219048Y-56039286D01*
X161242857Y-56086905D01*
X161242857Y-56205952D01*
X161219048Y-56253571D01*
X161195238Y-56277381D01*
X161147619Y-56301190D01*
X161028572Y-56301190D01*
X160980953Y-56277381D01*
X160957143Y-56253571D01*
D11*
X143399119Y-61340928D02*
X143351500Y-61436166D01*
X143256262Y-61531404D01*
X143113405Y-61674261D01*
X143065786Y-61769500D01*
X143065786Y-61864738D01*
X143303881Y-61817119D02*
X143256262Y-61912357D01*
X143161024Y-62007595D01*
X142970548Y-62055214D01*
X142637214Y-62055214D01*
X142446738Y-62007595D01*
X142351500Y-61912357D01*
X142303881Y-61817119D01*
X142303881Y-61626642D01*
X142351500Y-61531404D01*
X142446738Y-61436166D01*
X142637214Y-61388547D01*
X142970548Y-61388547D01*
X143161024Y-61436166D01*
X143256262Y-61531404D01*
X143303881Y-61626642D01*
X143303881Y-61817119D01*
X143303881Y-60436166D02*
X143303881Y-61007595D01*
X143303881Y-60721881D02*
X142303881Y-60721881D01*
X142446738Y-60817119D01*
X142541976Y-60912357D01*
X142589595Y-61007595D01*
X142637214Y-59579023D02*
X143303881Y-59579023D01*
X142256262Y-59817119D02*
X142970548Y-60055214D01*
X142970548Y-59436166D01*
X130873572Y-55070619D02*
X130778334Y-55023000D01*
X130683096Y-54927762D01*
X130540239Y-54784905D01*
X130445000Y-54737286D01*
X130349762Y-54737286D01*
X130397381Y-54975381D02*
X130302143Y-54927762D01*
X130206905Y-54832524D01*
X130159286Y-54642048D01*
X130159286Y-54308714D01*
X130206905Y-54118238D01*
X130302143Y-54023000D01*
X130397381Y-53975381D01*
X130587858Y-53975381D01*
X130683096Y-54023000D01*
X130778334Y-54118238D01*
X130825953Y-54308714D01*
X130825953Y-54642048D01*
X130778334Y-54832524D01*
X130683096Y-54927762D01*
X130587858Y-54975381D01*
X130397381Y-54975381D01*
X131778334Y-54975381D02*
X131206905Y-54975381D01*
X131492619Y-54975381D02*
X131492619Y-53975381D01*
X131397381Y-54118238D01*
X131302143Y-54213476D01*
X131206905Y-54261095D01*
X132111667Y-53975381D02*
X132730715Y-53975381D01*
X132397381Y-54356333D01*
X132540239Y-54356333D01*
X132635477Y-54403952D01*
X132683096Y-54451571D01*
X132730715Y-54546810D01*
X132730715Y-54784905D01*
X132683096Y-54880143D01*
X132635477Y-54927762D01*
X132540239Y-54975381D01*
X132254524Y-54975381D01*
X132159286Y-54927762D01*
X132111667Y-54880143D01*
X110928572Y-61147619D02*
X110833334Y-61100000D01*
X110738096Y-61004762D01*
X110595239Y-60861905D01*
X110500000Y-60814286D01*
X110404762Y-60814286D01*
X110452381Y-61052381D02*
X110357143Y-61004762D01*
X110261905Y-60909524D01*
X110214286Y-60719048D01*
X110214286Y-60385714D01*
X110261905Y-60195238D01*
X110357143Y-60100000D01*
X110452381Y-60052381D01*
X110642858Y-60052381D01*
X110738096Y-60100000D01*
X110833334Y-60195238D01*
X110880953Y-60385714D01*
X110880953Y-60719048D01*
X110833334Y-60909524D01*
X110738096Y-61004762D01*
X110642858Y-61052381D01*
X110452381Y-61052381D01*
X111833334Y-61052381D02*
X111261905Y-61052381D01*
X111547619Y-61052381D02*
X111547619Y-60052381D01*
X111452381Y-60195238D01*
X111357143Y-60290476D01*
X111261905Y-60338095D01*
X112214286Y-60147619D02*
X112261905Y-60100000D01*
X112357143Y-60052381D01*
X112595239Y-60052381D01*
X112690477Y-60100000D01*
X112738096Y-60147619D01*
X112785715Y-60242857D01*
X112785715Y-60338095D01*
X112738096Y-60480952D01*
X112166667Y-61052381D01*
X112785715Y-61052381D01*
X123128572Y-55447619D02*
X123033334Y-55400000D01*
X122938096Y-55304762D01*
X122795239Y-55161905D01*
X122700000Y-55114286D01*
X122604762Y-55114286D01*
X122652381Y-55352381D02*
X122557143Y-55304762D01*
X122461905Y-55209524D01*
X122414286Y-55019048D01*
X122414286Y-54685714D01*
X122461905Y-54495238D01*
X122557143Y-54400000D01*
X122652381Y-54352381D01*
X122842858Y-54352381D01*
X122938096Y-54400000D01*
X123033334Y-54495238D01*
X123080953Y-54685714D01*
X123080953Y-55019048D01*
X123033334Y-55209524D01*
X122938096Y-55304762D01*
X122842858Y-55352381D01*
X122652381Y-55352381D01*
X124033334Y-55352381D02*
X123461905Y-55352381D01*
X123747619Y-55352381D02*
X123747619Y-54352381D01*
X123652381Y-54495238D01*
X123557143Y-54590476D01*
X123461905Y-54638095D01*
X124985715Y-55352381D02*
X124414286Y-55352381D01*
X124700000Y-55352381D02*
X124700000Y-54352381D01*
X124604762Y-54495238D01*
X124509524Y-54590476D01*
X124414286Y-54638095D01*
X104473619Y-63309428D02*
X104426000Y-63404666D01*
X104330762Y-63499904D01*
X104187905Y-63642761D01*
X104140286Y-63738000D01*
X104140286Y-63833238D01*
X104378381Y-63785619D02*
X104330762Y-63880857D01*
X104235524Y-63976095D01*
X104045048Y-64023714D01*
X103711714Y-64023714D01*
X103521238Y-63976095D01*
X103426000Y-63880857D01*
X103378381Y-63785619D01*
X103378381Y-63595142D01*
X103426000Y-63499904D01*
X103521238Y-63404666D01*
X103711714Y-63357047D01*
X104045048Y-63357047D01*
X104235524Y-63404666D01*
X104330762Y-63499904D01*
X104378381Y-63595142D01*
X104378381Y-63785619D01*
X104378381Y-62404666D02*
X104378381Y-62976095D01*
X104378381Y-62690381D02*
X103378381Y-62690381D01*
X103521238Y-62785619D01*
X103616476Y-62880857D01*
X103664095Y-62976095D01*
X103378381Y-61785619D02*
X103378381Y-61690380D01*
X103426000Y-61595142D01*
X103473619Y-61547523D01*
X103568857Y-61499904D01*
X103759333Y-61452285D01*
X103997429Y-61452285D01*
X104187905Y-61499904D01*
X104283143Y-61547523D01*
X104330762Y-61595142D01*
X104378381Y-61690380D01*
X104378381Y-61785619D01*
X104330762Y-61880857D01*
X104283143Y-61928476D01*
X104187905Y-61976095D01*
X103997429Y-62023714D01*
X103759333Y-62023714D01*
X103568857Y-61976095D01*
X103473619Y-61928476D01*
X103426000Y-61880857D01*
X103378381Y-61785619D01*
X88423762Y-55134119D02*
X88328524Y-55086500D01*
X88233286Y-54991262D01*
X88090429Y-54848405D01*
X87995190Y-54800786D01*
X87899952Y-54800786D01*
X87947571Y-55038881D02*
X87852333Y-54991262D01*
X87757095Y-54896024D01*
X87709476Y-54705548D01*
X87709476Y-54372214D01*
X87757095Y-54181738D01*
X87852333Y-54086500D01*
X87947571Y-54038881D01*
X88138048Y-54038881D01*
X88233286Y-54086500D01*
X88328524Y-54181738D01*
X88376143Y-54372214D01*
X88376143Y-54705548D01*
X88328524Y-54896024D01*
X88233286Y-54991262D01*
X88138048Y-55038881D01*
X87947571Y-55038881D01*
X88852333Y-55038881D02*
X89042809Y-55038881D01*
X89138048Y-54991262D01*
X89185667Y-54943643D01*
X89280905Y-54800786D01*
X89328524Y-54610310D01*
X89328524Y-54229357D01*
X89280905Y-54134119D01*
X89233286Y-54086500D01*
X89138048Y-54038881D01*
X88947571Y-54038881D01*
X88852333Y-54086500D01*
X88804714Y-54134119D01*
X88757095Y-54229357D01*
X88757095Y-54467452D01*
X88804714Y-54562690D01*
X88852333Y-54610310D01*
X88947571Y-54657929D01*
X89138048Y-54657929D01*
X89233286Y-54610310D01*
X89280905Y-54562690D01*
X89328524Y-54467452D01*
X70347619Y-62895238D02*
X70300000Y-62990476D01*
X70204762Y-63085714D01*
X70061905Y-63228571D01*
X70014286Y-63323810D01*
X70014286Y-63419048D01*
X70252381Y-63371429D02*
X70204762Y-63466667D01*
X70109524Y-63561905D01*
X69919048Y-63609524D01*
X69585714Y-63609524D01*
X69395238Y-63561905D01*
X69300000Y-63466667D01*
X69252381Y-63371429D01*
X69252381Y-63180952D01*
X69300000Y-63085714D01*
X69395238Y-62990476D01*
X69585714Y-62942857D01*
X69919048Y-62942857D01*
X70109524Y-62990476D01*
X70204762Y-63085714D01*
X70252381Y-63180952D01*
X70252381Y-63371429D01*
X69680952Y-62371429D02*
X69633333Y-62466667D01*
X69585714Y-62514286D01*
X69490476Y-62561905D01*
X69442857Y-62561905D01*
X69347619Y-62514286D01*
X69300000Y-62466667D01*
X69252381Y-62371429D01*
X69252381Y-62180952D01*
X69300000Y-62085714D01*
X69347619Y-62038095D01*
X69442857Y-61990476D01*
X69490476Y-61990476D01*
X69585714Y-62038095D01*
X69633333Y-62085714D01*
X69680952Y-62180952D01*
X69680952Y-62371429D01*
X69728571Y-62466667D01*
X69776190Y-62514286D01*
X69871429Y-62561905D01*
X70061905Y-62561905D01*
X70157143Y-62514286D01*
X70204762Y-62466667D01*
X70252381Y-62371429D01*
X70252381Y-62180952D01*
X70204762Y-62085714D01*
X70157143Y-62038095D01*
X70061905Y-61990476D01*
X69871429Y-61990476D01*
X69776190Y-62038095D01*
X69728571Y-62085714D01*
X69680952Y-62180952D01*
X80105262Y-54753119D02*
X80010024Y-54705500D01*
X79914786Y-54610262D01*
X79771929Y-54467405D01*
X79676690Y-54419786D01*
X79581452Y-54419786D01*
X79629071Y-54657881D02*
X79533833Y-54610262D01*
X79438595Y-54515024D01*
X79390976Y-54324548D01*
X79390976Y-53991214D01*
X79438595Y-53800738D01*
X79533833Y-53705500D01*
X79629071Y-53657881D01*
X79819548Y-53657881D01*
X79914786Y-53705500D01*
X80010024Y-53800738D01*
X80057643Y-53991214D01*
X80057643Y-54324548D01*
X80010024Y-54515024D01*
X79914786Y-54610262D01*
X79819548Y-54657881D01*
X79629071Y-54657881D01*
X80390976Y-53657881D02*
X81057643Y-53657881D01*
X80629071Y-54657881D01*
X63679762Y-60872619D02*
X63584524Y-60825000D01*
X63489286Y-60729762D01*
X63346429Y-60586905D01*
X63251190Y-60539286D01*
X63155952Y-60539286D01*
X63203571Y-60777381D02*
X63108333Y-60729762D01*
X63013095Y-60634524D01*
X62965476Y-60444048D01*
X62965476Y-60110714D01*
X63013095Y-59920238D01*
X63108333Y-59825000D01*
X63203571Y-59777381D01*
X63394048Y-59777381D01*
X63489286Y-59825000D01*
X63584524Y-59920238D01*
X63632143Y-60110714D01*
X63632143Y-60444048D01*
X63584524Y-60634524D01*
X63489286Y-60729762D01*
X63394048Y-60777381D01*
X63203571Y-60777381D01*
X64489286Y-59777381D02*
X64298809Y-59777381D01*
X64203571Y-59825000D01*
X64155952Y-59872619D01*
X64060714Y-60015476D01*
X64013095Y-60205952D01*
X64013095Y-60586905D01*
X64060714Y-60682143D01*
X64108333Y-60729762D01*
X64203571Y-60777381D01*
X64394048Y-60777381D01*
X64489286Y-60729762D01*
X64536905Y-60682143D01*
X64584524Y-60586905D01*
X64584524Y-60348810D01*
X64536905Y-60253571D01*
X64489286Y-60205952D01*
X64394048Y-60158333D01*
X64203571Y-60158333D01*
X64108333Y-60205952D01*
X64060714Y-60253571D01*
X64013095Y-60348810D01*
X42629762Y-58697619D02*
X42534524Y-58650000D01*
X42439286Y-58554762D01*
X42296429Y-58411905D01*
X42201190Y-58364286D01*
X42105952Y-58364286D01*
X42153571Y-58602381D02*
X42058333Y-58554762D01*
X41963095Y-58459524D01*
X41915476Y-58269048D01*
X41915476Y-57935714D01*
X41963095Y-57745238D01*
X42058333Y-57650000D01*
X42153571Y-57602381D01*
X42344048Y-57602381D01*
X42439286Y-57650000D01*
X42534524Y-57745238D01*
X42582143Y-57935714D01*
X42582143Y-58269048D01*
X42534524Y-58459524D01*
X42439286Y-58554762D01*
X42344048Y-58602381D01*
X42153571Y-58602381D01*
X43486905Y-57602381D02*
X43010714Y-57602381D01*
X42963095Y-58078571D01*
X43010714Y-58030952D01*
X43105952Y-57983333D01*
X43344048Y-57983333D01*
X43439286Y-58030952D01*
X43486905Y-58078571D01*
X43534524Y-58173810D01*
X43534524Y-58411905D01*
X43486905Y-58507143D01*
X43439286Y-58554762D01*
X43344048Y-58602381D01*
X43105952Y-58602381D01*
X43010714Y-58554762D01*
X42963095Y-58507143D01*
X41560762Y-79033619D02*
X41465524Y-78986000D01*
X41370286Y-78890762D01*
X41227429Y-78747905D01*
X41132190Y-78700286D01*
X41036952Y-78700286D01*
X41084571Y-78938381D02*
X40989333Y-78890762D01*
X40894095Y-78795524D01*
X40846476Y-78605048D01*
X40846476Y-78271714D01*
X40894095Y-78081238D01*
X40989333Y-77986000D01*
X41084571Y-77938381D01*
X41275048Y-77938381D01*
X41370286Y-77986000D01*
X41465524Y-78081238D01*
X41513143Y-78271714D01*
X41513143Y-78605048D01*
X41465524Y-78795524D01*
X41370286Y-78890762D01*
X41275048Y-78938381D01*
X41084571Y-78938381D01*
X42370286Y-78271714D02*
X42370286Y-78938381D01*
X42132190Y-77890762D02*
X41894095Y-78605048D01*
X42513143Y-78605048D01*
X35404762Y-58772619D02*
X35309524Y-58725000D01*
X35214286Y-58629762D01*
X35071429Y-58486905D01*
X34976190Y-58439286D01*
X34880952Y-58439286D01*
X34928571Y-58677381D02*
X34833333Y-58629762D01*
X34738095Y-58534524D01*
X34690476Y-58344048D01*
X34690476Y-58010714D01*
X34738095Y-57820238D01*
X34833333Y-57725000D01*
X34928571Y-57677381D01*
X35119048Y-57677381D01*
X35214286Y-57725000D01*
X35309524Y-57820238D01*
X35357143Y-58010714D01*
X35357143Y-58344048D01*
X35309524Y-58534524D01*
X35214286Y-58629762D01*
X35119048Y-58677381D01*
X34928571Y-58677381D01*
X35690476Y-57677381D02*
X36309524Y-57677381D01*
X35976190Y-58058333D01*
X36119048Y-58058333D01*
X36214286Y-58105952D01*
X36261905Y-58153571D01*
X36309524Y-58248810D01*
X36309524Y-58486905D01*
X36261905Y-58582143D01*
X36214286Y-58629762D01*
X36119048Y-58677381D01*
X35833333Y-58677381D01*
X35738095Y-58629762D01*
X35690476Y-58582143D01*
X35512619Y-81375238D02*
X35465000Y-81470476D01*
X35369762Y-81565714D01*
X35226905Y-81708571D01*
X35179286Y-81803810D01*
X35179286Y-81899048D01*
X35417381Y-81851429D02*
X35369762Y-81946667D01*
X35274524Y-82041905D01*
X35084048Y-82089524D01*
X34750714Y-82089524D01*
X34560238Y-82041905D01*
X34465000Y-81946667D01*
X34417381Y-81851429D01*
X34417381Y-81660952D01*
X34465000Y-81565714D01*
X34560238Y-81470476D01*
X34750714Y-81422857D01*
X35084048Y-81422857D01*
X35274524Y-81470476D01*
X35369762Y-81565714D01*
X35417381Y-81660952D01*
X35417381Y-81851429D01*
X34512619Y-81041905D02*
X34465000Y-80994286D01*
X34417381Y-80899048D01*
X34417381Y-80660952D01*
X34465000Y-80565714D01*
X34512619Y-80518095D01*
X34607857Y-80470476D01*
X34703095Y-80470476D01*
X34845952Y-80518095D01*
X35417381Y-81089524D01*
X35417381Y-80470476D01*
X59817143Y-73667857D02*
X59864762Y-73715476D01*
X59912381Y-73858333D01*
X59912381Y-73953571D01*
X59864762Y-74096429D01*
X59769524Y-74191667D01*
X59674286Y-74239286D01*
X59483810Y-74286905D01*
X59340952Y-74286905D01*
X59150476Y-74239286D01*
X59055238Y-74191667D01*
X58960000Y-74096429D01*
X58912381Y-73953571D01*
X58912381Y-73858333D01*
X58960000Y-73715476D01*
X59007619Y-73667857D01*
X59007619Y-73286905D02*
X58960000Y-73239286D01*
X58912381Y-73144048D01*
X58912381Y-72905952D01*
X58960000Y-72810714D01*
X59007619Y-72763095D01*
X59102857Y-72715476D01*
X59198095Y-72715476D01*
X59340952Y-72763095D01*
X59912381Y-73334524D01*
X59912381Y-72715476D01*
X58912381Y-72382143D02*
X58912381Y-71763095D01*
X59293333Y-72096429D01*
X59293333Y-71953571D01*
X59340952Y-71858333D01*
X59388571Y-71810714D01*
X59483810Y-71763095D01*
X59721905Y-71763095D01*
X59817143Y-71810714D01*
X59864762Y-71858333D01*
X59912381Y-71953571D01*
X59912381Y-72239286D01*
X59864762Y-72334524D01*
X59817143Y-72382143D01*
X100965143Y-73921857D02*
X101012762Y-73969476D01*
X101060381Y-74112333D01*
X101060381Y-74207571D01*
X101012762Y-74350429D01*
X100917524Y-74445667D01*
X100822286Y-74493286D01*
X100631810Y-74540905D01*
X100488952Y-74540905D01*
X100298476Y-74493286D01*
X100203238Y-74445667D01*
X100108000Y-74350429D01*
X100060381Y-74207571D01*
X100060381Y-74112333D01*
X100108000Y-73969476D01*
X100155619Y-73921857D01*
X100155619Y-73540905D02*
X100108000Y-73493286D01*
X100060381Y-73398048D01*
X100060381Y-73159952D01*
X100108000Y-73064714D01*
X100155619Y-73017095D01*
X100250857Y-72969476D01*
X100346095Y-72969476D01*
X100488952Y-73017095D01*
X101060381Y-73588524D01*
X101060381Y-72969476D01*
X100393714Y-72112333D02*
X101060381Y-72112333D01*
X100012762Y-72350429D02*
X100727048Y-72588524D01*
X100727048Y-71969476D01*
X141605143Y-73413857D02*
X141652762Y-73461476D01*
X141700381Y-73604333D01*
X141700381Y-73699571D01*
X141652762Y-73842429D01*
X141557524Y-73937667D01*
X141462286Y-73985286D01*
X141271810Y-74032905D01*
X141128952Y-74032905D01*
X140938476Y-73985286D01*
X140843238Y-73937667D01*
X140748000Y-73842429D01*
X140700381Y-73699571D01*
X140700381Y-73604333D01*
X140748000Y-73461476D01*
X140795619Y-73413857D01*
X140795619Y-73032905D02*
X140748000Y-72985286D01*
X140700381Y-72890048D01*
X140700381Y-72651952D01*
X140748000Y-72556714D01*
X140795619Y-72509095D01*
X140890857Y-72461476D01*
X140986095Y-72461476D01*
X141128952Y-72509095D01*
X141700381Y-73080524D01*
X141700381Y-72461476D01*
X140700381Y-71556714D02*
X140700381Y-72032905D01*
X141176571Y-72080524D01*
X141128952Y-72032905D01*
X141081333Y-71937667D01*
X141081333Y-71699571D01*
X141128952Y-71604333D01*
X141176571Y-71556714D01*
X141271810Y-71509095D01*
X141509905Y-71509095D01*
X141605143Y-71556714D01*
X141652762Y-71604333D01*
X141700381Y-71699571D01*
X141700381Y-71937667D01*
X141652762Y-72032905D01*
X141605143Y-72080524D01*
X182308643Y-73032857D02*
X182356262Y-73080476D01*
X182403881Y-73223333D01*
X182403881Y-73318571D01*
X182356262Y-73461429D01*
X182261024Y-73556667D01*
X182165786Y-73604286D01*
X181975310Y-73651905D01*
X181832452Y-73651905D01*
X181641976Y-73604286D01*
X181546738Y-73556667D01*
X181451500Y-73461429D01*
X181403881Y-73318571D01*
X181403881Y-73223333D01*
X181451500Y-73080476D01*
X181499119Y-73032857D01*
X181499119Y-72651905D02*
X181451500Y-72604286D01*
X181403881Y-72509048D01*
X181403881Y-72270952D01*
X181451500Y-72175714D01*
X181499119Y-72128095D01*
X181594357Y-72080476D01*
X181689595Y-72080476D01*
X181832452Y-72128095D01*
X182403881Y-72699524D01*
X182403881Y-72080476D01*
X181403881Y-71223333D02*
X181403881Y-71413810D01*
X181451500Y-71509048D01*
X181499119Y-71556667D01*
X181641976Y-71651905D01*
X181832452Y-71699524D01*
X182213405Y-71699524D01*
X182308643Y-71651905D01*
X182356262Y-71604286D01*
X182403881Y-71509048D01*
X182403881Y-71318571D01*
X182356262Y-71223333D01*
X182308643Y-71175714D01*
X182213405Y-71128095D01*
X181975310Y-71128095D01*
X181880071Y-71175714D01*
X181832452Y-71223333D01*
X181784833Y-71318571D01*
X181784833Y-71509048D01*
X181832452Y-71604286D01*
X181880071Y-71651905D01*
X181975310Y-71699524D01*
X223964643Y-66746357D02*
X224012262Y-66793976D01*
X224059881Y-66936833D01*
X224059881Y-67032071D01*
X224012262Y-67174929D01*
X223917024Y-67270167D01*
X223821786Y-67317786D01*
X223631310Y-67365405D01*
X223488452Y-67365405D01*
X223297976Y-67317786D01*
X223202738Y-67270167D01*
X223107500Y-67174929D01*
X223059881Y-67032071D01*
X223059881Y-66936833D01*
X223107500Y-66793976D01*
X223155119Y-66746357D01*
X223155119Y-66365405D02*
X223107500Y-66317786D01*
X223059881Y-66222548D01*
X223059881Y-65984452D01*
X223107500Y-65889214D01*
X223155119Y-65841595D01*
X223250357Y-65793976D01*
X223345595Y-65793976D01*
X223488452Y-65841595D01*
X224059881Y-66413024D01*
X224059881Y-65793976D01*
X223059881Y-65460643D02*
X223059881Y-64793976D01*
X224059881Y-65222548D01*
X252157143Y-83142857D02*
X252204762Y-83190476D01*
X252252381Y-83333333D01*
X252252381Y-83428571D01*
X252204762Y-83571429D01*
X252109524Y-83666667D01*
X252014286Y-83714286D01*
X251823810Y-83761905D01*
X251680952Y-83761905D01*
X251490476Y-83714286D01*
X251395238Y-83666667D01*
X251300000Y-83571429D01*
X251252381Y-83428571D01*
X251252381Y-83333333D01*
X251300000Y-83190476D01*
X251347619Y-83142857D01*
X251347619Y-82761905D02*
X251300000Y-82714286D01*
X251252381Y-82619048D01*
X251252381Y-82380952D01*
X251300000Y-82285714D01*
X251347619Y-82238095D01*
X251442857Y-82190476D01*
X251538095Y-82190476D01*
X251680952Y-82238095D01*
X252252381Y-82809524D01*
X252252381Y-82190476D01*
X251680952Y-81619048D02*
X251633333Y-81714286D01*
X251585714Y-81761905D01*
X251490476Y-81809524D01*
X251442857Y-81809524D01*
X251347619Y-81761905D01*
X251300000Y-81714286D01*
X251252381Y-81619048D01*
X251252381Y-81428571D01*
X251300000Y-81333333D01*
X251347619Y-81285714D01*
X251442857Y-81238095D01*
X251490476Y-81238095D01*
X251585714Y-81285714D01*
X251633333Y-81333333D01*
X251680952Y-81428571D01*
X251680952Y-81619048D01*
X251728571Y-81714286D01*
X251776190Y-81761905D01*
X251871429Y-81809524D01*
X252061905Y-81809524D01*
X252157143Y-81761905D01*
X252204762Y-81714286D01*
X252252381Y-81619048D01*
X252252381Y-81428571D01*
X252204762Y-81333333D01*
X252157143Y-81285714D01*
X252061905Y-81238095D01*
X251871429Y-81238095D01*
X251776190Y-81285714D01*
X251728571Y-81333333D01*
X251680952Y-81428571D01*
X62857143Y-75457143D02*
X62809524Y-75504762D01*
X62666667Y-75552381D01*
X62571429Y-75552381D01*
X62428571Y-75504762D01*
X62333333Y-75409524D01*
X62285714Y-75314286D01*
X62238095Y-75123810D01*
X62238095Y-74980952D01*
X62285714Y-74790476D01*
X62333333Y-74695238D01*
X62428571Y-74600000D01*
X62571429Y-74552381D01*
X62666667Y-74552381D01*
X62809524Y-74600000D01*
X62857143Y-74647619D01*
X63238095Y-74647619D02*
X63285714Y-74600000D01*
X63380952Y-74552381D01*
X63619048Y-74552381D01*
X63714286Y-74600000D01*
X63761905Y-74647619D01*
X63809524Y-74742857D01*
X63809524Y-74838095D01*
X63761905Y-74980952D01*
X63190476Y-75552381D01*
X63809524Y-75552381D01*
X64285714Y-75552381D02*
X64476190Y-75552381D01*
X64571429Y-75504762D01*
X64619048Y-75457143D01*
X64714286Y-75314286D01*
X64761905Y-75123810D01*
X64761905Y-74742857D01*
X64714286Y-74647619D01*
X64666667Y-74600000D01*
X64571429Y-74552381D01*
X64380952Y-74552381D01*
X64285714Y-74600000D01*
X64238095Y-74647619D01*
X64190476Y-74742857D01*
X64190476Y-74980952D01*
X64238095Y-75076190D01*
X64285714Y-75123810D01*
X64380952Y-75171429D01*
X64571429Y-75171429D01*
X64666667Y-75123810D01*
X64714286Y-75076190D01*
X64761905Y-74980952D01*
X104107143Y-71157143D02*
X104059524Y-71204762D01*
X103916667Y-71252381D01*
X103821429Y-71252381D01*
X103678571Y-71204762D01*
X103583333Y-71109524D01*
X103535714Y-71014286D01*
X103488095Y-70823810D01*
X103488095Y-70680952D01*
X103535714Y-70490476D01*
X103583333Y-70395238D01*
X103678571Y-70300000D01*
X103821429Y-70252381D01*
X103916667Y-70252381D01*
X104059524Y-70300000D01*
X104107143Y-70347619D01*
X104440476Y-70252381D02*
X105059524Y-70252381D01*
X104726190Y-70633333D01*
X104869048Y-70633333D01*
X104964286Y-70680952D01*
X105011905Y-70728571D01*
X105059524Y-70823810D01*
X105059524Y-71061905D01*
X105011905Y-71157143D01*
X104964286Y-71204762D01*
X104869048Y-71252381D01*
X104583333Y-71252381D01*
X104488095Y-71204762D01*
X104440476Y-71157143D01*
X105678571Y-70252381D02*
X105773810Y-70252381D01*
X105869048Y-70300000D01*
X105916667Y-70347619D01*
X105964286Y-70442857D01*
X106011905Y-70633333D01*
X106011905Y-70871429D01*
X105964286Y-71061905D01*
X105916667Y-71157143D01*
X105869048Y-71204762D01*
X105773810Y-71252381D01*
X105678571Y-71252381D01*
X105583333Y-71204762D01*
X105535714Y-71157143D01*
X105488095Y-71061905D01*
X105440476Y-70871429D01*
X105440476Y-70633333D01*
X105488095Y-70442857D01*
X105535714Y-70347619D01*
X105583333Y-70300000D01*
X105678571Y-70252381D01*
X144657143Y-70932143D02*
X144609524Y-70979762D01*
X144466667Y-71027381D01*
X144371429Y-71027381D01*
X144228571Y-70979762D01*
X144133333Y-70884524D01*
X144085714Y-70789286D01*
X144038095Y-70598810D01*
X144038095Y-70455952D01*
X144085714Y-70265476D01*
X144133333Y-70170238D01*
X144228571Y-70075000D01*
X144371429Y-70027381D01*
X144466667Y-70027381D01*
X144609524Y-70075000D01*
X144657143Y-70122619D01*
X144990476Y-70027381D02*
X145609524Y-70027381D01*
X145276190Y-70408333D01*
X145419048Y-70408333D01*
X145514286Y-70455952D01*
X145561905Y-70503571D01*
X145609524Y-70598810D01*
X145609524Y-70836905D01*
X145561905Y-70932143D01*
X145514286Y-70979762D01*
X145419048Y-71027381D01*
X145133333Y-71027381D01*
X145038095Y-70979762D01*
X144990476Y-70932143D01*
X146561905Y-71027381D02*
X145990476Y-71027381D01*
X146276190Y-71027381D02*
X146276190Y-70027381D01*
X146180952Y-70170238D01*
X146085714Y-70265476D01*
X145990476Y-70313095D01*
X184882143Y-70532143D02*
X184834524Y-70579762D01*
X184691667Y-70627381D01*
X184596429Y-70627381D01*
X184453571Y-70579762D01*
X184358333Y-70484524D01*
X184310714Y-70389286D01*
X184263095Y-70198810D01*
X184263095Y-70055952D01*
X184310714Y-69865476D01*
X184358333Y-69770238D01*
X184453571Y-69675000D01*
X184596429Y-69627381D01*
X184691667Y-69627381D01*
X184834524Y-69675000D01*
X184882143Y-69722619D01*
X185215476Y-69627381D02*
X185834524Y-69627381D01*
X185501190Y-70008333D01*
X185644048Y-70008333D01*
X185739286Y-70055952D01*
X185786905Y-70103571D01*
X185834524Y-70198810D01*
X185834524Y-70436905D01*
X185786905Y-70532143D01*
X185739286Y-70579762D01*
X185644048Y-70627381D01*
X185358333Y-70627381D01*
X185263095Y-70579762D01*
X185215476Y-70532143D01*
X186215476Y-69722619D02*
X186263095Y-69675000D01*
X186358333Y-69627381D01*
X186596429Y-69627381D01*
X186691667Y-69675000D01*
X186739286Y-69722619D01*
X186786905Y-69817857D01*
X186786905Y-69913095D01*
X186739286Y-70055952D01*
X186167857Y-70627381D01*
X186786905Y-70627381D01*
X226932143Y-64107143D02*
X226884524Y-64154762D01*
X226741667Y-64202381D01*
X226646429Y-64202381D01*
X226503571Y-64154762D01*
X226408333Y-64059524D01*
X226360714Y-63964286D01*
X226313095Y-63773810D01*
X226313095Y-63630952D01*
X226360714Y-63440476D01*
X226408333Y-63345238D01*
X226503571Y-63250000D01*
X226646429Y-63202381D01*
X226741667Y-63202381D01*
X226884524Y-63250000D01*
X226932143Y-63297619D01*
X227265476Y-63202381D02*
X227884524Y-63202381D01*
X227551190Y-63583333D01*
X227694048Y-63583333D01*
X227789286Y-63630952D01*
X227836905Y-63678571D01*
X227884524Y-63773810D01*
X227884524Y-64011905D01*
X227836905Y-64107143D01*
X227789286Y-64154762D01*
X227694048Y-64202381D01*
X227408333Y-64202381D01*
X227313095Y-64154762D01*
X227265476Y-64107143D01*
X228217857Y-63202381D02*
X228836905Y-63202381D01*
X228503571Y-63583333D01*
X228646429Y-63583333D01*
X228741667Y-63630952D01*
X228789286Y-63678571D01*
X228836905Y-63773810D01*
X228836905Y-64011905D01*
X228789286Y-64107143D01*
X228741667Y-64154762D01*
X228646429Y-64202381D01*
X228360714Y-64202381D01*
X228265476Y-64154762D01*
X228217857Y-64107143D01*
X246951643Y-83129357D02*
X246999262Y-83176976D01*
X247046881Y-83319833D01*
X247046881Y-83415071D01*
X246999262Y-83557929D01*
X246904024Y-83653167D01*
X246808786Y-83700786D01*
X246618310Y-83748405D01*
X246475452Y-83748405D01*
X246284976Y-83700786D01*
X246189738Y-83653167D01*
X246094500Y-83557929D01*
X246046881Y-83415071D01*
X246046881Y-83319833D01*
X246094500Y-83176976D01*
X246142119Y-83129357D01*
X246046881Y-82796024D02*
X246046881Y-82176976D01*
X246427833Y-82510310D01*
X246427833Y-82367452D01*
X246475452Y-82272214D01*
X246523071Y-82224595D01*
X246618310Y-82176976D01*
X246856405Y-82176976D01*
X246951643Y-82224595D01*
X246999262Y-82272214D01*
X247046881Y-82367452D01*
X247046881Y-82653167D01*
X246999262Y-82748405D01*
X246951643Y-82796024D01*
X246380214Y-81319833D02*
X247046881Y-81319833D01*
X245999262Y-81557929D02*
X246713548Y-81796024D01*
X246713548Y-81176976D01*
X66488095Y-74577381D02*
X66488095Y-75386905D01*
X66535714Y-75482143D01*
X66583333Y-75529762D01*
X66678571Y-75577381D01*
X66869048Y-75577381D01*
X66964286Y-75529762D01*
X67011905Y-75482143D01*
X67059524Y-75386905D01*
X67059524Y-74577381D01*
X67964286Y-74910714D02*
X67964286Y-75577381D01*
X67726190Y-74529762D02*
X67488095Y-75244048D01*
X68107143Y-75244048D01*
X148588095Y-73377381D02*
X148588095Y-74186905D01*
X148635714Y-74282143D01*
X148683333Y-74329762D01*
X148778571Y-74377381D01*
X148969048Y-74377381D01*
X149064286Y-74329762D01*
X149111905Y-74282143D01*
X149159524Y-74186905D01*
X149159524Y-73377381D01*
X149683333Y-74377381D02*
X149873809Y-74377381D01*
X149969048Y-74329762D01*
X150016667Y-74282143D01*
X150111905Y-74139286D01*
X150159524Y-73948810D01*
X150159524Y-73567857D01*
X150111905Y-73472619D01*
X150064286Y-73425000D01*
X149969048Y-73377381D01*
X149778571Y-73377381D01*
X149683333Y-73425000D01*
X149635714Y-73472619D01*
X149588095Y-73567857D01*
X149588095Y-73805952D01*
X149635714Y-73901190D01*
X149683333Y-73948810D01*
X149778571Y-73996429D01*
X149969048Y-73996429D01*
X150064286Y-73948810D01*
X150111905Y-73901190D01*
X150159524Y-73805952D01*
X110563095Y-75527381D02*
X110563095Y-76336905D01*
X110610714Y-76432143D01*
X110658333Y-76479762D01*
X110753571Y-76527381D01*
X110944048Y-76527381D01*
X111039286Y-76479762D01*
X111086905Y-76432143D01*
X111134524Y-76336905D01*
X111134524Y-75527381D01*
X111515476Y-75527381D02*
X112182143Y-75527381D01*
X111753571Y-76527381D01*
X231711905Y-66852381D02*
X231711905Y-67661905D01*
X231759524Y-67757143D01*
X231807143Y-67804762D01*
X231902381Y-67852381D01*
X232092858Y-67852381D01*
X232188096Y-67804762D01*
X232235715Y-67757143D01*
X232283334Y-67661905D01*
X232283334Y-66852381D01*
X233283334Y-67852381D02*
X232711905Y-67852381D01*
X232997619Y-67852381D02*
X232997619Y-66852381D01*
X232902381Y-66995238D01*
X232807143Y-67090476D01*
X232711905Y-67138095D01*
X234140477Y-67185714D02*
X234140477Y-67852381D01*
X233902381Y-66804762D02*
X233664286Y-67519048D01*
X234283334Y-67519048D01*
X192786905Y-74227381D02*
X192786905Y-75036905D01*
X192834524Y-75132143D01*
X192882143Y-75179762D01*
X192977381Y-75227381D01*
X193167858Y-75227381D01*
X193263096Y-75179762D01*
X193310715Y-75132143D01*
X193358334Y-75036905D01*
X193358334Y-74227381D01*
X194358334Y-75227381D02*
X193786905Y-75227381D01*
X194072619Y-75227381D02*
X194072619Y-74227381D01*
X193977381Y-74370238D01*
X193882143Y-74465476D01*
X193786905Y-74513095D01*
X195310715Y-75227381D02*
X194739286Y-75227381D01*
X195025000Y-75227381D02*
X195025000Y-74227381D01*
X194929762Y-74370238D01*
X194834524Y-74465476D01*
X194739286Y-74513095D01*
X255841643Y-82938857D02*
X255889262Y-82986476D01*
X255936881Y-83129333D01*
X255936881Y-83224571D01*
X255889262Y-83367429D01*
X255794024Y-83462667D01*
X255698786Y-83510286D01*
X255508310Y-83557905D01*
X255365452Y-83557905D01*
X255174976Y-83510286D01*
X255079738Y-83462667D01*
X254984500Y-83367429D01*
X254936881Y-83224571D01*
X254936881Y-83129333D01*
X254984500Y-82986476D01*
X255032119Y-82938857D01*
X255936881Y-81986476D02*
X255936881Y-82557905D01*
X255936881Y-82272191D02*
X254936881Y-82272191D01*
X255079738Y-82367429D01*
X255174976Y-82462667D01*
X255222595Y-82557905D01*
X254936881Y-81653143D02*
X254936881Y-80986476D01*
X255936881Y-81415048D01*
X59182143Y-68397357D02*
X59229762Y-68444976D01*
X59277381Y-68587833D01*
X59277381Y-68683071D01*
X59229762Y-68825929D01*
X59134524Y-68921167D01*
X59039286Y-68968786D01*
X58848810Y-69016405D01*
X58705952Y-69016405D01*
X58515476Y-68968786D01*
X58420238Y-68921167D01*
X58325000Y-68825929D01*
X58277381Y-68683071D01*
X58277381Y-68587833D01*
X58325000Y-68444976D01*
X58372619Y-68397357D01*
X59277381Y-67444976D02*
X59277381Y-68016405D01*
X59277381Y-67730691D02*
X58277381Y-67730691D01*
X58420238Y-67825929D01*
X58515476Y-67921167D01*
X58563095Y-68016405D01*
X59277381Y-66968786D02*
X59277381Y-66778310D01*
X59229762Y-66683071D01*
X59182143Y-66635452D01*
X59039286Y-66540214D01*
X58848810Y-66492595D01*
X58467857Y-66492595D01*
X58372619Y-66540214D01*
X58325000Y-66587833D01*
X58277381Y-66683071D01*
X58277381Y-66873548D01*
X58325000Y-66968786D01*
X58372619Y-67016405D01*
X58467857Y-67064024D01*
X58705952Y-67064024D01*
X58801190Y-67016405D01*
X58848810Y-66968786D01*
X58896429Y-66873548D01*
X58896429Y-66683071D01*
X58848810Y-66587833D01*
X58801190Y-66540214D01*
X58705952Y-66492595D01*
X53933334Y-58577381D02*
X53457143Y-58577381D01*
X53457143Y-57577381D01*
X54790477Y-58577381D02*
X54219048Y-58577381D01*
X54504762Y-58577381D02*
X54504762Y-57577381D01*
X54409524Y-57720238D01*
X54314286Y-57815476D01*
X54219048Y-57863095D01*
X30146667Y-84517381D02*
X30146667Y-85231667D01*
X30099047Y-85374524D01*
X30003809Y-85469762D01*
X29860952Y-85517381D01*
X29765714Y-85517381D01*
X31146667Y-85517381D02*
X30575238Y-85517381D01*
X30860952Y-85517381D02*
X30860952Y-84517381D01*
X30765714Y-84660238D01*
X30670476Y-84755476D01*
X30575238Y-84803095D01*
X258873667Y-54316381D02*
X258873667Y-55030667D01*
X258826047Y-55173524D01*
X258730809Y-55268762D01*
X258587952Y-55316381D01*
X258492714Y-55316381D01*
X259302238Y-54411619D02*
X259349857Y-54364000D01*
X259445095Y-54316381D01*
X259683191Y-54316381D01*
X259778429Y-54364000D01*
X259826048Y-54411619D01*
X259873667Y-54506857D01*
X259873667Y-54602095D01*
X259826048Y-54744952D01*
X259254619Y-55316381D01*
X259873667Y-55316381D01*
X262556667Y-84517381D02*
X262556667Y-85231667D01*
X262509047Y-85374524D01*
X262413809Y-85469762D01*
X262270952Y-85517381D01*
X262175714Y-85517381D01*
X262937619Y-84517381D02*
X263556667Y-84517381D01*
X263223333Y-84898333D01*
X263366191Y-84898333D01*
X263461429Y-84945952D01*
X263509048Y-84993571D01*
X263556667Y-85088810D01*
X263556667Y-85326905D01*
X263509048Y-85422143D01*
X263461429Y-85469762D01*
X263366191Y-85517381D01*
X263080476Y-85517381D01*
X262985238Y-85469762D01*
X262937619Y-85422143D01*
X32291667Y-57702381D02*
X32291667Y-58416667D01*
X32244047Y-58559524D01*
X32148809Y-58654762D01*
X32005952Y-58702381D01*
X31910714Y-58702381D01*
X33196429Y-58035714D02*
X33196429Y-58702381D01*
X32958333Y-57654762D02*
X32720238Y-58369048D01*
X33339286Y-58369048D01*
X53856095Y-58888381D02*
X54427524Y-58888381D01*
X54141809Y-59888381D02*
X54141809Y-58888381D01*
X54760857Y-59888381D02*
X54760857Y-58888381D01*
X55141810Y-58888381D01*
X55237048Y-58936000D01*
X55284667Y-58983619D01*
X55332286Y-59078857D01*
X55332286Y-59221714D01*
X55284667Y-59316952D01*
X55237048Y-59364571D01*
X55141810Y-59412190D01*
X54760857Y-59412190D01*
X56284667Y-59888381D02*
X55713238Y-59888381D01*
X55998952Y-59888381D02*
X55998952Y-58888381D01*
X55903714Y-59031238D01*
X55808476Y-59126476D01*
X55713238Y-59174095D01*
X54364095Y-77354381D02*
X54935524Y-77354381D01*
X54649809Y-78354381D02*
X54649809Y-77354381D01*
X55268857Y-78354381D02*
X55268857Y-77354381D01*
X55649810Y-77354381D01*
X55745048Y-77402000D01*
X55792667Y-77449619D01*
X55840286Y-77544857D01*
X55840286Y-77687714D01*
X55792667Y-77782952D01*
X55745048Y-77830571D01*
X55649810Y-77878190D01*
X55268857Y-77878190D01*
X56745048Y-77354381D02*
X56268857Y-77354381D01*
X56221238Y-77830571D01*
X56268857Y-77782952D01*
X56364095Y-77735333D01*
X56602191Y-77735333D01*
X56697429Y-77782952D01*
X56745048Y-77830571D01*
X56792667Y-77925810D01*
X56792667Y-78163905D01*
X56745048Y-78259143D01*
X56697429Y-78306762D01*
X56602191Y-78354381D01*
X56364095Y-78354381D01*
X56268857Y-78306762D01*
X56221238Y-78259143D01*
X54313095Y-67027381D02*
X54884524Y-67027381D01*
X54598809Y-68027381D02*
X54598809Y-67027381D01*
X55217857Y-68027381D02*
X55217857Y-67027381D01*
X55598810Y-67027381D01*
X55694048Y-67075000D01*
X55741667Y-67122619D01*
X55789286Y-67217857D01*
X55789286Y-67360714D01*
X55741667Y-67455952D01*
X55694048Y-67503571D01*
X55598810Y-67551190D01*
X55217857Y-67551190D01*
X56646429Y-67027381D02*
X56455952Y-67027381D01*
X56360714Y-67075000D01*
X56313095Y-67122619D01*
X56217857Y-67265476D01*
X56170238Y-67455952D01*
X56170238Y-67836905D01*
X56217857Y-67932143D01*
X56265476Y-67979762D01*
X56360714Y-68027381D01*
X56551191Y-68027381D01*
X56646429Y-67979762D01*
X56694048Y-67932143D01*
X56741667Y-67836905D01*
X56741667Y-67598810D01*
X56694048Y-67503571D01*
X56646429Y-67455952D01*
X56551191Y-67408333D01*
X56360714Y-67408333D01*
X56265476Y-67455952D01*
X56217857Y-67503571D01*
X56170238Y-67598810D01*
X198638095Y-83302381D02*
X199209524Y-83302381D01*
X198923809Y-84302381D02*
X198923809Y-83302381D01*
X199542857Y-84302381D02*
X199542857Y-83302381D01*
X199923810Y-83302381D01*
X200019048Y-83350000D01*
X200066667Y-83397619D01*
X200114286Y-83492857D01*
X200114286Y-83635714D01*
X200066667Y-83730952D01*
X200019048Y-83778571D01*
X199923810Y-83826190D01*
X199542857Y-83826190D01*
X200447619Y-83302381D02*
X201114286Y-83302381D01*
X200685714Y-84302381D01*
X193813095Y-83852381D02*
X194384524Y-83852381D01*
X194098809Y-84852381D02*
X194098809Y-83852381D01*
X194717857Y-84852381D02*
X194717857Y-83852381D01*
X195098810Y-83852381D01*
X195194048Y-83900000D01*
X195241667Y-83947619D01*
X195289286Y-84042857D01*
X195289286Y-84185714D01*
X195241667Y-84280952D01*
X195194048Y-84328571D01*
X195098810Y-84376190D01*
X194717857Y-84376190D01*
X195860714Y-84280952D02*
X195765476Y-84233333D01*
X195717857Y-84185714D01*
X195670238Y-84090476D01*
X195670238Y-84042857D01*
X195717857Y-83947619D01*
X195765476Y-83900000D01*
X195860714Y-83852381D01*
X196051191Y-83852381D01*
X196146429Y-83900000D01*
X196194048Y-83947619D01*
X196241667Y-84042857D01*
X196241667Y-84090476D01*
X196194048Y-84185714D01*
X196146429Y-84233333D01*
X196051191Y-84280952D01*
X195860714Y-84280952D01*
X195765476Y-84328571D01*
X195717857Y-84376190D01*
X195670238Y-84471429D01*
X195670238Y-84661905D01*
X195717857Y-84757143D01*
X195765476Y-84804762D01*
X195860714Y-84852381D01*
X196051191Y-84852381D01*
X196146429Y-84804762D01*
X196194048Y-84757143D01*
X196241667Y-84661905D01*
X196241667Y-84471429D01*
X196194048Y-84376190D01*
X196146429Y-84328571D01*
X196051191Y-84280952D01*
X177681095Y-81100881D02*
X178252524Y-81100881D01*
X177966809Y-82100881D02*
X177966809Y-81100881D01*
X178585857Y-82100881D02*
X178585857Y-81100881D01*
X178966810Y-81100881D01*
X179062048Y-81148500D01*
X179109667Y-81196119D01*
X179157286Y-81291357D01*
X179157286Y-81434214D01*
X179109667Y-81529452D01*
X179062048Y-81577071D01*
X178966810Y-81624690D01*
X178585857Y-81624690D01*
X179633476Y-82100881D02*
X179823952Y-82100881D01*
X179919191Y-82053262D01*
X179966810Y-82005643D01*
X180062048Y-81862786D01*
X180109667Y-81672310D01*
X180109667Y-81291357D01*
X180062048Y-81196119D01*
X180014429Y-81148500D01*
X179919191Y-81100881D01*
X179728714Y-81100881D01*
X179633476Y-81148500D01*
X179585857Y-81196119D01*
X179538238Y-81291357D01*
X179538238Y-81529452D01*
X179585857Y-81624690D01*
X179633476Y-81672310D01*
X179728714Y-81719929D01*
X179919191Y-81719929D01*
X180014429Y-81672310D01*
X180062048Y-81624690D01*
X180109667Y-81529452D01*
X52711905Y-74352381D02*
X53283334Y-74352381D01*
X52997619Y-75352381D02*
X52997619Y-74352381D01*
X53616667Y-75352381D02*
X53616667Y-74352381D01*
X53997620Y-74352381D01*
X54092858Y-74400000D01*
X54140477Y-74447619D01*
X54188096Y-74542857D01*
X54188096Y-74685714D01*
X54140477Y-74780952D01*
X54092858Y-74828571D01*
X53997620Y-74876190D01*
X53616667Y-74876190D01*
X55140477Y-75352381D02*
X54569048Y-75352381D01*
X54854762Y-75352381D02*
X54854762Y-74352381D01*
X54759524Y-74495238D01*
X54664286Y-74590476D01*
X54569048Y-74638095D01*
X55759524Y-74352381D02*
X55854763Y-74352381D01*
X55950001Y-74400000D01*
X55997620Y-74447619D01*
X56045239Y-74542857D01*
X56092858Y-74733333D01*
X56092858Y-74971429D01*
X56045239Y-75161905D01*
X55997620Y-75257143D01*
X55950001Y-75304762D01*
X55854763Y-75352381D01*
X55759524Y-75352381D01*
X55664286Y-75304762D01*
X55616667Y-75257143D01*
X55569048Y-75161905D01*
X55521429Y-74971429D01*
X55521429Y-74733333D01*
X55569048Y-74542857D01*
X55616667Y-74447619D01*
X55664286Y-74400000D01*
X55759524Y-74352381D01*
X59707143Y-62791666D02*
X59754762Y-62839285D01*
X59802381Y-62982142D01*
X59802381Y-63077380D01*
X59754762Y-63220238D01*
X59659524Y-63315476D01*
X59564286Y-63363095D01*
X59373810Y-63410714D01*
X59230952Y-63410714D01*
X59040476Y-63363095D01*
X58945238Y-63315476D01*
X58850000Y-63220238D01*
X58802381Y-63077380D01*
X58802381Y-62982142D01*
X58850000Y-62839285D01*
X58897619Y-62791666D01*
X59802381Y-61839285D02*
X59802381Y-62410714D01*
X59802381Y-62125000D02*
X58802381Y-62125000D01*
X58945238Y-62220238D01*
X59040476Y-62315476D01*
X59088095Y-62410714D01*
X98631143Y-59158166D02*
X98678762Y-59205785D01*
X98726381Y-59348642D01*
X98726381Y-59443880D01*
X98678762Y-59586738D01*
X98583524Y-59681976D01*
X98488286Y-59729595D01*
X98297810Y-59777214D01*
X98154952Y-59777214D01*
X97964476Y-59729595D01*
X97869238Y-59681976D01*
X97774000Y-59586738D01*
X97726381Y-59443880D01*
X97726381Y-59348642D01*
X97774000Y-59205785D01*
X97821619Y-59158166D01*
X97821619Y-58777214D02*
X97774000Y-58729595D01*
X97726381Y-58634357D01*
X97726381Y-58396261D01*
X97774000Y-58301023D01*
X97821619Y-58253404D01*
X97916857Y-58205785D01*
X98012095Y-58205785D01*
X98154952Y-58253404D01*
X98726381Y-58824833D01*
X98726381Y-58205785D01*
X142573143Y-57253166D02*
X142620762Y-57300785D01*
X142668381Y-57443642D01*
X142668381Y-57538880D01*
X142620762Y-57681738D01*
X142525524Y-57776976D01*
X142430286Y-57824595D01*
X142239810Y-57872214D01*
X142096952Y-57872214D01*
X141906476Y-57824595D01*
X141811238Y-57776976D01*
X141716000Y-57681738D01*
X141668381Y-57538880D01*
X141668381Y-57443642D01*
X141716000Y-57300785D01*
X141763619Y-57253166D01*
X141668381Y-56919833D02*
X141668381Y-56300785D01*
X142049333Y-56634119D01*
X142049333Y-56491261D01*
X142096952Y-56396023D01*
X142144571Y-56348404D01*
X142239810Y-56300785D01*
X142477905Y-56300785D01*
X142573143Y-56348404D01*
X142620762Y-56396023D01*
X142668381Y-56491261D01*
X142668381Y-56776976D01*
X142620762Y-56872214D01*
X142573143Y-56919833D01*
X183975143Y-57634166D02*
X184022762Y-57681785D01*
X184070381Y-57824642D01*
X184070381Y-57919880D01*
X184022762Y-58062738D01*
X183927524Y-58157976D01*
X183832286Y-58205595D01*
X183641810Y-58253214D01*
X183498952Y-58253214D01*
X183308476Y-58205595D01*
X183213238Y-58157976D01*
X183118000Y-58062738D01*
X183070381Y-57919880D01*
X183070381Y-57824642D01*
X183118000Y-57681785D01*
X183165619Y-57634166D01*
X183403714Y-56777023D02*
X184070381Y-56777023D01*
X183022762Y-57015119D02*
X183737048Y-57253214D01*
X183737048Y-56634166D01*
X228044143Y-56300666D02*
X228091762Y-56348285D01*
X228139381Y-56491142D01*
X228139381Y-56586380D01*
X228091762Y-56729238D01*
X227996524Y-56824476D01*
X227901286Y-56872095D01*
X227710810Y-56919714D01*
X227567952Y-56919714D01*
X227377476Y-56872095D01*
X227282238Y-56824476D01*
X227187000Y-56729238D01*
X227139381Y-56586380D01*
X227139381Y-56491142D01*
X227187000Y-56348285D01*
X227234619Y-56300666D01*
X227139381Y-55395904D02*
X227139381Y-55872095D01*
X227615571Y-55919714D01*
X227567952Y-55872095D01*
X227520333Y-55776857D01*
X227520333Y-55538761D01*
X227567952Y-55443523D01*
X227615571Y-55395904D01*
X227710810Y-55348285D01*
X227948905Y-55348285D01*
X228044143Y-55395904D01*
X228091762Y-55443523D01*
X228139381Y-55538761D01*
X228139381Y-55776857D01*
X228091762Y-55872095D01*
X228044143Y-55919714D01*
X231346143Y-56427666D02*
X231393762Y-56475285D01*
X231441381Y-56618142D01*
X231441381Y-56713380D01*
X231393762Y-56856238D01*
X231298524Y-56951476D01*
X231203286Y-56999095D01*
X231012810Y-57046714D01*
X230869952Y-57046714D01*
X230679476Y-56999095D01*
X230584238Y-56951476D01*
X230489000Y-56856238D01*
X230441381Y-56713380D01*
X230441381Y-56618142D01*
X230489000Y-56475285D01*
X230536619Y-56427666D01*
X230441381Y-55570523D02*
X230441381Y-55761000D01*
X230489000Y-55856238D01*
X230536619Y-55903857D01*
X230679476Y-55999095D01*
X230869952Y-56046714D01*
X231250905Y-56046714D01*
X231346143Y-55999095D01*
X231393762Y-55951476D01*
X231441381Y-55856238D01*
X231441381Y-55665761D01*
X231393762Y-55570523D01*
X231346143Y-55522904D01*
X231250905Y-55475285D01*
X231012810Y-55475285D01*
X230917571Y-55522904D01*
X230869952Y-55570523D01*
X230822333Y-55665761D01*
X230822333Y-55856238D01*
X230869952Y-55951476D01*
X230917571Y-55999095D01*
X231012810Y-56046714D01*
X134151905Y-84466381D02*
X134723334Y-84466381D01*
X134437619Y-85466381D02*
X134437619Y-84466381D01*
X135056667Y-85466381D02*
X135056667Y-84466381D01*
X135437620Y-84466381D01*
X135532858Y-84514000D01*
X135580477Y-84561619D01*
X135628096Y-84656857D01*
X135628096Y-84799714D01*
X135580477Y-84894952D01*
X135532858Y-84942571D01*
X135437620Y-84990190D01*
X135056667Y-84990190D01*
X136580477Y-85466381D02*
X136009048Y-85466381D01*
X136294762Y-85466381D02*
X136294762Y-84466381D01*
X136199524Y-84609238D01*
X136104286Y-84704476D01*
X136009048Y-84752095D01*
X137532858Y-85466381D02*
X136961429Y-85466381D01*
X137247143Y-85466381D02*
X137247143Y-84466381D01*
X137151905Y-84609238D01*
X137056667Y-84704476D01*
X136961429Y-84752095D01*
X185491595Y-54367381D02*
X186063024Y-54367381D01*
X185777309Y-55367381D02*
X185777309Y-54367381D01*
X186396357Y-55367381D02*
X186396357Y-54367381D01*
X186777310Y-54367381D01*
X186872548Y-54415000D01*
X186920167Y-54462619D01*
X186967786Y-54557857D01*
X186967786Y-54700714D01*
X186920167Y-54795952D01*
X186872548Y-54843571D01*
X186777310Y-54891190D01*
X186396357Y-54891190D01*
X187348738Y-54462619D02*
X187396357Y-54415000D01*
X187491595Y-54367381D01*
X187729691Y-54367381D01*
X187824929Y-54415000D01*
X187872548Y-54462619D01*
X187920167Y-54557857D01*
X187920167Y-54653095D01*
X187872548Y-54795952D01*
X187301119Y-55367381D01*
X187920167Y-55367381D01*
X172855095Y-86815881D02*
X173426524Y-86815881D01*
X173140809Y-87815881D02*
X173140809Y-86815881D01*
X173759857Y-87815881D02*
X173759857Y-86815881D01*
X174140810Y-86815881D01*
X174236048Y-86863500D01*
X174283667Y-86911119D01*
X174331286Y-87006357D01*
X174331286Y-87149214D01*
X174283667Y-87244452D01*
X174236048Y-87292071D01*
X174140810Y-87339690D01*
X173759857Y-87339690D01*
X174664619Y-86815881D02*
X175283667Y-86815881D01*
X174950333Y-87196833D01*
X175093191Y-87196833D01*
X175188429Y-87244452D01*
X175236048Y-87292071D01*
X175283667Y-87387310D01*
X175283667Y-87625405D01*
X175236048Y-87720643D01*
X175188429Y-87768262D01*
X175093191Y-87815881D01*
X174807476Y-87815881D01*
X174712238Y-87768262D01*
X174664619Y-87720643D01*
X190635095Y-71575881D02*
X191206524Y-71575881D01*
X190920809Y-72575881D02*
X190920809Y-71575881D01*
X191539857Y-72575881D02*
X191539857Y-71575881D01*
X191920810Y-71575881D01*
X192016048Y-71623500D01*
X192063667Y-71671119D01*
X192111286Y-71766357D01*
X192111286Y-71909214D01*
X192063667Y-72004452D01*
X192016048Y-72052071D01*
X191920810Y-72099690D01*
X191539857Y-72099690D01*
X192968429Y-71909214D02*
X192968429Y-72575881D01*
X192730333Y-71528262D02*
X192492238Y-72242548D01*
X193111286Y-72242548D01*
X61291667Y-57902381D02*
X61291667Y-58616667D01*
X61244047Y-58759524D01*
X61148809Y-58854762D01*
X61005952Y-58902381D01*
X60910714Y-58902381D01*
X62244048Y-57902381D02*
X61767857Y-57902381D01*
X61720238Y-58378571D01*
X61767857Y-58330952D01*
X61863095Y-58283333D01*
X62101191Y-58283333D01*
X62196429Y-58330952D01*
X62244048Y-58378571D01*
X62291667Y-58473810D01*
X62291667Y-58711905D01*
X62244048Y-58807143D01*
X62196429Y-58854762D01*
X62101191Y-58902381D01*
X61863095Y-58902381D01*
X61767857Y-58854762D01*
X61720238Y-58807143D01*
X259000667Y-57110381D02*
X259000667Y-57824667D01*
X258953047Y-57967524D01*
X258857809Y-58062762D01*
X258714952Y-58110381D01*
X258619714Y-58110381D01*
X259905429Y-57110381D02*
X259714952Y-57110381D01*
X259619714Y-57158000D01*
X259572095Y-57205619D01*
X259476857Y-57348476D01*
X259429238Y-57538952D01*
X259429238Y-57919905D01*
X259476857Y-58015143D01*
X259524476Y-58062762D01*
X259619714Y-58110381D01*
X259810191Y-58110381D01*
X259905429Y-58062762D01*
X259953048Y-58015143D01*
X260000667Y-57919905D01*
X260000667Y-57681810D01*
X259953048Y-57586571D01*
X259905429Y-57538952D01*
X259810191Y-57491333D01*
X259619714Y-57491333D01*
X259524476Y-57538952D01*
X259476857Y-57586571D01*
X259429238Y-57681810D01*
M02*
