M48
;DRILL file {KiCad 4.0.7-e2-6376~58~ubuntu14.04.1} date Sun Mar  4 07:57:24 2018
;FORMAT={-:-/ absolute / inch / decimal}
FMAT,2
INCH,TZ
T1C0.010
T2C0.016
T3C0.025
T4C0.039
T5C0.040
T6C0.047
T7C0.087
T8C0.108
T9C0.295
%
G90
G05
M72
T1
X1.45Y-2.28
X1.4625Y-2.695
X1.505Y-2.565
X1.52Y-2.75
X1.54Y-2.92
X1.55Y-2.3
X1.55Y-2.67
X1.62Y-3.28
X1.6575Y-2.9275
X1.6825Y-3.1025
X1.6925Y-3.065
X1.7325Y-3.42
X1.7325Y-3.535
X1.77Y-3.275
X1.82Y-2.42
X1.82Y-2.51
X1.86Y-2.3
X1.86Y-2.87
X1.86Y-2.93
X1.8675Y-3.355
X1.89Y-2.46
X1.89Y-2.55
X1.9525Y-3.0925
X1.97Y-2.75
X1.97Y-2.86
X1.98Y-2.36
X2.04Y-3.18
X2.08Y-3.27
X2.09Y-3.42
X2.12Y-3.38
X2.137Y-2.9776
X2.2225Y-3.4725
X2.2575Y-2.2725
X2.3525Y-2.37
X2.375Y-2.5775
X2.401Y-2.777
X2.425Y-2.56
X2.44Y-3.28
X2.4425Y-3.32
X2.474Y-2.787
X2.5679Y-2.8642
X2.5679Y-2.9557
X2.5975Y-3.4525
X2.6Y-3.56
X2.726Y-2.572
X2.7325Y-3.475
X2.735Y-3.08
X2.75Y-2.6
X2.95Y-3.09
X2.96Y-3.2125
X3.015Y-3.0975
X3.02Y-3.22
X3.08Y-2.54
X3.1Y-2.45
X3.1725Y-3.11
X3.27Y-2.255
X3.3Y-3.2025
X3.32Y-2.48
X3.38Y-2.945
X3.39Y-2.845
X3.405Y-2.59
X3.455Y-2.845
X3.455Y-2.945
X3.6725Y-3.1725
X3.7775Y-3.4775
X3.82Y-2.4125
X3.83Y-3.425
X3.8325Y-3.14
X3.8875Y-3.5125
X4.02Y-2.785
X4.0375Y-3.43
X4.0825Y-3.4775
X4.105Y-2.78
X4.17Y-2.7325
X4.23Y-2.7375
X4.235Y-2.69
X4.2575Y-3.425
X4.2725Y-3.37
X4.35Y-2.545
X4.4075Y-3.5
X4.42Y-3.0975
X4.425Y-3.3775
X4.4275Y-3.425
X4.44Y-3.15
X4.5075Y-3.2175
X4.6975Y-3.185
X4.6975Y-3.2825
X4.705Y-2.955
X4.705Y-3.0325
X4.74Y-2.7725
X4.785Y-3.1625
X4.7875Y-2.8275
X4.835Y-3.115
X4.8925Y-2.9375
X4.9075Y-2.2425
X4.9125Y-3.04
X4.915Y-2.33
X4.95Y-2.895
X4.9525Y-3.1225
X4.9725Y-2.97
X4.98Y-3.16
X5.0325Y-3.12
X5.0875Y-2.5
X5.0875Y-3.155
X5.09Y-2.425
X5.16Y-2.5725
X5.1675Y-3.105
X5.17Y-3.425
X5.1725Y-2.46
X5.1725Y-3.25
X5.2025Y-2.9275
X5.205Y-2.8425
X5.2225Y-3.1225
X5.2225Y-3.2175
X5.2525Y-3.425
X5.42Y-3.4375
X5.43Y-3.2225
X5.4325Y-2.9775
X5.5425Y-2.3375
X5.6225Y-2.785
X5.7Y-2.78
X5.745Y-3.36
X5.7748Y-3.3145
X5.8175Y-3.2725
X5.8325Y-2.4725
X5.9575Y-3.0325
X5.96Y-3.4375
X5.97Y-3.32
X6.0225Y-3.04
X6.0975Y-3.3675
X6.105Y-3.125
X6.1775Y-3.1225
X6.245Y-3.14
X6.2525Y-3.2725
X6.3083Y-3.1182
X6.345Y-2.2975
X6.375Y-3.155
X6.4225Y-2.26
X6.4625Y-3.1575
X6.48Y-2.9
X6.555Y-3.155
X6.56Y-2.415
X6.56Y-2.9375
X6.5625Y-2.5075
X6.6875Y-2.4575
X6.695Y-2.575
X6.7125Y-2.89
X6.745Y-2.7475
X6.8Y-2.815
X6.805Y-3.0975
X6.975Y-3.09
X7.0725Y-3.4375
X7.09Y-2.98
X7.0925Y-3.135
X7.1725Y-2.3625
X7.22Y-2.755
X7.25Y-3.4675
X7.275Y-3.4925
X7.325Y-2.7575
X7.3425Y-3.3725
X7.355Y-3.135
X7.3675Y-3.2275
X7.37Y-3.3975
X7.47Y-3.0625
X7.4925Y-3.02
X7.5275Y-2.5575
X7.6325Y-2.99
X7.635Y-3.03
X7.6475Y-3.4325
X7.66Y-3.055
X7.7125Y-3.185
X7.7375Y-3.09
X7.7525Y-2.96
X7.7525Y-3.0325
X7.7575Y-2.995
X7.775Y-3.14
X7.87Y-2.995
X7.87Y-3.0275
X7.87Y-3.085
X7.8725Y-2.9625
X7.915Y-3.1925
X7.93Y-3.385
X7.9875Y-3.1625
X8.04Y-3.2525
X8.1025Y-2.2525
X8.15Y-2.9525
X8.175Y-2.3425
X8.2375Y-2.9225
X8.425Y-2.5475
X8.425Y-2.64
X8.4625Y-2.5225
X8.4625Y-2.89
X8.465Y-2.6975
X8.5025Y-2.555
X8.5025Y-2.645
X8.51Y-2.805
X8.6024Y-3.1677
X8.655Y-3.2725
X8.6575Y-3.1875
X8.6975Y-2.7125
X8.6975Y-2.9625
X8.6975Y-3.1725
X8.7025Y-2.8925
X8.71Y-3.1125
X8.7275Y-3.375
X8.8075Y-3.3625
X8.845Y-2.8175
X8.8625Y-2.505
X8.8675Y-3.0025
X8.8727Y-2.9224
X8.905Y-2.2975
X8.9425Y-2.5075
X8.9825Y-2.2775
X9.0425Y-2.8275
X9.0575Y-3.0375
X9.062Y-2.8612
X9.065Y-2.91
X9.065Y-2.995
X9.0725Y-2.7575
X9.0925Y-2.64
X9.175Y-2.455
X9.2025Y-2.76
X9.2125Y-2.96
X9.215Y-3.165
X9.225Y-2.825
X9.2325Y-3.0025
X9.245Y-2.8525
X9.25Y-2.89
X9.26Y-3.195
X9.2725Y-3.1275
X9.295Y-3.18
X9.3025Y-2.4675
X9.34Y-3.2625
X9.3675Y-3.235
X9.4275Y-2.6775
X9.4675Y-3.1575
X9.4675Y-3.205
X9.4675Y-3.2475
X9.4775Y-2.7525
X9.48Y-3.3675
X9.4825Y-2.695
X9.515Y-2.615
X9.5225Y-2.7575
X9.5275Y-2.69
X9.565Y-2.51
X9.61Y-3.37
X9.64Y-2.515
X9.66Y-2.9775
X9.66Y-3.33
X9.67Y-2.36
X9.7125Y-2.2275
X9.735Y-2.93
X9.75Y-3.1575
X9.8225Y-2.9275
X9.8225Y-3.155
X9.845Y-2.46
X9.8625Y-2.8525
X9.895Y-2.5925
X9.925Y-3.365
X9.9375Y-2.4375
X9.94Y-2.8475
X9.94Y-2.935
X9.95Y-3.24
X9.99Y-2.275
X10.Y-2.7075
X10.Y-3.24
X10.Y-3.36
X10.045Y-3.26
X10.05Y-3.36
X10.1175Y-3.1425
T2
X1.82Y-3.3
X2.Y-3.12
X2.22Y-2.31
X2.24Y-2.5
X2.795Y-3.2475
X2.8Y-3.08
X3.76Y-3.405
X4.06Y-3.3275
X4.205Y-3.
X4.32Y-2.9975
X4.57Y-3.02
X4.6325Y-3.09
X4.6325Y-3.1825
X4.6375Y-3.335
X5.3675Y-3.2525
X5.3725Y-3.04
X5.7875Y-3.2125
X6.4775Y-3.265
X7.3425Y-3.045
X7.4425Y-3.145
X7.47Y-3.245
X7.8375Y-3.2475
X8.492Y-3.2073
X8.605Y-3.0975
X8.6375Y-2.84
X8.7454Y-3.3022
X9.075Y-3.24
X9.26Y-3.0525
X9.34Y-3.02
X9.58Y-3.2075
T3
X2.05Y-3.
X2.0625Y-2.3525
X2.19Y-2.59
X2.19Y-3.13
X5.35Y-3.41
X6.855Y-3.5025
X7.045Y-3.2775
X7.3525Y-2.225
X7.555Y-2.9025
X7.715Y-3.3975
X7.785Y-3.3375
T4
X10.025Y-2.365
X10.125Y-2.365
X10.225Y-2.365
X10.325Y-2.365
X10.425Y-2.365
T5
X8.2711Y-3.421
X8.2711Y-3.521
X8.3711Y-3.421
X8.3711Y-3.521
X8.4711Y-3.421
X8.4711Y-3.521
X8.5711Y-3.421
X8.5711Y-3.521
X8.6711Y-3.421
X8.6711Y-3.521
X8.7711Y-3.421
X8.7711Y-3.521
X8.8711Y-3.421
X8.8711Y-3.521
X8.9711Y-3.421
X8.9711Y-3.521
X9.0711Y-3.421
X9.0711Y-3.521
X9.1711Y-3.421
X9.1711Y-3.521
X9.2711Y-3.421
X9.2711Y-3.521
X9.3711Y-3.421
X9.3711Y-3.521
X9.4711Y-3.421
X9.4711Y-3.521
X9.5711Y-3.421
X9.5711Y-3.521
X9.6711Y-3.421
X9.6711Y-3.521
X9.7711Y-3.421
X9.7711Y-3.521
X9.8711Y-3.421
X9.8711Y-3.521
X9.9711Y-3.421
X9.9711Y-3.521
X10.0711Y-3.421
X10.0711Y-3.521
X10.1711Y-3.421
X10.1711Y-3.521
T6
X1.4054Y-2.7861
X1.4071Y-2.6013
X1.452Y-2.8914
X1.4799Y-2.4683
X1.557Y-2.9972
X1.5991Y-2.3786
X1.7474Y-2.3462
X1.801Y-3.0509
X1.8932Y-2.3776
X1.9008Y-2.1764
X1.9402Y-2.9977
X2.0146Y-2.4681
X2.0307Y-2.1764
X2.0468Y-2.8899
X2.0865Y-2.5989
X2.0982Y-2.7501
X2.1685Y-2.1764
X2.3063Y-2.1764
X2.9054Y-2.7861
X2.9071Y-2.6013
X2.952Y-2.8914
X2.9799Y-2.4683
X3.057Y-2.9972
X3.0991Y-2.3786
X3.2474Y-2.3462
X3.301Y-3.0509
X3.3932Y-2.3776
X3.4402Y-2.9977
X3.5146Y-2.4681
X3.5468Y-2.8899
X3.5865Y-2.5989
X3.5982Y-2.7501
X4.6554Y-2.7861
X4.6571Y-2.6013
X4.702Y-2.8914
X4.7299Y-2.4683
X4.807Y-2.9972
X4.8491Y-2.3786
X4.9974Y-2.3462
X5.051Y-3.0509
X5.1432Y-2.3776
X5.1902Y-2.9977
X5.2646Y-2.4681
X5.2968Y-2.8899
X5.3365Y-2.5989
X5.3482Y-2.7501
X6.1554Y-2.7861
X6.1571Y-2.6013
X6.202Y-2.8914
X6.2299Y-2.4683
X6.307Y-2.9972
X6.3491Y-2.3786
X6.4974Y-2.3462
X6.551Y-3.0509
X6.6432Y-2.3776
X6.6902Y-2.9977
X6.7646Y-2.4681
X6.7968Y-2.8899
X6.8365Y-2.5989
X6.8482Y-2.7501
X7.9054Y-2.7861
X7.9071Y-2.6013
X7.952Y-2.8914
X7.9799Y-2.4683
X8.057Y-2.9972
X8.0991Y-2.3786
X8.2474Y-2.3462
X8.301Y-3.0509
X8.3932Y-2.3776
X8.4402Y-2.9977
X8.5146Y-2.4681
X8.5468Y-2.8899
X8.5865Y-2.5989
X8.5982Y-2.7501
X9.4054Y-2.7861
X9.4071Y-2.6013
X9.452Y-2.8914
X9.4799Y-2.4683
X9.557Y-2.9972
X9.5991Y-2.3786
X9.7474Y-2.3462
X9.801Y-3.0509
X9.8932Y-2.3776
X9.9402Y-2.9977
X10.0146Y-2.4681
X10.0468Y-2.8899
X10.0865Y-2.5989
X10.0982Y-2.7501
T7
X1.2Y-2.2
X1.2Y-3.111
X1.2Y-3.475
X2.4992Y-2.197
X10.35Y-2.2
X10.35Y-3.475
T8
X8.0687Y-3.4722
T9
X1.75Y-2.7
X3.25Y-2.7
X5.Y-2.7
X6.5Y-2.7
X8.25Y-2.7
X9.75Y-2.7
T0
M30
