G04 #@! TF.FileFunction,Copper,L1,Top,Signal*
%FSLAX46Y46*%
G04 Gerber Fmt 4.6, Leading zero omitted, Abs format (unit mm)*
G04 Created by KiCad (PCBNEW 4.0.6+dfsg1-1) date Sun Apr  1 15:15:07 2018*
%MOMM*%
%LPD*%
G01*
G04 APERTURE LIST*
%ADD10C,0.100000*%
%ADD11R,1.300000X0.700000*%
%ADD12R,0.700000X1.300000*%
%ADD13R,0.600000X1.500000*%
%ADD14R,0.900000X0.800000*%
%ADD15R,0.800000X0.900000*%
%ADD16R,1.250000X1.000000*%
%ADD17R,1.950000X0.600000*%
%ADD18C,4.400000*%
%ADD19C,1.143000*%
%ADD20R,1.700000X1.700000*%
%ADD21O,1.700000X1.700000*%
%ADD22C,2.000000*%
%ADD23C,4.500000*%
%ADD24R,1.727200X1.727200*%
%ADD25O,1.727200X1.727200*%
%ADD26C,2.400000*%
%ADD27R,2.400000X2.400000*%
%ADD28C,0.508000*%
%ADD29C,1.016000*%
%ADD30C,0.254000*%
%ADD31C,0.400000*%
%ADD32C,0.152400*%
%ADD33C,0.200000*%
%ADD34C,1.000000*%
%ADD35C,0.600000*%
%ADD36C,0.750000*%
%ADD37C,0.250000*%
%ADD38C,0.330000*%
G04 APERTURE END LIST*
D10*
D11*
X238125000Y-59883000D03*
X238125000Y-61783000D03*
D12*
X56708080Y-61264800D03*
X54808080Y-61264800D03*
D13*
X236664500Y-84170500D03*
X237934500Y-84170500D03*
X239204500Y-84170500D03*
X240474500Y-84170500D03*
X241744500Y-84170500D03*
X243014500Y-84170500D03*
X244284500Y-84170500D03*
X244284500Y-78770500D03*
X243014500Y-78770500D03*
X241744500Y-78770500D03*
X240474500Y-78770500D03*
X239204500Y-78770500D03*
X237934500Y-78770500D03*
X236664500Y-78770500D03*
D12*
X234444500Y-54546500D03*
X236344500Y-54546500D03*
D11*
X249110500Y-57465000D03*
X249110500Y-55565000D03*
X236347000Y-65593000D03*
X236347000Y-63693000D03*
X233489500Y-64137500D03*
X233489500Y-66037500D03*
X229425500Y-66863000D03*
X229425500Y-64963000D03*
X240990120Y-57277040D03*
X240990120Y-55377040D03*
D12*
X236471500Y-57023000D03*
X234571500Y-57023000D03*
X218564500Y-57023000D03*
X216664500Y-57023000D03*
X198943000Y-61277500D03*
X197043000Y-61277500D03*
D11*
X208216500Y-57592000D03*
X208216500Y-55692000D03*
D12*
X192910500Y-66992500D03*
X191010500Y-66992500D03*
X191582000Y-70675500D03*
X193482000Y-70675500D03*
D11*
X188595000Y-73403500D03*
X188595000Y-71503500D03*
X198755000Y-58100000D03*
X198755000Y-56200000D03*
X195834000Y-58163500D03*
X195834000Y-56263500D03*
D12*
X175702000Y-56769000D03*
X173802000Y-56769000D03*
X155953500Y-61150500D03*
X154053500Y-61150500D03*
D11*
X164973000Y-57465000D03*
X164973000Y-55565000D03*
X148132800Y-64053680D03*
X148132800Y-65953680D03*
X144475200Y-64094320D03*
X144475200Y-65994320D03*
X146748500Y-73657500D03*
X146748500Y-71757500D03*
X155384500Y-57909500D03*
X155384500Y-56009500D03*
X151790400Y-58008560D03*
X151790400Y-56108560D03*
D12*
X138173500Y-57086500D03*
X136273500Y-57086500D03*
X115631000Y-62039500D03*
X113731000Y-62039500D03*
D11*
X127769620Y-57388800D03*
X127769620Y-55488800D03*
X109496860Y-65798660D03*
X109496860Y-67698660D03*
X105445560Y-65826600D03*
X105445560Y-67726600D03*
X106870500Y-74229000D03*
X106870500Y-72329000D03*
X117739160Y-57640260D03*
X117739160Y-55740260D03*
X112141000Y-58989000D03*
X112141000Y-57089000D03*
D12*
X93406000Y-57404000D03*
X91506000Y-57404000D03*
X73213000Y-60896500D03*
X71313000Y-60896500D03*
D11*
X85217000Y-57973000D03*
X85217000Y-56073000D03*
X67881500Y-67688500D03*
X67881500Y-65788500D03*
X62992000Y-65725000D03*
X62992000Y-67625000D03*
D12*
X70038000Y-69596000D03*
X68138000Y-69596000D03*
D11*
X76428600Y-57688520D03*
X76428600Y-55788520D03*
D12*
X73403500Y-56896000D03*
X71503500Y-56896000D03*
X34610000Y-77470000D03*
X36510000Y-77470000D03*
D11*
X39370000Y-54930000D03*
X39370000Y-56830000D03*
X42545000Y-86040000D03*
X42545000Y-84140000D03*
X38735000Y-84648000D03*
X38735000Y-86548000D03*
X36195000Y-86040000D03*
X36195000Y-84140000D03*
X30226000Y-62550000D03*
X30226000Y-64450000D03*
X30226000Y-66868000D03*
X30226000Y-68768000D03*
D14*
X251730000Y-55565000D03*
X251730000Y-57465000D03*
X253730000Y-56515000D03*
D15*
X233047500Y-61261500D03*
X234947500Y-61261500D03*
X233997500Y-59261500D03*
D14*
X243464840Y-55148440D03*
X243464840Y-57048440D03*
X245464840Y-56098440D03*
D15*
X229301000Y-61261500D03*
X231201000Y-61261500D03*
X230251000Y-59261500D03*
D14*
X211852000Y-55882500D03*
X211852000Y-57782500D03*
X213852000Y-56832500D03*
D15*
X191391500Y-63420500D03*
X193291500Y-63420500D03*
X192341500Y-61420500D03*
D14*
X201311000Y-56136500D03*
X201311000Y-58036500D03*
X203311000Y-57086500D03*
D15*
X186946500Y-63293500D03*
X188846500Y-63293500D03*
X187896500Y-61293500D03*
D14*
X167529000Y-55565000D03*
X167529000Y-57465000D03*
X169529000Y-56515000D03*
D15*
X148148000Y-61833000D03*
X150048000Y-61833000D03*
X149098000Y-59833000D03*
D14*
X158004000Y-56009500D03*
X158004000Y-57909500D03*
X160004000Y-56959500D03*
D15*
X144401500Y-61769500D03*
X146301500Y-61769500D03*
X145351500Y-59769500D03*
D14*
X130445000Y-56073000D03*
X130445000Y-57973000D03*
X132445000Y-57023000D03*
D15*
X109540000Y-63738000D03*
X111440000Y-63738000D03*
X110490000Y-61738000D03*
D14*
X120920000Y-55628500D03*
X120920000Y-57528500D03*
X122920000Y-56578500D03*
D15*
X105476000Y-63738000D03*
X107376000Y-63738000D03*
X106426000Y-61738000D03*
D14*
X87519000Y-56136500D03*
X87519000Y-58036500D03*
X89519000Y-57086500D03*
D15*
X66423500Y-63992000D03*
X68323500Y-63992000D03*
X67373500Y-61992000D03*
D14*
X79200500Y-55755500D03*
X79200500Y-57655500D03*
X81200500Y-56705500D03*
D15*
X62994500Y-63992000D03*
X64894500Y-63992000D03*
X63944500Y-61992000D03*
D14*
X42815000Y-54930000D03*
X42815000Y-56830000D03*
X44815000Y-55880000D03*
D15*
X40960000Y-82280000D03*
X42860000Y-82280000D03*
X41910000Y-80280000D03*
D14*
X34560000Y-54930000D03*
X34560000Y-56830000D03*
X36560000Y-55880000D03*
D15*
X36515000Y-82280000D03*
X38415000Y-82280000D03*
X37465000Y-80280000D03*
D16*
X60960000Y-74025000D03*
X60960000Y-72025000D03*
X102108000Y-74279000D03*
X102108000Y-72279000D03*
X142748000Y-73771000D03*
X142748000Y-71771000D03*
X183451500Y-73390000D03*
X183451500Y-71390000D03*
X225107500Y-67103500D03*
X225107500Y-65103500D03*
X250063000Y-83613500D03*
X250063000Y-81613500D03*
X63500000Y-74025000D03*
X63500000Y-72025000D03*
X104648000Y-74406000D03*
X104648000Y-72406000D03*
X144843500Y-73707500D03*
X144843500Y-71707500D03*
X186118500Y-73390000D03*
X186118500Y-71390000D03*
X227266500Y-66976500D03*
X227266500Y-64976500D03*
X248094500Y-83486500D03*
X248094500Y-81486500D03*
D17*
X58165000Y-76835000D03*
X58165000Y-78105000D03*
X58165000Y-79375000D03*
X58165000Y-80645000D03*
X58165000Y-81915000D03*
X58165000Y-83185000D03*
X58165000Y-84455000D03*
X58165000Y-85725000D03*
X58165000Y-86995000D03*
X58165000Y-88265000D03*
X67565000Y-88265000D03*
X67565000Y-86995000D03*
X67565000Y-85725000D03*
X67565000Y-84455000D03*
X67565000Y-83185000D03*
X67565000Y-81915000D03*
X67565000Y-80645000D03*
X67565000Y-79375000D03*
X67565000Y-78105000D03*
X67565000Y-76835000D03*
X140080000Y-75869800D03*
X140080000Y-77139800D03*
X140080000Y-78409800D03*
X140080000Y-79679800D03*
X140080000Y-80949800D03*
X140080000Y-82219800D03*
X140080000Y-83489800D03*
X140080000Y-84759800D03*
X140080000Y-86029800D03*
X140080000Y-87299800D03*
X149480000Y-87299800D03*
X149480000Y-86029800D03*
X149480000Y-84759800D03*
X149480000Y-83489800D03*
X149480000Y-82219800D03*
X149480000Y-80949800D03*
X149480000Y-79679800D03*
X149480000Y-78409800D03*
X149480000Y-77139800D03*
X149480000Y-75869800D03*
X100710000Y-77470000D03*
X100710000Y-78740000D03*
X100710000Y-80010000D03*
X100710000Y-81280000D03*
X100710000Y-82550000D03*
X100710000Y-83820000D03*
X100710000Y-85090000D03*
X100710000Y-86360000D03*
X100710000Y-87630000D03*
X100710000Y-88900000D03*
X110110000Y-88900000D03*
X110110000Y-87630000D03*
X110110000Y-86360000D03*
X110110000Y-85090000D03*
X110110000Y-83820000D03*
X110110000Y-82550000D03*
X110110000Y-81280000D03*
X110110000Y-80010000D03*
X110110000Y-78740000D03*
X110110000Y-77470000D03*
X222693500Y-68897500D03*
X222693500Y-70167500D03*
X222693500Y-71437500D03*
X222693500Y-72707500D03*
X222693500Y-73977500D03*
X222693500Y-75247500D03*
X222693500Y-76517500D03*
X222693500Y-77787500D03*
X222693500Y-79057500D03*
X222693500Y-80327500D03*
X232093500Y-80327500D03*
X232093500Y-79057500D03*
X232093500Y-77787500D03*
X232093500Y-76517500D03*
X232093500Y-75247500D03*
X232093500Y-73977500D03*
X232093500Y-72707500D03*
X232093500Y-71437500D03*
X232093500Y-70167500D03*
X232093500Y-68897500D03*
X182523400Y-75895200D03*
X182523400Y-77165200D03*
X182523400Y-78435200D03*
X182523400Y-79705200D03*
X182523400Y-80975200D03*
X182523400Y-82245200D03*
X182523400Y-83515200D03*
X182523400Y-84785200D03*
X182523400Y-86055200D03*
X182523400Y-87325200D03*
X191923400Y-87325200D03*
X191923400Y-86055200D03*
X191923400Y-84785200D03*
X191923400Y-83515200D03*
X191923400Y-82245200D03*
X191923400Y-80975200D03*
X191923400Y-79705200D03*
X191923400Y-78435200D03*
X191923400Y-77165200D03*
X191923400Y-75895200D03*
D16*
X256984500Y-83296000D03*
X256984500Y-81296000D03*
X60325000Y-68754500D03*
X60325000Y-66754500D03*
D12*
X55052000Y-58928000D03*
X53152000Y-58928000D03*
D18*
X30480000Y-88265000D03*
X262890000Y-55880000D03*
X262890000Y-88265000D03*
X30480000Y-55880000D03*
D19*
X51562000Y-58801000D03*
X55626000Y-79502000D03*
X55626000Y-65786000D03*
X197739000Y-84772500D03*
X195961000Y-86296500D03*
X178943000Y-83248500D03*
X51460400Y-76606400D03*
D16*
X60960000Y-61865000D03*
X60960000Y-63865000D03*
X96774000Y-57991500D03*
X96774000Y-59991500D03*
X140716000Y-56086500D03*
X140716000Y-58086500D03*
X182118000Y-56467500D03*
X182118000Y-58467500D03*
X226187000Y-55134000D03*
X226187000Y-57134000D03*
X229489000Y-55261000D03*
X229489000Y-57261000D03*
D19*
X135890000Y-86614000D03*
X186753500Y-56515000D03*
X174117000Y-88963500D03*
X191897000Y-73723500D03*
D20*
X254635000Y-60071000D03*
D21*
X257175000Y-60071000D03*
X259715000Y-60071000D03*
X262255000Y-60071000D03*
X264795000Y-60071000D03*
D22*
X41197092Y-60168592D03*
X39033665Y-75767720D03*
X36439216Y-72879821D03*
X35457154Y-69118381D03*
X35937038Y-65470661D03*
X38016404Y-62229375D03*
X45010367Y-59611249D03*
X48649987Y-60663517D03*
X51566293Y-63174145D03*
X53156487Y-66613765D03*
X53183740Y-70465837D03*
X51633897Y-73918326D03*
X48742118Y-76459766D03*
X45119607Y-77561544D03*
X79297092Y-60168592D03*
X77133665Y-75767720D03*
X74539216Y-72879821D03*
X73557154Y-69118381D03*
X74037038Y-65470661D03*
X76116404Y-62229375D03*
X83110367Y-59611249D03*
X86749987Y-60663517D03*
X89666293Y-63174145D03*
X91256487Y-66613765D03*
X91283740Y-70465837D03*
X89733897Y-73918326D03*
X86842118Y-76459766D03*
X83219607Y-77561544D03*
X123747092Y-60168592D03*
X121583665Y-75767720D03*
X118989216Y-72879821D03*
X118007154Y-69118381D03*
X118487038Y-65470661D03*
X120566404Y-62229375D03*
X127560367Y-59611249D03*
X131199987Y-60663517D03*
X134116293Y-63174145D03*
X135706487Y-66613765D03*
X135733740Y-70465837D03*
X134183897Y-73918326D03*
X131292118Y-76459766D03*
X127669607Y-77561544D03*
X161847092Y-60168592D03*
X159683665Y-75767720D03*
X157089216Y-72879821D03*
X156107154Y-69118381D03*
X156587038Y-65470661D03*
X158666404Y-62229375D03*
X165660367Y-59611249D03*
X169299987Y-60663517D03*
X172216293Y-63174145D03*
X173806487Y-66613765D03*
X173833740Y-70465837D03*
X172283897Y-73918326D03*
X169392118Y-76459766D03*
X165769607Y-77561544D03*
X206297092Y-60168592D03*
X204133665Y-75767720D03*
X201539216Y-72879821D03*
X200557154Y-69118381D03*
X201037038Y-65470661D03*
X203116404Y-62229375D03*
X210110367Y-59611249D03*
X213749987Y-60663517D03*
X216666293Y-63174145D03*
X218256487Y-66613765D03*
X218283740Y-70465837D03*
X216733897Y-73918326D03*
X213842118Y-76459766D03*
X210219607Y-77561544D03*
X244397092Y-60168592D03*
X242233665Y-75767720D03*
X239639216Y-72879821D03*
X238657154Y-69118381D03*
X239137038Y-65470661D03*
X241216404Y-62229375D03*
X248210367Y-59611249D03*
X251849987Y-60663517D03*
X254766293Y-63174145D03*
X256356487Y-66613765D03*
X256383740Y-70465837D03*
X254833897Y-73918326D03*
X251942118Y-76459766D03*
X248319607Y-77561544D03*
D23*
X204946000Y-88194000D03*
D24*
X258346000Y-86894000D03*
D25*
X258346000Y-89434000D03*
X255806000Y-86894000D03*
X255806000Y-89434000D03*
X253266000Y-86894000D03*
X253266000Y-89434000D03*
X250726000Y-86894000D03*
X250726000Y-89434000D03*
X248186000Y-86894000D03*
X248186000Y-89434000D03*
X245646000Y-86894000D03*
X245646000Y-89434000D03*
X243106000Y-86894000D03*
X243106000Y-89434000D03*
X240566000Y-86894000D03*
X240566000Y-89434000D03*
X238026000Y-86894000D03*
X238026000Y-89434000D03*
X235486000Y-86894000D03*
X235486000Y-89434000D03*
X232946000Y-86894000D03*
X232946000Y-89434000D03*
X230406000Y-86894000D03*
X230406000Y-89434000D03*
X227866000Y-86894000D03*
X227866000Y-89434000D03*
X225326000Y-86894000D03*
X225326000Y-89434000D03*
X222786000Y-86894000D03*
X222786000Y-89434000D03*
X220246000Y-86894000D03*
X220246000Y-89434000D03*
X217706000Y-86894000D03*
X217706000Y-89434000D03*
X215166000Y-86894000D03*
X215166000Y-89434000D03*
X212626000Y-86894000D03*
X212626000Y-89434000D03*
X210086000Y-86894000D03*
X210086000Y-89434000D03*
D11*
X56261000Y-71308000D03*
X56261000Y-69408000D03*
D18*
X30480000Y-79019000D03*
D26*
X54889400Y-55295800D03*
X48280000Y-55280000D03*
X51580000Y-55280000D03*
D18*
X63480000Y-55805000D03*
D27*
X58580000Y-55280000D03*
D28*
X150246080Y-63439040D03*
X148173440Y-67279520D03*
X234919520Y-62501780D03*
X194259200Y-64637920D03*
X109552740Y-69430900D03*
X111480600Y-65323720D03*
X69215000Y-65278000D03*
X42545000Y-83185000D03*
X140779500Y-59372500D03*
X233743500Y-70104000D03*
X245364000Y-84582000D03*
X256984500Y-79819500D03*
X249491500Y-80137000D03*
X247650000Y-80200500D03*
X236283500Y-62674500D03*
X225107500Y-63627000D03*
X227139500Y-63690500D03*
X228155500Y-57848500D03*
X226187000Y-58356500D03*
X234061000Y-80391000D03*
X220916500Y-80581500D03*
X191198500Y-64960500D03*
X186055000Y-70040500D03*
X183388000Y-69977000D03*
X182181500Y-60007500D03*
X193929000Y-76962000D03*
X194246500Y-87185500D03*
X179641500Y-87312500D03*
X151320500Y-77025500D03*
X142811500Y-70739000D03*
X144780000Y-70612000D03*
X61595000Y-65024000D03*
X97028000Y-61277500D03*
X60325000Y-65468500D03*
X137668000Y-87312500D03*
X151384000Y-87312500D03*
X98742500Y-89217500D03*
X111950500Y-88900000D03*
X112268000Y-78676500D03*
X104267000Y-70612000D03*
X102108000Y-70739000D03*
X69469000Y-78232000D03*
X62839600Y-70789800D03*
X60985400Y-70535800D03*
X56451500Y-88201500D03*
X69405500Y-88265000D03*
D29*
X215696716Y-81465511D03*
X222133160Y-83875880D03*
X230505000Y-82296000D03*
X235204000Y-77533500D03*
X243332000Y-81470500D03*
X237236000Y-76708000D03*
X199072500Y-82486500D03*
X189738000Y-82423000D03*
X189039500Y-79883000D03*
X186499500Y-77343000D03*
X218567000Y-78676500D03*
X219392500Y-72136000D03*
X164528500Y-82931000D03*
X147002500Y-81597500D03*
X103124000Y-84518500D03*
X95504000Y-86487000D03*
X70993000Y-82486500D03*
X71120000Y-78232000D03*
X106807000Y-76200000D03*
X136461500Y-77216000D03*
X136334500Y-82613500D03*
X117792500Y-84709000D03*
X117665500Y-80835500D03*
X117665500Y-78486000D03*
X116078000Y-76708000D03*
X109728000Y-76136500D03*
X56896000Y-63500000D03*
X56388000Y-59055000D03*
X46228000Y-83820000D03*
X50800000Y-79248000D03*
D28*
X51816000Y-80899000D03*
X47498000Y-85217000D03*
X38354000Y-89027000D03*
X38481000Y-83439000D03*
X34163000Y-59436000D03*
X33655000Y-54102000D03*
X43561000Y-57785000D03*
X47371000Y-57785000D03*
X35560000Y-58293000D03*
X36068000Y-54610000D03*
X37086718Y-57652832D03*
X39370000Y-58420000D03*
X48006000Y-62992000D03*
X46228000Y-61468000D03*
X45770800Y-63804800D03*
X48158400Y-65532000D03*
X50241200Y-68173600D03*
X50038000Y-71780400D03*
X64897000Y-66929000D03*
X64897000Y-68834000D03*
X65659000Y-66294000D03*
X64897000Y-70104000D03*
X65278000Y-72517000D03*
X65151000Y-75438000D03*
X88628220Y-59220100D03*
X90662760Y-59298840D03*
X86542326Y-65507665D03*
X84937600Y-63347600D03*
X82732880Y-56697880D03*
X87757000Y-72263000D03*
X87757000Y-74803000D03*
X107708700Y-68453000D03*
X107429300Y-65659000D03*
X134254240Y-59131200D03*
X132222240Y-58544460D03*
X124587000Y-56708040D03*
X125943360Y-60853320D03*
X132143500Y-74358500D03*
X132207000Y-72199500D03*
X131064000Y-65341500D03*
X131780280Y-62971680D03*
X146098260Y-63032640D03*
X142968980Y-63116460D03*
X137967720Y-75577700D03*
X137995660Y-81892140D03*
X172069760Y-58399680D03*
X169509440Y-58257440D03*
X162641280Y-56794400D03*
X160893760Y-58318400D03*
X172349160Y-71765160D03*
X169862500Y-62420500D03*
X170053000Y-65405000D03*
X171033440Y-69740780D03*
X188137800Y-65151000D03*
X185737500Y-65227200D03*
X180106320Y-75651360D03*
X180182520Y-79689960D03*
X216448640Y-58663840D03*
X213441280Y-58562240D03*
X205803500Y-57213500D03*
X208254600Y-59357260D03*
X214947500Y-64071500D03*
X215011000Y-68516500D03*
X196611240Y-80787240D03*
X200025000Y-80954880D03*
X220827600Y-73827640D03*
X220446600Y-68676520D03*
X227934520Y-62585600D03*
X230505000Y-62613540D03*
X239369600Y-55615840D03*
X238008160Y-57119520D03*
X246298720Y-60634880D03*
X249643900Y-62725300D03*
X246697500Y-56578500D03*
X252366780Y-63146940D03*
X249882660Y-61323220D03*
X252476000Y-72326500D03*
X252476000Y-74549000D03*
X37744400Y-67462400D03*
X38608000Y-69850000D03*
X39065200Y-73355200D03*
X41706800Y-78028800D03*
X53086000Y-86868000D03*
X62039500Y-84328000D03*
X42113200Y-73609200D03*
X45770800Y-80670400D03*
X53848000Y-85852000D03*
X61976000Y-83312000D03*
X39370000Y-67818000D03*
X38557200Y-64617600D03*
X47244000Y-72898000D03*
X47244000Y-74422000D03*
X54280877Y-75630980D03*
X52832000Y-83058000D03*
X86106000Y-72263000D03*
X84983320Y-74777600D03*
X97345500Y-79756000D03*
X93281500Y-80581500D03*
X83820000Y-81343500D03*
X80581500Y-78994000D03*
X76581000Y-78676500D03*
X76708000Y-81788000D03*
X78740000Y-61772800D03*
X78232000Y-64516000D03*
X74930000Y-78486000D03*
X75184000Y-81597500D03*
X129245360Y-61653420D03*
X129222500Y-63500000D03*
X125730000Y-73533000D03*
X126301500Y-75438000D03*
X127825500Y-79248000D03*
X125425200Y-79293720D03*
X122809000Y-79121000D03*
X121539000Y-80327500D03*
X119316500Y-80899000D03*
X119316500Y-83375500D03*
X131381500Y-82550000D03*
X131254500Y-78867000D03*
X112776000Y-80010000D03*
X114490500Y-81724500D03*
X132651500Y-79311500D03*
X132651500Y-81724500D03*
X129222500Y-80137000D03*
X126217680Y-80253840D03*
X119507000Y-77025500D03*
X119507000Y-75057000D03*
X120396000Y-70421500D03*
X121602500Y-71818500D03*
X124269500Y-74612500D03*
X124777500Y-77216000D03*
X164592000Y-73660000D03*
X166687500Y-63690500D03*
X166649400Y-61600080D03*
X158813500Y-83121500D03*
X147764500Y-83121500D03*
X170497500Y-73406000D03*
X166624000Y-74612500D03*
X152971500Y-77216000D03*
X155067000Y-79375000D03*
X156908500Y-79311500D03*
X158623000Y-79756000D03*
X160230207Y-79202017D03*
X161925000Y-80137000D03*
X164147500Y-80200500D03*
X166497000Y-80137000D03*
X172847000Y-78676500D03*
X177165000Y-78486000D03*
X196913500Y-75184000D03*
X199961500Y-75247500D03*
X213995000Y-64706500D03*
X213995000Y-67056000D03*
X189738000Y-77787500D03*
X194564000Y-77597000D03*
X196913500Y-77025500D03*
X199898000Y-76898500D03*
X209232500Y-74231500D03*
X216154000Y-71247000D03*
X215963500Y-67183000D03*
X215963500Y-64897000D03*
X207010000Y-74993500D03*
X214947500Y-73406000D03*
X199898000Y-76073000D03*
X197040500Y-76073000D03*
X193865500Y-75946000D03*
X190309500Y-76708000D03*
X186817000Y-79629000D03*
X187134500Y-81978500D03*
X197485000Y-79756000D03*
X202882500Y-80327500D03*
X220916500Y-75247500D03*
X224663000Y-71564500D03*
X235808520Y-69540120D03*
X237317280Y-71018400D03*
X250507500Y-72453500D03*
X249491500Y-74358500D03*
X199898000Y-78359000D03*
X196532500Y-78486000D03*
X234950000Y-73406000D03*
X230251000Y-73914000D03*
X241935000Y-71109840D03*
X241998500Y-68326000D03*
X234315000Y-71755000D03*
X229679500Y-71818500D03*
X247269000Y-74422000D03*
X245364000Y-75628500D03*
X225234500Y-76263500D03*
X225367678Y-74228770D03*
X230176042Y-72675474D03*
X234823000Y-72453500D03*
X254000000Y-68770500D03*
X251333000Y-65849500D03*
X244856000Y-63881000D03*
X242951000Y-63754000D03*
X230441500Y-70040500D03*
X230949500Y-67056000D03*
X239694720Y-67543680D03*
X242180560Y-65909000D03*
X240474500Y-82486500D03*
X235521500Y-79438500D03*
X184150000Y-88074500D03*
X186499500Y-85661500D03*
X97282000Y-86995000D03*
X102552500Y-87122000D03*
X233997500Y-75184000D03*
X230251000Y-76073000D03*
X219900500Y-80962500D03*
X219837000Y-83121500D03*
X151638000Y-84328000D03*
X146679299Y-84188015D03*
X112395000Y-85788500D03*
X108521500Y-85598000D03*
X244094000Y-85598000D03*
X240792000Y-85534500D03*
X240474500Y-80200500D03*
X240474500Y-81407000D03*
X44005500Y-89789000D03*
X44005500Y-86868000D03*
X44958000Y-83185000D03*
X49593500Y-78549500D03*
X221678500Y-85725000D03*
X223710500Y-85407500D03*
X65976500Y-87693500D03*
X66040000Y-90424000D03*
X237934500Y-82169000D03*
X236093000Y-80772000D03*
X235204000Y-81153000D03*
X237236000Y-82867500D03*
X187198000Y-86296500D03*
X184785000Y-88709500D03*
X103695500Y-88328500D03*
X95948500Y-88328500D03*
X234505500Y-76263500D03*
X230060500Y-77152500D03*
X221234000Y-79057500D03*
X218502079Y-80458751D03*
X204216000Y-82613500D03*
X201422000Y-85979000D03*
X154876500Y-85534500D03*
X145923000Y-85344000D03*
X108140500Y-86995000D03*
X133413500Y-86995000D03*
X131318000Y-86995000D03*
X112458500Y-86995000D03*
X252095000Y-85471000D03*
X252730000Y-82296000D03*
X254000000Y-85344000D03*
X254000000Y-82296000D03*
X255143000Y-82804000D03*
X255270000Y-85344000D03*
X55265320Y-57500520D03*
X55265320Y-62865000D03*
X41529000Y-54610000D03*
X40767000Y-57277000D03*
X82356960Y-55311040D03*
X81259680Y-59212480D03*
X124465080Y-55245000D03*
X121676160Y-58963560D03*
X159877760Y-59537600D03*
X162011360Y-55737760D03*
X204663040Y-56001920D03*
X204276960Y-59598560D03*
X246440960Y-54599840D03*
X243799360Y-58359040D03*
D30*
X150048000Y-61833000D02*
X150048000Y-63240960D01*
X150048000Y-63240960D02*
X150246080Y-63439040D01*
X148132800Y-65953680D02*
X148132800Y-67238880D01*
X148132800Y-67238880D02*
X148173440Y-67279520D01*
X234947500Y-61261500D02*
X234947500Y-62473800D01*
X234947500Y-62473800D02*
X234919520Y-62501780D01*
X193291500Y-63420500D02*
X193291500Y-63670220D01*
X193291500Y-63670220D02*
X194259200Y-64637920D01*
X109496860Y-67698660D02*
X109496860Y-69375020D01*
X109496860Y-69375020D02*
X109552740Y-69430900D01*
X111440000Y-63738000D02*
X111440000Y-65283120D01*
X111440000Y-65283120D02*
X111480600Y-65323720D01*
X68323500Y-63992000D02*
X68323500Y-64386500D01*
X68323500Y-64386500D02*
X69215000Y-65278000D01*
X67881500Y-65788500D02*
X68577500Y-65788500D01*
X69088000Y-65278000D02*
X69215000Y-65278000D01*
X68577500Y-65788500D02*
X69088000Y-65278000D01*
X42860000Y-82280000D02*
X42860000Y-82870000D01*
X42860000Y-82870000D02*
X42545000Y-83185000D01*
X42545000Y-84140000D02*
X42545000Y-83185000D01*
D31*
X140716000Y-58086500D02*
X140716000Y-59309000D01*
D30*
X140716000Y-59309000D02*
X140779500Y-59372500D01*
X232093500Y-70167500D02*
X233680000Y-70167500D01*
X233680000Y-70167500D02*
X233743500Y-70104000D01*
X244284500Y-84170500D02*
X244952500Y-84170500D01*
X244952500Y-84170500D02*
X245364000Y-84582000D01*
X256984500Y-81296000D02*
X256984500Y-79883000D01*
X256984500Y-79883000D02*
X256984500Y-79819500D01*
X250063000Y-81613500D02*
X249491500Y-80137000D01*
X248094500Y-81486500D02*
X247650000Y-80200500D01*
X236347000Y-63693000D02*
X236347000Y-62738000D01*
X236347000Y-62738000D02*
X236283500Y-62674500D01*
X225107500Y-65103500D02*
X225107500Y-63754000D01*
X225107500Y-63754000D02*
X225107500Y-63627000D01*
X227266500Y-64976500D02*
X227266500Y-63817500D01*
X227266500Y-63817500D02*
X227139500Y-63690500D01*
X229489000Y-57261000D02*
X228743000Y-57261000D01*
X228743000Y-57261000D02*
X228155500Y-57848500D01*
X226187000Y-57134000D02*
X226187000Y-58356500D01*
X232093500Y-80327500D02*
X233997500Y-80327500D01*
X233997500Y-80327500D02*
X234061000Y-80391000D01*
X222693500Y-80327500D02*
X221170500Y-80327500D01*
X221170500Y-80327500D02*
X220916500Y-80581500D01*
X191010500Y-66992500D02*
X191010500Y-65148500D01*
X191010500Y-65148500D02*
X191198500Y-64960500D01*
X186118500Y-71390000D02*
X186118500Y-70104000D01*
X186118500Y-70104000D02*
X186055000Y-70040500D01*
X183451500Y-71390000D02*
X183451500Y-70040500D01*
X183451500Y-70040500D02*
X183388000Y-69977000D01*
X182118000Y-58467500D02*
X182118000Y-59944000D01*
X182118000Y-59944000D02*
X182181500Y-60007500D01*
X191923400Y-77165200D02*
X193789300Y-77165200D01*
X193929000Y-77025500D02*
X193929000Y-76962000D01*
X193789300Y-77165200D02*
X193929000Y-77025500D01*
X191923400Y-87325200D02*
X194106800Y-87325200D01*
X194106800Y-87325200D02*
X194246500Y-87185500D01*
X182523400Y-87325200D02*
X179908200Y-87325200D01*
X179895500Y-87312500D02*
X179641500Y-87312500D01*
X179908200Y-87325200D02*
X179895500Y-87312500D01*
X149480000Y-77139800D02*
X151206200Y-77139800D01*
X151206200Y-77139800D02*
X151320500Y-77025500D01*
X142748000Y-71771000D02*
X142748000Y-70802500D01*
X142748000Y-70802500D02*
X142811500Y-70739000D01*
X144843500Y-71707500D02*
X144843500Y-70675500D01*
X144843500Y-70675500D02*
X144780000Y-70612000D01*
X60960000Y-63865000D02*
X60960000Y-64389000D01*
X60960000Y-64389000D02*
X61595000Y-65024000D01*
X96774000Y-59991500D02*
X96774000Y-61023500D01*
X96774000Y-61023500D02*
X97028000Y-61277500D01*
X60325000Y-66754500D02*
X60325000Y-65468500D01*
X140080000Y-87299800D02*
X137680700Y-87299800D01*
X137680700Y-87299800D02*
X137668000Y-87312500D01*
X149480000Y-87299800D02*
X151371300Y-87299800D01*
X151371300Y-87299800D02*
X151384000Y-87312500D01*
X100710000Y-88900000D02*
X99060000Y-88900000D01*
X99060000Y-88900000D02*
X98742500Y-89217500D01*
X110110000Y-88900000D02*
X111950500Y-88900000D01*
X110110000Y-78740000D02*
X112204500Y-78740000D01*
X112204500Y-78740000D02*
X112268000Y-78676500D01*
D31*
X104648000Y-72406000D02*
X104648000Y-70993000D01*
X104648000Y-70993000D02*
X104267000Y-70612000D01*
D30*
X104267000Y-70612000D02*
X103759000Y-70104000D01*
D31*
X102108000Y-72279000D02*
X102108000Y-70739000D01*
D32*
X63500000Y-72025000D02*
X63500000Y-71450200D01*
X63500000Y-71450200D02*
X62839600Y-70789800D01*
X63500000Y-71450200D02*
X62839600Y-70789800D01*
D31*
X67565000Y-78105000D02*
X69342000Y-78105000D01*
D32*
X69342000Y-78105000D02*
X69469000Y-78232000D01*
D33*
X60960000Y-72025000D02*
X60960000Y-70561200D01*
X60960000Y-70561200D02*
X60985400Y-70535800D01*
D30*
X58165000Y-88265000D02*
X56515000Y-88265000D01*
D32*
X56515000Y-88265000D02*
X56451500Y-88201500D01*
D30*
X67565000Y-88265000D02*
X69405500Y-88265000D01*
D31*
X251714000Y-78867000D02*
X252349000Y-78867000D01*
X257271520Y-62219840D02*
X254635000Y-60071000D01*
X258124960Y-62727840D02*
X257271520Y-62219840D01*
X259303520Y-63967360D02*
X258124960Y-62727840D01*
X258191000Y-73025000D02*
X259303520Y-63967360D01*
X252349000Y-78867000D02*
X258191000Y-73025000D01*
X251714000Y-84201000D02*
X251714000Y-78867000D01*
X251714000Y-78867000D02*
X251714000Y-78740000D01*
D34*
X222450660Y-84002880D02*
X222260160Y-83748880D01*
X229230687Y-83729491D02*
X228219000Y-83820000D01*
X228219000Y-83820000D02*
X222450660Y-84002880D01*
X229552500Y-83375500D02*
X229230687Y-83729491D01*
X216264451Y-80915549D02*
X216425301Y-80915549D01*
X215696716Y-81465511D02*
X216264451Y-80915549D01*
X222260160Y-83748880D02*
X222133160Y-83875880D01*
X237236000Y-76708000D02*
X237109000Y-76708000D01*
X230378000Y-82423000D02*
X229552500Y-83375500D01*
X229552500Y-83375500D02*
X229489000Y-83375500D01*
X230505000Y-82296000D02*
X230378000Y-82423000D01*
X237109000Y-76708000D02*
X235204000Y-77533500D01*
X236664500Y-78770500D02*
X237172500Y-76771500D01*
X248094500Y-84582000D02*
X248094500Y-83486500D01*
X247205500Y-84582000D02*
X248094500Y-84582000D01*
X244792500Y-82169000D02*
X247205500Y-84582000D01*
X244030500Y-82169000D02*
X244792500Y-82169000D01*
X243332000Y-81470500D02*
X244030500Y-82169000D01*
X237172500Y-76771500D02*
X237236000Y-76708000D01*
X250142500Y-84201000D02*
X248475500Y-84201000D01*
X248475500Y-84201000D02*
X248094500Y-83486500D01*
X256921000Y-84201000D02*
X251714000Y-84201000D01*
X251714000Y-84201000D02*
X250142500Y-84201000D01*
X250142500Y-84201000D02*
X250063000Y-83613500D01*
X256921000Y-84455000D02*
X256921000Y-84201000D01*
X256921000Y-84201000D02*
X256921000Y-83359500D01*
X256921000Y-83359500D02*
X256984500Y-83296000D01*
X259905500Y-85153500D02*
X259842000Y-85153500D01*
D35*
X259905500Y-88201500D02*
X259905500Y-85153500D01*
X258673000Y-89434000D02*
X259905500Y-88201500D01*
D34*
X256921000Y-84455000D02*
X256984500Y-84391500D01*
X259143500Y-84455000D02*
X256921000Y-84455000D01*
X259842000Y-85153500D02*
X259143500Y-84455000D01*
D35*
X258346000Y-89434000D02*
X258673000Y-89434000D01*
D34*
X255806000Y-89434000D02*
X258346000Y-89434000D01*
X203708000Y-81597500D02*
X203009500Y-81597500D01*
X203009500Y-81597500D02*
X200787000Y-82486500D01*
X200787000Y-82486500D02*
X199072500Y-82486500D01*
X189738000Y-82423000D02*
X189039500Y-81724500D01*
X189039500Y-81724500D02*
X189039500Y-79883000D01*
X186499500Y-77343000D02*
X186372500Y-77216000D01*
X186372500Y-77216000D02*
X186372500Y-75692000D01*
X215760216Y-81592511D02*
X203708000Y-81597500D01*
X216425301Y-80915549D02*
X215760216Y-81592511D01*
X221107000Y-70167500D02*
X219392500Y-72072500D01*
X222693500Y-70167500D02*
X221107000Y-70167500D01*
X218567000Y-78676500D02*
X216425301Y-80915549D01*
X219392500Y-72072500D02*
X219392500Y-72136000D01*
X188595000Y-74739500D02*
X189230000Y-74739500D01*
X190246000Y-73723500D02*
X191897000Y-73723500D01*
X189230000Y-74739500D02*
X190246000Y-73723500D01*
X229425500Y-66863000D02*
X229425500Y-68516500D01*
X227774500Y-70167500D02*
X224409000Y-70167500D01*
X229425500Y-68516500D02*
X227774500Y-70167500D01*
X225107500Y-67103500D02*
X225107500Y-69469000D01*
X224409000Y-70167500D02*
X222693500Y-70167500D01*
X225107500Y-69469000D02*
X224409000Y-70167500D01*
X225107500Y-67103500D02*
X227139500Y-67103500D01*
X227139500Y-67103500D02*
X227266500Y-66976500D01*
X175069500Y-82867500D02*
X174498000Y-82867500D01*
X174498000Y-82867500D02*
X174371000Y-82994500D01*
X188595000Y-73403500D02*
X188595000Y-74739500D01*
X188595000Y-74739500D02*
X188595000Y-75120500D01*
X188595000Y-75120500D02*
X188023500Y-75692000D01*
X188023500Y-75692000D02*
X186372500Y-75692000D01*
X186372500Y-75692000D02*
X186118500Y-75692000D01*
X186118500Y-73390000D02*
X186118500Y-75692000D01*
X186118500Y-75692000D02*
X184721500Y-77089000D01*
X183451500Y-73390000D02*
X183451500Y-73596500D01*
X183451500Y-73596500D02*
X184721500Y-74866500D01*
X184721500Y-74866500D02*
X184721500Y-77089000D01*
X184721500Y-77089000D02*
X184645300Y-77165200D01*
X184645300Y-77165200D02*
X182523400Y-77165200D01*
X146748500Y-73657500D02*
X146748500Y-81343500D01*
X175768000Y-77152500D02*
X182523400Y-77165200D01*
X174371000Y-82994500D02*
X175768000Y-77152500D01*
X164592000Y-82994500D02*
X174371000Y-82994500D01*
X164528500Y-82931000D02*
X164592000Y-82994500D01*
X146748500Y-81343500D02*
X147002500Y-81597500D01*
X60325000Y-68754500D02*
X58166000Y-68754500D01*
X58420000Y-68770500D02*
X58166000Y-68770500D01*
X58182000Y-68770500D02*
X58420000Y-68770500D01*
X58166000Y-68754500D02*
X58182000Y-68770500D01*
X144843500Y-75247500D02*
X146367500Y-75247500D01*
X146748500Y-74866500D02*
X146748500Y-73657500D01*
X146367500Y-75247500D02*
X146748500Y-74866500D01*
X142748000Y-76327000D02*
X143764000Y-76327000D01*
X144843500Y-75247500D02*
X144843500Y-73707500D01*
X143764000Y-76327000D02*
X144843500Y-75247500D01*
X140080000Y-77139800D02*
X141998700Y-77139800D01*
X142748000Y-76390500D02*
X142748000Y-76327000D01*
X142748000Y-76327000D02*
X142748000Y-73771000D01*
X141998700Y-77139800D02*
X142748000Y-76390500D01*
X70038000Y-72532200D02*
X70038000Y-74165500D01*
X102870000Y-84264500D02*
X102870000Y-77978000D01*
X103124000Y-84518500D02*
X102870000Y-84264500D01*
X75819000Y-86487000D02*
X95504000Y-86487000D01*
X70993000Y-82486500D02*
X75819000Y-86487000D01*
X71120000Y-75247500D02*
X71120000Y-78232000D01*
X70038000Y-74165500D02*
X71120000Y-75247500D01*
X136537700Y-77139800D02*
X136461500Y-77216000D01*
X136334500Y-82613500D02*
X136017000Y-82931000D01*
X136017000Y-82931000D02*
X133667500Y-82931000D01*
X133667500Y-82931000D02*
X131953000Y-84645500D01*
X131953000Y-84645500D02*
X120967500Y-84645500D01*
X140080000Y-77139800D02*
X136537700Y-77139800D01*
X117856000Y-84645500D02*
X120967500Y-84645500D01*
X117792500Y-84709000D02*
X117856000Y-84645500D01*
X117665500Y-80200500D02*
X117665500Y-80835500D01*
X117665500Y-78486000D02*
X117665500Y-80200500D01*
X113474500Y-76073000D02*
X116078000Y-76708000D01*
X109791500Y-76073000D02*
X113474500Y-76073000D01*
X109728000Y-76136500D02*
X109791500Y-76073000D01*
X102870000Y-77152500D02*
X103314500Y-77152500D01*
X103314500Y-77152500D02*
X104648000Y-75819000D01*
X100710000Y-78740000D02*
X102108000Y-78740000D01*
X102108000Y-78740000D02*
X102870000Y-77978000D01*
X102870000Y-77978000D02*
X102870000Y-77152500D01*
X102870000Y-77152500D02*
X102870000Y-76581000D01*
X102108000Y-74279000D02*
X102108000Y-75819000D01*
X104648000Y-74406000D02*
X104648000Y-75819000D01*
X104648000Y-75819000D02*
X104648000Y-76263500D01*
X104648000Y-76263500D02*
X104711500Y-76200000D01*
X104711500Y-76200000D02*
X106807000Y-76200000D01*
X106807000Y-76200000D02*
X106870500Y-76200000D01*
X106870500Y-76200000D02*
X106870500Y-74229000D01*
D35*
X104648000Y-74406000D02*
X104648000Y-75692000D01*
X104648000Y-75692000D02*
X102870000Y-77470000D01*
X102870000Y-77978000D02*
X102108000Y-78740000D01*
X102870000Y-76581000D02*
X102870000Y-77470000D01*
X102870000Y-77470000D02*
X102870000Y-77978000D01*
X102108000Y-75819000D02*
X102870000Y-76581000D01*
D34*
X63500000Y-74025000D02*
X68545200Y-74025000D01*
X70038000Y-72532200D02*
X70038000Y-69596000D01*
X68545200Y-74025000D02*
X70038000Y-72532200D01*
X55405020Y-58694320D02*
X55067200Y-59090560D01*
X59436000Y-75438000D02*
X60960000Y-75438000D01*
X59182000Y-75184000D02*
X59436000Y-75438000D01*
X59182000Y-74422000D02*
X59182000Y-75184000D01*
X58166000Y-73406000D02*
X59182000Y-74422000D01*
X58166000Y-64770000D02*
X58166000Y-68770500D01*
X58166000Y-68770500D02*
X58166000Y-73406000D01*
X56896000Y-63500000D02*
X58166000Y-64770000D01*
X55067200Y-59090560D02*
X56388000Y-59055000D01*
X58165000Y-78105000D02*
X56893086Y-78059561D01*
X56893086Y-78059561D02*
X55218298Y-77609640D01*
X36195000Y-88011000D02*
X36322000Y-87884000D01*
X36322000Y-87884000D02*
X44958000Y-87884000D01*
X44958000Y-87884000D02*
X45212000Y-87630000D01*
X36195000Y-88011000D02*
X36195000Y-86040000D01*
X45212000Y-84836000D02*
X45212000Y-87630000D01*
X46228000Y-83820000D02*
X45212000Y-84836000D01*
X52829019Y-79325769D02*
X50800000Y-79248000D01*
X55218298Y-77609640D02*
X52829019Y-79325769D01*
X63500000Y-74025000D02*
X60960000Y-74025000D01*
X58165000Y-78105000D02*
X60325000Y-78105000D01*
X60960000Y-77470000D02*
X60960000Y-75438000D01*
X60960000Y-75438000D02*
X60960000Y-74025000D01*
X60325000Y-78105000D02*
X60960000Y-77470000D01*
D36*
X140716000Y-56086500D02*
X140716000Y-54610000D01*
D31*
X140716000Y-54610000D02*
X140144500Y-54038500D01*
D36*
X234444500Y-54546500D02*
X232664000Y-54546500D01*
X232283000Y-54165500D02*
X228536500Y-54165500D01*
X232664000Y-54546500D02*
X232283000Y-54165500D01*
X229489000Y-55261000D02*
X229489000Y-55118000D01*
X229489000Y-55118000D02*
X228536500Y-54165500D01*
X228536500Y-54165500D02*
X225869500Y-54165500D01*
X226187000Y-55134000D02*
X226187000Y-54483000D01*
X225869500Y-54165500D02*
X219964000Y-54165500D01*
X226187000Y-54483000D02*
X225869500Y-54165500D01*
X219964000Y-54165500D02*
X219837000Y-54038500D01*
X218564500Y-57023000D02*
X218564500Y-54734500D01*
X218564500Y-54734500D02*
X217868500Y-54038500D01*
X182118000Y-56467500D02*
X182118000Y-54610000D01*
X182118000Y-54610000D02*
X182689500Y-54038500D01*
X186753500Y-56515000D02*
X186753500Y-54483000D01*
X186753500Y-54483000D02*
X187198000Y-54038500D01*
X60960000Y-61865000D02*
X60960000Y-61150500D01*
X61341000Y-60769500D02*
X61341000Y-59245500D01*
X60960000Y-61150500D02*
X61341000Y-60769500D01*
X96774000Y-57991500D02*
X96774000Y-56642000D01*
X96774000Y-56642000D02*
X97429200Y-55986800D01*
X138173500Y-57086500D02*
X138173500Y-54038500D01*
X138303000Y-54229000D02*
X138303000Y-54038500D01*
X138303000Y-54168000D02*
X138303000Y-54229000D01*
X138173500Y-54038500D02*
X138303000Y-54168000D01*
X179832000Y-56266200D02*
X176204800Y-56266200D01*
X176204800Y-56266200D02*
X175702000Y-56769000D01*
X179832000Y-56266200D02*
X179832000Y-54038500D01*
X179705000Y-53975000D02*
X179705000Y-54038500D01*
X179768500Y-53975000D02*
X179705000Y-53975000D01*
X179832000Y-54038500D02*
X179768500Y-53975000D01*
X98780600Y-55986800D02*
X99016700Y-55986800D01*
X99016700Y-55986800D02*
X100965000Y-54038500D01*
X219837000Y-54038500D02*
X219900500Y-54102000D01*
X100965000Y-54038500D02*
X138303000Y-54038500D01*
X138303000Y-54038500D02*
X140144500Y-54038500D01*
X140144500Y-54038500D02*
X179705000Y-54038500D01*
X179705000Y-54038500D02*
X182689500Y-54038500D01*
X182689500Y-54038500D02*
X187198000Y-54038500D01*
X187198000Y-54038500D02*
X217868500Y-54038500D01*
X217868500Y-54038500D02*
X219837000Y-54038500D01*
X70866000Y-54419500D02*
X73469500Y-54419500D01*
X58580000Y-56484500D02*
X61341000Y-59245500D01*
X61341000Y-59245500D02*
X65024000Y-59245500D01*
X65024000Y-59245500D02*
X69850000Y-54419500D01*
X69850000Y-54419500D02*
X70866000Y-54419500D01*
X58580000Y-55280000D02*
X58580000Y-56484500D01*
X90463776Y-53871072D02*
X95991800Y-55986800D01*
X74675989Y-53722197D02*
X90463776Y-53871072D01*
X73469500Y-54419500D02*
X74675989Y-53722197D01*
X93406000Y-57404000D02*
X93853000Y-57404000D01*
X93853000Y-57404000D02*
X95270200Y-55986800D01*
X95270200Y-55986800D02*
X95991800Y-55986800D01*
X95991800Y-55986800D02*
X97429200Y-55986800D01*
X97429200Y-55986800D02*
X98780600Y-55986800D01*
X56708080Y-61264800D02*
X58166000Y-60960000D01*
X58580000Y-60546000D02*
X58580000Y-55280000D01*
X58166000Y-60960000D02*
X58580000Y-60546000D01*
D30*
X243106000Y-86894000D02*
X243106000Y-86832500D01*
X243106000Y-86832500D02*
X241744500Y-85471000D01*
X241744500Y-85471000D02*
X241744500Y-84170500D01*
X240566000Y-86894000D02*
X239992500Y-86894000D01*
X239992500Y-86894000D02*
X238569500Y-85471000D01*
X238569500Y-85471000D02*
X236791500Y-85471000D01*
X236791500Y-85471000D02*
X236664500Y-85344000D01*
X236664500Y-85344000D02*
X236664500Y-84170500D01*
X38735000Y-84648000D02*
X36703000Y-84648000D01*
X36703000Y-84648000D02*
X36195000Y-84140000D01*
X36515000Y-82280000D02*
X36515000Y-83820000D01*
X36515000Y-83820000D02*
X36195000Y-84140000D01*
X38415000Y-82280000D02*
X38415000Y-83373000D01*
X56642000Y-80645000D02*
X58165000Y-80645000D01*
X56134000Y-81153000D02*
X56642000Y-80645000D01*
X52070000Y-81153000D02*
X56134000Y-81153000D01*
X51816000Y-80899000D02*
X52070000Y-81153000D01*
X46482000Y-86233000D02*
X47498000Y-85217000D01*
X46482000Y-88138000D02*
X46482000Y-86233000D01*
X45466000Y-89154000D02*
X46482000Y-88138000D01*
X38481000Y-89154000D02*
X45466000Y-89154000D01*
X38354000Y-89027000D02*
X38481000Y-89154000D01*
X38415000Y-83373000D02*
X38481000Y-83439000D01*
X37465000Y-80280000D02*
X34052000Y-80280000D01*
D31*
X30226000Y-71374000D02*
X30226000Y-68768000D01*
D37*
X33528000Y-74676000D02*
X30226000Y-71374000D01*
X33528000Y-79756000D02*
X33528000Y-74676000D01*
D30*
X34052000Y-80280000D02*
X33528000Y-79756000D01*
X34560000Y-54930000D02*
X34560000Y-55007000D01*
X34560000Y-55007000D02*
X33655000Y-54102000D01*
X31435000Y-64450000D02*
X30226000Y-64450000D01*
X32131000Y-63754000D02*
X31435000Y-64450000D01*
X32131000Y-61468000D02*
X32131000Y-63754000D01*
X34163000Y-59436000D02*
X32131000Y-61468000D01*
D32*
X34560000Y-54930000D02*
X34560000Y-54594000D01*
D31*
X30226000Y-64450000D02*
X30226000Y-66868000D01*
D30*
X54808080Y-61264800D02*
X51612800Y-61264800D01*
X43561000Y-57785000D02*
X42815000Y-57039000D01*
X48133000Y-57785000D02*
X47371000Y-57785000D01*
X51612800Y-61264800D02*
X48133000Y-57785000D01*
X42815000Y-57039000D02*
X42815000Y-56830000D01*
X39370000Y-54930000D02*
X40198000Y-54930000D01*
X42098000Y-56830000D02*
X42815000Y-56830000D01*
X40198000Y-54930000D02*
X42098000Y-56830000D01*
X39370000Y-54930000D02*
X38166000Y-54930000D01*
X34560000Y-57293000D02*
X34560000Y-56830000D01*
X35560000Y-58293000D02*
X34560000Y-57293000D01*
X37846000Y-54610000D02*
X36068000Y-54610000D01*
X38166000Y-54930000D02*
X37846000Y-54610000D01*
X30226000Y-62550000D02*
X30226000Y-61468000D01*
X30226000Y-61468000D02*
X32131000Y-59563000D01*
X32131000Y-59563000D02*
X32766000Y-59563000D01*
X32766000Y-59563000D02*
X34560000Y-57769000D01*
X34560000Y-57769000D02*
X34560000Y-56830000D01*
D37*
X36568695Y-56643529D02*
X36560000Y-55880000D01*
X37086718Y-57652832D02*
X36568695Y-56643529D01*
X41910000Y-58420000D02*
X39370000Y-58420000D01*
X43078400Y-59029600D02*
X41910000Y-58420000D01*
D30*
X43629548Y-60940226D02*
X43078400Y-59029600D01*
D37*
X44069000Y-61849000D02*
X43629548Y-60940226D01*
X48006000Y-62992000D02*
X44069000Y-61849000D01*
D31*
X55626000Y-65786000D02*
X53156487Y-66613765D01*
D32*
X53156487Y-66613765D02*
X53067286Y-65996519D01*
D37*
X36510000Y-77470000D02*
X37592000Y-77470000D01*
X41910000Y-79857600D02*
X41910000Y-80280000D01*
X39065200Y-78384400D02*
X41910000Y-79857600D01*
X38354000Y-78232000D02*
X39065200Y-78384400D01*
X37592000Y-77470000D02*
X38354000Y-78232000D01*
D31*
X51460400Y-76606400D02*
X48888752Y-76606400D01*
D30*
X48888752Y-76606400D02*
X48742118Y-76459766D01*
X44815000Y-55880000D02*
X44815000Y-57057800D01*
D37*
X45770800Y-63804800D02*
X47244000Y-64770000D01*
X47244000Y-64770000D02*
X48158400Y-65532000D01*
D31*
X50241200Y-68173600D02*
X50038000Y-71780400D01*
D30*
X46736000Y-60960000D02*
X46228000Y-61468000D01*
X46736000Y-58978800D02*
X46736000Y-60960000D01*
X44815000Y-57057800D02*
X46736000Y-58978800D01*
D32*
X49424026Y-76200000D02*
X49350493Y-76126467D01*
D31*
X44815000Y-55880000D02*
X44815000Y-57007000D01*
D30*
X62994500Y-63992000D02*
X62994500Y-65722500D01*
X62994500Y-65722500D02*
X62992000Y-65725000D01*
X68138000Y-69596000D02*
X65659000Y-69596000D01*
X64328000Y-65725000D02*
X62992000Y-65725000D01*
X64516000Y-65913000D02*
X64328000Y-65725000D01*
X64516000Y-66548000D02*
X64516000Y-65913000D01*
X64897000Y-66929000D02*
X64516000Y-66548000D01*
X65659000Y-69596000D02*
X64897000Y-68834000D01*
X67565000Y-81915000D02*
X66167000Y-81915000D01*
X64894500Y-65529500D02*
X64894500Y-63992000D01*
X65659000Y-66294000D02*
X64894500Y-65529500D01*
X64897000Y-72136000D02*
X64897000Y-70104000D01*
X65278000Y-72517000D02*
X64897000Y-72136000D01*
X65278000Y-75565000D02*
X65151000Y-75438000D01*
X65278000Y-81026000D02*
X65278000Y-75565000D01*
X66167000Y-81915000D02*
X65278000Y-81026000D01*
D37*
X71503500Y-56896000D02*
X69596000Y-56896000D01*
X63944500Y-61404500D02*
X63944500Y-61992000D01*
X64452500Y-60960000D02*
X63944500Y-61404500D01*
X65532000Y-60960000D02*
X64452500Y-60960000D01*
X69596000Y-56896000D02*
X65532000Y-60960000D01*
D30*
X76428600Y-55788520D02*
X79167480Y-55788520D01*
X79167480Y-55788520D02*
X79200500Y-55755500D01*
X73403500Y-56896000D02*
X74137520Y-56896000D01*
X75245000Y-55788520D02*
X76428600Y-55788520D01*
X74137520Y-56896000D02*
X75245000Y-55788520D01*
X91506000Y-57404000D02*
X91506000Y-58455600D01*
X88628220Y-59220100D02*
X87519000Y-58110880D01*
X91506000Y-58455600D02*
X90662760Y-59298840D01*
X87519000Y-58110880D02*
X87519000Y-58036500D01*
X85217000Y-57973000D02*
X87455500Y-57973000D01*
X87455500Y-57973000D02*
X87519000Y-58036500D01*
X85217000Y-57973000D02*
X83804800Y-57973000D01*
X79807520Y-58262520D02*
X79200500Y-57655500D01*
X81625440Y-58262520D02*
X79807520Y-58262520D01*
X82158840Y-57729120D02*
X81625440Y-58262520D01*
X83560920Y-57729120D02*
X82158840Y-57729120D01*
X83804800Y-57973000D02*
X83560920Y-57729120D01*
X76428600Y-57688520D02*
X79167480Y-57688520D01*
X79167480Y-57688520D02*
X79200500Y-57655500D01*
D31*
X76962000Y-57655500D02*
X76898500Y-57592000D01*
D30*
X85280500Y-58036500D02*
X85217000Y-57973000D01*
D37*
X81200500Y-56705500D02*
X82486500Y-56705500D01*
X84963000Y-64262000D02*
X86542326Y-65507665D01*
X84963000Y-63754000D02*
X84963000Y-64262000D01*
X84937600Y-63347600D02*
X84963000Y-63754000D01*
X82486500Y-56705500D02*
X82732880Y-56697880D01*
X71313000Y-60896500D02*
X67627500Y-60896500D01*
X67373500Y-61150500D02*
X67373500Y-61992000D01*
X67627500Y-60896500D02*
X67373500Y-61150500D01*
X87450493Y-76126467D02*
X86842118Y-76459766D01*
X89552020Y-60409580D02*
X89519000Y-57086500D01*
X87409020Y-62552580D02*
X89552020Y-60409580D01*
X87376000Y-63627000D02*
X87409020Y-62552580D01*
X88392000Y-64643000D02*
X87376000Y-63627000D01*
X88392000Y-71628000D02*
X88392000Y-64643000D01*
X87757000Y-72263000D02*
X88392000Y-71628000D01*
D31*
X86842118Y-76459766D02*
X87757000Y-74803000D01*
D30*
X106870500Y-72329000D02*
X106870500Y-70632320D01*
X104076540Y-65826600D02*
X105445560Y-65826600D01*
X103601520Y-66301620D02*
X104076540Y-65826600D01*
X103601520Y-68564760D02*
X103601520Y-66301620D01*
X104272080Y-69235320D02*
X103601520Y-68564760D01*
X105473500Y-69235320D02*
X104272080Y-69235320D01*
X106870500Y-70632320D02*
X105473500Y-69235320D01*
X105445560Y-65826600D02*
X105445560Y-63768440D01*
X105445560Y-63768440D02*
X105476000Y-63738000D01*
X107376000Y-63738000D02*
X107376000Y-65605700D01*
X108826300Y-85090000D02*
X110110000Y-85090000D01*
X107876340Y-84140040D02*
X108826300Y-85090000D01*
X107876340Y-77838300D02*
X107876340Y-84140040D01*
X108478320Y-77236320D02*
X107876340Y-77838300D01*
X108478320Y-69222620D02*
X108478320Y-77236320D01*
X107708700Y-68453000D02*
X108478320Y-69222620D01*
X107376000Y-65605700D02*
X107429300Y-65659000D01*
X110110000Y-85090000D02*
X109220000Y-85090000D01*
D37*
X112141000Y-57089000D02*
X109662000Y-57089000D01*
X106426000Y-60325000D02*
X106426000Y-61738000D01*
X109662000Y-57089000D02*
X106426000Y-60325000D01*
D30*
X117739160Y-55740260D02*
X120808240Y-55740260D01*
X120808240Y-55740260D02*
X120920000Y-55628500D01*
X112141000Y-58989000D02*
X113205220Y-58989000D01*
X116453960Y-55740260D02*
X117739160Y-55740260D01*
X113205220Y-58989000D02*
X116453960Y-55740260D01*
X117856000Y-55628500D02*
X117729000Y-55501500D01*
X130445000Y-57973000D02*
X131389160Y-57973000D01*
X135128000Y-57891680D02*
X135933180Y-57086500D01*
X135128000Y-58257440D02*
X135128000Y-57891680D01*
X134254240Y-59131200D02*
X135128000Y-58257440D01*
X131389160Y-57973000D02*
X132222240Y-58544460D01*
X135933180Y-57086500D02*
X136273500Y-57086500D01*
X127769620Y-57388800D02*
X128915200Y-57388800D01*
X129499400Y-57973000D02*
X130445000Y-57973000D01*
X128915200Y-57388800D02*
X129499400Y-57973000D01*
X127769620Y-57388800D02*
X125450560Y-57388800D01*
X124919740Y-57919620D02*
X121311120Y-57919620D01*
X125450560Y-57388800D02*
X124919740Y-57919620D01*
X121311120Y-57919620D02*
X120920000Y-57528500D01*
X117739160Y-57640260D02*
X120808240Y-57640260D01*
X120808240Y-57640260D02*
X120920000Y-57528500D01*
X117856000Y-57528500D02*
X117729000Y-57401500D01*
X135706487Y-66613765D02*
X134020285Y-66613765D01*
X124457460Y-56578500D02*
X122920000Y-56578500D01*
X124587000Y-56708040D02*
X124457460Y-56578500D01*
X126080520Y-60853320D02*
X125943360Y-60853320D01*
X127772160Y-62544960D02*
X126080520Y-60853320D01*
X129951480Y-62544960D02*
X127772160Y-62544960D01*
X134020285Y-66613765D02*
X129951480Y-62544960D01*
D37*
X113731000Y-62039500D02*
X113220500Y-62039500D01*
X110871000Y-60960000D02*
X110490000Y-61341000D01*
X112141000Y-60960000D02*
X110871000Y-60960000D01*
X113220500Y-62039500D02*
X112141000Y-60960000D01*
X110490000Y-61341000D02*
X110490000Y-61738000D01*
D30*
X132445000Y-57023000D02*
X133197600Y-57866280D01*
X133197600Y-57866280D02*
X133237480Y-61219840D01*
D31*
X131831328Y-74670672D02*
X131831328Y-76141169D01*
D30*
X132143500Y-74358500D02*
X131831328Y-74670672D01*
X132207000Y-72326500D02*
X132207000Y-72199500D01*
X132080000Y-72453500D02*
X132207000Y-72326500D01*
X132080000Y-66357500D02*
X132080000Y-72453500D01*
X131064000Y-65341500D02*
X132080000Y-66357500D01*
X131780280Y-62908180D02*
X131780280Y-62971680D01*
X133237480Y-61219840D02*
X131780280Y-62908180D01*
X146748500Y-71757500D02*
X146748500Y-70332600D01*
X143388120Y-64094320D02*
X144475200Y-64094320D01*
X142521940Y-64960500D02*
X143388120Y-64094320D01*
X142521940Y-67195700D02*
X142521940Y-64960500D01*
X143164560Y-67838320D02*
X142521940Y-67195700D01*
X144254220Y-67838320D02*
X143164560Y-67838320D01*
X146748500Y-70332600D02*
X144254220Y-67838320D01*
X144475200Y-64094320D02*
X144475200Y-61843200D01*
X144475200Y-61843200D02*
X144401500Y-61769500D01*
X140080000Y-82219800D02*
X138295380Y-82219800D01*
X146301500Y-62829400D02*
X146301500Y-61769500D01*
X146098260Y-63032640D02*
X146301500Y-62829400D01*
X142773400Y-63116460D02*
X142968980Y-63116460D01*
X140622020Y-65267840D02*
X142773400Y-63116460D01*
X140622020Y-71358760D02*
X140622020Y-65267840D01*
X138191240Y-73789540D02*
X140622020Y-71358760D01*
X138191240Y-75354180D02*
X138191240Y-73789540D01*
X137967720Y-75577700D02*
X138191240Y-75354180D01*
X137995660Y-81920080D02*
X137995660Y-81892140D01*
X138295380Y-82219800D02*
X137995660Y-81920080D01*
X145351500Y-59769500D02*
X145716500Y-59769500D01*
X145716500Y-59769500D02*
X149349500Y-56136500D01*
X149349500Y-56136500D02*
X151790400Y-56108560D01*
X155384500Y-56009500D02*
X153875780Y-56009500D01*
X152974000Y-58008560D02*
X151790400Y-58008560D01*
X153537920Y-57444640D02*
X152974000Y-58008560D01*
X153537920Y-56347360D02*
X153537920Y-57444640D01*
X153875780Y-56009500D02*
X153537920Y-56347360D01*
X155384500Y-56009500D02*
X158004000Y-56009500D01*
X158004000Y-56009500D02*
X158303000Y-56009500D01*
X151917400Y-57881560D02*
X151790400Y-58008560D01*
X167529000Y-57465000D02*
X168717000Y-57465000D01*
X173212760Y-56769000D02*
X173802000Y-56769000D01*
X172821600Y-57160160D02*
X173212760Y-56769000D01*
X172821600Y-57647840D02*
X172821600Y-57160160D01*
X172069760Y-58399680D02*
X172821600Y-57647840D01*
X168717000Y-57465000D02*
X169509440Y-58257440D01*
X164973000Y-57465000D02*
X167529000Y-57465000D01*
X158004000Y-57909500D02*
X158899900Y-57909500D01*
X163311880Y-57465000D02*
X164973000Y-57465000D01*
X162641280Y-56794400D02*
X163311880Y-57465000D01*
X159308800Y-58318400D02*
X160893760Y-58318400D01*
X158899900Y-57909500D02*
X159308800Y-58318400D01*
X155384500Y-57909500D02*
X158004000Y-57909500D01*
X173648121Y-66011221D02*
X171992721Y-66011221D01*
X161099500Y-56959500D02*
X160004000Y-56959500D01*
X163860480Y-59748420D02*
X161099500Y-56959500D01*
X163860480Y-61145420D02*
X163860480Y-59748420D01*
X165290500Y-62547500D02*
X163860480Y-61145420D01*
X168529000Y-62547500D02*
X165290500Y-62547500D01*
X171992721Y-66011221D02*
X168529000Y-62547500D01*
X149098000Y-59833000D02*
X151463500Y-59833000D01*
X152781000Y-61150500D02*
X154053500Y-61150500D01*
X151463500Y-59833000D02*
X152781000Y-61150500D01*
D31*
X174223680Y-72283320D02*
X172867320Y-72283320D01*
D30*
X172905831Y-76141169D02*
X174561500Y-74485500D01*
X174561500Y-74485500D02*
X174561500Y-72644000D01*
X174561500Y-72644000D02*
X174223680Y-72283320D01*
D31*
X169931328Y-76141169D02*
X172905831Y-76141169D01*
X172867320Y-72283320D02*
X172349160Y-71765160D01*
D30*
X170878500Y-57864500D02*
X169529000Y-56515000D01*
X171109640Y-61544200D02*
X170878500Y-57864500D01*
X170220640Y-62433200D02*
X171109640Y-61544200D01*
X169989500Y-62293500D02*
X170220640Y-62433200D01*
X169862500Y-62420500D02*
X169989500Y-62293500D01*
X169989500Y-65468500D02*
X170053000Y-65405000D01*
X170996834Y-67460756D02*
X169989500Y-65468500D01*
X171033440Y-69740780D02*
X170996834Y-67460756D01*
X186946500Y-63293500D02*
X186946500Y-66611460D01*
X188595000Y-68259960D02*
X188595000Y-71503500D01*
X186946500Y-66611460D02*
X188595000Y-68259960D01*
X188595000Y-71503500D02*
X189481500Y-71503500D01*
X190309500Y-70675500D02*
X191582000Y-70675500D01*
X189481500Y-71503500D02*
X190309500Y-70675500D01*
X182523400Y-79705200D02*
X180197760Y-79705200D01*
X188846500Y-64442300D02*
X188846500Y-63293500D01*
X188137800Y-65151000D02*
X188846500Y-64442300D01*
X180441600Y-70523100D02*
X185737500Y-65227200D01*
X180441600Y-75316080D02*
X180441600Y-70523100D01*
X180106320Y-75651360D02*
X180441600Y-75316080D01*
X180197760Y-79705200D02*
X180182520Y-79689960D01*
X188595000Y-63545000D02*
X188846500Y-63293500D01*
X195834000Y-56263500D02*
X192926500Y-56263500D01*
X192926500Y-56263500D02*
X187896500Y-61293500D01*
X195834000Y-58163500D02*
X196791500Y-58163500D01*
X196791500Y-58163500D02*
X198755000Y-56200000D01*
X198755000Y-56200000D02*
X201247500Y-56200000D01*
X201247500Y-56200000D02*
X201311000Y-56136500D01*
X201311000Y-56136500D02*
X201483000Y-56136500D01*
X201247500Y-56200000D02*
X201311000Y-56136500D01*
X195897500Y-58100000D02*
X195834000Y-58163500D01*
X211852000Y-57782500D02*
X212661540Y-57782500D01*
X216664500Y-58447980D02*
X216664500Y-57023000D01*
X216448640Y-58663840D02*
X216664500Y-58447980D01*
X212661540Y-57782500D02*
X213441280Y-58562240D01*
X208216500Y-57592000D02*
X211661500Y-57592000D01*
X211661500Y-57592000D02*
X211852000Y-57782500D01*
X201311000Y-58036500D02*
X202206900Y-58036500D01*
X207530740Y-58277760D02*
X208216500Y-57592000D01*
X202448160Y-58277760D02*
X207530740Y-58277760D01*
X202206900Y-58036500D02*
X202448160Y-58277760D01*
X198755000Y-58100000D02*
X201247500Y-58100000D01*
X201247500Y-58100000D02*
X201311000Y-58036500D01*
X198818500Y-58036500D02*
X198755000Y-58100000D01*
D31*
X217886280Y-66324480D02*
X213775721Y-66011221D01*
D30*
X205676500Y-57086500D02*
X203311000Y-57086500D01*
X205803500Y-57213500D02*
X205676500Y-57086500D01*
X208127600Y-59484260D02*
X208254600Y-59357260D01*
X208127600Y-60373260D02*
X208127600Y-59484260D01*
X209550000Y-62547500D02*
X208127600Y-60373260D01*
X210312000Y-62547500D02*
X209550000Y-62547500D01*
X213775721Y-66011221D02*
X210312000Y-62547500D01*
X197043000Y-61277500D02*
X192484500Y-61277500D01*
X192484500Y-61277500D02*
X192341500Y-61420500D01*
D31*
X213984840Y-76428600D02*
X213550500Y-73342500D01*
D30*
X215328500Y-58309000D02*
X213852000Y-56832500D01*
X215592660Y-61396880D02*
X215328500Y-58309000D01*
X214576660Y-62412880D02*
X215592660Y-61396880D01*
X214589360Y-63301880D02*
X214576660Y-62412880D01*
X214947500Y-64071500D02*
X214589360Y-63301880D01*
X215011000Y-71945500D02*
X215011000Y-68516500D01*
X213550500Y-73342500D02*
X215011000Y-71945500D01*
X233489500Y-64137500D02*
X230251000Y-64137500D01*
X230251000Y-64137500D02*
X229425500Y-64963000D01*
X229425500Y-64963000D02*
X229425500Y-61386000D01*
X229425500Y-61386000D02*
X229301000Y-61261500D01*
X231201000Y-61261500D02*
X231201000Y-61973420D01*
X196423280Y-80975200D02*
X191923400Y-80975200D01*
X196611240Y-80787240D02*
X196423280Y-80975200D01*
X200436480Y-80954880D02*
X200025000Y-80954880D01*
X201784938Y-79606422D02*
X200436480Y-80954880D01*
X213439022Y-79606422D02*
X201784938Y-79606422D01*
X213484460Y-79651860D02*
X213439022Y-79606422D01*
X215003380Y-79651860D02*
X213484460Y-79651860D01*
X220827600Y-73827640D02*
X215003380Y-79651860D01*
X220446600Y-66133980D02*
X220446600Y-68676520D01*
X223994980Y-62585600D02*
X220446600Y-66133980D01*
X227934520Y-62585600D02*
X223994980Y-62585600D01*
X230560880Y-62613540D02*
X230505000Y-62613540D01*
X231201000Y-61973420D02*
X230560880Y-62613540D01*
X230251000Y-59261500D02*
X230425500Y-59261500D01*
X230425500Y-59261500D02*
X232664000Y-57023000D01*
X232664000Y-57023000D02*
X234571500Y-57023000D01*
X236471500Y-57023000D02*
X237911640Y-57023000D01*
X239608400Y-55377040D02*
X240990120Y-55377040D01*
X239369600Y-55615840D02*
X239608400Y-55377040D01*
X237911640Y-57023000D02*
X238008160Y-57119520D01*
X240990120Y-55377040D02*
X243236240Y-55377040D01*
X243236240Y-55377040D02*
X243464840Y-55148440D01*
X243434360Y-54950320D02*
X243464840Y-54844440D01*
X249110500Y-57465000D02*
X251730000Y-57465000D01*
X243464840Y-57048440D02*
X243850200Y-57048440D01*
X243850200Y-57048440D02*
X244551200Y-57749440D01*
X248107160Y-57465000D02*
X249110500Y-57465000D01*
X247822720Y-57749440D02*
X248107160Y-57465000D01*
X244551200Y-57749440D02*
X247822720Y-57749440D01*
X240990120Y-57277040D02*
X243236240Y-57277040D01*
X243236240Y-57277040D02*
X243464840Y-57048440D01*
X240990120Y-57277040D02*
X239425520Y-57277040D01*
X237629700Y-54546500D02*
X236344500Y-54546500D01*
X238455200Y-55372000D02*
X237629700Y-54546500D01*
X238455200Y-56306720D02*
X238455200Y-55372000D01*
X239425520Y-57277040D02*
X238455200Y-56306720D01*
X243337840Y-57175440D02*
X243464840Y-57048440D01*
X249580400Y-62588140D02*
X247294400Y-62588140D01*
D31*
X246398574Y-60734734D02*
X246398574Y-60813109D01*
X246298720Y-60634880D02*
X246398574Y-60734734D01*
D30*
X249643900Y-62725300D02*
X249580400Y-62588140D01*
X247294400Y-62588140D02*
X246398574Y-60813109D01*
X246398574Y-60813109D02*
X246319040Y-60695840D01*
X245464840Y-56098440D02*
X246634000Y-56515000D01*
X246634000Y-56515000D02*
X246697500Y-56578500D01*
X233997500Y-59261500D02*
X235918500Y-59261500D01*
X236601000Y-60833000D02*
X237551000Y-61783000D01*
X236601000Y-59944000D02*
X236601000Y-60833000D01*
X235918500Y-59261500D02*
X236601000Y-59944000D01*
X237551000Y-61783000D02*
X238125000Y-61783000D01*
X253730000Y-56515000D02*
X253730000Y-57475880D01*
X249882660Y-59745880D02*
X249882660Y-61323220D01*
X250855480Y-58773060D02*
X249882660Y-59745880D01*
X252432820Y-58773060D02*
X250855480Y-58773060D01*
X253730000Y-57475880D02*
X252432820Y-58773060D01*
X252373026Y-63215646D02*
X252373026Y-63153186D01*
X252373026Y-63153186D02*
X252366780Y-63146940D01*
D31*
X252481328Y-76141169D02*
X252481328Y-74554328D01*
D30*
X252412500Y-63309500D02*
X252366780Y-63146940D01*
X253047500Y-63944500D02*
X252412500Y-63309500D01*
X253047500Y-71755000D02*
X253047500Y-63944500D01*
X252476000Y-72326500D02*
X253047500Y-71755000D01*
X252481328Y-74554328D02*
X252476000Y-74549000D01*
D37*
X37532151Y-67484149D02*
X40687431Y-64722569D01*
D31*
X40687431Y-64722569D02*
X41198800Y-60452000D01*
D32*
X37575649Y-67484149D02*
X37744400Y-67462400D01*
D38*
X38608000Y-69850000D02*
X38100000Y-70358000D01*
X38100000Y-70358000D02*
X38100000Y-72222813D01*
D31*
X38100000Y-72222813D02*
X36880879Y-73441934D01*
D38*
X67565000Y-84455000D02*
X62166500Y-84455000D01*
D31*
X38389934Y-73441934D02*
X36880879Y-73441934D01*
D38*
X39065200Y-73355200D02*
X38389934Y-73441934D01*
X50355500Y-86423500D02*
X41706800Y-78028800D01*
X50419000Y-86677500D02*
X50355500Y-86423500D01*
X50546000Y-86868000D02*
X50419000Y-86677500D01*
X53086000Y-86868000D02*
X50546000Y-86868000D01*
D32*
X62166500Y-84455000D02*
X62039500Y-84328000D01*
D31*
X46228000Y-79248000D02*
X45669200Y-79248000D01*
D38*
X51435000Y-84455000D02*
X46228000Y-79248000D01*
X58165000Y-84455000D02*
X51435000Y-84455000D01*
D31*
X42621200Y-77774800D02*
X42621200Y-76128035D01*
X44348400Y-79502000D02*
X42621200Y-77774800D01*
X45415200Y-79502000D02*
X44348400Y-79502000D01*
X45669200Y-79248000D02*
X45415200Y-79502000D01*
X39033665Y-75767720D02*
X42621200Y-76128035D01*
X42621200Y-76128035D02*
X43251965Y-76128035D01*
X45720000Y-73660000D02*
X51787443Y-73660000D01*
X43251965Y-76128035D02*
X45720000Y-73660000D01*
D32*
X51787443Y-73660000D02*
X52057945Y-73389498D01*
X42346035Y-76128035D02*
X39033665Y-75767720D01*
D38*
X67565000Y-83185000D02*
X62103000Y-83185000D01*
X39624000Y-68072000D02*
X39370000Y-67818000D01*
X39624000Y-71437500D02*
X39624000Y-68072000D01*
X42113200Y-73609200D02*
X39624000Y-71437500D01*
D32*
X46024800Y-80670400D02*
X45770800Y-80670400D01*
D38*
X50800000Y-85344000D02*
X46024800Y-80670400D01*
X53340000Y-85344000D02*
X50800000Y-85344000D01*
X53848000Y-85852000D02*
X53340000Y-85344000D01*
D32*
X62103000Y-83185000D02*
X61976000Y-83312000D01*
D31*
X37658244Y-62678928D02*
X37896800Y-63703200D01*
X39370000Y-67818000D02*
X35661600Y-69138800D01*
D38*
X37896800Y-63703200D02*
X38557200Y-64617600D01*
D31*
X45110400Y-77470000D02*
X45813662Y-75852338D01*
X49304148Y-62243908D02*
X48156695Y-60375123D01*
D38*
X49022000Y-71120000D02*
X49304148Y-62243908D01*
X47244000Y-72898000D02*
X49022000Y-71120000D01*
X45813662Y-75852338D02*
X47244000Y-74422000D01*
X58165000Y-81915000D02*
X51689000Y-81915000D01*
D31*
X46837600Y-78079600D02*
X45110400Y-77470000D01*
D38*
X51689000Y-81915000D02*
X46837600Y-78079600D01*
D31*
X53183740Y-70465837D02*
X53183740Y-70465837D01*
D30*
X50800000Y-67208400D02*
X50800000Y-64566800D01*
D38*
X53183740Y-70465837D02*
X50800000Y-67208400D01*
D31*
X50800000Y-64566800D02*
X51241031Y-62676204D01*
D38*
X58165000Y-83185000D02*
X52959000Y-83185000D01*
D31*
X54356000Y-72136000D02*
X53183740Y-70465837D01*
X54280877Y-75630980D02*
X54356000Y-72136000D01*
D38*
X54280877Y-75630980D02*
X54280877Y-75630980D01*
D32*
X52959000Y-83185000D02*
X52832000Y-83058000D01*
D30*
X67565000Y-80645000D02*
X82042000Y-80645000D01*
D31*
X83224308Y-79064934D02*
X83219607Y-77561544D01*
D30*
X82042000Y-80645000D02*
X83224308Y-79064934D01*
D37*
X83288772Y-77546842D02*
X83219607Y-77561544D01*
D31*
X86256695Y-63650695D02*
X86256695Y-60375123D01*
D37*
X87503000Y-64897000D02*
X86256695Y-63650695D01*
X87503000Y-70866000D02*
X87503000Y-64897000D01*
X86106000Y-72263000D02*
X87503000Y-70866000D01*
X84856320Y-74777600D02*
X84983320Y-74777600D01*
D31*
X83219607Y-77561544D02*
X84856320Y-74777600D01*
D32*
X83288772Y-77546842D02*
X83913662Y-76614338D01*
D30*
X77347485Y-79633188D02*
X70421500Y-79629000D01*
X97599500Y-80010000D02*
X97345500Y-79756000D01*
X93281500Y-80581500D02*
X92506798Y-81356202D01*
X92506798Y-81356202D02*
X83832702Y-81356202D01*
X83832702Y-81356202D02*
X83820000Y-81343500D01*
X80581500Y-78994000D02*
X79057500Y-79438500D01*
X79057500Y-79438500D02*
X77347485Y-79633188D01*
X100710000Y-80010000D02*
X97599500Y-80010000D01*
X69532500Y-79375000D02*
X67565000Y-79375000D01*
X70421500Y-79629000D02*
X69532500Y-79375000D01*
D37*
X77343000Y-67183000D02*
X77343000Y-71079813D01*
D31*
X77343000Y-71079813D02*
X74539216Y-72879821D01*
X74539216Y-72879821D02*
X74885392Y-75990474D01*
D30*
X74885392Y-75990474D02*
X76339476Y-78415652D01*
D37*
X76339476Y-78415652D02*
X76581000Y-78676500D01*
D30*
X76708000Y-81788000D02*
X78740000Y-83820000D01*
X78740000Y-83820000D02*
X100710000Y-83820000D01*
D37*
X77470000Y-65278000D02*
X77470000Y-67056000D01*
X78787431Y-61725369D02*
X78740000Y-61772800D01*
X78232000Y-64516000D02*
X77470000Y-65278000D01*
D31*
X78787431Y-60401292D02*
X78787431Y-61725369D01*
D37*
X77470000Y-67056000D02*
X77343000Y-67183000D01*
X100710000Y-82550000D02*
X96393000Y-82550000D01*
D31*
X90157945Y-76314945D02*
X90157945Y-73389498D01*
D37*
X96393000Y-82550000D02*
X90157945Y-76314945D01*
D31*
X77648249Y-76128035D02*
X78684965Y-76128035D01*
X81423502Y-73389498D02*
X90157945Y-73389498D01*
X78684965Y-76128035D02*
X81423502Y-73389498D01*
D30*
X100710000Y-85090000D02*
X78867000Y-85090000D01*
D31*
X72517000Y-72054207D02*
X73456800Y-69342000D01*
D37*
X72517000Y-74797920D02*
X72517000Y-72054207D01*
D30*
X74930000Y-78486000D02*
X72517000Y-74797920D01*
D37*
X78867000Y-85090000D02*
X75184000Y-81597500D01*
X73456800Y-69342000D02*
X73710800Y-69392800D01*
D31*
X73710800Y-69392800D02*
X76327000Y-69088000D01*
X76327000Y-69088000D02*
X76327000Y-63247684D01*
D37*
X76327000Y-63247684D02*
X75758244Y-62678928D01*
X91283740Y-70465837D02*
X91283740Y-70628711D01*
D31*
X91283740Y-70628711D02*
X96139000Y-74676000D01*
D37*
X97663000Y-81280000D02*
X100710000Y-81280000D01*
X96139000Y-79756000D02*
X97663000Y-81280000D01*
X96139000Y-74676000D02*
X96139000Y-79756000D01*
D31*
X89341031Y-62676204D02*
X89341031Y-64693800D01*
X89281000Y-67655126D02*
X91283740Y-70465837D01*
D37*
X89281000Y-64753831D02*
X89281000Y-67655126D01*
X89341031Y-64693800D02*
X89281000Y-64753831D01*
D30*
X131102100Y-60706000D02*
X131019246Y-60706000D01*
D31*
X131019246Y-60706000D02*
X129308860Y-61653420D01*
D30*
X129308860Y-61653420D02*
X129245360Y-61653420D01*
X129222500Y-63500000D02*
X128778000Y-63944500D01*
X128778000Y-63944500D02*
X124206000Y-63944500D01*
X124206000Y-63944500D02*
X122364500Y-65786000D01*
X122364500Y-65786000D02*
X122364500Y-70167500D01*
X122364500Y-70167500D02*
X125730000Y-73533000D01*
D31*
X126301500Y-75438000D02*
X127695960Y-77387721D01*
D30*
X127695960Y-77387721D02*
X127695960Y-77449680D01*
X110110000Y-83820000D02*
X117793558Y-83694024D01*
D31*
X127772160Y-79263240D02*
X127695960Y-77449680D01*
D30*
X127825500Y-79248000D02*
X127772160Y-79263240D01*
X122999500Y-79311500D02*
X125425200Y-79293720D01*
X122809000Y-79121000D02*
X122999500Y-79311500D01*
X121539000Y-80391000D02*
X121539000Y-80327500D01*
X119316500Y-80899000D02*
X121539000Y-80391000D01*
X117793558Y-83694024D02*
X119316500Y-83375500D01*
X137033000Y-74676000D02*
X137033000Y-71040993D01*
X131254500Y-78867000D02*
X132969000Y-77787500D01*
X132969000Y-77787500D02*
X133794500Y-77787500D01*
X133794500Y-77787500D02*
X137033000Y-74676000D01*
X110110000Y-82550000D02*
X131381500Y-82550000D01*
D31*
X137033000Y-71040993D02*
X135844015Y-69852008D01*
D30*
X133721865Y-62690906D02*
X135779406Y-62690906D01*
D31*
X137477500Y-68218523D02*
X135844015Y-69852008D01*
D30*
X137477500Y-64389000D02*
X137477500Y-68218523D01*
X135779406Y-62690906D02*
X137477500Y-64389000D01*
D31*
X122098249Y-76128035D02*
X118435965Y-76128035D01*
D30*
X113284000Y-81280000D02*
X110110000Y-81280000D01*
X118435965Y-76128035D02*
X113284000Y-81280000D01*
D31*
X122098249Y-76128035D02*
X124277965Y-76128035D01*
D30*
X127001801Y-73404199D02*
X134538780Y-73404199D01*
X124277965Y-76128035D02*
X127001801Y-73404199D01*
X118491000Y-81788000D02*
X132588000Y-81788000D01*
X114490500Y-81724500D02*
X114554000Y-81788000D01*
X114554000Y-81788000D02*
X118491000Y-81788000D01*
X110110000Y-80010000D02*
X112776000Y-80010000D01*
X133553200Y-78409800D02*
X140080000Y-78409800D01*
X132651500Y-79311500D02*
X133553200Y-78409800D01*
X132588000Y-81788000D02*
X132651500Y-81724500D01*
D31*
X119430879Y-73441934D02*
X119430879Y-74980879D01*
D30*
X136982200Y-79679800D02*
X140080000Y-79679800D01*
X136334500Y-80327500D02*
X136982200Y-79679800D01*
X129413000Y-80327500D02*
X136334500Y-80327500D01*
X129222500Y-80137000D02*
X129413000Y-80327500D01*
X122745500Y-80264000D02*
X126217680Y-80253840D01*
X119507000Y-77025500D02*
X122745500Y-80264000D01*
X119430879Y-74980879D02*
X119507000Y-75057000D01*
X119430879Y-73441934D02*
X119430879Y-72656621D01*
D31*
X119430879Y-72656621D02*
X121285000Y-70802500D01*
D30*
X121285000Y-70802500D02*
X121285000Y-64325500D01*
X121285000Y-64325500D02*
X122999500Y-62611000D01*
D31*
X122999500Y-62611000D02*
X122999500Y-60584758D01*
D30*
X122999500Y-60584758D02*
X123168265Y-60415993D01*
X140080000Y-80949800D02*
X128511300Y-80949800D01*
X119874877Y-69900377D02*
X119874877Y-69138377D01*
X120396000Y-70421500D02*
X119874877Y-69900377D01*
X121602500Y-71945500D02*
X121602500Y-71818500D01*
X124269500Y-74612500D02*
X121602500Y-71945500D01*
X128511300Y-80949800D02*
X124777500Y-77216000D01*
D31*
X120139079Y-62693630D02*
X120139079Y-64767079D01*
D30*
X120396000Y-68617254D02*
X119874877Y-69138377D01*
D31*
X119874877Y-69138377D02*
X118049040Y-69105780D01*
D30*
X120396000Y-65024000D02*
X120396000Y-68617254D01*
X120139079Y-64767079D02*
X120396000Y-65024000D01*
X169608500Y-71183500D02*
X169354500Y-71183500D01*
X167195500Y-73342500D02*
X164592000Y-73660000D01*
X169354500Y-71183500D02*
X167195500Y-73342500D01*
X167894000Y-64897000D02*
X167894000Y-64960500D01*
X169608500Y-66675000D02*
X169608500Y-71183500D01*
X169608500Y-71183500D02*
X169608500Y-71247000D01*
X167894000Y-64960500D02*
X169608500Y-66675000D01*
D31*
X168737530Y-60389824D02*
X167575176Y-60389824D01*
D30*
X167894000Y-64897000D02*
X167957500Y-64897000D01*
X166687500Y-63690500D02*
X167894000Y-64897000D01*
X167575176Y-60389824D02*
X166649400Y-61600080D01*
X140080000Y-83489800D02*
X145872200Y-83489800D01*
D31*
X166394497Y-78969503D02*
X166394497Y-77492956D01*
D30*
X162242500Y-83121500D02*
X166394497Y-78969503D01*
X158813500Y-83121500D02*
X162242500Y-83121500D01*
X146240500Y-83121500D02*
X147764500Y-83121500D01*
X145872200Y-83489800D02*
X146240500Y-83121500D01*
D31*
X171821865Y-62690906D02*
X173752406Y-62690906D01*
X175704500Y-68091523D02*
X173781720Y-70363080D01*
D30*
X175704500Y-64643000D02*
X175704500Y-68091523D01*
X173752406Y-62690906D02*
X175704500Y-64643000D01*
X149480000Y-83489800D02*
X157111700Y-83489800D01*
D31*
X172471080Y-70347840D02*
X173781720Y-70363080D01*
D30*
X167322500Y-75501500D02*
X172471080Y-70347840D01*
X165417500Y-75501500D02*
X167322500Y-75501500D01*
X157111700Y-83489800D02*
X165417500Y-75501500D01*
D31*
X160198249Y-76128035D02*
X163076465Y-76128035D01*
X170499301Y-73404199D02*
X172638780Y-73404199D01*
D30*
X170497500Y-73406000D02*
X170499301Y-73404199D01*
X164719000Y-74612500D02*
X166624000Y-74612500D01*
X163076465Y-76128035D02*
X164719000Y-74612500D01*
X149480000Y-82219800D02*
X155143200Y-82219800D01*
D31*
X160198249Y-77164751D02*
X160198249Y-76128035D01*
D30*
X155143200Y-82219800D02*
X160198249Y-77164751D01*
D31*
X161268265Y-60415993D02*
X161847092Y-60168592D01*
X161847092Y-60168592D02*
X162089789Y-64230060D01*
X160401000Y-70571813D02*
X157089216Y-72879821D01*
D30*
X160401000Y-67056000D02*
X160401000Y-70571813D01*
X162089789Y-64230060D02*
X160401000Y-67056000D01*
X149480000Y-80949800D02*
X152349200Y-80949800D01*
D31*
X157530879Y-75768121D02*
X157089216Y-72879821D01*
D30*
X152349200Y-80949800D02*
X157530879Y-75768121D01*
X155569072Y-69118381D02*
X156547818Y-69118381D01*
D31*
X156547818Y-69118381D02*
X158755080Y-67980560D01*
X160210500Y-64665051D02*
X158666404Y-62229375D01*
D30*
X160210500Y-65405000D02*
X160210500Y-64665051D01*
X159512000Y-66103500D02*
X160210500Y-65405000D01*
X158755080Y-67980560D02*
X159512000Y-66103500D01*
X149480000Y-79679800D02*
X151714200Y-79679800D01*
D31*
X154513280Y-72937794D02*
X155569072Y-69118381D01*
D30*
X154513280Y-77218540D02*
X154513280Y-72937794D01*
X151714200Y-79679800D02*
X154513280Y-77218540D01*
D31*
X182523400Y-78435200D02*
X177215800Y-78435200D01*
X151777700Y-78409800D02*
X149480000Y-78409800D01*
X152971500Y-77216000D02*
X151777700Y-78409800D01*
X156845000Y-79375000D02*
X155067000Y-79375000D01*
X156908500Y-79311500D02*
X156845000Y-79375000D01*
X160166707Y-79138517D02*
X158623000Y-79756000D01*
X160230207Y-79202017D02*
X160166707Y-79138517D01*
X164084000Y-80137000D02*
X161925000Y-80137000D01*
X164147500Y-80200500D02*
X164084000Y-80137000D01*
X171386500Y-80137000D02*
X166497000Y-80137000D01*
X172847000Y-78676500D02*
X171386500Y-80137000D01*
X177215800Y-78435200D02*
X177165000Y-78486000D01*
D30*
X202438000Y-75247500D02*
X200025000Y-75184000D01*
X204438250Y-73247250D02*
X202438000Y-75247500D01*
X211931250Y-73247250D02*
X204438250Y-73247250D01*
X184200800Y-80975200D02*
X182523400Y-80975200D01*
X190182500Y-75120500D02*
X184200800Y-80975200D01*
X192468500Y-75120500D02*
X190182500Y-75120500D01*
X192913000Y-74803000D02*
X192468500Y-75120500D01*
X196532500Y-74803000D02*
X192913000Y-74803000D01*
X196913500Y-75184000D02*
X196532500Y-74803000D01*
X200025000Y-75184000D02*
X199961500Y-75247500D01*
D31*
X210052920Y-77571600D02*
X210844497Y-74334003D01*
X213187530Y-63899030D02*
X213659720Y-60680600D01*
D30*
X213995000Y-64706500D02*
X213187530Y-63899030D01*
X213995000Y-71183500D02*
X213995000Y-67056000D01*
X210844497Y-74334003D02*
X211931250Y-73247250D01*
X211931250Y-73247250D02*
X213995000Y-71183500D01*
X218394015Y-69852008D02*
X218221560Y-70500240D01*
D31*
X218221560Y-70500240D02*
X216154000Y-71183500D01*
D30*
X185356500Y-82169000D02*
X182599600Y-82169000D01*
X189738000Y-77787500D02*
X185356500Y-82169000D01*
X196342000Y-77597000D02*
X194564000Y-77597000D01*
X196913500Y-77025500D02*
X196342000Y-77597000D01*
X201803000Y-76898500D02*
X199898000Y-76898500D01*
X202946000Y-78041500D02*
X201803000Y-76898500D01*
X206184500Y-78041500D02*
X202946000Y-78041500D01*
X207772000Y-76454000D02*
X206184500Y-78041500D01*
X207772000Y-75755500D02*
X207772000Y-76454000D01*
X209232500Y-74231500D02*
X207772000Y-75755500D01*
X216154000Y-71183500D02*
X216154000Y-71247000D01*
X182599600Y-82169000D02*
X182523400Y-82245200D01*
D31*
X216271865Y-62690906D02*
X215954365Y-64887865D01*
X215963500Y-67183000D02*
X218175840Y-70119240D01*
D30*
X215954365Y-64887865D02*
X215963500Y-64897000D01*
X218175840Y-70119240D02*
X218394015Y-69852008D01*
D31*
X216682320Y-73929240D02*
X214885801Y-73404199D01*
X207010000Y-74993500D02*
X204383640Y-75783440D01*
D30*
X214887602Y-73406000D02*
X214947500Y-73406000D01*
X214885801Y-73404199D02*
X214887602Y-73406000D01*
X204383640Y-75783440D02*
X204648249Y-76128035D01*
X182523400Y-83515200D02*
X185597800Y-83515200D01*
D31*
X199961500Y-76136500D02*
X204466214Y-75946000D01*
D30*
X199898000Y-76073000D02*
X199961500Y-76136500D01*
X193929000Y-75882500D02*
X197040500Y-76073000D01*
X193865500Y-75946000D02*
X193929000Y-75882500D01*
X189484000Y-76708000D02*
X190309500Y-76708000D01*
X186817000Y-79629000D02*
X189484000Y-76708000D01*
X185597800Y-83515200D02*
X187134500Y-81978500D01*
X204466214Y-75946000D02*
X204648249Y-76128035D01*
X191923400Y-83515200D02*
X196723000Y-83515200D01*
X199136000Y-75651813D02*
X199136000Y-74358500D01*
D31*
X199136000Y-74358500D02*
X201381360Y-72984360D01*
D30*
X199136000Y-80835500D02*
X199136000Y-75651813D01*
X196723000Y-83515200D02*
X199136000Y-80835500D01*
D31*
X206329280Y-60228480D02*
X206044800Y-62504320D01*
X205041500Y-70381313D02*
X201381360Y-72984360D01*
D30*
X205041500Y-67119500D02*
X205041500Y-70381313D01*
X206044800Y-62504320D02*
X205041500Y-67119500D01*
X200401318Y-68799736D02*
X200401318Y-69397482D01*
D31*
X200401318Y-69397482D02*
X198310500Y-73850500D01*
D30*
X196456300Y-82245200D02*
X191923400Y-82245200D01*
X198310500Y-80391000D02*
X196456300Y-82245200D01*
X198310500Y-73850500D02*
X198310500Y-80391000D01*
X200401318Y-68799736D02*
X200558400Y-69174360D01*
D31*
X200558400Y-69174360D02*
X203237719Y-68234941D01*
X203237719Y-68234941D02*
X203237719Y-62409150D01*
X242207041Y-69858970D02*
X241250390Y-69858970D01*
D30*
X197434200Y-79705200D02*
X197485000Y-79756000D01*
X197434200Y-79705200D02*
X191923400Y-79705200D01*
X203073000Y-80327500D02*
X202882500Y-80327500D01*
X203073000Y-80327500D02*
X215265000Y-80264000D01*
X224663000Y-71564500D02*
X224917000Y-71310500D01*
X224917000Y-71310500D02*
X228092000Y-71310500D01*
X228092000Y-71310500D02*
X230505000Y-68897500D01*
X230505000Y-68897500D02*
X230505000Y-68199000D01*
X230505000Y-68199000D02*
X230759000Y-67945000D01*
X230759000Y-67945000D02*
X233680000Y-67945000D01*
X233680000Y-67945000D02*
X234886500Y-69151500D01*
X215265000Y-80264000D02*
X220916500Y-75247500D01*
D31*
X235419900Y-69151500D02*
X234886500Y-69151500D01*
X235808520Y-69540120D02*
X235419900Y-69151500D01*
X240090960Y-71018400D02*
X237317280Y-71018400D01*
X241250390Y-69858970D02*
X240090960Y-71018400D01*
X248944497Y-77492956D02*
X248944497Y-74905503D01*
X251287530Y-63899030D02*
X251287530Y-60389824D01*
D30*
X252095000Y-64706500D02*
X251287530Y-63899030D01*
X252095000Y-70675500D02*
X252095000Y-64706500D01*
X250507500Y-72453500D02*
X252095000Y-70675500D01*
X248944497Y-74905503D02*
X249491500Y-74358500D01*
D31*
X243776500Y-72324959D02*
X248944497Y-77492956D01*
D30*
X243776500Y-70802500D02*
X243776500Y-72324959D01*
X242056920Y-69768720D02*
X242207041Y-69858970D01*
X242207041Y-69858970D02*
X243776500Y-70802500D01*
X191923400Y-78435200D02*
X196481700Y-78435200D01*
X221678500Y-71437500D02*
X222693500Y-71437500D01*
X220980000Y-72136000D02*
X221678500Y-71437500D01*
X220980000Y-72390000D02*
X220980000Y-72136000D01*
X214599520Y-79052420D02*
X220980000Y-72390000D01*
X201074020Y-79052420D02*
X214599520Y-79052420D01*
X199898000Y-78359000D02*
X201074020Y-79052420D01*
X196481700Y-78435200D02*
X196532500Y-78486000D01*
X222693500Y-75247500D02*
X228600000Y-75247500D01*
D31*
X234985934Y-73441934D02*
X240080879Y-73441934D01*
D30*
X234950000Y-73406000D02*
X234985934Y-73441934D01*
X228600000Y-75247500D02*
X230251000Y-73914000D01*
D31*
X244327680Y-60223400D02*
X243850160Y-61117480D01*
X243850160Y-61117480D02*
X243818265Y-65617235D01*
X241950240Y-71856600D02*
X240080879Y-73441934D01*
D30*
X241998500Y-71173340D02*
X241950240Y-71856600D01*
X241935000Y-71109840D02*
X241998500Y-71173340D01*
X241998500Y-67437000D02*
X241998500Y-68326000D01*
X243818265Y-65617235D02*
X241998500Y-67437000D01*
X222693500Y-73977500D02*
X224345500Y-73977500D01*
D31*
X240220500Y-75374500D02*
X242748249Y-76128035D01*
D30*
X238442500Y-74549000D02*
X240220500Y-75374500D01*
X234696000Y-74549000D02*
X238442500Y-74549000D01*
X234061000Y-73914000D02*
X234696000Y-74549000D01*
X234061000Y-71691500D02*
X234061000Y-73914000D01*
X234315000Y-71755000D02*
X234061000Y-71691500D01*
X229425500Y-71818500D02*
X229679500Y-71818500D01*
X228219000Y-73279000D02*
X229425500Y-71818500D01*
X225044000Y-73279000D02*
X228219000Y-73279000D01*
X224345500Y-73977500D02*
X225044000Y-73279000D01*
D31*
X242748249Y-76128035D02*
X244864465Y-76128035D01*
X248286801Y-73404199D02*
X255188780Y-73404199D01*
D30*
X247269000Y-74422000D02*
X248286801Y-73404199D01*
X244864465Y-76128035D02*
X245364000Y-75628500D01*
D31*
X241048159Y-68036059D02*
X241048159Y-68110481D01*
X240040259Y-69118381D02*
X238657154Y-69118381D01*
X241048159Y-68110481D02*
X240040259Y-69118381D01*
X239080438Y-69272176D02*
X237139480Y-69301360D01*
D30*
X224980500Y-76517500D02*
X222693500Y-76517500D01*
X225234500Y-76263500D02*
X224980500Y-76517500D01*
X228034678Y-74355770D02*
X225367678Y-74228770D01*
X230176042Y-72675474D02*
X228034678Y-74355770D01*
X235356400Y-72466200D02*
X234823000Y-72453500D01*
X237139480Y-69301360D02*
X235356400Y-72466200D01*
X239080438Y-69272176D02*
X238942880Y-69291200D01*
X241114580Y-68102480D02*
X241048159Y-68036059D01*
D31*
X241048159Y-68036059D02*
X241048159Y-62343110D01*
D30*
X255335508Y-69852008D02*
X254254000Y-68770500D01*
X254254000Y-68770500D02*
X254000000Y-68770500D01*
X251333000Y-65849500D02*
X249237500Y-63754000D01*
X249237500Y-63754000D02*
X244983000Y-63754000D01*
X244983000Y-63754000D02*
X244856000Y-63881000D01*
X242951000Y-63754000D02*
X242239800Y-64846200D01*
X242239800Y-64846200D02*
X242224560Y-65913000D01*
X256494015Y-69852008D02*
X255335508Y-69852008D01*
X224345500Y-72707500D02*
X222693500Y-72707500D01*
X224599500Y-72453500D02*
X224345500Y-72707500D01*
X227965000Y-72453500D02*
X224599500Y-72453500D01*
X229552500Y-70866000D02*
X227965000Y-72453500D01*
X229933500Y-70866000D02*
X229552500Y-70866000D01*
X230441500Y-70040500D02*
X229933500Y-70866000D01*
X234759500Y-67056000D02*
X230949500Y-67056000D01*
X236067600Y-67589400D02*
X234759500Y-67056000D01*
X239694720Y-67543680D02*
X236067600Y-67589400D01*
X256494015Y-69852008D02*
X256494015Y-69550015D01*
X256494015Y-69550015D02*
X254000000Y-67056000D01*
X254000000Y-67056000D02*
X254000000Y-63062771D01*
X254000000Y-63062771D02*
X254371865Y-62690906D01*
X222947500Y-72453500D02*
X222693500Y-72707500D01*
X232093500Y-77787500D02*
X233235500Y-77787500D01*
X243014500Y-83121500D02*
X243014500Y-84170500D01*
X242570000Y-82677000D02*
X243014500Y-83121500D01*
X240665000Y-82677000D02*
X242570000Y-82677000D01*
X240474500Y-82486500D02*
X240665000Y-82677000D01*
X234442000Y-78359000D02*
X235521500Y-79438500D01*
X233807000Y-78359000D02*
X234442000Y-78359000D01*
X233235500Y-77787500D02*
X233807000Y-78359000D01*
X154717750Y-86328250D02*
X153670000Y-85280500D01*
X150000700Y-85280500D02*
X149480000Y-84759800D01*
X153670000Y-85280500D02*
X150000700Y-85280500D01*
X191923400Y-84785200D02*
X187375800Y-84785200D01*
X156273500Y-87884000D02*
X154717750Y-86328250D01*
X154717750Y-86328250D02*
X154686000Y-86296500D01*
X172085000Y-87884000D02*
X156273500Y-87884000D01*
X172910500Y-87058500D02*
X172085000Y-87884000D01*
X175069500Y-87058500D02*
X172910500Y-87058500D01*
X176085500Y-88074500D02*
X175069500Y-87058500D01*
X184150000Y-88074500D02*
X176085500Y-88074500D01*
X187375800Y-84785200D02*
X186499500Y-85661500D01*
X204216000Y-83312000D02*
X216789000Y-83312000D01*
X197599300Y-84785200D02*
X198691500Y-83693000D01*
X198691500Y-83693000D02*
X204216000Y-83312000D01*
X230505000Y-77787500D02*
X232093500Y-77787500D01*
X226011228Y-81563596D02*
X230505000Y-77787500D01*
X219077127Y-81661071D02*
X226011228Y-81563596D01*
X216789000Y-83312000D02*
X219077127Y-81661071D01*
X191923400Y-84785200D02*
X197599300Y-84785200D01*
X110110000Y-86360000D02*
X131826000Y-86360000D01*
X131826000Y-86360000D02*
X134239000Y-88773000D01*
X134239000Y-88773000D02*
X143827500Y-88773000D01*
X143827500Y-88773000D02*
X147840700Y-84759800D01*
X147840700Y-84759800D02*
X149480000Y-84759800D01*
X110110000Y-86360000D02*
X103314500Y-86360000D01*
X69469000Y-85725000D02*
X67565000Y-85725000D01*
X71501000Y-87757000D02*
X69469000Y-85725000D01*
X96520000Y-87757000D02*
X71501000Y-87757000D01*
X97282000Y-86995000D02*
X96520000Y-87757000D01*
X103314500Y-86360000D02*
X102552500Y-87122000D01*
X222693500Y-77787500D02*
X228536500Y-77787500D01*
X243967000Y-77724000D02*
X244284500Y-78041500D01*
X242220750Y-77692250D02*
X243967000Y-77724000D01*
X239905540Y-76273660D02*
X242220750Y-77692250D01*
X238577779Y-75232853D02*
X239905540Y-76273660D01*
X234632500Y-75184000D02*
X238577779Y-75232853D01*
X233997500Y-75184000D02*
X234632500Y-75184000D01*
X228536500Y-77787500D02*
X230251000Y-76073000D01*
X244284500Y-78041500D02*
X244284500Y-78770500D01*
X197739000Y-88455500D02*
X197897750Y-88487250D01*
X221361000Y-77787500D02*
X222693500Y-77787500D01*
X220027500Y-78867000D02*
X221361000Y-77787500D01*
X220027500Y-80835500D02*
X220027500Y-78867000D01*
X219900500Y-80962500D02*
X220027500Y-80835500D01*
X217423749Y-84461949D02*
X219837000Y-83121500D01*
X201390219Y-84533036D02*
X217423749Y-84461949D01*
X197897750Y-88487250D02*
X201390219Y-84533036D01*
X182523400Y-84785200D02*
X180479700Y-84785200D01*
D31*
X180479700Y-84785200D02*
X178943000Y-83248500D01*
D30*
X182523400Y-84785200D02*
X184607200Y-84785200D01*
X188277500Y-88455500D02*
X197739000Y-88455500D01*
X197739000Y-88455500D02*
X197929500Y-88455500D01*
X184607200Y-84785200D02*
X188277500Y-88455500D01*
X140080000Y-84759800D02*
X145046700Y-84759800D01*
X152019000Y-84709000D02*
X182447200Y-84709000D01*
X151638000Y-84328000D02*
X152019000Y-84709000D01*
X145669000Y-84137500D02*
X146679299Y-84188015D01*
X145046700Y-84759800D02*
X145669000Y-84137500D01*
X182447200Y-84709000D02*
X182523400Y-84785200D01*
X108077000Y-85598000D02*
X108521500Y-85598000D01*
X102108000Y-86360000D02*
X102870000Y-85598000D01*
X102870000Y-85598000D02*
X108077000Y-85598000D01*
X100710000Y-86360000D02*
X102108000Y-86360000D01*
X138430000Y-84836000D02*
X140003800Y-84836000D01*
X137858500Y-84264500D02*
X138430000Y-84836000D01*
X135064500Y-84264500D02*
X137858500Y-84264500D01*
X133667500Y-85788500D02*
X135064500Y-84264500D01*
X112395000Y-85788500D02*
X133667500Y-85788500D01*
X140003800Y-84836000D02*
X140080000Y-84759800D01*
X58165000Y-85725000D02*
X62992000Y-85725000D01*
X98996500Y-86360000D02*
X100710000Y-86360000D01*
X96456500Y-88900000D02*
X98996500Y-86360000D01*
X66167000Y-88900000D02*
X96456500Y-88900000D01*
X62992000Y-85725000D02*
X66167000Y-88900000D01*
X245646000Y-86894000D02*
X245390000Y-86894000D01*
X245390000Y-86894000D02*
X244094000Y-85598000D01*
X240792000Y-85534500D02*
X239458500Y-85534500D01*
X239458500Y-85534500D02*
X239204500Y-85280500D01*
X239204500Y-85280500D02*
X239204500Y-84170500D01*
X235486000Y-86894000D02*
X235486000Y-83601500D01*
X240474500Y-80200500D02*
X240474500Y-78770500D01*
X240347500Y-81534000D02*
X240474500Y-81407000D01*
X237553500Y-81534000D02*
X240347500Y-81534000D01*
X235486000Y-83601500D02*
X237553500Y-81534000D01*
X232946000Y-86894000D02*
X232946000Y-85252500D01*
X243014500Y-80264000D02*
X243014500Y-78770500D01*
X242443000Y-80835500D02*
X243014500Y-80264000D01*
X237363000Y-80835500D02*
X242443000Y-80835500D01*
X232946000Y-85252500D02*
X237363000Y-80835500D01*
X57150000Y-74676000D02*
X57150000Y-74168000D01*
X56261000Y-73279000D02*
X56261000Y-71308000D01*
X57150000Y-74168000D02*
X56261000Y-73279000D01*
X55943500Y-76200000D02*
X55880000Y-76200000D01*
X57213500Y-74612500D02*
X57150000Y-74676000D01*
X57150000Y-74676000D02*
X55943500Y-75882500D01*
X55943500Y-75882500D02*
X55943500Y-76200000D01*
X55880000Y-76200000D02*
X55626000Y-76454000D01*
X198945500Y-89725500D02*
X199898000Y-89154000D01*
X174053134Y-89728355D02*
X198945500Y-89725500D01*
X222758000Y-84963000D02*
X222786000Y-86894000D01*
X203009500Y-84963000D02*
X222758000Y-84963000D01*
X202628500Y-85344000D02*
X203009500Y-84963000D01*
X199898000Y-89154000D02*
X202628500Y-85344000D01*
X174053134Y-89728355D02*
X174180500Y-89027000D01*
X174180500Y-89027000D02*
X174117000Y-88963500D01*
X44069000Y-89852500D02*
X174053134Y-89728355D01*
D32*
X44005500Y-89789000D02*
X44069000Y-89852500D01*
D30*
X44005500Y-84137500D02*
X44005500Y-86868000D01*
X44958000Y-83185000D02*
X44005500Y-84137500D01*
X50228500Y-77914500D02*
X49593500Y-78549500D01*
X52895500Y-77914500D02*
X50228500Y-77914500D01*
X54356000Y-76454000D02*
X52895500Y-77914500D01*
X55626000Y-76454000D02*
X54356000Y-76454000D01*
D34*
X48280000Y-55280000D02*
X48280000Y-55280000D01*
X48280000Y-55280000D02*
X49510826Y-56691186D01*
D32*
X48280000Y-55280000D02*
X48280000Y-55534000D01*
D34*
X52974240Y-59049920D02*
X52847240Y-59049920D01*
X52847240Y-59049920D02*
X51689000Y-58674000D01*
X51689000Y-58674000D02*
X50569361Y-57453205D01*
X49510826Y-56691186D02*
X50249361Y-57453205D01*
D30*
X236093000Y-80772000D02*
X236093000Y-81089500D01*
X203581000Y-85750402D02*
X203708000Y-85471000D01*
X203708000Y-85471000D02*
X221513402Y-85559902D01*
X221513402Y-85559902D02*
X221678500Y-85725000D01*
X223710500Y-85407500D02*
X225615500Y-85280500D01*
X201295000Y-88963500D02*
X201295000Y-88900000D01*
X59626500Y-79375000D02*
X60769500Y-80518000D01*
X60769500Y-80518000D02*
X60769500Y-84645500D01*
X60769500Y-84645500D02*
X61277500Y-85153500D01*
X61277500Y-85153500D02*
X63500000Y-85153500D01*
X63500000Y-85153500D02*
X65976500Y-87630000D01*
X65976500Y-87630000D02*
X65976500Y-87693500D01*
X66040000Y-90424000D02*
X66167000Y-90297000D01*
X66167000Y-90297000D02*
X199961500Y-90297000D01*
X199961500Y-90297000D02*
X201295000Y-88963500D01*
D31*
X58165000Y-79375000D02*
X59626500Y-79375000D01*
D30*
X202247500Y-86956902D02*
X203454000Y-85750402D01*
X202247500Y-87947500D02*
X202247500Y-86956902D01*
X201295000Y-88900000D02*
X202247500Y-87947500D01*
X203454000Y-85750402D02*
X203581000Y-85750402D01*
X240474500Y-83312000D02*
X239331500Y-82169000D01*
X239331500Y-82169000D02*
X237934500Y-82169000D01*
X240474500Y-83312000D02*
X240474500Y-84170500D01*
X231965728Y-85213204D02*
X225615500Y-85280500D01*
X236093000Y-81089500D02*
X231965728Y-85213204D01*
D31*
X58165000Y-79375000D02*
X55753000Y-79375000D01*
D32*
X55753000Y-79375000D02*
X55626000Y-79502000D01*
D30*
X237934500Y-84170500D02*
X237934500Y-82804000D01*
X234124500Y-79057500D02*
X232093500Y-79057500D01*
X235204000Y-81153000D02*
X234124500Y-79057500D01*
X237934500Y-82804000D02*
X237236000Y-82867500D01*
X149480000Y-86029800D02*
X152958800Y-86029800D01*
X187439300Y-86055200D02*
X191923400Y-86055200D01*
X187198000Y-86296500D02*
X187439300Y-86055200D01*
X175895000Y-88709500D02*
X184785000Y-88709500D01*
X174815500Y-87630000D02*
X175895000Y-88709500D01*
X173164500Y-87630000D02*
X174815500Y-87630000D01*
X172275500Y-88519000D02*
X173164500Y-87630000D01*
X155448000Y-88519000D02*
X172275500Y-88519000D01*
X152958800Y-86029800D02*
X155448000Y-88519000D01*
X198818500Y-86550500D02*
X198850250Y-86645750D01*
X230441500Y-79057500D02*
X232093500Y-79057500D01*
X226345247Y-82084288D02*
X230441500Y-79057500D01*
X219382520Y-82181577D02*
X226345247Y-82084288D01*
X217204384Y-83741025D02*
X219382520Y-82181577D01*
X201073379Y-83966557D02*
X217204384Y-83741025D01*
X198850250Y-86645750D02*
X201073379Y-83966557D01*
X191923400Y-86055200D02*
X196164200Y-86055200D01*
X196659500Y-86550500D02*
X198818500Y-86550500D01*
X198818500Y-86550500D02*
X199009000Y-86550500D01*
X196164200Y-86055200D02*
X196659500Y-86550500D01*
X110110000Y-87630000D02*
X132143500Y-87630000D01*
X147396200Y-86029800D02*
X149480000Y-86029800D01*
X144081500Y-89344500D02*
X147396200Y-86029800D01*
X133858000Y-89344500D02*
X144081500Y-89344500D01*
X132143500Y-87630000D02*
X133858000Y-89344500D01*
X67565000Y-86995000D02*
X69850000Y-86995000D01*
X104394000Y-87630000D02*
X110110000Y-87630000D01*
X103695500Y-88328500D02*
X104394000Y-87630000D01*
X71183500Y-88328500D02*
X95948500Y-88328500D01*
X69850000Y-86995000D02*
X71183500Y-88328500D01*
X241744500Y-78770500D02*
X241744500Y-78168500D01*
X241744500Y-78168500D02*
X239928400Y-77061060D01*
X239928400Y-77061060D02*
X238506000Y-75755500D01*
X238506000Y-75755500D02*
X235204000Y-75692000D01*
X235204000Y-75692000D02*
X234505500Y-76263500D01*
X230060500Y-77152500D02*
X228155500Y-79057500D01*
X228155500Y-79057500D02*
X222693500Y-79057500D01*
X198310500Y-89281000D02*
X198691500Y-89281000D01*
X183654700Y-86055200D02*
X186880500Y-89281000D01*
X186880500Y-89281000D02*
X198310500Y-89281000D01*
X182523400Y-86055200D02*
X183654700Y-86055200D01*
X221297500Y-78994000D02*
X222693500Y-79057500D01*
X221234000Y-79057500D02*
X221297500Y-78994000D01*
X218375079Y-80458751D02*
X218502079Y-80458751D01*
X216597570Y-82583146D02*
X218375079Y-80458751D01*
X204279500Y-82677000D02*
X216597570Y-82583146D01*
X204216000Y-82613500D02*
X204279500Y-82677000D01*
X198691500Y-89281000D02*
X201422000Y-85979000D01*
X140080000Y-86029800D02*
X145173700Y-86029800D01*
X179019200Y-86055200D02*
X182523400Y-86055200D01*
X178435000Y-85471000D02*
X179019200Y-86055200D01*
X154940000Y-85598000D02*
X178435000Y-85471000D01*
X154876500Y-85534500D02*
X154940000Y-85598000D01*
X145859500Y-85344000D02*
X145923000Y-85344000D01*
X145173700Y-86029800D02*
X145859500Y-85344000D01*
X135890000Y-86614000D02*
X135890000Y-85852000D01*
X135890000Y-85852000D02*
X136842500Y-84899500D01*
X140080000Y-86029800D02*
X138480800Y-86029800D01*
X137350500Y-84899500D02*
X138480800Y-86029800D01*
X135509000Y-84899500D02*
X136842500Y-84899500D01*
X136842500Y-84899500D02*
X137350500Y-84899500D01*
X133413500Y-86995000D02*
X135509000Y-84899500D01*
X120015000Y-86995000D02*
X131318000Y-86995000D01*
X112458500Y-86995000D02*
X120015000Y-86995000D01*
X100710000Y-87630000D02*
X101854000Y-87630000D01*
X104013000Y-86995000D02*
X108140500Y-86995000D01*
X108140500Y-86995000D02*
X108204000Y-86995000D01*
X103124000Y-87884000D02*
X104013000Y-86995000D01*
X102108000Y-87884000D02*
X103124000Y-87884000D01*
X101854000Y-87630000D02*
X102108000Y-87884000D01*
X58165000Y-86995000D02*
X63309500Y-86995000D01*
X98425000Y-87630000D02*
X100710000Y-87630000D01*
X96710500Y-89344500D02*
X98425000Y-87630000D01*
X65659000Y-89344500D02*
X96710500Y-89344500D01*
X63309500Y-86995000D02*
X65659000Y-89344500D01*
D31*
X250726000Y-86894000D02*
X250726000Y-86840000D01*
X250726000Y-86840000D02*
X252095000Y-85471000D01*
X252730000Y-82296000D02*
X252984000Y-82042000D01*
X252984000Y-82042000D02*
X253174500Y-79311500D01*
X253174500Y-79311500D02*
X258889500Y-73596500D01*
X258889500Y-73596500D02*
X260863080Y-63276480D01*
X260863080Y-63276480D02*
X257332480Y-60553600D01*
X257332480Y-60553600D02*
X257175000Y-60071000D01*
X262255000Y-60071000D02*
X262255000Y-71501000D01*
X254000000Y-85344000D02*
X253266000Y-86078000D01*
X254000000Y-79756000D02*
X254000000Y-82296000D01*
X262255000Y-71501000D02*
X254000000Y-79756000D01*
X253266000Y-86078000D02*
X253266000Y-86894000D01*
X255806000Y-86894000D02*
X255806000Y-85880000D01*
X264795000Y-70231000D02*
X264795000Y-60071000D01*
X255143000Y-79883000D02*
X264795000Y-70231000D01*
X255143000Y-82804000D02*
X255143000Y-79883000D01*
X255806000Y-85880000D02*
X255270000Y-85344000D01*
D30*
X238026000Y-86894000D02*
X238087500Y-86894000D01*
X238087500Y-86894000D02*
X239331500Y-88138000D01*
X239331500Y-88138000D02*
X257102000Y-88138000D01*
X257102000Y-88138000D02*
X258346000Y-86894000D01*
X56261000Y-69408000D02*
X56261000Y-67812920D01*
X55112920Y-57348120D02*
X54300120Y-57348120D01*
X55265320Y-57500520D02*
X55112920Y-57348120D01*
X55265320Y-63413640D02*
X55265320Y-62865000D01*
X57160160Y-65308480D02*
X55265320Y-63413640D01*
X57160160Y-66913760D02*
X57160160Y-65308480D01*
X56261000Y-67812920D02*
X57160160Y-66913760D01*
X53276500Y-56324500D02*
X54300120Y-57348120D01*
X54300120Y-57348120D02*
X54483000Y-57531000D01*
D32*
X53086000Y-56324500D02*
X53276500Y-56324500D01*
D35*
X52041500Y-55280000D02*
X53086000Y-56324500D01*
X51580000Y-55280000D02*
X52041500Y-55280000D01*
D31*
X51580000Y-55280000D02*
X51914500Y-55280000D01*
D30*
X42545000Y-86040000D02*
X40325000Y-86040000D01*
X39817000Y-86548000D02*
X38735000Y-86548000D01*
X40325000Y-86040000D02*
X39817000Y-86548000D01*
X42545000Y-86040000D02*
X40701000Y-86040000D01*
X40960000Y-85781000D02*
X40960000Y-82280000D01*
X40701000Y-86040000D02*
X40960000Y-85781000D01*
X39370000Y-56830000D02*
X40320000Y-56830000D01*
X41849000Y-54930000D02*
X42815000Y-54930000D01*
X41529000Y-54610000D02*
X41849000Y-54930000D01*
X40320000Y-56830000D02*
X40767000Y-57277000D01*
D32*
X42815000Y-54930000D02*
X42815000Y-54721000D01*
X39370000Y-56830000D02*
X39350000Y-56850000D01*
D37*
X39350000Y-56850000D02*
X34798000Y-61722000D01*
X34798000Y-61722000D02*
X34798000Y-62484000D01*
X34798000Y-62484000D02*
X33528000Y-63754000D01*
X33528000Y-63754000D02*
X33528000Y-72644000D01*
D31*
X33528000Y-72644000D02*
X34610000Y-73726000D01*
X34610000Y-73726000D02*
X34610000Y-77470000D01*
D30*
X66423500Y-63992000D02*
X66423500Y-67688500D01*
X66294000Y-67691000D02*
X66294000Y-67688500D01*
X66421000Y-67691000D02*
X66294000Y-67691000D01*
X66423500Y-67688500D02*
X66421000Y-67691000D01*
X63055500Y-67688500D02*
X65024000Y-67688500D01*
D33*
X65024000Y-67688500D02*
X66294000Y-67688500D01*
X66294000Y-67688500D02*
X67881500Y-67688500D01*
D30*
X63055500Y-67688500D02*
X62992000Y-67625000D01*
D33*
X66423500Y-63992000D02*
X66423500Y-64330500D01*
D30*
X73213000Y-60896500D02*
X74475340Y-60896500D01*
X84521000Y-56073000D02*
X85217000Y-56073000D01*
X83759040Y-55311040D02*
X84521000Y-56073000D01*
X82356960Y-55311040D02*
X83759040Y-55311040D01*
X81340960Y-59293760D02*
X81259680Y-59212480D01*
X81340960Y-61589920D02*
X81340960Y-59293760D01*
X80040480Y-62890400D02*
X81340960Y-61589920D01*
X78760320Y-62890400D02*
X80040480Y-62890400D01*
X78008480Y-62138560D02*
X78760320Y-62890400D01*
X78008480Y-61407040D02*
X78008480Y-62138560D01*
X76931520Y-60330080D02*
X78008480Y-61407040D01*
X75041760Y-60330080D02*
X76931520Y-60330080D01*
X74475340Y-60896500D02*
X75041760Y-60330080D01*
X87519000Y-56136500D02*
X85280500Y-56136500D01*
X85280500Y-56136500D02*
X85217000Y-56073000D01*
X73220620Y-60888880D02*
X73213000Y-60896500D01*
X109540000Y-63738000D02*
X109540000Y-65755520D01*
X109540000Y-65755520D02*
X109496860Y-65798660D01*
X105445560Y-67726600D02*
X106507240Y-67726600D01*
X108435180Y-65798660D02*
X109496860Y-65798660D01*
X106507240Y-67726600D02*
X108435180Y-65798660D01*
X109540000Y-63738000D02*
X109585000Y-63738000D01*
X115631000Y-62039500D02*
X116573300Y-62039500D01*
X124708880Y-55488800D02*
X127769620Y-55488800D01*
X124465080Y-55245000D02*
X124708880Y-55488800D01*
X119649240Y-58963560D02*
X121676160Y-58963560D01*
X116573300Y-62039500D02*
X119649240Y-58963560D01*
X127769620Y-55488800D02*
X128971000Y-55488800D01*
X129555200Y-56073000D02*
X130445000Y-56073000D01*
X128971000Y-55488800D02*
X129555200Y-56073000D01*
X130445000Y-56073000D02*
X130445000Y-55927500D01*
X144475200Y-65994320D02*
X145216840Y-65994320D01*
X147157480Y-64053680D02*
X148132800Y-64053680D01*
X145216840Y-65994320D02*
X147157480Y-64053680D01*
X148148000Y-61833000D02*
X148148000Y-64038480D01*
X148148000Y-64038480D02*
X148132800Y-64053680D01*
X155953500Y-61150500D02*
X156273500Y-61150500D01*
X156273500Y-61150500D02*
X157886400Y-59537600D01*
X157886400Y-59537600D02*
X159877760Y-59537600D01*
X162011360Y-55737760D02*
X162184120Y-55565000D01*
X162184120Y-55565000D02*
X164973000Y-55565000D01*
X164973000Y-55565000D02*
X167529000Y-55565000D01*
X167529000Y-55565000D02*
X167885502Y-55565000D01*
X192910500Y-66992500D02*
X192910500Y-65443140D01*
X191391500Y-63924140D02*
X191391500Y-63420500D01*
X192910500Y-65443140D02*
X191391500Y-63924140D01*
X193482000Y-70675500D02*
X193482000Y-67564000D01*
X193482000Y-67564000D02*
X192910500Y-66992500D01*
X198943000Y-61277500D02*
X200281540Y-61277500D01*
X207015040Y-55692000D02*
X208216500Y-55692000D01*
X206938880Y-55615840D02*
X207015040Y-55692000D01*
X205049120Y-55615840D02*
X206938880Y-55615840D01*
X204663040Y-56001920D02*
X205049120Y-55615840D01*
X204216000Y-59537600D02*
X204276960Y-59598560D01*
X202021440Y-59537600D02*
X204216000Y-59537600D01*
X200281540Y-61277500D02*
X202021440Y-59537600D01*
X211852000Y-55882500D02*
X208407000Y-55882500D01*
X208407000Y-55882500D02*
X208216500Y-55692000D01*
X211852000Y-55882500D02*
X211960500Y-55882500D01*
X211661500Y-55692000D02*
X211852000Y-55882500D01*
X233489500Y-66037500D02*
X235902500Y-66037500D01*
X235902500Y-66037500D02*
X236347000Y-65593000D01*
X233047500Y-61261500D02*
X233047500Y-61627980D01*
X233047500Y-61627980D02*
X234817920Y-63398400D01*
X234817920Y-63398400D02*
X234817920Y-65857120D01*
X234817920Y-65857120D02*
X234637540Y-66037500D01*
X233489500Y-66037500D02*
X234637540Y-66037500D01*
X238125000Y-59883000D02*
X241889320Y-59883000D01*
X247406120Y-55565000D02*
X249110500Y-55565000D01*
X246440960Y-54599840D02*
X247406120Y-55565000D01*
X243738400Y-58298080D02*
X243799360Y-58359040D01*
X243474240Y-58298080D02*
X243738400Y-58298080D01*
X241889320Y-59883000D02*
X243474240Y-58298080D01*
X249110500Y-55565000D02*
X251730000Y-55565000D01*
M02*
