M48
;DRILL file {KiCad 4.0.6+dfsg1-1} date Sun Apr  1 15:15:11 2018
;FORMAT={-:-/ absolute / inch / decimal}
FMAT,2
INCH,TZ
T1C0.010
T2C0.016
T3C0.025
T4C0.039
T5C0.040
T6C0.047
T7C0.087
T8C0.108
T9C0.295
%
G90
G05
M72
T1
X1.325Y-2.13
X1.345Y-2.34
X1.4Y-2.295
X1.42Y-2.15
X1.4601Y-2.2698
X1.486Y-2.656
X1.51Y-3.505
X1.515Y-3.285
X1.518Y-2.544
X1.52Y-2.75
X1.538Y-2.888
X1.55Y-2.3
X1.55Y-2.67
X1.605Y-2.255
X1.635Y-2.15
X1.642Y-3.072
X1.658Y-2.898
X1.675Y-3.275
X1.715Y-2.275
X1.7325Y-3.42
X1.7325Y-3.535
X1.77Y-3.275
X1.802Y-2.512
X1.802Y-3.176
X1.82Y-2.42
X1.86Y-2.87
X1.86Y-2.93
X1.865Y-2.275
X1.87Y-3.355
X1.89Y-2.48
X1.896Y-2.58
X1.9525Y-3.0925
X1.97Y-2.826
X1.978Y-2.684
X2.04Y-3.185
X2.08Y-3.27
X2.09Y-3.42
X2.12Y-3.38
X2.137Y-2.9776
X2.1758Y-2.2638
X2.1758Y-2.475
X2.2225Y-3.4725
X2.375Y-2.5775
X2.401Y-2.777
X2.425Y-2.56
X2.44Y-3.28
X2.4425Y-3.32
X2.474Y-2.787
X2.555Y-2.635
X2.555Y-2.71
X2.555Y-2.76
X2.565Y-2.97
X2.57Y-2.855
X2.585Y-2.61
X2.5975Y-3.4525
X2.6Y-3.56
X2.725Y-2.57
X2.7325Y-3.475
X2.735Y-3.08
X2.95Y-3.09
X2.96Y-3.2125
X3.015Y-3.0975
X3.02Y-3.22
X3.08Y-2.54
X3.1Y-2.432
X3.1725Y-3.11
X3.1992Y-2.3312
X3.2424Y-2.1776
X3.2572Y-2.2322
X3.3Y-3.2025
X3.344Y-2.494
X3.3458Y-2.944
X3.39Y-2.845
X3.4072Y-2.579
X3.455Y-2.845
X3.455Y-2.945
X3.4893Y-2.3315
X3.5694Y-2.3346
X3.6725Y-3.1725
X3.7775Y-3.4775
X3.82Y-2.4125
X3.83Y-3.425
X3.8325Y-3.14
X3.8875Y-3.5125
X4.02Y-2.785
X4.0375Y-3.43
X4.0825Y-3.4775
X4.105Y-2.78
X4.2295Y-2.585
X4.2405Y-2.695
X4.2575Y-3.425
X4.2725Y-3.37
X4.3131Y-2.7335
X4.389Y-2.5718
X4.4075Y-3.5
X4.42Y-3.0975
X4.425Y-3.3775
X4.4275Y-3.425
X4.44Y-3.15
X4.5075Y-3.2175
X4.6975Y-3.185
X4.6975Y-3.2825
X4.705Y-2.955
X4.705Y-3.0325
X4.74Y-2.7725
X4.785Y-3.1625
X4.7875Y-2.8275
X4.7904Y-2.3214
X4.835Y-3.115
X4.8925Y-2.9375
X4.9002Y-2.175
X4.905Y-2.2326
X4.9125Y-3.04
X4.938Y-3.1218
X4.95Y-2.895
X4.9584Y-2.3958
X4.9692Y-3.1596
X4.9725Y-2.97
X5.0325Y-3.12
X5.0875Y-2.5
X5.0875Y-3.155
X5.0884Y-2.4273
X5.16Y-2.5725
X5.1675Y-3.105
X5.17Y-3.425
X5.1725Y-3.25
X5.1882Y-2.4792
X5.2025Y-2.9275
X5.205Y-2.8425
X5.2056Y-2.3049
X5.2225Y-3.1225
X5.2225Y-3.2175
X5.2525Y-3.425
X5.2856Y-2.328
X5.42Y-3.4375
X5.4318Y-2.9755
X5.4329Y-3.2241
X5.5425Y-2.3375
X5.6225Y-2.785
X5.6287Y-2.4849
X5.7Y-2.78
X5.745Y-3.36
X5.7519Y-2.4816
X5.7748Y-3.3145
X5.8175Y-3.2725
X5.8336Y-2.6488
X5.9152Y-2.4976
X5.9575Y-3.0325
X5.96Y-3.4375
X5.97Y-3.32
X6.0225Y-3.04
X6.0975Y-3.3675
X6.105Y-3.125
X6.1775Y-3.1225
X6.245Y-3.14
X6.2525Y-3.2725
X6.2944Y-2.344
X6.3083Y-3.1182
X6.3344Y-2.296
X6.375Y-3.155
X6.3784Y-2.1944
X6.4032Y-2.236
X6.4625Y-3.1575
X6.48Y-2.9
X6.555Y-3.155
X6.56Y-2.9375
X6.561Y-2.4252
X6.5625Y-2.5075
X6.6736Y-2.2936
X6.6875Y-2.4575
X6.695Y-2.575
X6.7125Y-2.89
X6.7336Y-2.7457
X6.7744Y-2.2992
X6.7854Y-2.8254
X6.805Y-3.0975
X6.975Y-3.09
X7.0725Y-3.4375
X7.0908Y-2.9784
X7.0938Y-3.1374
X7.1725Y-2.3625
X7.22Y-2.755
X7.25Y-3.4675
X7.275Y-3.4925
X7.3125Y-2.568
X7.325Y-2.7575
X7.3425Y-3.3725
X7.355Y-3.135
X7.3675Y-3.2275
X7.37Y-3.3975
X7.407Y-2.565
X7.47Y-3.0625
X7.4925Y-3.02
X7.5275Y-2.5575
X7.6325Y-2.99
X7.635Y-3.03
X7.6475Y-3.4325
X7.648Y-2.5448
X7.66Y-3.055
X7.7375Y-3.09
X7.7406Y-3.1806
X7.7525Y-2.96
X7.7525Y-3.0325
X7.7575Y-2.995
X7.775Y-3.14
X7.87Y-2.995
X7.87Y-3.0275
X7.87Y-3.085
X7.8725Y-2.9625
X7.875Y-3.1872
X7.93Y-3.385
X7.9875Y-3.1625
X8.04Y-3.2525
X8.0424Y-2.3464
X8.0576Y-2.2048
X8.1025Y-2.2525
X8.15Y-2.9525
X8.199Y-2.3369
X8.2375Y-2.9225
X8.4032Y-2.3056
X8.425Y-2.5475
X8.425Y-2.64
X8.4625Y-2.5225
X8.4625Y-2.89
X8.465Y-2.6975
X8.5025Y-2.555
X8.5025Y-2.645
X8.51Y-2.805
X8.5216Y-2.3096
X8.6024Y-3.1677
X8.655Y-3.2725
X8.6575Y-3.1875
X8.679Y-2.7038
X8.694Y-2.9066
X8.6975Y-2.9625
X8.6975Y-3.1725
X8.71Y-3.1125
X8.7275Y-3.375
X8.8075Y-3.3625
X8.845Y-2.8175
X8.8625Y-2.505
X8.8675Y-3.0025
X8.8727Y-2.9224
X8.905Y-2.2975
X8.9425Y-2.5075
X8.9738Y-2.464
X8.9825Y-2.2775
X9.0425Y-2.8275
X9.0575Y-3.0375
X9.062Y-2.8612
X9.065Y-2.91
X9.065Y-2.995
X9.0725Y-2.7575
X9.075Y-2.4651
X9.0925Y-2.64
X9.2025Y-2.76
X9.2125Y-2.96
X9.215Y-3.165
X9.225Y-2.825
X9.2325Y-3.0025
X9.245Y-2.8525
X9.2488Y-2.4607
X9.25Y-2.89
X9.26Y-3.195
X9.2725Y-3.1275
X9.2838Y-2.7378
X9.295Y-3.18
X9.3025Y-2.4675
X9.34Y-3.2625
X9.3432Y-2.796
X9.3675Y-3.235
X9.3704Y-2.2488
X9.424Y-2.1896
X9.4368Y-2.6592
X9.4675Y-3.1575
X9.4675Y-3.205
X9.4675Y-3.2475
X9.48Y-3.3675
X9.525Y-2.7996
X9.5275Y-2.69
X9.5347Y-2.5948
X9.565Y-2.51
X9.5984Y-2.2976
X9.61Y-3.37
X9.64Y-2.515
X9.66Y-2.9775
X9.66Y-3.33
X9.6968Y-2.3872
X9.7024Y-2.1496
X9.7125Y-2.2275
X9.735Y-2.93
X9.75Y-3.1575
X9.8225Y-2.9275
X9.8225Y-3.155
X9.8285Y-2.4695
X9.8379Y-2.4143
X9.8625Y-2.8525
X9.895Y-2.5925
X9.925Y-3.365
X9.9357Y-2.4861
X9.94Y-2.8475
X9.94Y-2.935
X9.95Y-3.24
X10.Y-2.7075
X10.Y-3.24
X10.Y-3.36
X10.045Y-3.26
X10.05Y-3.36
X10.1175Y-3.1425
T2
X1.82Y-3.3
X2.Y-3.12
X2.22Y-2.325
X2.24Y-2.5
X2.795Y-3.2475
X2.8Y-3.08
X3.76Y-3.405
X4.06Y-3.3275
X4.205Y-3.
X4.32Y-2.9975
X4.57Y-3.02
X4.6325Y-3.09
X4.6325Y-3.1825
X4.6375Y-3.335
X5.3675Y-3.2525
X5.3725Y-3.04
X5.7875Y-3.2125
X6.4775Y-3.265
X7.3425Y-3.045
X7.4425Y-3.145
X7.47Y-3.245
X7.8375Y-3.2475
X8.492Y-3.2073
X8.605Y-3.0975
X8.6375Y-2.84
X8.7454Y-3.3022
X9.075Y-3.24
X9.26Y-3.0525
X9.34Y-3.02
X9.58Y-3.2075
T3
X2.026Y-3.016
X2.03Y-2.315
X2.19Y-2.59
X2.19Y-3.13
X5.35Y-3.41
X6.855Y-3.5025
X7.045Y-3.2775
X7.3525Y-2.225
X7.555Y-2.9025
X7.715Y-3.3975
X7.785Y-3.3375
T4
X10.025Y-2.365
X10.125Y-2.365
X10.225Y-2.365
X10.325Y-2.365
X10.425Y-2.365
T5
X8.2711Y-3.421
X8.2711Y-3.521
X8.3711Y-3.421
X8.3711Y-3.521
X8.4711Y-3.421
X8.4711Y-3.521
X8.5711Y-3.421
X8.5711Y-3.521
X8.6711Y-3.421
X8.6711Y-3.521
X8.7711Y-3.421
X8.7711Y-3.521
X8.8711Y-3.421
X8.8711Y-3.521
X8.9711Y-3.421
X8.9711Y-3.521
X9.0711Y-3.421
X9.0711Y-3.521
X9.1711Y-3.421
X9.1711Y-3.521
X9.2711Y-3.421
X9.2711Y-3.521
X9.3711Y-3.421
X9.3711Y-3.521
X9.4711Y-3.421
X9.4711Y-3.521
X9.5711Y-3.421
X9.5711Y-3.521
X9.6711Y-3.421
X9.6711Y-3.521
X9.7711Y-3.421
X9.7711Y-3.521
X9.8711Y-3.421
X9.8711Y-3.521
X9.9711Y-3.421
X9.9711Y-3.521
X10.0711Y-3.421
X10.0711Y-3.521
X10.1711Y-3.421
X10.1711Y-3.521
T6
X1.396Y-2.7212
X1.4148Y-2.5776
X1.4346Y-2.8693
X1.4967Y-2.45
X1.5368Y-2.983
X1.6219Y-2.3688
X1.7721Y-2.3469
X1.7764Y-3.0536
X1.9008Y-2.1764
X1.9154Y-2.3883
X1.919Y-3.0102
X2.0302Y-2.4872
X2.0307Y-2.1764
X2.0328Y-2.9102
X2.0928Y-2.6226
X2.0938Y-2.7742
X2.161Y-2.177
X2.3063Y-2.1764
X2.896Y-2.7212
X2.9148Y-2.5776
X2.9346Y-2.8693
X2.9967Y-2.45
X3.0368Y-2.983
X3.1219Y-2.3688
X3.2721Y-2.3469
X3.2764Y-3.0536
X3.4154Y-2.3883
X3.419Y-3.0102
X3.5302Y-2.4872
X3.5328Y-2.9102
X3.5928Y-2.6226
X3.5938Y-2.7742
X4.646Y-2.7212
X4.6648Y-2.5776
X4.6846Y-2.8693
X4.7467Y-2.45
X4.7868Y-2.983
X4.8719Y-2.3688
X5.0221Y-2.3469
X5.0264Y-3.0536
X5.1654Y-2.3883
X5.169Y-3.0102
X5.2802Y-2.4872
X5.2828Y-2.9102
X5.3428Y-2.6226
X5.3438Y-2.7742
X6.146Y-2.7212
X6.1648Y-2.5776
X6.1846Y-2.8693
X6.2467Y-2.45
X6.2868Y-2.983
X6.3719Y-2.3688
X6.5221Y-2.3469
X6.5264Y-3.0536
X6.6654Y-2.3883
X6.669Y-3.0102
X6.7802Y-2.4872
X6.7828Y-2.9102
X6.8428Y-2.6226
X6.8438Y-2.7742
X7.896Y-2.7212
X7.9148Y-2.5776
X7.9346Y-2.8693
X7.9967Y-2.45
X8.0368Y-2.983
X8.1219Y-2.3688
X8.2721Y-2.3469
X8.2764Y-3.0536
X8.4154Y-2.3883
X8.419Y-3.0102
X8.5302Y-2.4872
X8.5328Y-2.9102
X8.5928Y-2.6226
X8.5938Y-2.7742
X9.396Y-2.7212
X9.4148Y-2.5776
X9.4346Y-2.8693
X9.4967Y-2.45
X9.5368Y-2.983
X9.6219Y-2.3688
X9.7721Y-2.3469
X9.7764Y-3.0536
X9.9154Y-2.3883
X9.919Y-3.0102
X10.0302Y-2.4872
X10.0328Y-2.9102
X10.0928Y-2.6226
X10.0938Y-2.7742
T7
X1.2Y-2.2
X1.2Y-3.111
X1.2Y-3.475
X2.4992Y-2.197
X10.35Y-2.2
X10.35Y-3.475
T8
X8.0687Y-3.4722
T9
X1.75Y-2.7
X3.25Y-2.7
X5.Y-2.7
X6.5Y-2.7
X8.25Y-2.7
X9.75Y-2.7
T0
M30
