G04 #@! TF.FileFunction,Soldermask,Top*
%FSLAX46Y46*%
G04 Gerber Fmt 4.6, Leading zero omitted, Abs format (unit mm)*
G04 Created by KiCad (PCBNEW 4.0.7-e2-6376~58~ubuntu14.04.1) date Sun Mar  4 07:56:53 2018*
%MOMM*%
%LPD*%
G01*
G04 APERTURE LIST*
%ADD10C,0.100000*%
%ADD11C,4.900000*%
%ADD12R,2.127200X2.127200*%
%ADD13O,2.127200X2.127200*%
%ADD14C,2.400000*%
%ADD15C,7.900000*%
%ADD16R,1.700000X1.100000*%
%ADD17R,1.100000X1.700000*%
%ADD18R,1.000000X1.900000*%
%ADD19R,1.300000X1.200000*%
%ADD20R,1.200000X1.300000*%
%ADD21R,1.650000X1.400000*%
%ADD22R,2.350000X1.000000*%
%ADD23C,4.800000*%
%ADD24C,1.543000*%
%ADD25C,2.800000*%
%ADD26R,2.800000X2.800000*%
%ADD27R,2.100000X2.100000*%
%ADD28O,2.100000X2.100000*%
G04 APERTURE END LIST*
D10*
D11*
X204946000Y-88194000D03*
D12*
X258346000Y-86894000D03*
D13*
X258346000Y-89434000D03*
X255806000Y-86894000D03*
X255806000Y-89434000D03*
X253266000Y-86894000D03*
X253266000Y-89434000D03*
X250726000Y-86894000D03*
X250726000Y-89434000D03*
X248186000Y-86894000D03*
X248186000Y-89434000D03*
X245646000Y-86894000D03*
X245646000Y-89434000D03*
X243106000Y-86894000D03*
X243106000Y-89434000D03*
X240566000Y-86894000D03*
X240566000Y-89434000D03*
X238026000Y-86894000D03*
X238026000Y-89434000D03*
X235486000Y-86894000D03*
X235486000Y-89434000D03*
X232946000Y-86894000D03*
X232946000Y-89434000D03*
X230406000Y-86894000D03*
X230406000Y-89434000D03*
X227866000Y-86894000D03*
X227866000Y-89434000D03*
X225326000Y-86894000D03*
X225326000Y-89434000D03*
X222786000Y-86894000D03*
X222786000Y-89434000D03*
X220246000Y-86894000D03*
X220246000Y-89434000D03*
X217706000Y-86894000D03*
X217706000Y-89434000D03*
X215166000Y-86894000D03*
X215166000Y-89434000D03*
X212626000Y-86894000D03*
X212626000Y-89434000D03*
X210086000Y-86894000D03*
X210086000Y-89434000D03*
D14*
X205718265Y-60415993D03*
X204648249Y-76128035D03*
X201980879Y-73441934D03*
X200797558Y-70765696D03*
X200840879Y-66072070D03*
X202689079Y-62693630D03*
X209483373Y-59594008D03*
X213187530Y-60389824D03*
X216271865Y-62690906D03*
X218098121Y-66011221D03*
X218394015Y-69852008D03*
X217088780Y-73404199D03*
X214381328Y-76141169D03*
X210844497Y-77492956D03*
D15*
X209550000Y-68580000D03*
D14*
X161268265Y-60415993D03*
X160198249Y-76128035D03*
X157530879Y-73441934D03*
X156347558Y-70765696D03*
X156390879Y-66072070D03*
X158239079Y-62693630D03*
X165033373Y-59594008D03*
X168737530Y-60389824D03*
X171821865Y-62690906D03*
X173648121Y-66011221D03*
X173944015Y-69852008D03*
X172638780Y-73404199D03*
X169931328Y-76141169D03*
X166394497Y-77492956D03*
D15*
X165100000Y-68580000D03*
D14*
X243818265Y-60415993D03*
X242748249Y-76128035D03*
X240080879Y-73441934D03*
X238897558Y-70765696D03*
X238940879Y-66072070D03*
X240789079Y-62693630D03*
X247583373Y-59594008D03*
X251287530Y-60389824D03*
X254371865Y-62690906D03*
X256198121Y-66011221D03*
X256494015Y-69852008D03*
X255188780Y-73404199D03*
X252481328Y-76141169D03*
X248944497Y-77492956D03*
D15*
X247650000Y-68580000D03*
D16*
X238125000Y-59883000D03*
X238125000Y-61783000D03*
D17*
X56830000Y-60960000D03*
X54930000Y-60960000D03*
D18*
X236664500Y-84170500D03*
X237934500Y-84170500D03*
X239204500Y-84170500D03*
X240474500Y-84170500D03*
X241744500Y-84170500D03*
X243014500Y-84170500D03*
X244284500Y-84170500D03*
X244284500Y-78770500D03*
X243014500Y-78770500D03*
X241744500Y-78770500D03*
X240474500Y-78770500D03*
X239204500Y-78770500D03*
X237934500Y-78770500D03*
X236664500Y-78770500D03*
D17*
X234444500Y-54546500D03*
X236344500Y-54546500D03*
D16*
X249110500Y-55565000D03*
X249110500Y-57465000D03*
X236347000Y-65593000D03*
X236347000Y-63693000D03*
X233489500Y-64137500D03*
X233489500Y-66037500D03*
X229425500Y-66863000D03*
X229425500Y-64963000D03*
X241046000Y-55692000D03*
X241046000Y-57592000D03*
D17*
X236471500Y-57023000D03*
X234571500Y-57023000D03*
X218564500Y-57023000D03*
X216664500Y-57023000D03*
X198943000Y-61277500D03*
X197043000Y-61277500D03*
D16*
X208216500Y-55692000D03*
X208216500Y-57592000D03*
D17*
X192910500Y-66992500D03*
X191010500Y-66992500D03*
X191582000Y-70675500D03*
X193482000Y-70675500D03*
D16*
X188595000Y-73403500D03*
X188595000Y-71503500D03*
X198755000Y-56200000D03*
X198755000Y-58100000D03*
X195834000Y-58163500D03*
X195834000Y-56263500D03*
D17*
X175702000Y-56769000D03*
X173802000Y-56769000D03*
X155953500Y-61150500D03*
X154053500Y-61150500D03*
D16*
X164973000Y-55565000D03*
X164973000Y-57465000D03*
D17*
X150048000Y-64071500D03*
X148148000Y-64071500D03*
D16*
X145986500Y-63756500D03*
X145986500Y-65656500D03*
X146748500Y-73657500D03*
X146748500Y-71757500D03*
X155384500Y-56009500D03*
X155384500Y-57909500D03*
X152590500Y-58036500D03*
X152590500Y-56136500D03*
D17*
X138173500Y-57086500D03*
X136273500Y-57086500D03*
X115631000Y-62039500D03*
X113731000Y-62039500D03*
D16*
X127000000Y-55628500D03*
X127000000Y-57528500D03*
D17*
X110932000Y-68580000D03*
X109032000Y-68580000D03*
X109540000Y-66040000D03*
X111440000Y-66040000D03*
D16*
X106870500Y-74229000D03*
X106870500Y-72329000D03*
X117729000Y-55501500D03*
X117729000Y-57401500D03*
X112141000Y-58989000D03*
X112141000Y-57089000D03*
D17*
X93406000Y-57404000D03*
X91506000Y-57404000D03*
X73213000Y-60896500D03*
X71313000Y-60896500D03*
D16*
X85217000Y-56073000D03*
X85217000Y-57973000D03*
X67881500Y-67688500D03*
X67881500Y-65788500D03*
X65024000Y-65788500D03*
X65024000Y-67688500D03*
D17*
X70038000Y-69596000D03*
X68138000Y-69596000D03*
D16*
X76898500Y-55692000D03*
X76898500Y-57592000D03*
D17*
X73403500Y-56896000D03*
X71503500Y-56896000D03*
X34610000Y-77470000D03*
X36510000Y-77470000D03*
D16*
X39370000Y-54930000D03*
X39370000Y-56830000D03*
X41275000Y-86040000D03*
X41275000Y-84140000D03*
X38735000Y-84140000D03*
X38735000Y-86040000D03*
X36195000Y-86040000D03*
X36195000Y-84140000D03*
X30226000Y-62550000D03*
X30226000Y-64450000D03*
X30226000Y-66868000D03*
X30226000Y-68768000D03*
D19*
X251730000Y-55565000D03*
X251730000Y-57465000D03*
X253730000Y-56515000D03*
D20*
X233047500Y-61261500D03*
X234947500Y-61261500D03*
X233997500Y-59261500D03*
D19*
X243475000Y-55565000D03*
X243475000Y-57465000D03*
X245475000Y-56515000D03*
D20*
X229301000Y-61261500D03*
X231201000Y-61261500D03*
X230251000Y-59261500D03*
D19*
X211852000Y-55882500D03*
X211852000Y-57782500D03*
X213852000Y-56832500D03*
D20*
X191391500Y-63420500D03*
X193291500Y-63420500D03*
X192341500Y-61420500D03*
D19*
X201311000Y-56136500D03*
X201311000Y-58036500D03*
X203311000Y-57086500D03*
D20*
X186946500Y-63293500D03*
X188846500Y-63293500D03*
X187896500Y-61293500D03*
D19*
X167529000Y-55565000D03*
X167529000Y-57465000D03*
X169529000Y-56515000D03*
D20*
X148148000Y-61833000D03*
X150048000Y-61833000D03*
X149098000Y-59833000D03*
D19*
X158004000Y-56009500D03*
X158004000Y-57909500D03*
X160004000Y-56959500D03*
D20*
X144401500Y-61769500D03*
X146301500Y-61769500D03*
X145351500Y-59769500D03*
D19*
X130445000Y-56073000D03*
X130445000Y-57973000D03*
X132445000Y-57023000D03*
D20*
X109540000Y-63738000D03*
X111440000Y-63738000D03*
X110490000Y-61738000D03*
D19*
X120920000Y-55628500D03*
X120920000Y-57528500D03*
X122920000Y-56578500D03*
D20*
X105476000Y-63738000D03*
X107376000Y-63738000D03*
X106426000Y-61738000D03*
D19*
X87519000Y-56136500D03*
X87519000Y-58036500D03*
X89519000Y-57086500D03*
D20*
X66423500Y-63992000D03*
X68323500Y-63992000D03*
X67373500Y-61992000D03*
D19*
X79200500Y-55755500D03*
X79200500Y-57655500D03*
X81200500Y-56705500D03*
D20*
X62994500Y-63992000D03*
X64894500Y-63992000D03*
X63944500Y-61992000D03*
D19*
X42815000Y-54930000D03*
X42815000Y-56830000D03*
X44815000Y-55880000D03*
D20*
X40960000Y-82280000D03*
X42860000Y-82280000D03*
X41910000Y-80280000D03*
D19*
X34560000Y-54930000D03*
X34560000Y-56830000D03*
X36560000Y-55880000D03*
D20*
X36515000Y-82280000D03*
X38415000Y-82280000D03*
X37465000Y-80280000D03*
D21*
X60960000Y-74025000D03*
X60960000Y-72025000D03*
X102108000Y-74279000D03*
X102108000Y-72279000D03*
X142748000Y-73771000D03*
X142748000Y-71771000D03*
X183451500Y-73390000D03*
X183451500Y-71390000D03*
X225107500Y-67103500D03*
X225107500Y-65103500D03*
X250063000Y-83613500D03*
X250063000Y-81613500D03*
X63500000Y-74025000D03*
X63500000Y-72025000D03*
X104648000Y-74406000D03*
X104648000Y-72406000D03*
X144843500Y-73707500D03*
X144843500Y-71707500D03*
X186118500Y-73390000D03*
X186118500Y-71390000D03*
X227266500Y-66976500D03*
X227266500Y-64976500D03*
X248094500Y-83486500D03*
X248094500Y-81486500D03*
D22*
X58165000Y-76835000D03*
X58165000Y-78105000D03*
X58165000Y-79375000D03*
X58165000Y-80645000D03*
X58165000Y-81915000D03*
X58165000Y-83185000D03*
X58165000Y-84455000D03*
X58165000Y-85725000D03*
X58165000Y-86995000D03*
X58165000Y-88265000D03*
X67565000Y-88265000D03*
X67565000Y-86995000D03*
X67565000Y-85725000D03*
X67565000Y-84455000D03*
X67565000Y-83185000D03*
X67565000Y-81915000D03*
X67565000Y-80645000D03*
X67565000Y-79375000D03*
X67565000Y-78105000D03*
X67565000Y-76835000D03*
X140080000Y-75869800D03*
X140080000Y-77139800D03*
X140080000Y-78409800D03*
X140080000Y-79679800D03*
X140080000Y-80949800D03*
X140080000Y-82219800D03*
X140080000Y-83489800D03*
X140080000Y-84759800D03*
X140080000Y-86029800D03*
X140080000Y-87299800D03*
X149480000Y-87299800D03*
X149480000Y-86029800D03*
X149480000Y-84759800D03*
X149480000Y-83489800D03*
X149480000Y-82219800D03*
X149480000Y-80949800D03*
X149480000Y-79679800D03*
X149480000Y-78409800D03*
X149480000Y-77139800D03*
X149480000Y-75869800D03*
X100710000Y-77470000D03*
X100710000Y-78740000D03*
X100710000Y-80010000D03*
X100710000Y-81280000D03*
X100710000Y-82550000D03*
X100710000Y-83820000D03*
X100710000Y-85090000D03*
X100710000Y-86360000D03*
X100710000Y-87630000D03*
X100710000Y-88900000D03*
X110110000Y-88900000D03*
X110110000Y-87630000D03*
X110110000Y-86360000D03*
X110110000Y-85090000D03*
X110110000Y-83820000D03*
X110110000Y-82550000D03*
X110110000Y-81280000D03*
X110110000Y-80010000D03*
X110110000Y-78740000D03*
X110110000Y-77470000D03*
X222693500Y-68897500D03*
X222693500Y-70167500D03*
X222693500Y-71437500D03*
X222693500Y-72707500D03*
X222693500Y-73977500D03*
X222693500Y-75247500D03*
X222693500Y-76517500D03*
X222693500Y-77787500D03*
X222693500Y-79057500D03*
X222693500Y-80327500D03*
X232093500Y-80327500D03*
X232093500Y-79057500D03*
X232093500Y-77787500D03*
X232093500Y-76517500D03*
X232093500Y-75247500D03*
X232093500Y-73977500D03*
X232093500Y-72707500D03*
X232093500Y-71437500D03*
X232093500Y-70167500D03*
X232093500Y-68897500D03*
X182523400Y-75895200D03*
X182523400Y-77165200D03*
X182523400Y-78435200D03*
X182523400Y-79705200D03*
X182523400Y-80975200D03*
X182523400Y-82245200D03*
X182523400Y-83515200D03*
X182523400Y-84785200D03*
X182523400Y-86055200D03*
X182523400Y-87325200D03*
X191923400Y-87325200D03*
X191923400Y-86055200D03*
X191923400Y-84785200D03*
X191923400Y-83515200D03*
X191923400Y-82245200D03*
X191923400Y-80975200D03*
X191923400Y-79705200D03*
X191923400Y-78435200D03*
X191923400Y-77165200D03*
X191923400Y-75895200D03*
D21*
X256984500Y-83296000D03*
X256984500Y-81296000D03*
X60325000Y-68754500D03*
X60325000Y-66754500D03*
D17*
X53020000Y-57912000D03*
X51120000Y-57912000D03*
D23*
X30480000Y-88265000D03*
X262890000Y-55880000D03*
X262890000Y-88265000D03*
X30480000Y-55880000D03*
D24*
X52387500Y-59753500D03*
X55626000Y-79502000D03*
X55626000Y-65786000D03*
X197739000Y-84772500D03*
X195961000Y-86296500D03*
X178943000Y-83248500D03*
X52070000Y-76200000D03*
D14*
X40618265Y-60415993D03*
X39548249Y-76128035D03*
X36880879Y-73441934D03*
X35697558Y-70765696D03*
X35740879Y-66072070D03*
X37589079Y-62693630D03*
X44383373Y-59594008D03*
X48087530Y-60389824D03*
X51171865Y-62690906D03*
X52998121Y-66011221D03*
X53294015Y-69852008D03*
X51988780Y-73404199D03*
X49281328Y-76141169D03*
X45744497Y-77492956D03*
D15*
X44450000Y-68580000D03*
D14*
X78718265Y-60415993D03*
X77648249Y-76128035D03*
X74980879Y-73441934D03*
X73797558Y-70765696D03*
X73840879Y-66072070D03*
X75689079Y-62693630D03*
X82483373Y-59594008D03*
X86187530Y-60389824D03*
X89271865Y-62690906D03*
X91098121Y-66011221D03*
X91394015Y-69852008D03*
X90088780Y-73404199D03*
X87381328Y-76141169D03*
X83844497Y-77492956D03*
D15*
X82550000Y-68580000D03*
D14*
X123168265Y-60415993D03*
X122098249Y-76128035D03*
X119430879Y-73441934D03*
X118247558Y-70765696D03*
X118290879Y-66072070D03*
X120139079Y-62693630D03*
X126933373Y-59594008D03*
X130637530Y-60389824D03*
X133721865Y-62690906D03*
X135548121Y-66011221D03*
X135844015Y-69852008D03*
X134538780Y-73404199D03*
X131831328Y-76141169D03*
X128294497Y-77492956D03*
D15*
X127000000Y-68580000D03*
D21*
X60960000Y-61865000D03*
X60960000Y-63865000D03*
X96774000Y-57991500D03*
X96774000Y-59991500D03*
X140716000Y-56086500D03*
X140716000Y-58086500D03*
X182118000Y-56467500D03*
X182118000Y-58467500D03*
X226187000Y-55134000D03*
X226187000Y-57134000D03*
X229489000Y-55261000D03*
X229489000Y-57261000D03*
D24*
X135890000Y-86614000D03*
X186753500Y-56515000D03*
X174117000Y-88963500D03*
X191897000Y-73723500D03*
D23*
X30480000Y-79019000D03*
D25*
X55080000Y-55280000D03*
X48280000Y-55280000D03*
X51580000Y-55280000D03*
D23*
X63480000Y-55805000D03*
D26*
X58580000Y-55280000D03*
D27*
X254635000Y-60071000D03*
D28*
X257175000Y-60071000D03*
X259715000Y-60071000D03*
X262255000Y-60071000D03*
X264795000Y-60071000D03*
M02*
