G04 #@! TF.FileFunction,Legend,Bot*
%FSLAX46Y46*%
G04 Gerber Fmt 4.6, Leading zero omitted, Abs format (unit mm)*
G04 Created by KiCad (PCBNEW 4.0.7-e2-6376~58~ubuntu14.04.1) date Sun Mar  4 07:56:53 2018*
%MOMM*%
%LPD*%
G01*
G04 APERTURE LIST*
%ADD10C,0.100000*%
%ADD11C,0.200000*%
%ADD12C,0.250000*%
%ADD13C,0.010000*%
%ADD14C,0.002540*%
%ADD15C,0.150000*%
G04 APERTURE END LIST*
D10*
D11*
X116608286Y-85256714D02*
X116322572Y-85923381D01*
X116036858Y-85447190D01*
X115751143Y-85923381D01*
X115465429Y-85256714D01*
X115036857Y-85256714D02*
X114751143Y-85923381D01*
X114465429Y-85447190D01*
X114179714Y-85923381D01*
X113894000Y-85256714D01*
X113465428Y-85256714D02*
X113179714Y-85923381D01*
X112894000Y-85447190D01*
X112608285Y-85923381D01*
X112322571Y-85256714D01*
X111751142Y-85828143D02*
X111679714Y-85875762D01*
X111751142Y-85923381D01*
X111822571Y-85875762D01*
X111751142Y-85828143D01*
X111751142Y-85923381D01*
X111108285Y-85875762D02*
X110965428Y-85923381D01*
X110679713Y-85923381D01*
X110536856Y-85875762D01*
X110465428Y-85780524D01*
X110465428Y-85732905D01*
X110536856Y-85637667D01*
X110679713Y-85590048D01*
X110893999Y-85590048D01*
X111036856Y-85542429D01*
X111108285Y-85447190D01*
X111108285Y-85399571D01*
X111036856Y-85304333D01*
X110893999Y-85256714D01*
X110679713Y-85256714D01*
X110536856Y-85304333D01*
X109179713Y-85256714D02*
X109179713Y-85923381D01*
X109822570Y-85256714D02*
X109822570Y-85780524D01*
X109751142Y-85875762D01*
X109608284Y-85923381D01*
X109393999Y-85923381D01*
X109251142Y-85875762D01*
X109179713Y-85828143D01*
X108465427Y-85923381D02*
X108465427Y-85256714D01*
X108465427Y-85447190D02*
X108393999Y-85351952D01*
X108322570Y-85304333D01*
X108179713Y-85256714D01*
X108036856Y-85256714D01*
X107751142Y-85256714D02*
X107179713Y-85256714D01*
X107536856Y-85923381D02*
X107536856Y-85066238D01*
X107465428Y-84971000D01*
X107322570Y-84923381D01*
X107179713Y-84923381D01*
X106679713Y-85256714D02*
X106679713Y-85923381D01*
X106679713Y-85351952D02*
X106608285Y-85304333D01*
X106465427Y-85256714D01*
X106251142Y-85256714D01*
X106108285Y-85304333D01*
X106036856Y-85399571D01*
X106036856Y-85923381D01*
X104679713Y-85875762D02*
X104822570Y-85923381D01*
X105108284Y-85923381D01*
X105251142Y-85875762D01*
X105322570Y-85828143D01*
X105393999Y-85732905D01*
X105393999Y-85447190D01*
X105322570Y-85351952D01*
X105251142Y-85304333D01*
X105108284Y-85256714D01*
X104822570Y-85256714D01*
X104679713Y-85304333D01*
X104036856Y-85923381D02*
X104036856Y-85256714D01*
X104036856Y-84923381D02*
X104108285Y-84971000D01*
X104036856Y-85018619D01*
X103965428Y-84971000D01*
X104036856Y-84923381D01*
X104036856Y-85018619D01*
X103322570Y-85923381D02*
X103322570Y-85256714D01*
X103322570Y-85447190D02*
X103251142Y-85351952D01*
X103179713Y-85304333D01*
X103036856Y-85256714D01*
X102893999Y-85256714D01*
X101751142Y-85875762D02*
X101893999Y-85923381D01*
X102179713Y-85923381D01*
X102322571Y-85875762D01*
X102393999Y-85828143D01*
X102465428Y-85732905D01*
X102465428Y-85447190D01*
X102393999Y-85351952D01*
X102322571Y-85304333D01*
X102179713Y-85256714D01*
X101893999Y-85256714D01*
X101751142Y-85304333D01*
X100465428Y-85256714D02*
X100465428Y-85923381D01*
X101108285Y-85256714D02*
X101108285Y-85780524D01*
X101036857Y-85875762D01*
X100893999Y-85923381D01*
X100679714Y-85923381D01*
X100536857Y-85875762D01*
X100465428Y-85828143D01*
X99751142Y-85923381D02*
X99751142Y-85256714D01*
X99751142Y-84923381D02*
X99822571Y-84971000D01*
X99751142Y-85018619D01*
X99679714Y-84971000D01*
X99751142Y-84923381D01*
X99751142Y-85018619D01*
X99251142Y-85256714D02*
X98679713Y-85256714D01*
X99036856Y-84923381D02*
X99036856Y-85780524D01*
X98965428Y-85875762D01*
X98822570Y-85923381D01*
X98679713Y-85923381D01*
X98251142Y-85875762D02*
X98108285Y-85923381D01*
X97822570Y-85923381D01*
X97679713Y-85875762D01*
X97608285Y-85780524D01*
X97608285Y-85732905D01*
X97679713Y-85637667D01*
X97822570Y-85590048D01*
X98036856Y-85590048D01*
X98179713Y-85542429D01*
X98251142Y-85447190D01*
X98251142Y-85399571D01*
X98179713Y-85304333D01*
X98036856Y-85256714D01*
X97822570Y-85256714D01*
X97679713Y-85304333D01*
X96965427Y-85828143D02*
X96893999Y-85875762D01*
X96965427Y-85923381D01*
X97036856Y-85875762D01*
X96965427Y-85828143D01*
X96965427Y-85923381D01*
X95608284Y-85875762D02*
X95751141Y-85923381D01*
X96036855Y-85923381D01*
X96179713Y-85875762D01*
X96251141Y-85828143D01*
X96322570Y-85732905D01*
X96322570Y-85447190D01*
X96251141Y-85351952D01*
X96179713Y-85304333D01*
X96036855Y-85256714D01*
X95751141Y-85256714D01*
X95608284Y-85304333D01*
X94751141Y-85923381D02*
X94893999Y-85875762D01*
X94965427Y-85828143D01*
X95036856Y-85732905D01*
X95036856Y-85447190D01*
X94965427Y-85351952D01*
X94893999Y-85304333D01*
X94751141Y-85256714D01*
X94536856Y-85256714D01*
X94393999Y-85304333D01*
X94322570Y-85351952D01*
X94251141Y-85447190D01*
X94251141Y-85732905D01*
X94322570Y-85828143D01*
X94393999Y-85875762D01*
X94536856Y-85923381D01*
X94751141Y-85923381D01*
X93608284Y-85923381D02*
X93608284Y-85256714D01*
X93608284Y-85351952D02*
X93536856Y-85304333D01*
X93393998Y-85256714D01*
X93179713Y-85256714D01*
X93036856Y-85304333D01*
X92965427Y-85399571D01*
X92965427Y-85923381D01*
X92965427Y-85399571D02*
X92893998Y-85304333D01*
X92751141Y-85256714D01*
X92536856Y-85256714D01*
X92393998Y-85304333D01*
X92322570Y-85399571D01*
X92322570Y-85923381D01*
D12*
X120774999Y-87939571D02*
X120274999Y-87939571D01*
X120060713Y-88463381D02*
X120774999Y-88463381D01*
X120774999Y-87463381D01*
X120060713Y-87463381D01*
X119632142Y-87463381D02*
X118774999Y-87463381D01*
X119203570Y-88463381D02*
X119203570Y-87463381D01*
X118346428Y-88177667D02*
X117632142Y-88177667D01*
X118489285Y-88463381D02*
X117989285Y-87463381D01*
X117489285Y-88463381D01*
X117346428Y-88558619D02*
X116203571Y-88558619D01*
X115846428Y-88463381D02*
X115846428Y-87463381D01*
X114989285Y-88463381D01*
X114989285Y-87463381D01*
X114274999Y-88463381D02*
X114274999Y-87463381D01*
X113703570Y-87463381D02*
X112703570Y-88463381D01*
X112703570Y-87463381D02*
X113703570Y-88463381D01*
X112132142Y-88463381D02*
X112132142Y-87463381D01*
X111417856Y-87939571D02*
X110917856Y-87939571D01*
X110703570Y-88463381D02*
X111417856Y-88463381D01*
X111417856Y-87463381D01*
X110703570Y-87463381D01*
X110417856Y-88558619D02*
X109274999Y-88558619D01*
X108060713Y-88368143D02*
X108132142Y-88415762D01*
X108346428Y-88463381D01*
X108489285Y-88463381D01*
X108703570Y-88415762D01*
X108846428Y-88320524D01*
X108917856Y-88225286D01*
X108989285Y-88034810D01*
X108989285Y-87891952D01*
X108917856Y-87701476D01*
X108846428Y-87606238D01*
X108703570Y-87511000D01*
X108489285Y-87463381D01*
X108346428Y-87463381D01*
X108132142Y-87511000D01*
X108060713Y-87558619D01*
X106703570Y-88463381D02*
X107417856Y-88463381D01*
X107417856Y-87463381D01*
X105917856Y-87463381D02*
X105632142Y-87463381D01*
X105489284Y-87511000D01*
X105346427Y-87606238D01*
X105274999Y-87796714D01*
X105274999Y-88130048D01*
X105346427Y-88320524D01*
X105489284Y-88415762D01*
X105632142Y-88463381D01*
X105917856Y-88463381D01*
X106060713Y-88415762D01*
X106203570Y-88320524D01*
X106274999Y-88130048D01*
X106274999Y-87796714D01*
X106203570Y-87606238D01*
X106060713Y-87511000D01*
X105917856Y-87463381D01*
X103774998Y-88368143D02*
X103846427Y-88415762D01*
X104060713Y-88463381D01*
X104203570Y-88463381D01*
X104417855Y-88415762D01*
X104560713Y-88320524D01*
X104632141Y-88225286D01*
X104703570Y-88034810D01*
X104703570Y-87891952D01*
X104632141Y-87701476D01*
X104560713Y-87606238D01*
X104417855Y-87511000D01*
X104203570Y-87463381D01*
X104060713Y-87463381D01*
X103846427Y-87511000D01*
X103774998Y-87558619D01*
X103132141Y-88463381D02*
X103132141Y-87463381D01*
X102274998Y-88463381D02*
X102917855Y-87891952D01*
X102274998Y-87463381D02*
X103132141Y-88034810D01*
X101989284Y-88558619D02*
X100846427Y-88558619D01*
X99632141Y-88463381D02*
X100132141Y-87987190D01*
X100489284Y-88463381D02*
X100489284Y-87463381D01*
X99917856Y-87463381D01*
X99774998Y-87511000D01*
X99703570Y-87558619D01*
X99632141Y-87653857D01*
X99632141Y-87796714D01*
X99703570Y-87891952D01*
X99774998Y-87939571D01*
X99917856Y-87987190D01*
X100489284Y-87987190D01*
X98989284Y-87939571D02*
X98489284Y-87939571D01*
X98274998Y-88463381D02*
X98989284Y-88463381D01*
X98989284Y-87463381D01*
X98274998Y-87463381D01*
X97846427Y-87463381D02*
X97346427Y-88463381D01*
X96846427Y-87463381D01*
X95560713Y-88463381D02*
X96417856Y-88463381D01*
X95989284Y-88463381D02*
X95989284Y-87463381D01*
X96132141Y-87606238D01*
X96274999Y-87701476D01*
X96417856Y-87749095D01*
X95274999Y-88558619D02*
X94132142Y-88558619D01*
X92989285Y-88463381D02*
X93846428Y-88463381D01*
X93417856Y-88463381D02*
X93417856Y-87463381D01*
X93560713Y-87606238D01*
X93703571Y-87701476D01*
X93846428Y-87749095D01*
X92132142Y-87891952D02*
X92275000Y-87844333D01*
X92346428Y-87796714D01*
X92417857Y-87701476D01*
X92417857Y-87653857D01*
X92346428Y-87558619D01*
X92275000Y-87511000D01*
X92132142Y-87463381D01*
X91846428Y-87463381D01*
X91703571Y-87511000D01*
X91632142Y-87558619D01*
X91560714Y-87653857D01*
X91560714Y-87701476D01*
X91632142Y-87796714D01*
X91703571Y-87844333D01*
X91846428Y-87891952D01*
X92132142Y-87891952D01*
X92275000Y-87939571D01*
X92346428Y-87987190D01*
X92417857Y-88082429D01*
X92417857Y-88272905D01*
X92346428Y-88368143D01*
X92275000Y-88415762D01*
X92132142Y-88463381D01*
X91846428Y-88463381D01*
X91703571Y-88415762D01*
X91632142Y-88368143D01*
X91560714Y-88272905D01*
X91560714Y-88082429D01*
X91632142Y-87987190D01*
X91703571Y-87939571D01*
X91846428Y-87891952D01*
X90632143Y-87463381D02*
X90489286Y-87463381D01*
X90346429Y-87511000D01*
X90275000Y-87558619D01*
X90203571Y-87653857D01*
X90132143Y-87844333D01*
X90132143Y-88082429D01*
X90203571Y-88272905D01*
X90275000Y-88368143D01*
X90346429Y-88415762D01*
X90489286Y-88463381D01*
X90632143Y-88463381D01*
X90775000Y-88415762D01*
X90846429Y-88368143D01*
X90917857Y-88272905D01*
X90989286Y-88082429D01*
X90989286Y-87844333D01*
X90917857Y-87653857D01*
X90846429Y-87558619D01*
X90775000Y-87511000D01*
X90632143Y-87463381D01*
X89275000Y-87891952D02*
X89417858Y-87844333D01*
X89489286Y-87796714D01*
X89560715Y-87701476D01*
X89560715Y-87653857D01*
X89489286Y-87558619D01*
X89417858Y-87511000D01*
X89275000Y-87463381D01*
X88989286Y-87463381D01*
X88846429Y-87511000D01*
X88775000Y-87558619D01*
X88703572Y-87653857D01*
X88703572Y-87701476D01*
X88775000Y-87796714D01*
X88846429Y-87844333D01*
X88989286Y-87891952D01*
X89275000Y-87891952D01*
X89417858Y-87939571D01*
X89489286Y-87987190D01*
X89560715Y-88082429D01*
X89560715Y-88272905D01*
X89489286Y-88368143D01*
X89417858Y-88415762D01*
X89275000Y-88463381D01*
X88989286Y-88463381D01*
X88846429Y-88415762D01*
X88775000Y-88368143D01*
X88703572Y-88272905D01*
X88703572Y-88082429D01*
X88775000Y-87987190D01*
X88846429Y-87939571D01*
X88989286Y-87891952D01*
D11*
X113949570Y-83891381D02*
X113949570Y-82891381D01*
X113449570Y-83605667D01*
X112949570Y-82891381D01*
X112949570Y-83891381D01*
X111592427Y-83891381D02*
X111592427Y-83367571D01*
X111663856Y-83272333D01*
X111806713Y-83224714D01*
X112092427Y-83224714D01*
X112235284Y-83272333D01*
X111592427Y-83843762D02*
X111735284Y-83891381D01*
X112092427Y-83891381D01*
X112235284Y-83843762D01*
X112306713Y-83748524D01*
X112306713Y-83653286D01*
X112235284Y-83558048D01*
X112092427Y-83510429D01*
X111735284Y-83510429D01*
X111592427Y-83462810D01*
X110878141Y-83891381D02*
X110878141Y-83224714D01*
X110878141Y-83415190D02*
X110806713Y-83319952D01*
X110735284Y-83272333D01*
X110592427Y-83224714D01*
X110449570Y-83224714D01*
X109949570Y-83891381D02*
X109949570Y-82891381D01*
X109806713Y-83510429D02*
X109378142Y-83891381D01*
X109378142Y-83224714D02*
X109949570Y-83605667D01*
X107663856Y-83843762D02*
X107449570Y-83891381D01*
X107092427Y-83891381D01*
X106949570Y-83843762D01*
X106878141Y-83796143D01*
X106806713Y-83700905D01*
X106806713Y-83605667D01*
X106878141Y-83510429D01*
X106949570Y-83462810D01*
X107092427Y-83415190D01*
X107378141Y-83367571D01*
X107520999Y-83319952D01*
X107592427Y-83272333D01*
X107663856Y-83177095D01*
X107663856Y-83081857D01*
X107592427Y-82986619D01*
X107520999Y-82939000D01*
X107378141Y-82891381D01*
X107020999Y-82891381D01*
X106806713Y-82939000D01*
X106163856Y-83891381D02*
X106163856Y-83224714D01*
X106163856Y-83319952D02*
X106092428Y-83272333D01*
X105949570Y-83224714D01*
X105735285Y-83224714D01*
X105592428Y-83272333D01*
X105520999Y-83367571D01*
X105520999Y-83891381D01*
X105520999Y-83367571D02*
X105449570Y-83272333D01*
X105306713Y-83224714D01*
X105092428Y-83224714D01*
X104949570Y-83272333D01*
X104878142Y-83367571D01*
X104878142Y-83891381D01*
X104163856Y-83891381D02*
X104163856Y-83224714D01*
X104163856Y-82891381D02*
X104235285Y-82939000D01*
X104163856Y-82986619D01*
X104092428Y-82939000D01*
X104163856Y-82891381D01*
X104163856Y-82986619D01*
X103663856Y-83224714D02*
X103092427Y-83224714D01*
X103449570Y-82891381D02*
X103449570Y-83748524D01*
X103378142Y-83843762D01*
X103235284Y-83891381D01*
X103092427Y-83891381D01*
X102592427Y-83891381D02*
X102592427Y-82891381D01*
X101949570Y-83891381D02*
X101949570Y-83367571D01*
X102020999Y-83272333D01*
X102163856Y-83224714D01*
X102378141Y-83224714D01*
X102520999Y-83272333D01*
X102592427Y-83319952D01*
X100163856Y-82986619D02*
X100092427Y-82939000D01*
X99949570Y-82891381D01*
X99592427Y-82891381D01*
X99449570Y-82939000D01*
X99378141Y-82986619D01*
X99306713Y-83081857D01*
X99306713Y-83177095D01*
X99378141Y-83319952D01*
X100235284Y-83891381D01*
X99306713Y-83891381D01*
X98378142Y-82891381D02*
X98235285Y-82891381D01*
X98092428Y-82939000D01*
X98020999Y-82986619D01*
X97949570Y-83081857D01*
X97878142Y-83272333D01*
X97878142Y-83510429D01*
X97949570Y-83700905D01*
X98020999Y-83796143D01*
X98092428Y-83843762D01*
X98235285Y-83891381D01*
X98378142Y-83891381D01*
X98520999Y-83843762D01*
X98592428Y-83796143D01*
X98663856Y-83700905D01*
X98735285Y-83510429D01*
X98735285Y-83272333D01*
X98663856Y-83081857D01*
X98592428Y-82986619D01*
X98520999Y-82939000D01*
X98378142Y-82891381D01*
X96449571Y-83891381D02*
X97306714Y-83891381D01*
X96878142Y-83891381D02*
X96878142Y-82891381D01*
X97020999Y-83034238D01*
X97163857Y-83129476D01*
X97306714Y-83177095D01*
X95592428Y-83319952D02*
X95735286Y-83272333D01*
X95806714Y-83224714D01*
X95878143Y-83129476D01*
X95878143Y-83081857D01*
X95806714Y-82986619D01*
X95735286Y-82939000D01*
X95592428Y-82891381D01*
X95306714Y-82891381D01*
X95163857Y-82939000D01*
X95092428Y-82986619D01*
X95021000Y-83081857D01*
X95021000Y-83129476D01*
X95092428Y-83224714D01*
X95163857Y-83272333D01*
X95306714Y-83319952D01*
X95592428Y-83319952D01*
X95735286Y-83367571D01*
X95806714Y-83415190D01*
X95878143Y-83510429D01*
X95878143Y-83700905D01*
X95806714Y-83796143D01*
X95735286Y-83843762D01*
X95592428Y-83891381D01*
X95306714Y-83891381D01*
X95163857Y-83843762D01*
X95092428Y-83796143D01*
X95021000Y-83700905D01*
X95021000Y-83510429D01*
X95092428Y-83415190D01*
X95163857Y-83367571D01*
X95306714Y-83319952D01*
D13*
G36*
X115642583Y-82198083D02*
X115569366Y-82200580D01*
X115502919Y-82205378D01*
X115447170Y-82212501D01*
X115427714Y-82216229D01*
X115395100Y-82225099D01*
X115351646Y-82239393D01*
X115301895Y-82257460D01*
X115250391Y-82277651D01*
X115201700Y-82298306D01*
X115166805Y-82314814D01*
X115126419Y-82335489D01*
X115084181Y-82358286D01*
X115043733Y-82381162D01*
X115008715Y-82402073D01*
X114982769Y-82418975D01*
X114972116Y-82427180D01*
X114960875Y-82436962D01*
X114941348Y-82453653D01*
X114922577Y-82469567D01*
X114831911Y-82556192D01*
X114748820Y-82655696D01*
X114675782Y-82764811D01*
X114621544Y-82866712D01*
X114574116Y-82977547D01*
X114539581Y-83082220D01*
X114517030Y-83184377D01*
X114505553Y-83287664D01*
X114503711Y-83338548D01*
X114502815Y-83379096D01*
X114501417Y-83413951D01*
X114499711Y-83439327D01*
X114497946Y-83451307D01*
X114498011Y-83464077D01*
X114500572Y-83467010D01*
X114504436Y-83477297D01*
X114506397Y-83498597D01*
X114506407Y-83512316D01*
X114507318Y-83538572D01*
X114510948Y-83558330D01*
X114513420Y-83563513D01*
X114518337Y-83576464D01*
X114517274Y-83580710D01*
X114516212Y-83594241D01*
X114520039Y-83620466D01*
X114527963Y-83656127D01*
X114539196Y-83697964D01*
X114552947Y-83742718D01*
X114565091Y-83778047D01*
X114604984Y-83875802D01*
X114653974Y-83975865D01*
X114707935Y-84069962D01*
X114720436Y-84089614D01*
X114761780Y-84145838D01*
X114814197Y-84205758D01*
X114873652Y-84265418D01*
X114936114Y-84320863D01*
X114997547Y-84368136D01*
X115019536Y-84382974D01*
X115077381Y-84417629D01*
X115143786Y-84453059D01*
X115213242Y-84486610D01*
X115280240Y-84515626D01*
X115339269Y-84537451D01*
X115341400Y-84538141D01*
X115447446Y-84565439D01*
X115562291Y-84582801D01*
X115680787Y-84589896D01*
X115797784Y-84586388D01*
X115896372Y-84574097D01*
X115986612Y-84553292D01*
X116085563Y-84521473D01*
X116190068Y-84479703D01*
X116231699Y-84460923D01*
X116321965Y-84414108D01*
X116401587Y-84361873D01*
X116475933Y-84300915D01*
X116501526Y-84277840D01*
X116522513Y-84258928D01*
X116535560Y-84247182D01*
X116537776Y-84245193D01*
X116579815Y-84202505D01*
X116624960Y-84147852D01*
X116670460Y-84085158D01*
X116713564Y-84018344D01*
X116751521Y-83951335D01*
X116770086Y-83913941D01*
X116794202Y-83860920D01*
X116812811Y-83815816D01*
X116827626Y-83773360D01*
X116840363Y-83728284D01*
X116852736Y-83675321D01*
X116861835Y-83632018D01*
X116871649Y-83580893D01*
X116878281Y-83536883D01*
X116882299Y-83493960D01*
X116883996Y-83452715D01*
X116686384Y-83452715D01*
X116684649Y-83488038D01*
X116680615Y-83522777D01*
X116673889Y-83562368D01*
X116667419Y-83595634D01*
X116656558Y-83648622D01*
X116647138Y-83689515D01*
X116637632Y-83722889D01*
X116626512Y-83753321D01*
X116612250Y-83785387D01*
X116593320Y-83823663D01*
X116587495Y-83835099D01*
X116546726Y-83910351D01*
X116506616Y-83973962D01*
X116463736Y-84030721D01*
X116414656Y-84085421D01*
X116391800Y-84108508D01*
X116295213Y-84191967D01*
X116188048Y-84262548D01*
X116071330Y-84319713D01*
X115946079Y-84362920D01*
X115879033Y-84379453D01*
X115814993Y-84389284D01*
X115740799Y-84394307D01*
X115662531Y-84394527D01*
X115586269Y-84389949D01*
X115518094Y-84380579D01*
X115510733Y-84379130D01*
X115461181Y-84368416D01*
X115417979Y-84357400D01*
X115378018Y-84344795D01*
X115338183Y-84329315D01*
X115295365Y-84309675D01*
X115246451Y-84284588D01*
X115188330Y-84252767D01*
X115142433Y-84226895D01*
X115073134Y-84179679D01*
X115004666Y-84118188D01*
X114938988Y-84045044D01*
X114878063Y-83962869D01*
X114823850Y-83874282D01*
X114778310Y-83781906D01*
X114746213Y-83697234D01*
X114725751Y-83628478D01*
X114711845Y-83567082D01*
X114703697Y-83507104D01*
X114700506Y-83442600D01*
X114701476Y-83367626D01*
X114701566Y-83365004D01*
X114703809Y-83316019D01*
X114706913Y-83268980D01*
X114710515Y-83228422D01*
X114714250Y-83198877D01*
X114715363Y-83192741D01*
X114740630Y-83098687D01*
X114777665Y-83001599D01*
X114824289Y-82905584D01*
X114878323Y-82814746D01*
X114937588Y-82733193D01*
X114990619Y-82674069D01*
X115050118Y-82621626D01*
X115121608Y-82569477D01*
X115200486Y-82520308D01*
X115282149Y-82476804D01*
X115361993Y-82441650D01*
X115426066Y-82420041D01*
X115483841Y-82407355D01*
X115552353Y-82397715D01*
X115626421Y-82391408D01*
X115700864Y-82388718D01*
X115770501Y-82389932D01*
X115830153Y-82395335D01*
X115841495Y-82397127D01*
X115873986Y-82402464D01*
X115904845Y-82407039D01*
X115917133Y-82408639D01*
X115955966Y-82416972D01*
X116005409Y-82433270D01*
X116062041Y-82456021D01*
X116122443Y-82483709D01*
X116183192Y-82514822D01*
X116240868Y-82547845D01*
X116263026Y-82561709D01*
X116347508Y-82625443D01*
X116426198Y-82703162D01*
X116497447Y-82792433D01*
X116559608Y-82890822D01*
X116611032Y-82995897D01*
X116650072Y-83105225D01*
X116662216Y-83151134D01*
X116668747Y-83179458D01*
X116673525Y-83203344D01*
X116676971Y-83226702D01*
X116679504Y-83253441D01*
X116681546Y-83287473D01*
X116683518Y-83332707D01*
X116684525Y-83358567D01*
X116686211Y-83411371D01*
X116686384Y-83452715D01*
X116883996Y-83452715D01*
X116884269Y-83446098D01*
X116884758Y-83388200D01*
X116883022Y-83304679D01*
X116877995Y-83236042D01*
X116871009Y-83189234D01*
X116864052Y-83154232D01*
X116858025Y-83123063D01*
X116854049Y-83101538D01*
X116853608Y-83098960D01*
X116847013Y-83074410D01*
X116840397Y-83058743D01*
X116834616Y-83045277D01*
X116834964Y-83041067D01*
X116835153Y-83033890D01*
X116829910Y-83014716D01*
X116820538Y-82987085D01*
X116808343Y-82954535D01*
X116794630Y-82920606D01*
X116780704Y-82888836D01*
X116772515Y-82871734D01*
X116703319Y-82747966D01*
X116626205Y-82638088D01*
X116539521Y-82540256D01*
X116441616Y-82452630D01*
X116330840Y-82373368D01*
X116319099Y-82365899D01*
X116269142Y-82337479D01*
X116208196Y-82307477D01*
X116141582Y-82278143D01*
X116074623Y-82251730D01*
X116012640Y-82230490D01*
X115972759Y-82219343D01*
X115924603Y-82210667D01*
X115863579Y-82204180D01*
X115793617Y-82199906D01*
X115718642Y-82197866D01*
X115642583Y-82198083D01*
X115642583Y-82198083D01*
G37*
X115642583Y-82198083D02*
X115569366Y-82200580D01*
X115502919Y-82205378D01*
X115447170Y-82212501D01*
X115427714Y-82216229D01*
X115395100Y-82225099D01*
X115351646Y-82239393D01*
X115301895Y-82257460D01*
X115250391Y-82277651D01*
X115201700Y-82298306D01*
X115166805Y-82314814D01*
X115126419Y-82335489D01*
X115084181Y-82358286D01*
X115043733Y-82381162D01*
X115008715Y-82402073D01*
X114982769Y-82418975D01*
X114972116Y-82427180D01*
X114960875Y-82436962D01*
X114941348Y-82453653D01*
X114922577Y-82469567D01*
X114831911Y-82556192D01*
X114748820Y-82655696D01*
X114675782Y-82764811D01*
X114621544Y-82866712D01*
X114574116Y-82977547D01*
X114539581Y-83082220D01*
X114517030Y-83184377D01*
X114505553Y-83287664D01*
X114503711Y-83338548D01*
X114502815Y-83379096D01*
X114501417Y-83413951D01*
X114499711Y-83439327D01*
X114497946Y-83451307D01*
X114498011Y-83464077D01*
X114500572Y-83467010D01*
X114504436Y-83477297D01*
X114506397Y-83498597D01*
X114506407Y-83512316D01*
X114507318Y-83538572D01*
X114510948Y-83558330D01*
X114513420Y-83563513D01*
X114518337Y-83576464D01*
X114517274Y-83580710D01*
X114516212Y-83594241D01*
X114520039Y-83620466D01*
X114527963Y-83656127D01*
X114539196Y-83697964D01*
X114552947Y-83742718D01*
X114565091Y-83778047D01*
X114604984Y-83875802D01*
X114653974Y-83975865D01*
X114707935Y-84069962D01*
X114720436Y-84089614D01*
X114761780Y-84145838D01*
X114814197Y-84205758D01*
X114873652Y-84265418D01*
X114936114Y-84320863D01*
X114997547Y-84368136D01*
X115019536Y-84382974D01*
X115077381Y-84417629D01*
X115143786Y-84453059D01*
X115213242Y-84486610D01*
X115280240Y-84515626D01*
X115339269Y-84537451D01*
X115341400Y-84538141D01*
X115447446Y-84565439D01*
X115562291Y-84582801D01*
X115680787Y-84589896D01*
X115797784Y-84586388D01*
X115896372Y-84574097D01*
X115986612Y-84553292D01*
X116085563Y-84521473D01*
X116190068Y-84479703D01*
X116231699Y-84460923D01*
X116321965Y-84414108D01*
X116401587Y-84361873D01*
X116475933Y-84300915D01*
X116501526Y-84277840D01*
X116522513Y-84258928D01*
X116535560Y-84247182D01*
X116537776Y-84245193D01*
X116579815Y-84202505D01*
X116624960Y-84147852D01*
X116670460Y-84085158D01*
X116713564Y-84018344D01*
X116751521Y-83951335D01*
X116770086Y-83913941D01*
X116794202Y-83860920D01*
X116812811Y-83815816D01*
X116827626Y-83773360D01*
X116840363Y-83728284D01*
X116852736Y-83675321D01*
X116861835Y-83632018D01*
X116871649Y-83580893D01*
X116878281Y-83536883D01*
X116882299Y-83493960D01*
X116883996Y-83452715D01*
X116686384Y-83452715D01*
X116684649Y-83488038D01*
X116680615Y-83522777D01*
X116673889Y-83562368D01*
X116667419Y-83595634D01*
X116656558Y-83648622D01*
X116647138Y-83689515D01*
X116637632Y-83722889D01*
X116626512Y-83753321D01*
X116612250Y-83785387D01*
X116593320Y-83823663D01*
X116587495Y-83835099D01*
X116546726Y-83910351D01*
X116506616Y-83973962D01*
X116463736Y-84030721D01*
X116414656Y-84085421D01*
X116391800Y-84108508D01*
X116295213Y-84191967D01*
X116188048Y-84262548D01*
X116071330Y-84319713D01*
X115946079Y-84362920D01*
X115879033Y-84379453D01*
X115814993Y-84389284D01*
X115740799Y-84394307D01*
X115662531Y-84394527D01*
X115586269Y-84389949D01*
X115518094Y-84380579D01*
X115510733Y-84379130D01*
X115461181Y-84368416D01*
X115417979Y-84357400D01*
X115378018Y-84344795D01*
X115338183Y-84329315D01*
X115295365Y-84309675D01*
X115246451Y-84284588D01*
X115188330Y-84252767D01*
X115142433Y-84226895D01*
X115073134Y-84179679D01*
X115004666Y-84118188D01*
X114938988Y-84045044D01*
X114878063Y-83962869D01*
X114823850Y-83874282D01*
X114778310Y-83781906D01*
X114746213Y-83697234D01*
X114725751Y-83628478D01*
X114711845Y-83567082D01*
X114703697Y-83507104D01*
X114700506Y-83442600D01*
X114701476Y-83367626D01*
X114701566Y-83365004D01*
X114703809Y-83316019D01*
X114706913Y-83268980D01*
X114710515Y-83228422D01*
X114714250Y-83198877D01*
X114715363Y-83192741D01*
X114740630Y-83098687D01*
X114777665Y-83001599D01*
X114824289Y-82905584D01*
X114878323Y-82814746D01*
X114937588Y-82733193D01*
X114990619Y-82674069D01*
X115050118Y-82621626D01*
X115121608Y-82569477D01*
X115200486Y-82520308D01*
X115282149Y-82476804D01*
X115361993Y-82441650D01*
X115426066Y-82420041D01*
X115483841Y-82407355D01*
X115552353Y-82397715D01*
X115626421Y-82391408D01*
X115700864Y-82388718D01*
X115770501Y-82389932D01*
X115830153Y-82395335D01*
X115841495Y-82397127D01*
X115873986Y-82402464D01*
X115904845Y-82407039D01*
X115917133Y-82408639D01*
X115955966Y-82416972D01*
X116005409Y-82433270D01*
X116062041Y-82456021D01*
X116122443Y-82483709D01*
X116183192Y-82514822D01*
X116240868Y-82547845D01*
X116263026Y-82561709D01*
X116347508Y-82625443D01*
X116426198Y-82703162D01*
X116497447Y-82792433D01*
X116559608Y-82890822D01*
X116611032Y-82995897D01*
X116650072Y-83105225D01*
X116662216Y-83151134D01*
X116668747Y-83179458D01*
X116673525Y-83203344D01*
X116676971Y-83226702D01*
X116679504Y-83253441D01*
X116681546Y-83287473D01*
X116683518Y-83332707D01*
X116684525Y-83358567D01*
X116686211Y-83411371D01*
X116686384Y-83452715D01*
X116883996Y-83452715D01*
X116884269Y-83446098D01*
X116884758Y-83388200D01*
X116883022Y-83304679D01*
X116877995Y-83236042D01*
X116871009Y-83189234D01*
X116864052Y-83154232D01*
X116858025Y-83123063D01*
X116854049Y-83101538D01*
X116853608Y-83098960D01*
X116847013Y-83074410D01*
X116840397Y-83058743D01*
X116834616Y-83045277D01*
X116834964Y-83041067D01*
X116835153Y-83033890D01*
X116829910Y-83014716D01*
X116820538Y-82987085D01*
X116808343Y-82954535D01*
X116794630Y-82920606D01*
X116780704Y-82888836D01*
X116772515Y-82871734D01*
X116703319Y-82747966D01*
X116626205Y-82638088D01*
X116539521Y-82540256D01*
X116441616Y-82452630D01*
X116330840Y-82373368D01*
X116319099Y-82365899D01*
X116269142Y-82337479D01*
X116208196Y-82307477D01*
X116141582Y-82278143D01*
X116074623Y-82251730D01*
X116012640Y-82230490D01*
X115972759Y-82219343D01*
X115924603Y-82210667D01*
X115863579Y-82204180D01*
X115793617Y-82199906D01*
X115718642Y-82197866D01*
X115642583Y-82198083D01*
G36*
X115582135Y-82723796D02*
X115533612Y-82730873D01*
X115444540Y-82757702D01*
X115362831Y-82799263D01*
X115289978Y-82854407D01*
X115227473Y-82921981D01*
X115176809Y-83000837D01*
X115172491Y-83009220D01*
X115157002Y-83040889D01*
X115145433Y-83066398D01*
X115139260Y-83082376D01*
X115138808Y-83086034D01*
X115148451Y-83089577D01*
X115170174Y-83096067D01*
X115199633Y-83104330D01*
X115232485Y-83113193D01*
X115264384Y-83121483D01*
X115290988Y-83128028D01*
X115307533Y-83131584D01*
X115320601Y-83131620D01*
X115331564Y-83124357D01*
X115343910Y-83106631D01*
X115353104Y-83090264D01*
X115397488Y-83024911D01*
X115452292Y-82972814D01*
X115517037Y-82934270D01*
X115591242Y-82909577D01*
X115660656Y-82899748D01*
X115724697Y-82899527D01*
X115784726Y-82906852D01*
X115836696Y-82920951D01*
X115876107Y-82940738D01*
X115893026Y-82951567D01*
X115903285Y-82956385D01*
X115903526Y-82956400D01*
X115916324Y-82962518D01*
X115936486Y-82978732D01*
X115960907Y-83001830D01*
X115986477Y-83028601D01*
X116010091Y-83055835D01*
X116028640Y-83080320D01*
X116037106Y-83094427D01*
X116059014Y-83141677D01*
X116071812Y-83175622D01*
X116075136Y-83189234D01*
X116078719Y-83207254D01*
X116084653Y-83233909D01*
X116088079Y-83248500D01*
X116093803Y-83284884D01*
X116097212Y-83333131D01*
X116098362Y-83388335D01*
X116097310Y-83445593D01*
X116094113Y-83500002D01*
X116088827Y-83546656D01*
X116084362Y-83570234D01*
X116070535Y-83623916D01*
X116056921Y-83665462D01*
X116041637Y-83699537D01*
X116022800Y-83730807D01*
X116015091Y-83741852D01*
X115964802Y-83797958D01*
X115904349Y-83840612D01*
X115834036Y-83869675D01*
X115754165Y-83885007D01*
X115699930Y-83887555D01*
X115616511Y-83879765D01*
X115540041Y-83857326D01*
X115471804Y-83821014D01*
X115413083Y-83771609D01*
X115365159Y-83709887D01*
X115344397Y-83672073D01*
X115330807Y-83642495D01*
X115320761Y-83618101D01*
X115316118Y-83603459D01*
X115316000Y-83602223D01*
X115311654Y-83594158D01*
X115297233Y-83592194D01*
X115270665Y-83596365D01*
X115241916Y-83603435D01*
X115217477Y-83609437D01*
X115201332Y-83612438D01*
X115197466Y-83612233D01*
X115190569Y-83613232D01*
X115173295Y-83619385D01*
X115165716Y-83622464D01*
X115145401Y-83630536D01*
X115133160Y-83634611D01*
X115131850Y-83634732D01*
X115122730Y-83634545D01*
X115121098Y-83646902D01*
X115126914Y-83672968D01*
X115130204Y-83683951D01*
X115140935Y-83714429D01*
X115154652Y-83747863D01*
X115169568Y-83780543D01*
X115183897Y-83808758D01*
X115195851Y-83828801D01*
X115203643Y-83836961D01*
X115203938Y-83836992D01*
X115211984Y-83843442D01*
X115225047Y-83859656D01*
X115231333Y-83868659D01*
X115251089Y-83894283D01*
X115273123Y-83917596D01*
X115277523Y-83921518D01*
X115300432Y-83941382D01*
X115321874Y-83960587D01*
X115322917Y-83961546D01*
X115342285Y-83976486D01*
X115359277Y-83985400D01*
X115372443Y-83992687D01*
X115375266Y-83997631D01*
X115382831Y-84004415D01*
X115403163Y-84014420D01*
X115432716Y-84026320D01*
X115467945Y-84038792D01*
X115505306Y-84050509D01*
X115541254Y-84060146D01*
X115544600Y-84060936D01*
X115576983Y-84066103D01*
X115620884Y-84069937D01*
X115670927Y-84072285D01*
X115721737Y-84072991D01*
X115767940Y-84071904D01*
X115804161Y-84068869D01*
X115807066Y-84068446D01*
X115849729Y-84059587D01*
X115898191Y-84045941D01*
X115946362Y-84029526D01*
X115988151Y-84012365D01*
X116010266Y-84001035D01*
X116087033Y-83946985D01*
X116157057Y-83879653D01*
X116194158Y-83834450D01*
X116214182Y-83806956D01*
X116229570Y-83784438D01*
X116237979Y-83770388D01*
X116238866Y-83767847D01*
X116242317Y-83757228D01*
X116251342Y-83736131D01*
X116263316Y-83710530D01*
X116275284Y-83684562D01*
X116283000Y-83665328D01*
X116284795Y-83657084D01*
X116285263Y-83648014D01*
X116289566Y-83627668D01*
X116294720Y-83607940D01*
X116302358Y-83569610D01*
X116308085Y-83518864D01*
X116311802Y-83460124D01*
X116313411Y-83397811D01*
X116312813Y-83336345D01*
X116309909Y-83280148D01*
X116304601Y-83233640D01*
X116303246Y-83225907D01*
X116295231Y-83187983D01*
X116286256Y-83152422D01*
X116277952Y-83125535D01*
X116276018Y-83120537D01*
X116266616Y-83095969D01*
X116260279Y-83075695D01*
X116259587Y-83072618D01*
X116249943Y-83045790D01*
X116230999Y-83010804D01*
X116205344Y-82971560D01*
X116175566Y-82931956D01*
X116144256Y-82895894D01*
X116137840Y-82889249D01*
X116073576Y-82834420D01*
X115997591Y-82788852D01*
X115908249Y-82751598D01*
X115887500Y-82744698D01*
X115838499Y-82733098D01*
X115778175Y-82725001D01*
X115711816Y-82720614D01*
X115644707Y-82720144D01*
X115582135Y-82723796D01*
X115582135Y-82723796D01*
G37*
X115582135Y-82723796D02*
X115533612Y-82730873D01*
X115444540Y-82757702D01*
X115362831Y-82799263D01*
X115289978Y-82854407D01*
X115227473Y-82921981D01*
X115176809Y-83000837D01*
X115172491Y-83009220D01*
X115157002Y-83040889D01*
X115145433Y-83066398D01*
X115139260Y-83082376D01*
X115138808Y-83086034D01*
X115148451Y-83089577D01*
X115170174Y-83096067D01*
X115199633Y-83104330D01*
X115232485Y-83113193D01*
X115264384Y-83121483D01*
X115290988Y-83128028D01*
X115307533Y-83131584D01*
X115320601Y-83131620D01*
X115331564Y-83124357D01*
X115343910Y-83106631D01*
X115353104Y-83090264D01*
X115397488Y-83024911D01*
X115452292Y-82972814D01*
X115517037Y-82934270D01*
X115591242Y-82909577D01*
X115660656Y-82899748D01*
X115724697Y-82899527D01*
X115784726Y-82906852D01*
X115836696Y-82920951D01*
X115876107Y-82940738D01*
X115893026Y-82951567D01*
X115903285Y-82956385D01*
X115903526Y-82956400D01*
X115916324Y-82962518D01*
X115936486Y-82978732D01*
X115960907Y-83001830D01*
X115986477Y-83028601D01*
X116010091Y-83055835D01*
X116028640Y-83080320D01*
X116037106Y-83094427D01*
X116059014Y-83141677D01*
X116071812Y-83175622D01*
X116075136Y-83189234D01*
X116078719Y-83207254D01*
X116084653Y-83233909D01*
X116088079Y-83248500D01*
X116093803Y-83284884D01*
X116097212Y-83333131D01*
X116098362Y-83388335D01*
X116097310Y-83445593D01*
X116094113Y-83500002D01*
X116088827Y-83546656D01*
X116084362Y-83570234D01*
X116070535Y-83623916D01*
X116056921Y-83665462D01*
X116041637Y-83699537D01*
X116022800Y-83730807D01*
X116015091Y-83741852D01*
X115964802Y-83797958D01*
X115904349Y-83840612D01*
X115834036Y-83869675D01*
X115754165Y-83885007D01*
X115699930Y-83887555D01*
X115616511Y-83879765D01*
X115540041Y-83857326D01*
X115471804Y-83821014D01*
X115413083Y-83771609D01*
X115365159Y-83709887D01*
X115344397Y-83672073D01*
X115330807Y-83642495D01*
X115320761Y-83618101D01*
X115316118Y-83603459D01*
X115316000Y-83602223D01*
X115311654Y-83594158D01*
X115297233Y-83592194D01*
X115270665Y-83596365D01*
X115241916Y-83603435D01*
X115217477Y-83609437D01*
X115201332Y-83612438D01*
X115197466Y-83612233D01*
X115190569Y-83613232D01*
X115173295Y-83619385D01*
X115165716Y-83622464D01*
X115145401Y-83630536D01*
X115133160Y-83634611D01*
X115131850Y-83634732D01*
X115122730Y-83634545D01*
X115121098Y-83646902D01*
X115126914Y-83672968D01*
X115130204Y-83683951D01*
X115140935Y-83714429D01*
X115154652Y-83747863D01*
X115169568Y-83780543D01*
X115183897Y-83808758D01*
X115195851Y-83828801D01*
X115203643Y-83836961D01*
X115203938Y-83836992D01*
X115211984Y-83843442D01*
X115225047Y-83859656D01*
X115231333Y-83868659D01*
X115251089Y-83894283D01*
X115273123Y-83917596D01*
X115277523Y-83921518D01*
X115300432Y-83941382D01*
X115321874Y-83960587D01*
X115322917Y-83961546D01*
X115342285Y-83976486D01*
X115359277Y-83985400D01*
X115372443Y-83992687D01*
X115375266Y-83997631D01*
X115382831Y-84004415D01*
X115403163Y-84014420D01*
X115432716Y-84026320D01*
X115467945Y-84038792D01*
X115505306Y-84050509D01*
X115541254Y-84060146D01*
X115544600Y-84060936D01*
X115576983Y-84066103D01*
X115620884Y-84069937D01*
X115670927Y-84072285D01*
X115721737Y-84072991D01*
X115767940Y-84071904D01*
X115804161Y-84068869D01*
X115807066Y-84068446D01*
X115849729Y-84059587D01*
X115898191Y-84045941D01*
X115946362Y-84029526D01*
X115988151Y-84012365D01*
X116010266Y-84001035D01*
X116087033Y-83946985D01*
X116157057Y-83879653D01*
X116194158Y-83834450D01*
X116214182Y-83806956D01*
X116229570Y-83784438D01*
X116237979Y-83770388D01*
X116238866Y-83767847D01*
X116242317Y-83757228D01*
X116251342Y-83736131D01*
X116263316Y-83710530D01*
X116275284Y-83684562D01*
X116283000Y-83665328D01*
X116284795Y-83657084D01*
X116285263Y-83648014D01*
X116289566Y-83627668D01*
X116294720Y-83607940D01*
X116302358Y-83569610D01*
X116308085Y-83518864D01*
X116311802Y-83460124D01*
X116313411Y-83397811D01*
X116312813Y-83336345D01*
X116309909Y-83280148D01*
X116304601Y-83233640D01*
X116303246Y-83225907D01*
X116295231Y-83187983D01*
X116286256Y-83152422D01*
X116277952Y-83125535D01*
X116276018Y-83120537D01*
X116266616Y-83095969D01*
X116260279Y-83075695D01*
X116259587Y-83072618D01*
X116249943Y-83045790D01*
X116230999Y-83010804D01*
X116205344Y-82971560D01*
X116175566Y-82931956D01*
X116144256Y-82895894D01*
X116137840Y-82889249D01*
X116073576Y-82834420D01*
X115997591Y-82788852D01*
X115908249Y-82751598D01*
X115887500Y-82744698D01*
X115838499Y-82733098D01*
X115778175Y-82725001D01*
X115711816Y-82720614D01*
X115644707Y-82720144D01*
X115582135Y-82723796D01*
D14*
G36*
X106796840Y-81747360D02*
X106771440Y-81732120D01*
X106713020Y-81696560D01*
X106629200Y-81640680D01*
X106530140Y-81574640D01*
X106431080Y-81508600D01*
X106349800Y-81455260D01*
X106293920Y-81417160D01*
X106268520Y-81404460D01*
X106255820Y-81409540D01*
X106210100Y-81432400D01*
X106141520Y-81467960D01*
X106100880Y-81488280D01*
X106039920Y-81513680D01*
X106006900Y-81521300D01*
X106001820Y-81511140D01*
X105978960Y-81462880D01*
X105943400Y-81381600D01*
X105897680Y-81272380D01*
X105841800Y-81145380D01*
X105785920Y-81010760D01*
X105727500Y-80871060D01*
X105671620Y-80736440D01*
X105623360Y-80617060D01*
X105582720Y-80520540D01*
X105557320Y-80451960D01*
X105547160Y-80424020D01*
X105549700Y-80416400D01*
X105582720Y-80385920D01*
X105636060Y-80345280D01*
X105755440Y-80248760D01*
X105872280Y-80103980D01*
X105943400Y-79938880D01*
X105966260Y-79753460D01*
X105945940Y-79583280D01*
X105879900Y-79420720D01*
X105765600Y-79273400D01*
X105625900Y-79164180D01*
X105463340Y-79095600D01*
X105283000Y-79072740D01*
X105110280Y-79093060D01*
X104942640Y-79159100D01*
X104795320Y-79270860D01*
X104731820Y-79341980D01*
X104645460Y-79491840D01*
X104597200Y-79649320D01*
X104592120Y-79689960D01*
X104599740Y-79865220D01*
X104650540Y-80035400D01*
X104744520Y-80185260D01*
X104874060Y-80309720D01*
X104889300Y-80319880D01*
X104947720Y-80365600D01*
X104988360Y-80396080D01*
X105018840Y-80421480D01*
X104795320Y-80959960D01*
X104759760Y-81043780D01*
X104698800Y-81191100D01*
X104645460Y-81318100D01*
X104602280Y-81419700D01*
X104571800Y-81485740D01*
X104559100Y-81513680D01*
X104559100Y-81516220D01*
X104538780Y-81518760D01*
X104498140Y-81503520D01*
X104421940Y-81467960D01*
X104373680Y-81442560D01*
X104315260Y-81414620D01*
X104289860Y-81404460D01*
X104267000Y-81417160D01*
X104213660Y-81452720D01*
X104132380Y-81506060D01*
X104035860Y-81569560D01*
X103944420Y-81633060D01*
X103860600Y-81688940D01*
X103799640Y-81727040D01*
X103769160Y-81744820D01*
X103764080Y-81744820D01*
X103738680Y-81729580D01*
X103690420Y-81688940D01*
X103616760Y-81620360D01*
X103512620Y-81516220D01*
X103497380Y-81500980D01*
X103411020Y-81414620D01*
X103342440Y-81340960D01*
X103296720Y-81290160D01*
X103278940Y-81267300D01*
X103278940Y-81267300D01*
X103294180Y-81236820D01*
X103332280Y-81175860D01*
X103388160Y-81089500D01*
X103456740Y-80990440D01*
X103634540Y-80731360D01*
X103538020Y-80487520D01*
X103507540Y-80411320D01*
X103469440Y-80322420D01*
X103441500Y-80256380D01*
X103426260Y-80228440D01*
X103400860Y-80218280D01*
X103332280Y-80203040D01*
X103235760Y-80182720D01*
X103121460Y-80162400D01*
X103009700Y-80142080D01*
X102910640Y-80121760D01*
X102839520Y-80109060D01*
X102806500Y-80101440D01*
X102798880Y-80096360D01*
X102791260Y-80081120D01*
X102788720Y-80048100D01*
X102786180Y-79987140D01*
X102783640Y-79893160D01*
X102783640Y-79753460D01*
X102783640Y-79738220D01*
X102786180Y-79608680D01*
X102788720Y-79502000D01*
X102791260Y-79435960D01*
X102796340Y-79408020D01*
X102796340Y-79408020D01*
X102826820Y-79400400D01*
X102897940Y-79385160D01*
X102997000Y-79367380D01*
X103116380Y-79344520D01*
X103124000Y-79341980D01*
X103240840Y-79319120D01*
X103339900Y-79298800D01*
X103411020Y-79283560D01*
X103438960Y-79273400D01*
X103446580Y-79265780D01*
X103469440Y-79220060D01*
X103502460Y-79146400D01*
X103543100Y-79057500D01*
X103581200Y-78963520D01*
X103614220Y-78879700D01*
X103637080Y-78818740D01*
X103644700Y-78790800D01*
X103642160Y-78788260D01*
X103624380Y-78760320D01*
X103583740Y-78699360D01*
X103527860Y-78615540D01*
X103459280Y-78513940D01*
X103454200Y-78506320D01*
X103385620Y-78407260D01*
X103329740Y-78320900D01*
X103294180Y-78262480D01*
X103278940Y-78234540D01*
X103278940Y-78232000D01*
X103301800Y-78201520D01*
X103352600Y-78145640D01*
X103426260Y-78069440D01*
X103512620Y-77980540D01*
X103540560Y-77955140D01*
X103639620Y-77858620D01*
X103705660Y-77797660D01*
X103748840Y-77764640D01*
X103769160Y-77757020D01*
X103769160Y-77757020D01*
X103799640Y-77774800D01*
X103863140Y-77815440D01*
X103946960Y-77873860D01*
X104048560Y-77942440D01*
X104056180Y-77947520D01*
X104155240Y-78016100D01*
X104239060Y-78071980D01*
X104297480Y-78112620D01*
X104325420Y-78127860D01*
X104327960Y-78127860D01*
X104368600Y-78115160D01*
X104439720Y-78089760D01*
X104528620Y-78056740D01*
X104620060Y-78018640D01*
X104703880Y-77983080D01*
X104767380Y-77955140D01*
X104797860Y-77937360D01*
X104797860Y-77937360D01*
X104808020Y-77901800D01*
X104825800Y-77825600D01*
X104846120Y-77724000D01*
X104871520Y-77602080D01*
X104874060Y-77581760D01*
X104896920Y-77462380D01*
X104914700Y-77363320D01*
X104929940Y-77294740D01*
X104937560Y-77266800D01*
X104952800Y-77264260D01*
X105011220Y-77259180D01*
X105100120Y-77256640D01*
X105209340Y-77256640D01*
X105321100Y-77256640D01*
X105430320Y-77259180D01*
X105524300Y-77261720D01*
X105592880Y-77266800D01*
X105620820Y-77271880D01*
X105620820Y-77274420D01*
X105630980Y-77312520D01*
X105648760Y-77386180D01*
X105669080Y-77490320D01*
X105691940Y-77612240D01*
X105697020Y-77635100D01*
X105719880Y-77751940D01*
X105740200Y-77851000D01*
X105752900Y-77917040D01*
X105760520Y-77944980D01*
X105773220Y-77950060D01*
X105821480Y-77970380D01*
X105900220Y-78003400D01*
X105999280Y-78044040D01*
X106227880Y-78135480D01*
X106509820Y-77944980D01*
X106535220Y-77927200D01*
X106636820Y-77858620D01*
X106718100Y-77802740D01*
X106776520Y-77764640D01*
X106799380Y-77751940D01*
X106801920Y-77751940D01*
X106829860Y-77777340D01*
X106885740Y-77830680D01*
X106961940Y-77904340D01*
X107050840Y-77990700D01*
X107114340Y-78056740D01*
X107193080Y-78135480D01*
X107241340Y-78188820D01*
X107269280Y-78221840D01*
X107276900Y-78242160D01*
X107274360Y-78257400D01*
X107256580Y-78285340D01*
X107215940Y-78346300D01*
X107157520Y-78432660D01*
X107088940Y-78531720D01*
X107033060Y-78615540D01*
X106972100Y-78709520D01*
X106934000Y-78775560D01*
X106918760Y-78808580D01*
X106923840Y-78821280D01*
X106941620Y-78877160D01*
X106977180Y-78960980D01*
X107017820Y-79060040D01*
X107116880Y-79281020D01*
X107261660Y-79308960D01*
X107350560Y-79326740D01*
X107472480Y-79349600D01*
X107591860Y-79372460D01*
X107774740Y-79408020D01*
X107782360Y-80083660D01*
X107754420Y-80096360D01*
X107726480Y-80103980D01*
X107657900Y-80119220D01*
X107561380Y-80139540D01*
X107444540Y-80159860D01*
X107348020Y-80177640D01*
X107248960Y-80197960D01*
X107177840Y-80210660D01*
X107147360Y-80218280D01*
X107137200Y-80228440D01*
X107114340Y-80276700D01*
X107078780Y-80352900D01*
X107038140Y-80444340D01*
X107000040Y-80538320D01*
X106964480Y-80627220D01*
X106941620Y-80693260D01*
X106931460Y-80726280D01*
X106944160Y-80754220D01*
X106982260Y-80812640D01*
X107035600Y-80893920D01*
X107104180Y-80992980D01*
X107170220Y-81089500D01*
X107228640Y-81173320D01*
X107266740Y-81234280D01*
X107284520Y-81262220D01*
X107274360Y-81280000D01*
X107236260Y-81328260D01*
X107162600Y-81404460D01*
X107050840Y-81513680D01*
X107033060Y-81531460D01*
X106946700Y-81615280D01*
X106873040Y-81683860D01*
X106819700Y-81729580D01*
X106796840Y-81747360D01*
X106796840Y-81747360D01*
G37*
X106796840Y-81747360D02*
X106771440Y-81732120D01*
X106713020Y-81696560D01*
X106629200Y-81640680D01*
X106530140Y-81574640D01*
X106431080Y-81508600D01*
X106349800Y-81455260D01*
X106293920Y-81417160D01*
X106268520Y-81404460D01*
X106255820Y-81409540D01*
X106210100Y-81432400D01*
X106141520Y-81467960D01*
X106100880Y-81488280D01*
X106039920Y-81513680D01*
X106006900Y-81521300D01*
X106001820Y-81511140D01*
X105978960Y-81462880D01*
X105943400Y-81381600D01*
X105897680Y-81272380D01*
X105841800Y-81145380D01*
X105785920Y-81010760D01*
X105727500Y-80871060D01*
X105671620Y-80736440D01*
X105623360Y-80617060D01*
X105582720Y-80520540D01*
X105557320Y-80451960D01*
X105547160Y-80424020D01*
X105549700Y-80416400D01*
X105582720Y-80385920D01*
X105636060Y-80345280D01*
X105755440Y-80248760D01*
X105872280Y-80103980D01*
X105943400Y-79938880D01*
X105966260Y-79753460D01*
X105945940Y-79583280D01*
X105879900Y-79420720D01*
X105765600Y-79273400D01*
X105625900Y-79164180D01*
X105463340Y-79095600D01*
X105283000Y-79072740D01*
X105110280Y-79093060D01*
X104942640Y-79159100D01*
X104795320Y-79270860D01*
X104731820Y-79341980D01*
X104645460Y-79491840D01*
X104597200Y-79649320D01*
X104592120Y-79689960D01*
X104599740Y-79865220D01*
X104650540Y-80035400D01*
X104744520Y-80185260D01*
X104874060Y-80309720D01*
X104889300Y-80319880D01*
X104947720Y-80365600D01*
X104988360Y-80396080D01*
X105018840Y-80421480D01*
X104795320Y-80959960D01*
X104759760Y-81043780D01*
X104698800Y-81191100D01*
X104645460Y-81318100D01*
X104602280Y-81419700D01*
X104571800Y-81485740D01*
X104559100Y-81513680D01*
X104559100Y-81516220D01*
X104538780Y-81518760D01*
X104498140Y-81503520D01*
X104421940Y-81467960D01*
X104373680Y-81442560D01*
X104315260Y-81414620D01*
X104289860Y-81404460D01*
X104267000Y-81417160D01*
X104213660Y-81452720D01*
X104132380Y-81506060D01*
X104035860Y-81569560D01*
X103944420Y-81633060D01*
X103860600Y-81688940D01*
X103799640Y-81727040D01*
X103769160Y-81744820D01*
X103764080Y-81744820D01*
X103738680Y-81729580D01*
X103690420Y-81688940D01*
X103616760Y-81620360D01*
X103512620Y-81516220D01*
X103497380Y-81500980D01*
X103411020Y-81414620D01*
X103342440Y-81340960D01*
X103296720Y-81290160D01*
X103278940Y-81267300D01*
X103278940Y-81267300D01*
X103294180Y-81236820D01*
X103332280Y-81175860D01*
X103388160Y-81089500D01*
X103456740Y-80990440D01*
X103634540Y-80731360D01*
X103538020Y-80487520D01*
X103507540Y-80411320D01*
X103469440Y-80322420D01*
X103441500Y-80256380D01*
X103426260Y-80228440D01*
X103400860Y-80218280D01*
X103332280Y-80203040D01*
X103235760Y-80182720D01*
X103121460Y-80162400D01*
X103009700Y-80142080D01*
X102910640Y-80121760D01*
X102839520Y-80109060D01*
X102806500Y-80101440D01*
X102798880Y-80096360D01*
X102791260Y-80081120D01*
X102788720Y-80048100D01*
X102786180Y-79987140D01*
X102783640Y-79893160D01*
X102783640Y-79753460D01*
X102783640Y-79738220D01*
X102786180Y-79608680D01*
X102788720Y-79502000D01*
X102791260Y-79435960D01*
X102796340Y-79408020D01*
X102796340Y-79408020D01*
X102826820Y-79400400D01*
X102897940Y-79385160D01*
X102997000Y-79367380D01*
X103116380Y-79344520D01*
X103124000Y-79341980D01*
X103240840Y-79319120D01*
X103339900Y-79298800D01*
X103411020Y-79283560D01*
X103438960Y-79273400D01*
X103446580Y-79265780D01*
X103469440Y-79220060D01*
X103502460Y-79146400D01*
X103543100Y-79057500D01*
X103581200Y-78963520D01*
X103614220Y-78879700D01*
X103637080Y-78818740D01*
X103644700Y-78790800D01*
X103642160Y-78788260D01*
X103624380Y-78760320D01*
X103583740Y-78699360D01*
X103527860Y-78615540D01*
X103459280Y-78513940D01*
X103454200Y-78506320D01*
X103385620Y-78407260D01*
X103329740Y-78320900D01*
X103294180Y-78262480D01*
X103278940Y-78234540D01*
X103278940Y-78232000D01*
X103301800Y-78201520D01*
X103352600Y-78145640D01*
X103426260Y-78069440D01*
X103512620Y-77980540D01*
X103540560Y-77955140D01*
X103639620Y-77858620D01*
X103705660Y-77797660D01*
X103748840Y-77764640D01*
X103769160Y-77757020D01*
X103769160Y-77757020D01*
X103799640Y-77774800D01*
X103863140Y-77815440D01*
X103946960Y-77873860D01*
X104048560Y-77942440D01*
X104056180Y-77947520D01*
X104155240Y-78016100D01*
X104239060Y-78071980D01*
X104297480Y-78112620D01*
X104325420Y-78127860D01*
X104327960Y-78127860D01*
X104368600Y-78115160D01*
X104439720Y-78089760D01*
X104528620Y-78056740D01*
X104620060Y-78018640D01*
X104703880Y-77983080D01*
X104767380Y-77955140D01*
X104797860Y-77937360D01*
X104797860Y-77937360D01*
X104808020Y-77901800D01*
X104825800Y-77825600D01*
X104846120Y-77724000D01*
X104871520Y-77602080D01*
X104874060Y-77581760D01*
X104896920Y-77462380D01*
X104914700Y-77363320D01*
X104929940Y-77294740D01*
X104937560Y-77266800D01*
X104952800Y-77264260D01*
X105011220Y-77259180D01*
X105100120Y-77256640D01*
X105209340Y-77256640D01*
X105321100Y-77256640D01*
X105430320Y-77259180D01*
X105524300Y-77261720D01*
X105592880Y-77266800D01*
X105620820Y-77271880D01*
X105620820Y-77274420D01*
X105630980Y-77312520D01*
X105648760Y-77386180D01*
X105669080Y-77490320D01*
X105691940Y-77612240D01*
X105697020Y-77635100D01*
X105719880Y-77751940D01*
X105740200Y-77851000D01*
X105752900Y-77917040D01*
X105760520Y-77944980D01*
X105773220Y-77950060D01*
X105821480Y-77970380D01*
X105900220Y-78003400D01*
X105999280Y-78044040D01*
X106227880Y-78135480D01*
X106509820Y-77944980D01*
X106535220Y-77927200D01*
X106636820Y-77858620D01*
X106718100Y-77802740D01*
X106776520Y-77764640D01*
X106799380Y-77751940D01*
X106801920Y-77751940D01*
X106829860Y-77777340D01*
X106885740Y-77830680D01*
X106961940Y-77904340D01*
X107050840Y-77990700D01*
X107114340Y-78056740D01*
X107193080Y-78135480D01*
X107241340Y-78188820D01*
X107269280Y-78221840D01*
X107276900Y-78242160D01*
X107274360Y-78257400D01*
X107256580Y-78285340D01*
X107215940Y-78346300D01*
X107157520Y-78432660D01*
X107088940Y-78531720D01*
X107033060Y-78615540D01*
X106972100Y-78709520D01*
X106934000Y-78775560D01*
X106918760Y-78808580D01*
X106923840Y-78821280D01*
X106941620Y-78877160D01*
X106977180Y-78960980D01*
X107017820Y-79060040D01*
X107116880Y-79281020D01*
X107261660Y-79308960D01*
X107350560Y-79326740D01*
X107472480Y-79349600D01*
X107591860Y-79372460D01*
X107774740Y-79408020D01*
X107782360Y-80083660D01*
X107754420Y-80096360D01*
X107726480Y-80103980D01*
X107657900Y-80119220D01*
X107561380Y-80139540D01*
X107444540Y-80159860D01*
X107348020Y-80177640D01*
X107248960Y-80197960D01*
X107177840Y-80210660D01*
X107147360Y-80218280D01*
X107137200Y-80228440D01*
X107114340Y-80276700D01*
X107078780Y-80352900D01*
X107038140Y-80444340D01*
X107000040Y-80538320D01*
X106964480Y-80627220D01*
X106941620Y-80693260D01*
X106931460Y-80726280D01*
X106944160Y-80754220D01*
X106982260Y-80812640D01*
X107035600Y-80893920D01*
X107104180Y-80992980D01*
X107170220Y-81089500D01*
X107228640Y-81173320D01*
X107266740Y-81234280D01*
X107284520Y-81262220D01*
X107274360Y-81280000D01*
X107236260Y-81328260D01*
X107162600Y-81404460D01*
X107050840Y-81513680D01*
X107033060Y-81531460D01*
X106946700Y-81615280D01*
X106873040Y-81683860D01*
X106819700Y-81729580D01*
X106796840Y-81747360D01*
D15*
X218480835Y-68594702D02*
G75*
G03X218480835Y-68594702I-9000000J0D01*
G01*
X213290835Y-68594702D02*
G75*
G03X213290835Y-68594702I-3810000J0D01*
G01*
X224720834Y-68594702D02*
G75*
G03X224720834Y-68594702I-15239999J0D01*
G01*
X174030835Y-68594702D02*
G75*
G03X174030835Y-68594702I-9000000J0D01*
G01*
X168840835Y-68594702D02*
G75*
G03X168840835Y-68594702I-3810000J0D01*
G01*
X180270834Y-68594702D02*
G75*
G03X180270834Y-68594702I-15239999J0D01*
G01*
X256580835Y-68594702D02*
G75*
G03X256580835Y-68594702I-9000000J0D01*
G01*
X251390835Y-68594702D02*
G75*
G03X251390835Y-68594702I-3810000J0D01*
G01*
X262820834Y-68594702D02*
G75*
G03X262820834Y-68594702I-15239999J0D01*
G01*
X53380835Y-68594702D02*
G75*
G03X53380835Y-68594702I-9000000J0D01*
G01*
X48190835Y-68594702D02*
G75*
G03X48190835Y-68594702I-3810000J0D01*
G01*
X59620834Y-68594702D02*
G75*
G03X59620834Y-68594702I-15239999J0D01*
G01*
X91480835Y-68594702D02*
G75*
G03X91480835Y-68594702I-9000000J0D01*
G01*
X86290835Y-68594702D02*
G75*
G03X86290835Y-68594702I-3810000J0D01*
G01*
X97720834Y-68594702D02*
G75*
G03X97720834Y-68594702I-15239999J0D01*
G01*
X135930835Y-68594702D02*
G75*
G03X135930835Y-68594702I-9000000J0D01*
G01*
X130740835Y-68594702D02*
G75*
G03X130740835Y-68594702I-3810000J0D01*
G01*
X142170834Y-68594702D02*
G75*
G03X142170834Y-68594702I-15239999J0D01*
G01*
X197836609Y-72765043D02*
X197395710Y-73443967D01*
X197303903Y-73497905D01*
X197238031Y-73511907D01*
X197132223Y-73499973D01*
X196972475Y-73396232D01*
X196918537Y-73304425D01*
X196904536Y-73238553D01*
X196916469Y-73132744D01*
X197357368Y-72453820D01*
X195974058Y-72747852D02*
X196453299Y-73059074D01*
X196213679Y-72903463D02*
X196758318Y-72064793D01*
X196760386Y-72236473D01*
X196788389Y-72368217D01*
X196842327Y-72460024D01*
X196147334Y-71781573D02*
X196133332Y-71715702D01*
X196079394Y-71623895D01*
X195879710Y-71494218D01*
X195773901Y-71482284D01*
X195708030Y-71496286D01*
X195616223Y-71550224D01*
X195564352Y-71630097D01*
X195526484Y-71775843D01*
X195694502Y-72566306D01*
X195175324Y-72229148D01*
X159428786Y-83505069D02*
X158987887Y-84183993D01*
X158896080Y-84237931D01*
X158830208Y-84251933D01*
X158724400Y-84239999D01*
X158564652Y-84136258D01*
X158510714Y-84044451D01*
X158496713Y-83978579D01*
X158508646Y-83872770D01*
X158949545Y-83193846D01*
X157566235Y-83487878D02*
X158045476Y-83799100D01*
X157805856Y-83643489D02*
X158350495Y-82804819D01*
X158352563Y-82976499D01*
X158380566Y-83108243D01*
X158434504Y-83200050D01*
X157591698Y-82312050D02*
X157511824Y-82260179D01*
X157406015Y-82248246D01*
X157340143Y-82262247D01*
X157248336Y-82316185D01*
X157104659Y-82449997D01*
X156974983Y-82649681D01*
X156911179Y-82835363D01*
X156899245Y-82941171D01*
X156913246Y-83007043D01*
X156967185Y-83098850D01*
X157047059Y-83150721D01*
X157152867Y-83162654D01*
X157218739Y-83148653D01*
X157310546Y-83094715D01*
X157454223Y-82960903D01*
X157583900Y-82761219D01*
X157647704Y-82575537D01*
X157659637Y-82469729D01*
X157645636Y-82403857D01*
X157591698Y-82312050D01*
X255486609Y-79415043D02*
X255045710Y-80093967D01*
X254953903Y-80147905D01*
X254888031Y-80161907D01*
X254782223Y-80149973D01*
X254622475Y-80046232D01*
X254568537Y-79954425D01*
X254554536Y-79888553D01*
X254566469Y-79782744D01*
X255007368Y-79103820D01*
X253624058Y-79397852D02*
X254103299Y-79709074D01*
X253863679Y-79553463D02*
X254408318Y-78714793D01*
X254410386Y-78886473D01*
X254438389Y-79018217D01*
X254492327Y-79110024D01*
X253889141Y-78377635D02*
X253369963Y-78040477D01*
X253442039Y-78541517D01*
X253322229Y-78463711D01*
X253216420Y-78451778D01*
X253150548Y-78465779D01*
X253058741Y-78519718D01*
X252929065Y-78719401D01*
X252917131Y-78825210D01*
X252931133Y-78891082D01*
X252985071Y-78982889D01*
X253224692Y-79138500D01*
X253330500Y-79150434D01*
X253396372Y-79136432D01*
X32912242Y-75230691D02*
X32471344Y-75909615D01*
X32379537Y-75963553D01*
X32313665Y-75977555D01*
X32207856Y-75965621D01*
X32048109Y-75861880D01*
X31994171Y-75770073D01*
X31980169Y-75704201D01*
X31992103Y-75598393D01*
X32433001Y-74919469D01*
X32113508Y-74711987D02*
X31594331Y-74374830D01*
X31666407Y-74875870D01*
X31546596Y-74798064D01*
X31440788Y-74786130D01*
X31374916Y-74800131D01*
X31283108Y-74854070D01*
X31153432Y-75053754D01*
X31141499Y-75159562D01*
X31155500Y-75225434D01*
X31209438Y-75317241D01*
X31449059Y-75472852D01*
X31554868Y-75484786D01*
X31620739Y-75470785D01*
X76479419Y-83245717D02*
X76038521Y-83924641D01*
X75946714Y-83978579D01*
X75880842Y-83992581D01*
X75775033Y-83980647D01*
X75615286Y-83876906D01*
X75561348Y-83785099D01*
X75547346Y-83719227D01*
X75559280Y-83613419D01*
X76000178Y-82934495D01*
X75201444Y-82415791D02*
X75600812Y-82675143D01*
X75381397Y-83100445D01*
X75367395Y-83034573D01*
X75313457Y-82942766D01*
X75113773Y-82813090D01*
X75007965Y-82801156D01*
X74942093Y-82815157D01*
X74850285Y-82869096D01*
X74720609Y-83068780D01*
X74708676Y-83174588D01*
X74722677Y-83240460D01*
X74776615Y-83332267D01*
X74976299Y-83461943D01*
X75082108Y-83473877D01*
X75147980Y-83459875D01*
X114662242Y-73455691D02*
X114221344Y-74134615D01*
X114129537Y-74188553D01*
X114063665Y-74202555D01*
X113957856Y-74190621D01*
X113798109Y-74086880D01*
X113744171Y-73995073D01*
X113730169Y-73929201D01*
X113742103Y-73823393D01*
X114183001Y-73144469D01*
X113430408Y-73166741D02*
X113536217Y-73178675D01*
X113602089Y-73164674D01*
X113693896Y-73110736D01*
X113719831Y-73070799D01*
X113731764Y-72964990D01*
X113717763Y-72899119D01*
X113663825Y-72807312D01*
X113504077Y-72703570D01*
X113398269Y-72691637D01*
X113332397Y-72705638D01*
X113240590Y-72759576D01*
X113214655Y-72799513D01*
X113202721Y-72905321D01*
X113216723Y-72971193D01*
X113270661Y-73063000D01*
X113430408Y-73166741D01*
X113484346Y-73258548D01*
X113498348Y-73324420D01*
X113486414Y-73430230D01*
X113382673Y-73589976D01*
X113290866Y-73643914D01*
X113224994Y-73657916D01*
X113119186Y-73645982D01*
X112959438Y-73542241D01*
X112905500Y-73450434D01*
X112891499Y-73384562D01*
X112903432Y-73278754D01*
X113007173Y-73119007D01*
X113098981Y-73065068D01*
X113164852Y-73051067D01*
X113270661Y-73063000D01*
M02*
