G04 #@! TF.FileFunction,Soldermask,Bot*
%FSLAX46Y46*%
G04 Gerber Fmt 4.6, Leading zero omitted, Abs format (unit mm)*
G04 Created by KiCad (PCBNEW 4.0.6+dfsg1-1) date Sun Apr  1 15:15:07 2018*
%MOMM*%
%LPD*%
G01*
G04 APERTURE LIST*
%ADD10C,0.100000*%
%ADD11C,4.800000*%
%ADD12C,1.543000*%
%ADD13R,2.100000X2.100000*%
%ADD14O,2.100000X2.100000*%
%ADD15C,2.400000*%
%ADD16C,7.900000*%
%ADD17C,4.900000*%
%ADD18R,2.127200X2.127200*%
%ADD19O,2.127200X2.127200*%
%ADD20C,2.800000*%
%ADD21R,2.800000X2.800000*%
G04 APERTURE END LIST*
D10*
D11*
X30480000Y-88265000D03*
X262890000Y-55880000D03*
X262890000Y-88265000D03*
X30480000Y-55880000D03*
D12*
X51562000Y-58801000D03*
X55626000Y-79502000D03*
X55626000Y-65786000D03*
X197739000Y-84772500D03*
X195961000Y-86296500D03*
X178943000Y-83248500D03*
X51460400Y-76606400D03*
X135890000Y-86614000D03*
X186753500Y-56515000D03*
X174117000Y-88963500D03*
X191897000Y-73723500D03*
D13*
X254635000Y-60071000D03*
D14*
X257175000Y-60071000D03*
X259715000Y-60071000D03*
X262255000Y-60071000D03*
X264795000Y-60071000D03*
D15*
X41197092Y-60168592D03*
X39033665Y-75767720D03*
X36439216Y-72879821D03*
X35457154Y-69118381D03*
X35937038Y-65470661D03*
X38016404Y-62229375D03*
X45010367Y-59611249D03*
X48649987Y-60663517D03*
X51566293Y-63174145D03*
X53156487Y-66613765D03*
X53183740Y-70465837D03*
X51633897Y-73918326D03*
X48742118Y-76459766D03*
X45119607Y-77561544D03*
D16*
X44450000Y-68580000D03*
D15*
X79297092Y-60168592D03*
X77133665Y-75767720D03*
X74539216Y-72879821D03*
X73557154Y-69118381D03*
X74037038Y-65470661D03*
X76116404Y-62229375D03*
X83110367Y-59611249D03*
X86749987Y-60663517D03*
X89666293Y-63174145D03*
X91256487Y-66613765D03*
X91283740Y-70465837D03*
X89733897Y-73918326D03*
X86842118Y-76459766D03*
X83219607Y-77561544D03*
D16*
X82550000Y-68580000D03*
D15*
X123747092Y-60168592D03*
X121583665Y-75767720D03*
X118989216Y-72879821D03*
X118007154Y-69118381D03*
X118487038Y-65470661D03*
X120566404Y-62229375D03*
X127560367Y-59611249D03*
X131199987Y-60663517D03*
X134116293Y-63174145D03*
X135706487Y-66613765D03*
X135733740Y-70465837D03*
X134183897Y-73918326D03*
X131292118Y-76459766D03*
X127669607Y-77561544D03*
D16*
X127000000Y-68580000D03*
D15*
X161847092Y-60168592D03*
X159683665Y-75767720D03*
X157089216Y-72879821D03*
X156107154Y-69118381D03*
X156587038Y-65470661D03*
X158666404Y-62229375D03*
X165660367Y-59611249D03*
X169299987Y-60663517D03*
X172216293Y-63174145D03*
X173806487Y-66613765D03*
X173833740Y-70465837D03*
X172283897Y-73918326D03*
X169392118Y-76459766D03*
X165769607Y-77561544D03*
D16*
X165100000Y-68580000D03*
D15*
X206297092Y-60168592D03*
X204133665Y-75767720D03*
X201539216Y-72879821D03*
X200557154Y-69118381D03*
X201037038Y-65470661D03*
X203116404Y-62229375D03*
X210110367Y-59611249D03*
X213749987Y-60663517D03*
X216666293Y-63174145D03*
X218256487Y-66613765D03*
X218283740Y-70465837D03*
X216733897Y-73918326D03*
X213842118Y-76459766D03*
X210219607Y-77561544D03*
D16*
X209550000Y-68580000D03*
D15*
X244397092Y-60168592D03*
X242233665Y-75767720D03*
X239639216Y-72879821D03*
X238657154Y-69118381D03*
X239137038Y-65470661D03*
X241216404Y-62229375D03*
X248210367Y-59611249D03*
X251849987Y-60663517D03*
X254766293Y-63174145D03*
X256356487Y-66613765D03*
X256383740Y-70465837D03*
X254833897Y-73918326D03*
X251942118Y-76459766D03*
X248319607Y-77561544D03*
D16*
X247650000Y-68580000D03*
D17*
X204946000Y-88194000D03*
D18*
X258346000Y-86894000D03*
D19*
X258346000Y-89434000D03*
X255806000Y-86894000D03*
X255806000Y-89434000D03*
X253266000Y-86894000D03*
X253266000Y-89434000D03*
X250726000Y-86894000D03*
X250726000Y-89434000D03*
X248186000Y-86894000D03*
X248186000Y-89434000D03*
X245646000Y-86894000D03*
X245646000Y-89434000D03*
X243106000Y-86894000D03*
X243106000Y-89434000D03*
X240566000Y-86894000D03*
X240566000Y-89434000D03*
X238026000Y-86894000D03*
X238026000Y-89434000D03*
X235486000Y-86894000D03*
X235486000Y-89434000D03*
X232946000Y-86894000D03*
X232946000Y-89434000D03*
X230406000Y-86894000D03*
X230406000Y-89434000D03*
X227866000Y-86894000D03*
X227866000Y-89434000D03*
X225326000Y-86894000D03*
X225326000Y-89434000D03*
X222786000Y-86894000D03*
X222786000Y-89434000D03*
X220246000Y-86894000D03*
X220246000Y-89434000D03*
X217706000Y-86894000D03*
X217706000Y-89434000D03*
X215166000Y-86894000D03*
X215166000Y-89434000D03*
X212626000Y-86894000D03*
X212626000Y-89434000D03*
X210086000Y-86894000D03*
X210086000Y-89434000D03*
D11*
X30480000Y-79019000D03*
D20*
X54889400Y-55295800D03*
X48280000Y-55280000D03*
X51580000Y-55280000D03*
D11*
X63480000Y-55805000D03*
D21*
X58580000Y-55280000D03*
M02*
